G75*
%MOIN*%
%OFA0B0*%
%FSLAX24Y24*%
%IPPOS*%
%LPD*%
%AMOC8*
5,1,8,0,0,1.08239X$1,22.5*
%
%ADD10C,0.0000*%
%ADD11C,0.0060*%
%ADD12C,0.0240*%
%ADD13C,0.0100*%
%ADD14C,0.0030*%
%ADD15R,0.0118X0.0059*%
%ADD16R,0.0118X0.0118*%
%ADD17C,0.0040*%
%ADD18R,0.0059X0.0118*%
%ADD19R,0.0084X0.0014*%
%ADD20R,0.0070X0.0014*%
%ADD21R,0.0098X0.0014*%
%ADD22R,0.0252X0.0014*%
%ADD23R,0.0154X0.0014*%
%ADD24R,0.0182X0.0014*%
%ADD25R,0.0042X0.0014*%
%ADD26R,0.0042X0.0014*%
%ADD27R,0.0224X0.0014*%
%ADD28R,0.0196X0.0014*%
%ADD29R,0.0028X0.0014*%
%ADD30R,0.0056X0.0014*%
%ADD31R,0.0056X0.0014*%
%ADD32R,0.0098X0.0014*%
%ADD33R,0.0196X0.0014*%
%ADD34R,0.0056X0.0014*%
%ADD35R,0.0042X0.0014*%
%ADD36R,0.0042X0.0014*%
%ADD37R,0.0182X0.0014*%
%ADD38R,0.0224X0.0014*%
%ADD39R,0.0028X0.0014*%
%ADD40R,0.0056X0.0014*%
%ADD41R,0.0098X0.0014*%
%ADD42R,0.0252X0.0014*%
%ADD43R,0.0210X0.0014*%
%ADD44R,0.0098X0.0014*%
%ADD45R,0.0084X0.0014*%
%ADD46R,0.0238X0.0014*%
%ADD47R,0.0084X0.0014*%
%ADD48R,0.0196X0.0014*%
%ADD49R,0.0182X0.0014*%
%ADD50R,0.0294X0.0014*%
%ADD51R,0.0168X0.0014*%
%ADD52R,0.0210X0.0014*%
%ADD53R,0.0182X0.0014*%
%ADD54R,0.0238X0.0014*%
%ADD55R,0.0294X0.0014*%
%ADD56R,0.0014X0.0014*%
%ADD57R,0.0238X0.0014*%
%ADD58R,0.0028X0.0014*%
%ADD59R,0.0350X0.0014*%
%ADD60R,0.0336X0.0014*%
%ADD61R,0.0448X0.0014*%
%ADD62R,0.0028X0.0014*%
%ADD63R,0.0112X0.0014*%
%ADD64R,0.0420X0.0014*%
%ADD65R,0.0518X0.0014*%
%ADD66R,0.0504X0.0014*%
%ADD67R,0.0574X0.0014*%
%ADD68R,0.0560X0.0014*%
%ADD69R,0.0630X0.0014*%
%ADD70R,0.0616X0.0014*%
%ADD71R,0.0672X0.0014*%
%ADD72R,0.0168X0.0014*%
%ADD73R,0.0140X0.0014*%
%ADD74R,0.0644X0.0014*%
%ADD75R,0.0728X0.0014*%
%ADD76R,0.0070X0.0014*%
%ADD77R,0.0140X0.0014*%
%ADD78R,0.0700X0.0014*%
%ADD79R,0.0756X0.0014*%
%ADD80R,0.0742X0.0014*%
%ADD81R,0.0798X0.0014*%
%ADD82R,0.0784X0.0014*%
%ADD83R,0.0840X0.0014*%
%ADD84R,0.0392X0.0014*%
%ADD85R,0.0112X0.0014*%
%ADD86R,0.0868X0.0014*%
%ADD87R,0.0896X0.0014*%
%ADD88R,0.0154X0.0014*%
%ADD89R,0.0924X0.0014*%
%ADD90R,0.0126X0.0014*%
%ADD91R,0.0952X0.0014*%
%ADD92R,0.0980X0.0014*%
%ADD93R,0.0224X0.0014*%
%ADD94R,0.0154X0.0014*%
%ADD95R,0.1008X0.0014*%
%ADD96R,0.0322X0.0014*%
%ADD97R,0.0308X0.0014*%
%ADD98R,0.0280X0.0014*%
%ADD99R,0.0308X0.0014*%
%ADD100R,0.0308X0.0014*%
%ADD101R,0.0532X0.0014*%
%ADD102R,0.0266X0.0014*%
%ADD103R,0.0378X0.0014*%
%ADD104R,0.0364X0.0014*%
%ADD105R,0.0350X0.0014*%
%ADD106R,0.0168X0.0014*%
%ADD107R,0.0168X0.0014*%
%ADD108R,0.0280X0.0014*%
%ADD109R,0.0546X0.0014*%
%ADD110R,0.0420X0.0014*%
%ADD111R,0.0378X0.0014*%
%ADD112R,0.0434X0.0014*%
%ADD113R,0.0434X0.0014*%
%ADD114R,0.0126X0.0014*%
%ADD115R,0.0462X0.0014*%
%ADD116R,0.0504X0.0014*%
%ADD117R,0.0574X0.0014*%
%ADD118R,0.0112X0.0014*%
%ADD119R,0.0532X0.0014*%
%ADD120R,0.0574X0.0014*%
%ADD121R,0.0546X0.0014*%
%ADD122R,0.0224X0.0014*%
%ADD123R,0.0364X0.0014*%
%ADD124R,0.0588X0.0014*%
%ADD125R,0.0602X0.0014*%
%ADD126R,0.0602X0.0014*%
%ADD127R,0.0252X0.0014*%
%ADD128R,0.0392X0.0014*%
%ADD129R,0.0616X0.0014*%
%ADD130R,0.0112X0.0014*%
%ADD131R,0.1162X0.0014*%
%ADD132R,0.0406X0.0014*%
%ADD133R,0.1176X0.0014*%
%ADD134R,0.1190X0.0014*%
%ADD135R,0.1204X0.0014*%
%ADD136R,0.0644X0.0014*%
%ADD137R,0.0434X0.0014*%
%ADD138R,0.0336X0.0014*%
%ADD139R,0.0154X0.0014*%
%ADD140R,0.0644X0.0014*%
%ADD141R,0.0406X0.0014*%
%ADD142R,0.0294X0.0014*%
%ADD143R,0.0392X0.0014*%
%ADD144R,0.0434X0.0014*%
%ADD145R,0.0322X0.0014*%
%ADD146R,0.0308X0.0014*%
%ADD147R,0.0322X0.0014*%
%ADD148R,0.0658X0.0014*%
%ADD149R,0.1260X0.0014*%
%ADD150R,0.0658X0.0014*%
%ADD151R,0.1260X0.0014*%
%ADD152R,0.0378X0.0014*%
%ADD153R,0.0266X0.0014*%
%ADD154R,0.0294X0.0014*%
%ADD155R,0.0994X0.0014*%
%ADD156R,0.0560X0.0014*%
%ADD157R,0.0406X0.0014*%
%ADD158R,0.0546X0.0014*%
%ADD159R,0.0266X0.0014*%
%ADD160R,0.0476X0.0014*%
%ADD161R,0.0364X0.0014*%
%ADD162R,0.0252X0.0014*%
%ADD163R,0.0266X0.0014*%
%ADD164R,0.1148X0.0014*%
%ADD165R,0.1120X0.0014*%
%ADD166R,0.1092X0.0014*%
%ADD167R,0.0238X0.0014*%
%ADD168R,0.1092X0.0014*%
%ADD169R,0.1064X0.0014*%
%ADD170R,0.1036X0.0014*%
%ADD171R,0.1008X0.0014*%
%ADD172R,0.0938X0.0014*%
%ADD173R,0.0910X0.0014*%
%ADD174R,0.0882X0.0014*%
%ADD175R,0.0854X0.0014*%
%ADD176R,0.0812X0.0014*%
%ADD177R,0.0742X0.0014*%
%ADD178R,0.0658X0.0014*%
%ADD179R,0.0730X0.0008*%
%ADD180R,0.0722X0.0008*%
%ADD181R,0.0788X0.0008*%
%ADD182R,0.0738X0.0008*%
%ADD183R,0.0158X0.0008*%
%ADD184R,0.0158X0.0008*%
%ADD185R,0.0813X0.0008*%
%ADD186R,0.0780X0.0008*%
%ADD187R,0.0821X0.0008*%
%ADD188R,0.0838X0.0008*%
%ADD189R,0.0805X0.0008*%
%ADD190R,0.0158X0.0008*%
%ADD191R,0.0158X0.0008*%
%ADD192R,0.0854X0.0008*%
%ADD193R,0.0829X0.0008*%
%ADD194R,0.0158X0.0008*%
%ADD195R,0.0158X0.0008*%
%ADD196R,0.0854X0.0008*%
%ADD197R,0.0863X0.0008*%
%ADD198R,0.0846X0.0008*%
%ADD199R,0.0871X0.0008*%
%ADD200R,0.0879X0.0008*%
%ADD201R,0.0854X0.0008*%
%ADD202R,0.0887X0.0008*%
%ADD203R,0.0887X0.0008*%
%ADD204R,0.0871X0.0008*%
%ADD205R,0.0896X0.0008*%
%ADD206R,0.0904X0.0008*%
%ADD207R,0.0879X0.0008*%
%ADD208R,0.0904X0.0008*%
%ADD209R,0.0912X0.0008*%
%ADD210R,0.0896X0.0008*%
%ADD211R,0.0921X0.0008*%
%ADD212R,0.0921X0.0008*%
%ADD213R,0.0904X0.0008*%
%ADD214R,0.0921X0.0008*%
%ADD215R,0.0929X0.0008*%
%ADD216R,0.0929X0.0008*%
%ADD217R,0.0937X0.0008*%
%ADD218R,0.0937X0.0008*%
%ADD219R,0.0921X0.0008*%
%ADD220R,0.0946X0.0008*%
%ADD221R,0.0946X0.0008*%
%ADD222R,0.0929X0.0008*%
%ADD223R,0.0954X0.0008*%
%ADD224R,0.0954X0.0008*%
%ADD225R,0.0954X0.0008*%
%ADD226R,0.0962X0.0008*%
%ADD227R,0.0962X0.0008*%
%ADD228R,0.0970X0.0008*%
%ADD229R,0.0970X0.0008*%
%ADD230R,0.0979X0.0008*%
%ADD231R,0.0979X0.0008*%
%ADD232R,0.0979X0.0008*%
%ADD233R,0.0241X0.0008*%
%ADD234R,0.0232X0.0008*%
%ADD235R,0.0224X0.0008*%
%ADD236R,0.0241X0.0008*%
%ADD237R,0.0216X0.0008*%
%ADD238R,0.0207X0.0008*%
%ADD239R,0.0216X0.0008*%
%ADD240R,0.0199X0.0008*%
%ADD241R,0.0199X0.0008*%
%ADD242R,0.0158X0.0008*%
%ADD243R,0.0191X0.0008*%
%ADD244R,0.0199X0.0008*%
%ADD245R,0.0158X0.0008*%
%ADD246R,0.0199X0.0008*%
%ADD247R,0.0191X0.0008*%
%ADD248R,0.0191X0.0008*%
%ADD249R,0.0182X0.0008*%
%ADD250R,0.0174X0.0008*%
%ADD251R,0.0182X0.0008*%
%ADD252R,0.0174X0.0008*%
%ADD253R,0.0174X0.0008*%
%ADD254R,0.0182X0.0008*%
%ADD255R,0.0174X0.0008*%
%ADD256R,0.0174X0.0008*%
%ADD257R,0.0166X0.0008*%
%ADD258R,0.0166X0.0008*%
%ADD259R,0.0166X0.0008*%
%ADD260R,0.0166X0.0008*%
%ADD261R,0.0166X0.0008*%
%ADD262R,0.0166X0.0008*%
%ADD263R,0.0182X0.0008*%
%ADD264R,0.0207X0.0008*%
%ADD265R,0.0216X0.0008*%
%ADD266R,0.0207X0.0008*%
%ADD267R,0.0232X0.0008*%
%ADD268R,0.0265X0.0008*%
%ADD269R,0.0257X0.0008*%
%ADD270R,0.0863X0.0008*%
%ADD271R,0.0970X0.0008*%
%ADD272R,0.0962X0.0008*%
%ADD273R,0.0846X0.0008*%
%ADD274R,0.0954X0.0008*%
%ADD275R,0.0846X0.0008*%
%ADD276R,0.0954X0.0008*%
%ADD277R,0.0838X0.0008*%
%ADD278R,0.0946X0.0008*%
%ADD279R,0.0829X0.0008*%
%ADD280R,0.0937X0.0008*%
%ADD281R,0.0813X0.0008*%
%ADD282R,0.0805X0.0008*%
%ADD283R,0.0805X0.0008*%
%ADD284R,0.0829X0.0008*%
%ADD285R,0.0970X0.0008*%
%ADD286R,0.0854X0.0008*%
%ADD287R,0.0249X0.0008*%
%ADD288R,0.0241X0.0008*%
%ADD289R,0.0191X0.0008*%
%ADD290R,0.0166X0.0008*%
%ADD291R,0.0166X0.0008*%
%ADD292R,0.0174X0.0008*%
%ADD293R,0.0174X0.0008*%
%ADD294R,0.0182X0.0008*%
%ADD295R,0.0191X0.0008*%
%ADD296R,0.0191X0.0008*%
%ADD297R,0.0199X0.0008*%
%ADD298R,0.0199X0.0008*%
%ADD299R,0.0216X0.0008*%
%ADD300R,0.0224X0.0008*%
%ADD301R,0.0224X0.0008*%
%ADD302R,0.0216X0.0008*%
%ADD303R,0.0241X0.0008*%
%ADD304R,0.0249X0.0008*%
%ADD305R,0.0995X0.0008*%
%ADD306R,0.0987X0.0008*%
%ADD307R,0.0979X0.0008*%
%ADD308R,0.0970X0.0008*%
%ADD309R,0.0929X0.0008*%
%ADD310R,0.0921X0.0008*%
%ADD311R,0.0946X0.0008*%
%ADD312R,0.0912X0.0008*%
%ADD313R,0.0896X0.0008*%
%ADD314R,0.0904X0.0008*%
%ADD315R,0.0887X0.0008*%
%ADD316R,0.0921X0.0008*%
%ADD317R,0.0904X0.0008*%
%ADD318R,0.0879X0.0008*%
%ADD319R,0.0879X0.0008*%
%ADD320R,0.0863X0.0008*%
%ADD321R,0.0871X0.0008*%
%ADD322R,0.0871X0.0008*%
%ADD323R,0.0829X0.0008*%
%ADD324R,0.0821X0.0008*%
%ADD325R,0.0854X0.0008*%
%ADD326R,0.0838X0.0008*%
%ADD327R,0.0796X0.0008*%
%ADD328R,0.0829X0.0008*%
%ADD329R,0.0771X0.0008*%
%ADD330R,0.0796X0.0008*%
%ADD331R,0.0722X0.0008*%
%ADD332R,0.0697X0.0008*%
%ADD333R,0.0738X0.0008*%
%ADD334R,0.0730X0.0008*%
%ADD335R,0.1675X0.0008*%
%ADD336R,0.1675X0.0008*%
%ADD337R,0.1675X0.0008*%
%ADD338R,0.1675X0.0008*%
%ADD339R,0.0373X0.0008*%
%ADD340R,0.0373X0.0008*%
%ADD341R,0.0373X0.0008*%
%ADD342R,0.0373X0.0008*%
%ADD343R,0.0481X0.0008*%
%ADD344R,0.0481X0.0008*%
%ADD345R,0.0481X0.0008*%
%ADD346R,0.0498X0.0008*%
%ADD347R,0.0498X0.0008*%
%ADD348R,0.0506X0.0008*%
%ADD349R,0.0514X0.0008*%
%ADD350R,0.0514X0.0008*%
%ADD351R,0.0514X0.0008*%
%ADD352R,0.0531X0.0008*%
%ADD353R,0.0531X0.0008*%
%ADD354R,0.0531X0.0008*%
%ADD355R,0.0008X0.0008*%
%ADD356R,0.0008X0.0008*%
%ADD357R,0.0547X0.0008*%
%ADD358R,0.0033X0.0008*%
%ADD359R,0.0025X0.0008*%
%ADD360R,0.0547X0.0008*%
%ADD361R,0.0050X0.0008*%
%ADD362R,0.0050X0.0008*%
%ADD363R,0.0547X0.0008*%
%ADD364R,0.0066X0.0008*%
%ADD365R,0.0075X0.0008*%
%ADD366R,0.0091X0.0008*%
%ADD367R,0.0100X0.0008*%
%ADD368R,0.0116X0.0008*%
%ADD369R,0.0116X0.0008*%
%ADD370R,0.0556X0.0008*%
%ADD371R,0.0133X0.0008*%
%ADD372R,0.0133X0.0008*%
%ADD373R,0.0564X0.0008*%
%ADD374R,0.0564X0.0008*%
%ADD375R,0.0564X0.0008*%
%ADD376R,0.0216X0.0008*%
%ADD377R,0.0224X0.0008*%
%ADD378R,0.0241X0.0008*%
%ADD379R,0.0249X0.0008*%
%ADD380R,0.0581X0.0008*%
%ADD381R,0.0265X0.0008*%
%ADD382R,0.0274X0.0008*%
%ADD383R,0.0581X0.0008*%
%ADD384R,0.0282X0.0008*%
%ADD385R,0.0282X0.0008*%
%ADD386R,0.0581X0.0008*%
%ADD387R,0.0307X0.0008*%
%ADD388R,0.0307X0.0008*%
%ADD389R,0.0332X0.0008*%
%ADD390R,0.0332X0.0008*%
%ADD391R,0.0357X0.0008*%
%ADD392R,0.0348X0.0008*%
%ADD393R,0.0597X0.0008*%
%ADD394R,0.0365X0.0008*%
%ADD395R,0.0680X0.0008*%
%ADD396R,0.0390X0.0008*%
%ADD397R,0.0398X0.0008*%
%ADD398R,0.0763X0.0008*%
%ADD399R,0.0415X0.0008*%
%ADD400R,0.0423X0.0008*%
%ADD401R,0.0829X0.0008*%
%ADD402R,0.0440X0.0008*%
%ADD403R,0.0431X0.0008*%
%ADD404R,0.0456X0.0008*%
%ADD405R,0.0456X0.0008*%
%ADD406R,0.1029X0.0008*%
%ADD407R,0.0506X0.0008*%
%ADD408R,0.1078X0.0008*%
%ADD409R,0.0523X0.0008*%
%ADD410R,0.1128X0.0008*%
%ADD411R,0.0539X0.0008*%
%ADD412R,0.1178X0.0008*%
%ADD413R,0.0572X0.0008*%
%ADD414R,0.1228X0.0008*%
%ADD415R,0.0589X0.0008*%
%ADD416R,0.0589X0.0008*%
%ADD417R,0.1277X0.0008*%
%ADD418R,0.0605X0.0008*%
%ADD419R,0.2530X0.0008*%
%ADD420R,0.2538X0.0008*%
%ADD421R,0.2521X0.0008*%
%ADD422R,0.2513X0.0008*%
%ADD423R,0.2505X0.0008*%
%ADD424R,0.2488X0.0008*%
%ADD425R,0.2488X0.0008*%
%ADD426R,0.2488X0.0008*%
%ADD427R,0.2472X0.0008*%
%ADD428R,0.2472X0.0008*%
%ADD429R,0.2472X0.0008*%
%ADD430R,0.2455X0.0008*%
%ADD431R,0.2455X0.0008*%
%ADD432R,0.2439X0.0008*%
%ADD433R,0.2439X0.0008*%
%ADD434R,0.2439X0.0008*%
%ADD435R,0.2422X0.0008*%
%ADD436R,0.2422X0.0008*%
%ADD437R,0.2414X0.0008*%
%ADD438R,0.2405X0.0008*%
%ADD439R,0.2389X0.0008*%
%ADD440R,0.2389X0.0008*%
%ADD441R,0.2372X0.0008*%
%ADD442R,0.1062X0.0008*%
%ADD443R,0.1053X0.0008*%
%ADD444R,0.0995X0.0008*%
%ADD445R,0.0887X0.0008*%
%ADD446R,0.0871X0.0008*%
%ADD447R,0.0805X0.0008*%
%ADD448R,0.0788X0.0008*%
%ADD449R,0.0780X0.0008*%
%ADD450R,0.0763X0.0008*%
%ADD451R,0.0746X0.0008*%
%ADD452R,0.0722X0.0008*%
%ADD453R,0.0713X0.0008*%
%ADD454R,0.0705X0.0008*%
%ADD455R,0.0688X0.0008*%
%ADD456R,0.0672X0.0008*%
%ADD457R,0.0664X0.0008*%
%ADD458R,0.0664X0.0008*%
%ADD459R,0.0647X0.0008*%
%ADD460R,0.0647X0.0008*%
%ADD461R,0.0639X0.0008*%
%ADD462R,0.0639X0.0008*%
%ADD463R,0.0630X0.0008*%
%ADD464R,0.0622X0.0008*%
%ADD465R,0.0614X0.0008*%
%ADD466R,0.0605X0.0008*%
%ADD467R,0.0464X0.0008*%
%ADD468R,0.0556X0.0008*%
%ADD469R,0.0597X0.0008*%
%ADD470R,0.0589X0.0008*%
%ADD471R,0.0630X0.0008*%
%ADD472R,0.0697X0.0008*%
%ADD473R,0.0572X0.0008*%
%ADD474R,0.0763X0.0008*%
%ADD475R,0.0572X0.0008*%
%ADD476R,0.0556X0.0008*%
%ADD477R,0.0008X0.0008*%
%ADD478R,0.0041X0.0008*%
%ADD479R,0.0017X0.0008*%
%ADD480R,0.0995X0.0008*%
%ADD481R,0.0066X0.0008*%
%ADD482R,0.0539X0.0008*%
%ADD483R,0.1045X0.0008*%
%ADD484R,0.0100X0.0008*%
%ADD485R,0.0083X0.0008*%
%ADD486R,0.0539X0.0008*%
%ADD487R,0.1078X0.0008*%
%ADD488R,0.0124X0.0008*%
%ADD489R,0.0108X0.0008*%
%ADD490R,0.0539X0.0008*%
%ADD491R,0.1111X0.0008*%
%ADD492R,0.0149X0.0008*%
%ADD493R,0.0133X0.0008*%
%ADD494R,0.0523X0.0008*%
%ADD495R,0.1145X0.0008*%
%ADD496R,0.0523X0.0008*%
%ADD497R,0.1186X0.0008*%
%ADD498R,0.1219X0.0008*%
%ADD499R,0.0241X0.0008*%
%ADD500R,0.0224X0.0008*%
%ADD501R,0.1244X0.0008*%
%ADD502R,0.1277X0.0008*%
%ADD503R,0.0290X0.0008*%
%ADD504R,0.0282X0.0008*%
%ADD505R,0.1310X0.0008*%
%ADD506R,0.0323X0.0008*%
%ADD507R,0.0299X0.0008*%
%ADD508R,0.0498X0.0008*%
%ADD509R,0.1344X0.0008*%
%ADD510R,0.0498X0.0008*%
%ADD511R,0.1377X0.0008*%
%ADD512R,0.0854X0.0008*%
%ADD513R,0.1393X0.0008*%
%ADD514R,0.1427X0.0008*%
%ADD515R,0.0838X0.0008*%
%ADD516R,0.1443X0.0008*%
%ADD517R,0.1476X0.0008*%
%ADD518R,0.1501X0.0008*%
%ADD519R,0.0821X0.0008*%
%ADD520R,0.1526X0.0008*%
%ADD521R,0.0821X0.0008*%
%ADD522R,0.1543X0.0008*%
%ADD523R,0.1576X0.0008*%
%ADD524R,0.1593X0.0008*%
%ADD525R,0.0805X0.0008*%
%ADD526R,0.1626X0.0008*%
%ADD527R,0.0796X0.0008*%
%ADD528R,0.1642X0.0008*%
%ADD529R,0.0796X0.0008*%
%ADD530R,0.1659X0.0008*%
%ADD531R,0.1692X0.0008*%
%ADD532R,0.1709X0.0008*%
%ADD533R,0.0780X0.0008*%
%ADD534R,0.1725X0.0008*%
%ADD535R,0.1742X0.0008*%
%ADD536R,0.0780X0.0008*%
%ADD537R,0.1758X0.0008*%
%ADD538R,0.0771X0.0008*%
%ADD539R,0.1792X0.0008*%
%ADD540R,0.1808X0.0008*%
%ADD541R,0.0771X0.0008*%
%ADD542R,0.1825X0.0008*%
%ADD543R,0.0771X0.0008*%
%ADD544R,0.1841X0.0008*%
%ADD545R,0.1858X0.0008*%
%ADD546R,0.1874X0.0008*%
%ADD547R,0.1891X0.0008*%
%ADD548R,0.0755X0.0008*%
%ADD549R,0.1908X0.0008*%
%ADD550R,0.0755X0.0008*%
%ADD551R,0.1924X0.0008*%
%ADD552R,0.1941X0.0008*%
%ADD553R,0.0755X0.0008*%
%ADD554R,0.1957X0.0008*%
%ADD555R,0.0755X0.0008*%
%ADD556R,0.1974X0.0008*%
%ADD557R,0.0746X0.0008*%
%ADD558R,0.1991X0.0008*%
%ADD559R,0.0746X0.0008*%
%ADD560R,0.2007X0.0008*%
%ADD561R,0.0746X0.0008*%
%ADD562R,0.2024X0.0008*%
%ADD563R,0.2040X0.0008*%
%ADD564R,0.2040X0.0008*%
%ADD565R,0.0738X0.0008*%
%ADD566R,0.2057X0.0008*%
%ADD567R,0.2074X0.0008*%
%ADD568R,0.2090X0.0008*%
%ADD569R,0.0730X0.0008*%
%ADD570R,0.2107X0.0008*%
%ADD571R,0.0713X0.0008*%
%ADD572R,0.0722X0.0008*%
%ADD573R,0.2123X0.0008*%
%ADD574R,0.2123X0.0008*%
%ADD575R,0.0697X0.0008*%
%ADD576R,0.2140X0.0008*%
%ADD577R,0.0672X0.0008*%
%ADD578R,0.0672X0.0008*%
%ADD579R,0.2157X0.0008*%
%ADD580R,0.0647X0.0008*%
%ADD581R,0.0664X0.0008*%
%ADD582R,0.2173X0.0008*%
%ADD583R,0.0639X0.0008*%
%ADD584R,0.0647X0.0008*%
%ADD585R,0.2173X0.0008*%
%ADD586R,0.0622X0.0008*%
%ADD587R,0.2190X0.0008*%
%ADD588R,0.0622X0.0008*%
%ADD589R,0.2206X0.0008*%
%ADD590R,0.0597X0.0008*%
%ADD591R,0.2215X0.0008*%
%ADD592R,0.2223X0.0008*%
%ADD593R,0.0572X0.0008*%
%ADD594R,0.2239X0.0008*%
%ADD595R,0.0547X0.0008*%
%ADD596R,0.2256X0.0008*%
%ADD597R,0.2273X0.0008*%
%ADD598R,0.2281X0.0008*%
%ADD599R,0.0498X0.0008*%
%ADD600R,0.2289X0.0008*%
%ADD601R,0.0473X0.0008*%
%ADD602R,0.0489X0.0008*%
%ADD603R,0.2306X0.0008*%
%ADD604R,0.0464X0.0008*%
%ADD605R,0.0473X0.0008*%
%ADD606R,0.2306X0.0008*%
%ADD607R,0.0448X0.0008*%
%ADD608R,0.0464X0.0008*%
%ADD609R,0.2322X0.0008*%
%ADD610R,0.0440X0.0008*%
%ADD611R,0.0448X0.0008*%
%ADD612R,0.2339X0.0008*%
%ADD613R,0.0423X0.0008*%
%ADD614R,0.2339X0.0008*%
%ADD615R,0.0415X0.0008*%
%ADD616R,0.0415X0.0008*%
%ADD617R,0.2356X0.0008*%
%ADD618R,0.0390X0.0008*%
%ADD619R,0.0406X0.0008*%
%ADD620R,0.2356X0.0008*%
%ADD621R,0.0390X0.0008*%
%ADD622R,0.2372X0.0008*%
%ADD623R,0.0382X0.0008*%
%ADD624R,0.0382X0.0008*%
%ADD625R,0.2372X0.0008*%
%ADD626R,0.0382X0.0008*%
%ADD627R,0.2405X0.0008*%
%ADD628R,0.2405X0.0008*%
%ADD629R,0.2422X0.0008*%
%ADD630R,0.0373X0.0008*%
%ADD631R,0.0373X0.0008*%
%ADD632R,0.2439X0.0008*%
%ADD633R,0.2455X0.0008*%
%ADD634R,0.2455X0.0008*%
%ADD635R,0.2455X0.0008*%
%ADD636R,0.2472X0.0008*%
%ADD637R,0.0365X0.0008*%
%ADD638R,0.2472X0.0008*%
%ADD639R,0.0373X0.0008*%
%ADD640R,0.2505X0.0008*%
%ADD641R,0.2505X0.0008*%
%ADD642R,0.0365X0.0008*%
%ADD643R,0.2505X0.0008*%
%ADD644R,0.0365X0.0008*%
%ADD645R,0.2521X0.0008*%
%ADD646R,0.0365X0.0008*%
%ADD647R,0.2521X0.0008*%
%ADD648R,0.0365X0.0008*%
%ADD649R,0.2538X0.0008*%
%ADD650R,0.2538X0.0008*%
%ADD651R,0.2555X0.0008*%
%ADD652R,0.2555X0.0008*%
%ADD653R,0.2555X0.0008*%
%ADD654R,0.2571X0.0008*%
%ADD655R,0.0357X0.0008*%
%ADD656R,0.2571X0.0008*%
%ADD657R,0.0365X0.0008*%
%ADD658R,0.1269X0.0008*%
%ADD659R,0.1211X0.0008*%
%ADD660R,0.1161X0.0008*%
%ADD661R,0.1145X0.0008*%
%ADD662R,0.1120X0.0008*%
%ADD663R,0.1103X0.0008*%
%ADD664R,0.1111X0.0008*%
%ADD665R,0.1103X0.0008*%
%ADD666R,0.0357X0.0008*%
%ADD667R,0.1087X0.0008*%
%ADD668R,0.1062X0.0008*%
%ADD669R,0.1062X0.0008*%
%ADD670R,0.1053X0.0008*%
%ADD671R,0.0348X0.0008*%
%ADD672R,0.1045X0.0008*%
%ADD673R,0.0406X0.0008*%
%ADD674R,0.1037X0.0008*%
%ADD675R,0.0448X0.0008*%
%ADD676R,0.1037X0.0008*%
%ADD677R,0.0489X0.0008*%
%ADD678R,0.0498X0.0008*%
%ADD679R,0.1020X0.0008*%
%ADD680R,0.0581X0.0008*%
%ADD681R,0.1012X0.0008*%
%ADD682R,0.1004X0.0008*%
%ADD683R,0.0647X0.0008*%
%ADD684R,0.0622X0.0008*%
%ADD685R,0.1012X0.0008*%
%ADD686R,0.0647X0.0008*%
%ADD687R,0.1004X0.0008*%
%ADD688R,0.0647X0.0008*%
%ADD689R,0.0995X0.0008*%
%ADD690R,0.0987X0.0008*%
%ADD691R,0.0979X0.0008*%
%ADD692R,0.0630X0.0008*%
%ADD693R,0.0630X0.0008*%
%ADD694R,0.0954X0.0008*%
%ADD695R,0.0630X0.0008*%
%ADD696R,0.0954X0.0008*%
%ADD697R,0.0946X0.0008*%
%ADD698R,0.0639X0.0008*%
%ADD699R,0.0962X0.0008*%
%ADD700R,0.0987X0.0008*%
%ADD701R,0.0987X0.0008*%
%ADD702R,0.0995X0.0008*%
%ADD703R,0.0622X0.0008*%
%ADD704R,0.1004X0.0008*%
%ADD705R,0.0572X0.0008*%
%ADD706R,0.1029X0.0008*%
%ADD707R,0.0448X0.0008*%
%ADD708R,0.0489X0.0008*%
%ADD709R,0.1037X0.0008*%
%ADD710R,0.1070X0.0008*%
%ADD711R,0.0357X0.0008*%
%ADD712R,0.1087X0.0008*%
%ADD713R,0.1095X0.0008*%
%ADD714R,0.1111X0.0008*%
%ADD715R,0.1120X0.0008*%
%ADD716R,0.1136X0.0008*%
%ADD717R,0.1153X0.0008*%
%ADD718R,0.1169X0.0008*%
%ADD719R,0.1203X0.0008*%
%ADD720R,0.1244X0.0008*%
%ADD721R,0.2579X0.0008*%
%ADD722R,0.2563X0.0008*%
%ADD723R,0.2521X0.0008*%
%ADD724R,0.2488X0.0008*%
%ADD725R,0.2472X0.0008*%
%ADD726R,0.0373X0.0008*%
%ADD727R,0.2422X0.0008*%
%ADD728R,0.2389X0.0008*%
%ADD729R,0.2364X0.0008*%
%ADD730R,0.0431X0.0008*%
%ADD731R,0.0448X0.0008*%
%ADD732R,0.0440X0.0008*%
%ADD733R,0.2322X0.0008*%
%ADD734R,0.2322X0.0008*%
%ADD735R,0.0464X0.0008*%
%ADD736R,0.0489X0.0008*%
%ADD737R,0.0473X0.0008*%
%ADD738R,0.2289X0.0008*%
%ADD739R,0.0498X0.0008*%
%ADD740R,0.2273X0.0008*%
%ADD741R,0.2256X0.0008*%
%ADD742R,0.2256X0.0008*%
%ADD743R,0.0564X0.0008*%
%ADD744R,0.0547X0.0008*%
%ADD745R,0.2239X0.0008*%
%ADD746R,0.0572X0.0008*%
%ADD747R,0.2223X0.0008*%
%ADD748R,0.0597X0.0008*%
%ADD749R,0.2206X0.0008*%
%ADD750R,0.0605X0.0008*%
%ADD751R,0.2190X0.0008*%
%ADD752R,0.0688X0.0008*%
%ADD753R,0.2140X0.0008*%
%ADD754R,0.2065X0.0008*%
%ADD755R,0.0738X0.0008*%
%ADD756R,0.2057X0.0008*%
%ADD757R,0.2024X0.0008*%
%ADD758R,0.2007X0.0008*%
%ADD759R,0.1974X0.0008*%
%ADD760R,0.0755X0.0008*%
%ADD761R,0.1957X0.0008*%
%ADD762R,0.0755X0.0008*%
%ADD763R,0.1924X0.0008*%
%ADD764R,0.1908X0.0008*%
%ADD765R,0.1874X0.0008*%
%ADD766R,0.0771X0.0008*%
%ADD767R,0.1858X0.0008*%
%ADD768R,0.0771X0.0008*%
%ADD769R,0.1808X0.0008*%
%ADD770R,0.1792X0.0008*%
%ADD771R,0.1775X0.0008*%
%ADD772R,0.1750X0.0008*%
%ADD773R,0.0788X0.0008*%
%ADD774R,0.0796X0.0008*%
%ADD775R,0.0796X0.0008*%
%ADD776R,0.1642X0.0008*%
%ADD777R,0.1609X0.0008*%
%ADD778R,0.1576X0.0008*%
%ADD779R,0.1559X0.0008*%
%ADD780R,0.1526X0.0008*%
%ADD781R,0.1510X0.0008*%
%ADD782R,0.1460X0.0008*%
%ADD783R,0.1427X0.0008*%
%ADD784R,0.1410X0.0008*%
%ADD785R,0.1327X0.0008*%
%ADD786R,0.0299X0.0008*%
%ADD787R,0.1294X0.0008*%
%ADD788R,0.0274X0.0008*%
%ADD789R,0.1261X0.0008*%
%ADD790R,0.1228X0.0008*%
%ADD791R,0.1194X0.0008*%
%ADD792R,0.1161X0.0008*%
%ADD793R,0.0141X0.0008*%
%ADD794R,0.0149X0.0008*%
%ADD795R,0.0108X0.0008*%
%ADD796R,0.0124X0.0008*%
%ADD797R,0.1095X0.0008*%
%ADD798R,0.0083X0.0008*%
%ADD799R,0.0075X0.0008*%
%ADD800R,0.0017X0.0008*%
%ADD801R,0.0041X0.0008*%
%ADD802R,0.0556X0.0008*%
%ADD803R,0.0713X0.0008*%
%ADD804R,0.0581X0.0008*%
%ADD805R,0.0605X0.0008*%
%ADD806R,0.0614X0.0008*%
%ADD807R,0.0398X0.0008*%
%ADD808R,0.0746X0.0008*%
%ADD809R,0.0829X0.0008*%
%ADD810R,0.0846X0.0008*%
%ADD811R,0.1045X0.0008*%
%ADD812R,0.1062X0.0008*%
%ADD813R,0.2372X0.0008*%
%ADD814R,0.2389X0.0008*%
%ADD815R,0.2405X0.0008*%
%ADD816R,0.2472X0.0008*%
%ADD817R,0.2505X0.0008*%
%ADD818R,0.2513X0.0008*%
%ADD819R,0.2521X0.0008*%
%ADD820R,0.2530X0.0008*%
%ADD821R,0.0614X0.0008*%
%ADD822R,0.1186X0.0008*%
%ADD823R,0.0539X0.0008*%
%ADD824R,0.1136X0.0008*%
%ADD825R,0.0523X0.0008*%
%ADD826R,0.0904X0.0008*%
%ADD827R,0.0440X0.0008*%
%ADD828R,0.0398X0.0008*%
%ADD829R,0.0390X0.0008*%
%ADD830R,0.0680X0.0008*%
%ADD831R,0.0307X0.0008*%
%ADD832R,0.0290X0.0008*%
%ADD833R,0.0274X0.0008*%
%ADD834R,0.0265X0.0008*%
%ADD835R,0.0199X0.0008*%
%ADD836R,0.0116X0.0008*%
%ADD837R,0.0066X0.0008*%
%ADD838R,0.0058X0.0008*%
%ADD839R,0.0033X0.0008*%
%ADD840R,0.0523X0.0008*%
%ADD841R,0.0498X0.0008*%
D10*
X000754Y002824D02*
X039336Y002824D01*
X039375Y002826D01*
X039413Y002832D01*
X039450Y002841D01*
X039487Y002854D01*
X039522Y002871D01*
X039555Y002890D01*
X039586Y002913D01*
X039615Y002939D01*
X039641Y002968D01*
X039664Y002999D01*
X039683Y003032D01*
X039700Y003067D01*
X039713Y003104D01*
X039722Y003141D01*
X039728Y003179D01*
X039730Y003218D01*
X039730Y022115D01*
X039728Y022154D01*
X039722Y022192D01*
X039713Y022229D01*
X039700Y022266D01*
X039683Y022301D01*
X039664Y022334D01*
X039641Y022365D01*
X039615Y022394D01*
X039586Y022420D01*
X039555Y022443D01*
X039522Y022462D01*
X039487Y022479D01*
X039450Y022492D01*
X039413Y022501D01*
X039375Y022507D01*
X039336Y022509D01*
X000754Y022509D01*
X000715Y022507D01*
X000677Y022501D01*
X000640Y022492D01*
X000603Y022479D01*
X000568Y022462D01*
X000535Y022443D01*
X000504Y022420D01*
X000475Y022394D01*
X000449Y022365D01*
X000426Y022334D01*
X000407Y022301D01*
X000390Y022266D01*
X000377Y022229D01*
X000368Y022192D01*
X000362Y022154D01*
X000360Y022115D01*
X000360Y003218D01*
X000362Y003179D01*
X000368Y003141D01*
X000377Y003104D01*
X000390Y003067D01*
X000407Y003032D01*
X000426Y002999D01*
X000449Y002968D01*
X000475Y002939D01*
X000504Y002913D01*
X000535Y002890D01*
X000568Y002871D01*
X000603Y002854D01*
X000640Y002841D01*
X000677Y002832D01*
X000715Y002826D01*
X000754Y002824D01*
X000517Y003611D02*
X000519Y003661D01*
X000525Y003711D01*
X000535Y003760D01*
X000549Y003808D01*
X000566Y003855D01*
X000587Y003900D01*
X000612Y003944D01*
X000640Y003985D01*
X000672Y004024D01*
X000706Y004061D01*
X000743Y004095D01*
X000783Y004125D01*
X000825Y004152D01*
X000869Y004176D01*
X000915Y004197D01*
X000962Y004213D01*
X001010Y004226D01*
X001060Y004235D01*
X001109Y004240D01*
X001160Y004241D01*
X001210Y004238D01*
X001259Y004231D01*
X001308Y004220D01*
X001356Y004205D01*
X001402Y004187D01*
X001447Y004165D01*
X001490Y004139D01*
X001531Y004110D01*
X001570Y004078D01*
X001606Y004043D01*
X001638Y004005D01*
X001668Y003965D01*
X001695Y003922D01*
X001718Y003878D01*
X001737Y003832D01*
X001753Y003784D01*
X001765Y003735D01*
X001773Y003686D01*
X001777Y003636D01*
X001777Y003586D01*
X001773Y003536D01*
X001765Y003487D01*
X001753Y003438D01*
X001737Y003390D01*
X001718Y003344D01*
X001695Y003300D01*
X001668Y003257D01*
X001638Y003217D01*
X001606Y003179D01*
X001570Y003144D01*
X001531Y003112D01*
X001490Y003083D01*
X001447Y003057D01*
X001402Y003035D01*
X001356Y003017D01*
X001308Y003002D01*
X001259Y002991D01*
X001210Y002984D01*
X001160Y002981D01*
X001109Y002982D01*
X001060Y002987D01*
X001010Y002996D01*
X000962Y003009D01*
X000915Y003025D01*
X000869Y003046D01*
X000825Y003070D01*
X000783Y003097D01*
X000743Y003127D01*
X000706Y003161D01*
X000672Y003198D01*
X000640Y003237D01*
X000612Y003278D01*
X000587Y003322D01*
X000566Y003367D01*
X000549Y003414D01*
X000535Y003462D01*
X000525Y003511D01*
X000519Y003561D01*
X000517Y003611D01*
X001391Y020247D02*
X001388Y020250D01*
X001388Y020261D01*
X001391Y020264D01*
X001397Y020264D01*
X001399Y020261D01*
X001404Y020264D02*
X001404Y020261D01*
X001406Y020261D01*
X001406Y020264D01*
X001404Y020264D01*
X001411Y020264D02*
X001422Y020247D01*
X001426Y020247D02*
X001426Y020261D01*
X001429Y020264D01*
X001435Y020264D01*
X001438Y020261D01*
X001438Y020247D01*
X001445Y020253D02*
X001453Y020253D01*
X001457Y020256D02*
X001460Y020253D01*
X001465Y020253D01*
X001468Y020256D01*
X001468Y020258D01*
X001457Y020258D01*
X001457Y020256D02*
X001457Y020261D01*
X001460Y020264D01*
X001465Y020264D01*
X001472Y020264D02*
X001472Y020253D01*
X001472Y020258D02*
X001478Y020253D01*
X001481Y020253D01*
X001485Y020256D02*
X001488Y020253D01*
X001496Y020253D01*
X001493Y020258D02*
X001488Y020258D01*
X001485Y020256D01*
X001485Y020264D02*
X001493Y020264D01*
X001496Y020261D01*
X001493Y020258D01*
X001500Y020264D02*
X001511Y020247D01*
X001516Y020253D02*
X001518Y020253D01*
X001521Y020256D01*
X001524Y020253D01*
X001527Y020256D01*
X001527Y020264D01*
X001531Y020261D02*
X001534Y020264D01*
X001542Y020264D01*
X001546Y020261D02*
X001549Y020264D01*
X001554Y020264D01*
X001557Y020261D01*
X001557Y020256D01*
X001554Y020253D01*
X001549Y020253D01*
X001546Y020256D01*
X001546Y020261D01*
X001542Y020253D02*
X001534Y020253D01*
X001531Y020256D01*
X001531Y020261D01*
X001521Y020264D02*
X001521Y020256D01*
X001516Y020253D02*
X001516Y020264D01*
X001561Y020264D02*
X001570Y020264D01*
X001572Y020261D01*
X001572Y020256D01*
X001570Y020253D01*
X001561Y020253D01*
X001561Y020247D02*
X001561Y020264D01*
X001577Y020264D02*
X001582Y020264D01*
X001579Y020264D02*
X001579Y020247D01*
X001577Y020247D01*
X001587Y020256D02*
X001590Y020253D01*
X001595Y020253D01*
X001598Y020256D01*
X001598Y020258D01*
X001587Y020258D01*
X001587Y020256D02*
X001587Y020261D01*
X001590Y020264D01*
X001595Y020264D01*
X001602Y020264D02*
X001602Y020253D01*
X001602Y020258D02*
X001608Y020253D01*
X001610Y020253D01*
X001615Y020264D02*
X001626Y020247D01*
X001630Y020247D02*
X001638Y020247D01*
X001641Y020250D01*
X001641Y020261D01*
X001638Y020264D01*
X001630Y020264D01*
X001630Y020247D01*
X001645Y020256D02*
X001648Y020253D01*
X001654Y020253D01*
X001656Y020256D01*
X001656Y020258D01*
X001645Y020258D01*
X001645Y020256D02*
X001645Y020261D01*
X001648Y020264D01*
X001654Y020264D01*
X001660Y020264D02*
X001669Y020264D01*
X001672Y020261D01*
X001669Y020258D01*
X001663Y020258D01*
X001660Y020256D01*
X001663Y020253D01*
X001672Y020253D01*
X001676Y020258D02*
X001684Y020253D01*
X001688Y020253D02*
X001694Y020253D01*
X001691Y020250D02*
X001691Y020261D01*
X001694Y020264D01*
X001699Y020261D02*
X001701Y020264D01*
X001707Y020264D01*
X001710Y020261D01*
X001710Y020256D01*
X001707Y020253D01*
X001701Y020253D01*
X001699Y020256D01*
X001699Y020261D01*
X001714Y020264D02*
X001722Y020264D01*
X001725Y020261D01*
X001725Y020256D01*
X001722Y020253D01*
X001714Y020253D01*
X001714Y020269D01*
X001729Y020264D02*
X001740Y020247D01*
X001744Y020247D02*
X001747Y020247D01*
X001747Y020264D01*
X001744Y020264D02*
X001750Y020264D01*
X001755Y020261D02*
X001757Y020264D01*
X001763Y020264D01*
X001766Y020261D01*
X001766Y020256D01*
X001763Y020253D01*
X001757Y020253D01*
X001755Y020256D01*
X001755Y020261D01*
X001770Y020261D02*
X001773Y020264D01*
X001781Y020264D01*
X001781Y020267D02*
X001781Y020253D01*
X001773Y020253D01*
X001770Y020256D01*
X001770Y020261D01*
X001775Y020269D02*
X001778Y020269D01*
X001781Y020267D01*
X001785Y020261D02*
X001788Y020264D01*
X001793Y020264D01*
X001796Y020261D01*
X001796Y020256D01*
X001793Y020253D01*
X001788Y020253D01*
X001785Y020256D01*
X001785Y020261D01*
X001800Y020264D02*
X001809Y020264D01*
X001811Y020261D01*
X001811Y020258D01*
X001809Y020256D01*
X001800Y020256D01*
X001800Y020264D02*
X001800Y020247D01*
X001809Y020247D01*
X001811Y020250D01*
X001811Y020253D01*
X001809Y020256D01*
X001816Y020264D02*
X001821Y020258D01*
X001827Y020264D01*
X001827Y020247D01*
X001816Y020247D02*
X001816Y020264D01*
X001831Y020264D02*
X001834Y020264D01*
X001834Y020261D01*
X001831Y020261D01*
X001831Y020264D01*
X001839Y020264D02*
X001847Y020264D01*
X001850Y020261D01*
X001850Y020256D01*
X001847Y020253D01*
X001839Y020253D01*
X001839Y020247D02*
X001839Y020264D01*
X001854Y020264D02*
X001854Y020253D01*
X001857Y020253D01*
X001859Y020256D01*
X001862Y020253D01*
X001865Y020256D01*
X001865Y020264D01*
X001869Y020264D02*
X001877Y020264D01*
X001880Y020261D01*
X001880Y020256D01*
X001877Y020253D01*
X001869Y020253D01*
X001869Y020269D01*
X001859Y020264D02*
X001859Y020256D01*
X001684Y020264D02*
X001676Y020258D01*
X001676Y020264D02*
X001676Y020247D01*
X001453Y020261D02*
X001450Y020258D01*
X001445Y020258D01*
X001442Y020256D01*
X001445Y020253D01*
X001453Y020261D02*
X001450Y020264D01*
X001442Y020264D01*
X001406Y020256D02*
X001404Y020256D01*
X001404Y020253D01*
X001406Y020253D01*
X001406Y020256D01*
X001399Y020250D02*
X001397Y020247D01*
X001391Y020247D01*
X000517Y021722D02*
X000519Y021772D01*
X000525Y021822D01*
X000535Y021871D01*
X000549Y021919D01*
X000566Y021966D01*
X000587Y022011D01*
X000612Y022055D01*
X000640Y022096D01*
X000672Y022135D01*
X000706Y022172D01*
X000743Y022206D01*
X000783Y022236D01*
X000825Y022263D01*
X000869Y022287D01*
X000915Y022308D01*
X000962Y022324D01*
X001010Y022337D01*
X001060Y022346D01*
X001109Y022351D01*
X001160Y022352D01*
X001210Y022349D01*
X001259Y022342D01*
X001308Y022331D01*
X001356Y022316D01*
X001402Y022298D01*
X001447Y022276D01*
X001490Y022250D01*
X001531Y022221D01*
X001570Y022189D01*
X001606Y022154D01*
X001638Y022116D01*
X001668Y022076D01*
X001695Y022033D01*
X001718Y021989D01*
X001737Y021943D01*
X001753Y021895D01*
X001765Y021846D01*
X001773Y021797D01*
X001777Y021747D01*
X001777Y021697D01*
X001773Y021647D01*
X001765Y021598D01*
X001753Y021549D01*
X001737Y021501D01*
X001718Y021455D01*
X001695Y021411D01*
X001668Y021368D01*
X001638Y021328D01*
X001606Y021290D01*
X001570Y021255D01*
X001531Y021223D01*
X001490Y021194D01*
X001447Y021168D01*
X001402Y021146D01*
X001356Y021128D01*
X001308Y021113D01*
X001259Y021102D01*
X001210Y021095D01*
X001160Y021092D01*
X001109Y021093D01*
X001060Y021098D01*
X001010Y021107D01*
X000962Y021120D01*
X000915Y021136D01*
X000869Y021157D01*
X000825Y021181D01*
X000783Y021208D01*
X000743Y021238D01*
X000706Y021272D01*
X000672Y021309D01*
X000640Y021348D01*
X000612Y021389D01*
X000587Y021433D01*
X000566Y021478D01*
X000549Y021525D01*
X000535Y021573D01*
X000525Y021622D01*
X000519Y021672D01*
X000517Y021722D01*
X032795Y021590D02*
X032797Y021638D01*
X032803Y021686D01*
X032813Y021733D01*
X032826Y021779D01*
X032844Y021824D01*
X032864Y021868D01*
X032889Y021910D01*
X032917Y021949D01*
X032947Y021986D01*
X032981Y022020D01*
X033018Y022052D01*
X033056Y022081D01*
X033097Y022106D01*
X033140Y022128D01*
X033185Y022146D01*
X033231Y022160D01*
X033278Y022171D01*
X033326Y022178D01*
X033374Y022181D01*
X033422Y022180D01*
X033470Y022175D01*
X033518Y022166D01*
X033564Y022154D01*
X033609Y022137D01*
X033653Y022117D01*
X033695Y022094D01*
X033735Y022067D01*
X033773Y022037D01*
X033808Y022004D01*
X033840Y021968D01*
X033870Y021930D01*
X033896Y021889D01*
X033918Y021846D01*
X033938Y021802D01*
X033953Y021757D01*
X033965Y021710D01*
X033973Y021662D01*
X033977Y021614D01*
X033977Y021566D01*
X033973Y021518D01*
X033965Y021470D01*
X033953Y021423D01*
X033938Y021378D01*
X033918Y021334D01*
X033896Y021291D01*
X033870Y021250D01*
X033840Y021212D01*
X033808Y021176D01*
X033773Y021143D01*
X033735Y021113D01*
X033695Y021086D01*
X033653Y021063D01*
X033609Y021043D01*
X033564Y021026D01*
X033518Y021014D01*
X033470Y021005D01*
X033422Y021000D01*
X033374Y020999D01*
X033326Y021002D01*
X033278Y021009D01*
X033231Y021020D01*
X033185Y021034D01*
X033140Y021052D01*
X033097Y021074D01*
X033056Y021099D01*
X033018Y021128D01*
X032981Y021160D01*
X032947Y021194D01*
X032917Y021231D01*
X032889Y021270D01*
X032864Y021312D01*
X032844Y021356D01*
X032826Y021401D01*
X032813Y021447D01*
X032803Y021494D01*
X032797Y021542D01*
X032795Y021590D01*
X037755Y021590D02*
X037757Y021638D01*
X037763Y021686D01*
X037773Y021733D01*
X037786Y021779D01*
X037804Y021824D01*
X037824Y021868D01*
X037849Y021910D01*
X037877Y021949D01*
X037907Y021986D01*
X037941Y022020D01*
X037978Y022052D01*
X038016Y022081D01*
X038057Y022106D01*
X038100Y022128D01*
X038145Y022146D01*
X038191Y022160D01*
X038238Y022171D01*
X038286Y022178D01*
X038334Y022181D01*
X038382Y022180D01*
X038430Y022175D01*
X038478Y022166D01*
X038524Y022154D01*
X038569Y022137D01*
X038613Y022117D01*
X038655Y022094D01*
X038695Y022067D01*
X038733Y022037D01*
X038768Y022004D01*
X038800Y021968D01*
X038830Y021930D01*
X038856Y021889D01*
X038878Y021846D01*
X038898Y021802D01*
X038913Y021757D01*
X038925Y021710D01*
X038933Y021662D01*
X038937Y021614D01*
X038937Y021566D01*
X038933Y021518D01*
X038925Y021470D01*
X038913Y021423D01*
X038898Y021378D01*
X038878Y021334D01*
X038856Y021291D01*
X038830Y021250D01*
X038800Y021212D01*
X038768Y021176D01*
X038733Y021143D01*
X038695Y021113D01*
X038655Y021086D01*
X038613Y021063D01*
X038569Y021043D01*
X038524Y021026D01*
X038478Y021014D01*
X038430Y021005D01*
X038382Y021000D01*
X038334Y020999D01*
X038286Y021002D01*
X038238Y021009D01*
X038191Y021020D01*
X038145Y021034D01*
X038100Y021052D01*
X038057Y021074D01*
X038016Y021099D01*
X037978Y021128D01*
X037941Y021160D01*
X037907Y021194D01*
X037877Y021231D01*
X037849Y021270D01*
X037824Y021312D01*
X037804Y021356D01*
X037786Y021401D01*
X037773Y021447D01*
X037763Y021494D01*
X037757Y021542D01*
X037755Y021590D01*
D11*
X031719Y009860D02*
X031506Y009646D01*
X031612Y009646D02*
X031292Y009646D01*
X031292Y009860D02*
X031292Y009219D01*
X031612Y009219D01*
X031719Y009326D01*
X031719Y009540D01*
X031612Y009646D01*
X031075Y009753D02*
X031075Y009326D01*
X030968Y009219D01*
X030754Y009219D01*
X030648Y009326D01*
X030648Y009753D01*
X030754Y009860D01*
X030968Y009860D01*
X031075Y009753D01*
X030430Y009860D02*
X030217Y009646D01*
X030323Y009646D02*
X030003Y009646D01*
X030003Y009860D02*
X030003Y009219D01*
X030323Y009219D01*
X030430Y009326D01*
X030430Y009540D01*
X030323Y009646D01*
X029786Y009540D02*
X029786Y009326D01*
X029679Y009219D01*
X029358Y009219D01*
X029358Y009860D01*
X029358Y009646D02*
X029679Y009646D01*
X029786Y009540D01*
X029572Y009646D02*
X029786Y009860D01*
X029141Y009860D02*
X028714Y009860D01*
X028714Y009219D01*
X029141Y009219D01*
X028927Y009540D02*
X028714Y009540D01*
X029668Y007929D02*
X029882Y007929D01*
X029988Y007822D01*
X029988Y007395D01*
X029882Y007288D01*
X029668Y007288D01*
X029561Y007395D01*
X029561Y007822D01*
X029668Y007929D01*
X030206Y007929D02*
X030206Y007288D01*
X030313Y007608D02*
X030633Y007929D01*
X030206Y007715D02*
X030633Y007288D01*
X030445Y006544D02*
X030445Y005904D01*
X030872Y006544D01*
X030872Y005904D01*
X031089Y005904D02*
X031410Y005904D01*
X031516Y006011D01*
X031516Y006438D01*
X031410Y006544D01*
X031089Y006544D01*
X031089Y005904D01*
X031734Y005904D02*
X031734Y006224D01*
X031947Y006117D01*
X032054Y006117D01*
X032161Y006224D01*
X032161Y006438D01*
X032054Y006544D01*
X031841Y006544D01*
X031734Y006438D01*
X031734Y005904D02*
X032161Y005904D01*
X033635Y005904D02*
X033635Y006544D01*
X033635Y006224D02*
X034062Y006224D01*
X034279Y006011D02*
X034279Y006438D01*
X034386Y006544D01*
X034600Y006544D01*
X034706Y006438D01*
X034706Y006011D01*
X034600Y005904D01*
X034386Y005904D01*
X034279Y006011D01*
X034062Y005904D02*
X034062Y006544D01*
X034924Y005904D02*
X035351Y005904D01*
X035137Y005904D02*
X035137Y006544D01*
X035568Y006544D02*
X035995Y006544D01*
X036213Y006544D02*
X036213Y005904D01*
X036640Y006544D01*
X036640Y005904D01*
X036857Y005904D02*
X037178Y005904D01*
X037285Y006011D01*
X037285Y006438D01*
X037178Y006544D01*
X036857Y006544D01*
X036857Y005904D01*
X037502Y006224D02*
X037822Y006224D01*
X037929Y006331D01*
X037929Y006438D01*
X037822Y006544D01*
X037609Y006544D01*
X037502Y006438D01*
X037502Y006224D01*
X037716Y006011D01*
X037929Y005904D01*
X035995Y005904D02*
X035568Y005904D01*
X035568Y006544D01*
X035568Y006224D02*
X035782Y006224D01*
X035734Y007288D02*
X035734Y007929D01*
X035734Y007715D02*
X036161Y007288D01*
X035841Y007608D02*
X036161Y007929D01*
X035517Y007822D02*
X035517Y007395D01*
X035410Y007288D01*
X035196Y007288D01*
X035090Y007395D01*
X035090Y007822D01*
X035196Y007929D01*
X035410Y007929D01*
X035517Y007822D01*
X035471Y009159D02*
X035791Y009159D01*
X035898Y009266D01*
X035898Y009480D01*
X035791Y009586D01*
X035471Y009586D01*
X035685Y009586D02*
X035898Y009800D01*
X036116Y009693D02*
X036223Y009800D01*
X036436Y009800D01*
X036543Y009693D01*
X036543Y009266D01*
X036436Y009159D01*
X036223Y009159D01*
X036116Y009266D01*
X036116Y009693D01*
X035471Y009800D02*
X035471Y009159D01*
X035254Y009266D02*
X035254Y009480D01*
X035147Y009586D01*
X034827Y009586D01*
X035040Y009586D02*
X035254Y009800D01*
X034827Y009800D02*
X034827Y009159D01*
X035147Y009159D01*
X035254Y009266D01*
X034609Y009159D02*
X034182Y009159D01*
X034182Y009800D01*
X034609Y009800D01*
X034396Y009480D02*
X034182Y009480D01*
X036760Y009586D02*
X037081Y009586D01*
X037187Y009480D01*
X037187Y009266D01*
X037081Y009159D01*
X036760Y009159D01*
X036760Y009800D01*
X036974Y009586D02*
X037187Y009800D01*
X030227Y006544D02*
X029800Y006544D01*
X029800Y005904D01*
X030227Y005904D01*
X030014Y006224D02*
X029800Y006224D01*
X029583Y005904D02*
X029156Y005904D01*
X029369Y005904D02*
X029369Y006544D01*
X028938Y006438D02*
X028938Y006011D01*
X028831Y005904D01*
X028618Y005904D01*
X028511Y006011D01*
X028511Y006438D01*
X028618Y006544D01*
X028831Y006544D01*
X028938Y006438D01*
X028294Y006544D02*
X028294Y005904D01*
X028294Y006224D02*
X027867Y006224D01*
X027867Y006544D02*
X027867Y005904D01*
X025920Y006224D02*
X025493Y006224D01*
X025813Y005904D01*
X025813Y006544D01*
X025276Y006438D02*
X025276Y006011D01*
X025169Y005904D01*
X024848Y005904D01*
X024848Y006544D01*
X025169Y006544D01*
X025276Y006438D01*
X024631Y006544D02*
X024631Y005904D01*
X024204Y005904D02*
X024631Y006544D01*
X024204Y006544D02*
X024204Y005904D01*
X023986Y005904D02*
X023559Y005904D01*
X023559Y006544D01*
X023986Y006544D01*
X023773Y006224D02*
X023559Y006224D01*
X023342Y005904D02*
X022915Y005904D01*
X023128Y005904D02*
X023128Y006544D01*
X022697Y006438D02*
X022697Y006011D01*
X022591Y005904D01*
X022377Y005904D01*
X022270Y006011D01*
X022270Y006438D01*
X022377Y006544D01*
X022591Y006544D01*
X022697Y006438D01*
X022053Y006544D02*
X022053Y005904D01*
X022053Y006224D02*
X021626Y006224D01*
X021626Y006544D02*
X021626Y005904D01*
X019207Y006011D02*
X019207Y006117D01*
X019100Y006224D01*
X019207Y006331D01*
X019207Y006438D01*
X019100Y006544D01*
X018886Y006544D01*
X018780Y006438D01*
X018562Y006438D02*
X018562Y006011D01*
X018455Y005904D01*
X018135Y005904D01*
X018135Y006544D01*
X018455Y006544D01*
X018562Y006438D01*
X018993Y006224D02*
X019100Y006224D01*
X019207Y006011D02*
X019100Y005904D01*
X018886Y005904D01*
X018780Y006011D01*
X017918Y005904D02*
X017918Y006544D01*
X017491Y005904D01*
X017491Y006544D01*
X017273Y006544D02*
X016846Y006544D01*
X016846Y005904D01*
X017273Y005904D01*
X017060Y006224D02*
X016846Y006224D01*
X016628Y005904D02*
X016201Y005904D01*
X016415Y005904D02*
X016415Y006544D01*
X015984Y006438D02*
X015984Y006011D01*
X015877Y005904D01*
X015664Y005904D01*
X015557Y006011D01*
X015557Y006438D01*
X015664Y006544D01*
X015877Y006544D01*
X015984Y006438D01*
X015339Y006544D02*
X015339Y005904D01*
X015339Y006224D02*
X014912Y006224D01*
X014912Y006544D02*
X014912Y005904D01*
X012872Y006011D02*
X012765Y005904D01*
X012552Y005904D01*
X012445Y006011D01*
X012228Y006011D02*
X012121Y005904D01*
X011801Y005904D01*
X011801Y006544D01*
X012121Y006544D01*
X012228Y006438D01*
X012228Y006011D01*
X011583Y005904D02*
X011583Y006544D01*
X011156Y005904D01*
X011156Y006544D01*
X010939Y006544D02*
X010512Y006544D01*
X010512Y005904D01*
X010939Y005904D01*
X010725Y006224D02*
X010512Y006224D01*
X010294Y005904D02*
X009867Y005904D01*
X010080Y005904D02*
X010080Y006544D01*
X009649Y006438D02*
X009649Y006011D01*
X009543Y005904D01*
X009329Y005904D01*
X009222Y006011D01*
X009222Y006438D01*
X009329Y006544D01*
X009543Y006544D01*
X009649Y006438D01*
X009005Y006544D02*
X009005Y005904D01*
X009005Y006224D02*
X008578Y006224D01*
X008578Y006544D02*
X008578Y005904D01*
X007051Y006544D02*
X006624Y006544D01*
X006838Y006544D02*
X006838Y005904D01*
X006624Y006117D01*
X006407Y006011D02*
X006300Y005904D01*
X005980Y005904D01*
X005980Y006544D01*
X006300Y006544D01*
X006407Y006438D01*
X006407Y006011D01*
X005762Y005904D02*
X005762Y006544D01*
X005335Y005904D01*
X005335Y006544D01*
X005118Y006544D02*
X004691Y006544D01*
X004691Y005904D01*
X005118Y005904D01*
X004904Y006224D02*
X004691Y006224D01*
X004473Y005904D02*
X004046Y005904D01*
X004260Y005904D02*
X004260Y006544D01*
X003829Y006438D02*
X003829Y006011D01*
X003722Y005904D01*
X003508Y005904D01*
X003402Y006011D01*
X003402Y006438D01*
X003508Y006544D01*
X003722Y006544D01*
X003829Y006438D01*
X003184Y006544D02*
X003184Y005904D01*
X003184Y006224D02*
X002757Y006224D01*
X002757Y006544D02*
X002757Y005904D01*
X004079Y007228D02*
X003972Y007335D01*
X003972Y007762D01*
X004079Y007869D01*
X004292Y007869D01*
X004399Y007762D01*
X004399Y007335D01*
X004292Y007228D01*
X004079Y007228D01*
X004616Y007228D02*
X004616Y007869D01*
X004616Y007655D02*
X005043Y007228D01*
X004723Y007548D02*
X005043Y007869D01*
X005105Y009219D02*
X004998Y009326D01*
X004998Y009753D01*
X005105Y009860D01*
X005318Y009860D01*
X005425Y009753D01*
X005425Y009326D01*
X005318Y009219D01*
X005105Y009219D01*
X004781Y009326D02*
X004781Y009540D01*
X004674Y009646D01*
X004354Y009646D01*
X004567Y009646D02*
X004781Y009860D01*
X004354Y009860D02*
X004354Y009219D01*
X004674Y009219D01*
X004781Y009326D01*
X004136Y009326D02*
X004136Y009540D01*
X004029Y009646D01*
X003709Y009646D01*
X003923Y009646D02*
X004136Y009860D01*
X003709Y009860D02*
X003709Y009219D01*
X004029Y009219D01*
X004136Y009326D01*
X003492Y009219D02*
X003064Y009219D01*
X003064Y009860D01*
X003492Y009860D01*
X003278Y009540D02*
X003064Y009540D01*
X005643Y009646D02*
X005963Y009646D01*
X006070Y009540D01*
X006070Y009326D01*
X005963Y009219D01*
X005643Y009219D01*
X005643Y009860D01*
X005856Y009646D02*
X006070Y009860D01*
X008979Y009860D02*
X008979Y009219D01*
X009406Y009219D01*
X009624Y009219D02*
X009944Y009219D01*
X010051Y009326D01*
X010051Y009540D01*
X009944Y009646D01*
X009624Y009646D01*
X009837Y009646D02*
X010051Y009860D01*
X010268Y009860D02*
X010268Y009219D01*
X010588Y009219D01*
X010695Y009326D01*
X010695Y009540D01*
X010588Y009646D01*
X010268Y009646D01*
X010482Y009646D02*
X010695Y009860D01*
X010913Y009753D02*
X011019Y009860D01*
X011233Y009860D01*
X011340Y009753D01*
X011340Y009326D01*
X011233Y009219D01*
X011019Y009219D01*
X010913Y009326D01*
X010913Y009753D01*
X011557Y009646D02*
X011877Y009646D01*
X011984Y009540D01*
X011984Y009326D01*
X011877Y009219D01*
X011557Y009219D01*
X011557Y009860D01*
X011771Y009646D02*
X011984Y009860D01*
X009624Y009860D02*
X009624Y009219D01*
X009192Y009540D02*
X008979Y009540D01*
X008979Y009860D02*
X009406Y009860D01*
X009993Y007869D02*
X010207Y007869D01*
X010313Y007762D01*
X010313Y007335D01*
X010207Y007228D01*
X009993Y007228D01*
X009886Y007335D01*
X009886Y007762D01*
X009993Y007869D01*
X010531Y007869D02*
X010531Y007228D01*
X010531Y007655D02*
X010958Y007228D01*
X010638Y007548D02*
X010958Y007869D01*
X012445Y006544D02*
X012872Y006117D01*
X012872Y006011D01*
X012872Y006544D02*
X012445Y006544D01*
X016187Y007335D02*
X016187Y007762D01*
X016294Y007869D01*
X016507Y007869D01*
X016614Y007762D01*
X016614Y007335D01*
X016507Y007228D01*
X016294Y007228D01*
X016187Y007335D01*
X016832Y007228D02*
X016832Y007869D01*
X016832Y007655D02*
X017259Y007228D01*
X016938Y007548D02*
X017259Y007869D01*
X017380Y009219D02*
X017273Y009326D01*
X017273Y009753D01*
X017380Y009860D01*
X017594Y009860D01*
X017700Y009753D01*
X017700Y009326D01*
X017594Y009219D01*
X017380Y009219D01*
X017056Y009326D02*
X017056Y009540D01*
X016949Y009646D01*
X016629Y009646D01*
X016842Y009646D02*
X017056Y009860D01*
X016629Y009860D02*
X016629Y009219D01*
X016949Y009219D01*
X017056Y009326D01*
X016411Y009326D02*
X016411Y009540D01*
X016305Y009646D01*
X015984Y009646D01*
X016198Y009646D02*
X016411Y009860D01*
X015984Y009860D02*
X015984Y009219D01*
X016305Y009219D01*
X016411Y009326D01*
X015767Y009219D02*
X015340Y009219D01*
X015340Y009860D01*
X015767Y009860D01*
X015553Y009540D02*
X015340Y009540D01*
X017918Y009646D02*
X018238Y009646D01*
X018345Y009540D01*
X018345Y009326D01*
X018238Y009219D01*
X017918Y009219D01*
X017918Y009860D01*
X018131Y009646D02*
X018345Y009860D01*
X022413Y009860D02*
X022413Y009219D01*
X022840Y009219D01*
X023058Y009219D02*
X023378Y009219D01*
X023485Y009326D01*
X023485Y009540D01*
X023378Y009646D01*
X023058Y009646D01*
X023271Y009646D02*
X023485Y009860D01*
X023702Y009860D02*
X023702Y009219D01*
X024023Y009219D01*
X024129Y009326D01*
X024129Y009540D01*
X024023Y009646D01*
X023702Y009646D01*
X023916Y009646D02*
X024129Y009860D01*
X024347Y009753D02*
X024454Y009860D01*
X024667Y009860D01*
X024774Y009753D01*
X024774Y009326D01*
X024667Y009219D01*
X024454Y009219D01*
X024347Y009326D01*
X024347Y009753D01*
X024991Y009646D02*
X025312Y009646D01*
X025418Y009540D01*
X025418Y009326D01*
X025312Y009219D01*
X024991Y009219D01*
X024991Y009860D01*
X025205Y009646D02*
X025418Y009860D01*
X023058Y009860D02*
X023058Y009219D01*
X022627Y009540D02*
X022413Y009540D01*
X022413Y009860D02*
X022840Y009860D01*
X023367Y007929D02*
X023581Y007929D01*
X023688Y007822D01*
X023688Y007395D01*
X023581Y007288D01*
X023367Y007288D01*
X023261Y007395D01*
X023261Y007822D01*
X023367Y007929D01*
X023905Y007929D02*
X023905Y007288D01*
X024012Y007608D02*
X024332Y007929D01*
X023905Y007715D02*
X024332Y007288D01*
D12*
X027240Y005558D02*
X027240Y012030D01*
X033060Y012030D01*
X033060Y005558D01*
X027240Y005558D01*
X020434Y005558D01*
X020434Y012030D01*
X027240Y012030D01*
X033060Y012030D02*
X038880Y012030D01*
X038880Y005558D01*
X033060Y005558D01*
X020434Y005558D02*
X013987Y005558D01*
X013987Y012030D01*
X020434Y012030D01*
X013987Y012030D02*
X008047Y012030D01*
X008047Y005558D01*
X001894Y005558D01*
X001894Y012030D01*
X008047Y012030D01*
X008047Y005558D02*
X013987Y005558D01*
D13*
X027540Y014464D02*
X032760Y014464D01*
X032760Y016744D01*
X027540Y016744D01*
X027540Y014464D01*
D14*
X027785Y015189D02*
X028075Y015189D01*
X028075Y015334D01*
X028027Y015383D01*
X027930Y015383D01*
X027882Y015334D01*
X027882Y015189D01*
X027882Y015286D02*
X027785Y015383D01*
X027785Y015484D02*
X027978Y015677D01*
X028027Y015677D01*
X028075Y015629D01*
X028075Y015532D01*
X028027Y015484D01*
X027785Y015484D02*
X027785Y015677D01*
X027785Y015778D02*
X027833Y015778D01*
X028027Y015972D01*
X028075Y015972D01*
X028075Y015778D01*
X028975Y016444D02*
X029168Y016444D01*
X029270Y016444D02*
X029366Y016396D01*
X029415Y016396D01*
X029463Y016444D01*
X029463Y016541D01*
X029415Y016589D01*
X029318Y016589D01*
X029270Y016541D01*
X029270Y016444D02*
X029270Y016299D01*
X029463Y016299D01*
X029564Y016299D02*
X029564Y016492D01*
X029661Y016589D01*
X029758Y016492D01*
X029758Y016299D01*
X030175Y016444D02*
X030368Y016444D01*
X030272Y016347D02*
X030272Y016541D01*
X030470Y016589D02*
X030663Y016396D01*
X030663Y016347D01*
X030615Y016299D01*
X030518Y016299D01*
X030470Y016347D01*
X030470Y016589D02*
X030663Y016589D01*
X030764Y016444D02*
X030909Y016299D01*
X030909Y016589D01*
X030958Y016444D02*
X030764Y016444D01*
X031059Y016492D02*
X031156Y016589D01*
X031252Y016492D01*
X031252Y016299D01*
X031059Y016299D02*
X031059Y016492D01*
X031069Y016919D02*
X031069Y017209D01*
X031262Y017209D01*
X031363Y017161D02*
X031412Y017209D01*
X031508Y017209D01*
X031557Y017161D01*
X031557Y017112D01*
X031508Y017064D01*
X031412Y017064D01*
X031363Y017016D01*
X031363Y016967D01*
X031412Y016919D01*
X031508Y016919D01*
X031557Y016967D01*
X030969Y016919D02*
X030872Y016919D01*
X030921Y016919D02*
X030921Y017209D01*
X030969Y017209D02*
X030872Y017209D01*
X030771Y017209D02*
X030771Y017016D01*
X030674Y016919D01*
X030578Y017016D01*
X030578Y017209D01*
X030476Y017209D02*
X030380Y017112D01*
X030428Y017112D02*
X030283Y017112D01*
X030283Y017209D02*
X030283Y016919D01*
X030428Y016919D01*
X030476Y016967D01*
X030476Y017064D01*
X030428Y017112D01*
X030578Y017064D02*
X030771Y017064D01*
X029887Y017064D02*
X029839Y017112D01*
X029694Y017112D01*
X029790Y017112D02*
X029887Y017209D01*
X029887Y017064D02*
X029887Y016967D01*
X029839Y016919D01*
X029694Y016919D01*
X029694Y017209D01*
X029592Y017209D02*
X029399Y017209D01*
X029399Y016919D01*
X029592Y016919D01*
X029496Y017064D02*
X029399Y017064D01*
X029298Y017209D02*
X029298Y016919D01*
X029104Y016919D02*
X029104Y017209D01*
X029201Y017112D01*
X029298Y017209D01*
X029003Y017161D02*
X029003Y016967D01*
X028955Y016919D01*
X028858Y016919D01*
X028810Y016967D01*
X028810Y017161D01*
X028858Y017209D01*
X028955Y017209D01*
X029003Y017161D01*
X028708Y017064D02*
X028660Y017112D01*
X028515Y017112D01*
X028515Y017209D02*
X028515Y016919D01*
X028660Y016919D01*
X028708Y016967D01*
X028708Y017064D01*
X029072Y016541D02*
X029072Y016347D01*
X032195Y015863D02*
X032195Y015767D01*
X032243Y015718D01*
X032340Y015718D02*
X032388Y015815D01*
X032388Y015863D01*
X032340Y015912D01*
X032243Y015912D01*
X032195Y015863D01*
X032340Y015718D02*
X032485Y015718D01*
X032485Y015912D01*
X032437Y015617D02*
X032388Y015617D01*
X032195Y015424D01*
X032195Y015617D01*
X032437Y015617D02*
X032485Y015569D01*
X032485Y015472D01*
X032437Y015424D01*
X032437Y015323D02*
X032340Y015323D01*
X032292Y015274D01*
X032292Y015129D01*
X032292Y015226D02*
X032195Y015323D01*
X032195Y015129D02*
X032485Y015129D01*
X032485Y015274D01*
X032437Y015323D01*
D15*
X030222Y010541D03*
X030222Y010068D03*
X030222Y008572D03*
X030222Y008100D03*
X035734Y008100D03*
X035734Y008572D03*
X035734Y010068D03*
X035734Y010541D03*
X023923Y010541D03*
X023923Y010068D03*
X023923Y008572D03*
X023923Y008100D03*
X016836Y008100D03*
X016836Y008572D03*
X016836Y010068D03*
X016836Y010541D03*
X010537Y010541D03*
X010537Y010068D03*
X010537Y008572D03*
X010537Y008100D03*
X004632Y008100D03*
X004632Y008572D03*
X004632Y010068D03*
X004632Y010541D03*
D16*
X004632Y010304D03*
X004632Y008336D03*
X010537Y008336D03*
X010537Y010304D03*
X016836Y010304D03*
X016836Y008336D03*
X023923Y008336D03*
X023923Y010304D03*
X030222Y010304D03*
X030222Y008336D03*
X035734Y008336D03*
X035734Y010304D03*
X029460Y015425D03*
X030780Y015543D03*
D17*
X026291Y014143D02*
X026291Y013552D01*
X026152Y013228D02*
X025998Y013228D01*
X025921Y013151D01*
X025768Y013228D02*
X025768Y012767D01*
X025921Y012844D02*
X025998Y012767D01*
X026152Y012767D01*
X026228Y012844D01*
X026228Y012921D01*
X026152Y012997D01*
X026228Y013074D01*
X026228Y013151D01*
X026152Y013228D01*
X026152Y012997D02*
X026075Y012997D01*
X025768Y013228D02*
X025461Y012767D01*
X025461Y013228D01*
X025307Y013228D02*
X025154Y013074D01*
X025231Y013074D02*
X025001Y013074D01*
X025001Y013228D02*
X025001Y012767D01*
X025231Y012767D01*
X025307Y012844D01*
X025307Y012997D01*
X025231Y013074D01*
X025070Y013552D02*
X025070Y014143D01*
X022624Y014143D02*
X022624Y013552D01*
X022561Y013228D02*
X022254Y013228D01*
X022561Y012921D01*
X022561Y012844D01*
X022485Y012767D01*
X022331Y012767D01*
X022254Y012844D01*
X022101Y012767D02*
X022101Y013228D01*
X021794Y012767D01*
X021794Y013228D01*
X021640Y013228D02*
X021487Y013074D01*
X021564Y013074D02*
X021334Y013074D01*
X021334Y013228D02*
X021334Y012767D01*
X021564Y012767D01*
X021640Y012844D01*
X021640Y012997D01*
X021564Y013074D01*
X021403Y013552D02*
X021403Y014143D01*
X019928Y014143D02*
X019928Y013552D01*
X019865Y013228D02*
X019558Y013228D01*
X019405Y013228D02*
X019405Y012767D01*
X019558Y012921D02*
X019712Y012767D01*
X019712Y013228D01*
X019405Y013228D02*
X019098Y012767D01*
X019098Y013228D01*
X018945Y013228D02*
X018791Y013074D01*
X018868Y013074D02*
X018638Y013074D01*
X018638Y013228D02*
X018638Y012767D01*
X018868Y012767D01*
X018945Y012844D01*
X018945Y012997D01*
X018868Y013074D01*
X018707Y013552D02*
X018707Y014143D01*
D18*
X029224Y015425D03*
X029696Y015425D03*
X030544Y015543D03*
X031016Y015543D03*
D19*
X031450Y018507D03*
X031688Y018507D03*
X031688Y018871D03*
X031702Y018997D03*
X031450Y018871D03*
X030778Y019263D03*
X030778Y019277D03*
X030778Y019291D03*
X030778Y019305D03*
X030778Y019333D03*
X030778Y019347D03*
X030778Y019445D03*
X030778Y019473D03*
X030778Y019487D03*
X030778Y019501D03*
X030778Y019515D03*
X030778Y019543D03*
X030428Y019347D03*
X030232Y019375D03*
X030232Y019403D03*
X030232Y019417D03*
X030232Y019431D03*
X030344Y019571D03*
X029392Y019305D03*
X029392Y019291D03*
X029182Y019487D03*
X029182Y019501D03*
X028454Y018997D03*
X028440Y019011D03*
X028482Y018633D03*
X028454Y018591D03*
X028440Y018577D03*
X027964Y018563D03*
X027950Y018577D03*
X027908Y018633D03*
X027908Y018955D03*
X027950Y019011D03*
X027964Y019025D03*
X027460Y018577D03*
X026942Y018591D03*
X026928Y018605D03*
X026928Y018983D03*
X026942Y018997D03*
X026424Y018535D03*
X025920Y018591D03*
X025934Y018983D03*
X025920Y018997D03*
X025108Y018913D03*
X025080Y018885D03*
X025010Y018801D03*
X024982Y018773D03*
X024898Y018675D03*
X024884Y018661D03*
X024870Y018647D03*
X024772Y018535D03*
X024478Y019053D03*
X024464Y019067D03*
X024198Y019067D03*
X024184Y019053D03*
X029574Y018381D03*
D20*
X029245Y018955D03*
X029021Y019291D03*
X029021Y019305D03*
X029189Y019515D03*
X028769Y019557D03*
X027929Y019557D03*
X027663Y019137D03*
X027663Y019123D03*
X027663Y019095D03*
X027663Y019081D03*
X027663Y019067D03*
X027663Y019053D03*
X027663Y019025D03*
X027663Y019011D03*
X027663Y018997D03*
X027663Y018983D03*
X027663Y018955D03*
X027663Y018941D03*
X027663Y018927D03*
X027663Y018913D03*
X027663Y018885D03*
X027663Y018871D03*
X027663Y018857D03*
X027663Y018843D03*
X027663Y018815D03*
X027663Y018801D03*
X027663Y018787D03*
X027663Y018773D03*
X027663Y018745D03*
X027663Y018731D03*
X027663Y018717D03*
X027663Y018703D03*
X027663Y018675D03*
X027663Y018661D03*
X027663Y018647D03*
X027663Y018633D03*
X027663Y018605D03*
X027663Y018591D03*
X027663Y018577D03*
X027663Y018563D03*
X027663Y018535D03*
X027663Y018521D03*
X027663Y018507D03*
X027663Y018493D03*
X027663Y018465D03*
X027663Y018451D03*
X027929Y018605D03*
X027901Y018647D03*
X027887Y018675D03*
X027873Y018717D03*
X027873Y018731D03*
X027873Y018745D03*
X027873Y018843D03*
X027873Y018857D03*
X027873Y018871D03*
X027887Y018913D03*
X027901Y018941D03*
X027929Y018983D03*
X027453Y019011D03*
X026907Y018955D03*
X026907Y018941D03*
X026893Y018927D03*
X026893Y018913D03*
X026879Y018885D03*
X026879Y018871D03*
X026865Y018787D03*
X026879Y018731D03*
X026879Y018717D03*
X026879Y018703D03*
X026893Y018675D03*
X026893Y018661D03*
X026907Y018647D03*
X026907Y018633D03*
X026571Y018815D03*
X026557Y018801D03*
X026557Y018787D03*
X026529Y018731D03*
X026515Y018703D03*
X026501Y018675D03*
X026501Y018661D03*
X026487Y018647D03*
X026487Y018633D03*
X026473Y018605D03*
X026389Y018605D03*
X026375Y018633D03*
X026361Y018647D03*
X026361Y018661D03*
X026347Y018675D03*
X026333Y018703D03*
X026333Y018717D03*
X026319Y018731D03*
X026319Y018745D03*
X026305Y018773D03*
X026291Y018801D03*
X026277Y018843D03*
X026235Y018913D03*
X026235Y018927D03*
X026221Y018941D03*
X026221Y018955D03*
X026207Y018983D03*
X026193Y018997D03*
X026193Y019011D03*
X026179Y019025D03*
X026165Y019067D03*
X026151Y019095D03*
X026137Y019123D03*
X025955Y018955D03*
X025955Y018941D03*
X025969Y018913D03*
X025983Y018857D03*
X025983Y018843D03*
X025983Y018815D03*
X025983Y018787D03*
X025983Y018773D03*
X025983Y018745D03*
X025969Y018703D03*
X025955Y018661D03*
X025955Y018647D03*
X025941Y018633D03*
X025927Y018605D03*
X026431Y018521D03*
X026585Y018843D03*
X026613Y018913D03*
X026627Y018941D03*
X026655Y018997D03*
X026655Y019011D03*
X026669Y019025D03*
X026683Y019053D03*
X026683Y019067D03*
X026697Y019081D03*
X026697Y019095D03*
X026711Y019123D03*
X027089Y019417D03*
X027299Y019277D03*
X028461Y018983D03*
X028475Y018955D03*
X028489Y018941D03*
X028489Y018927D03*
X028503Y018913D03*
X028517Y018857D03*
X028517Y018843D03*
X028517Y018745D03*
X028517Y018731D03*
X028503Y018675D03*
X028489Y018647D03*
X028461Y018605D03*
X028195Y018353D03*
X028181Y018367D03*
X028209Y018325D03*
X028223Y018311D03*
X028237Y018297D03*
X028251Y018283D03*
X025227Y019053D03*
X025143Y018955D03*
X025129Y018941D03*
X025115Y018927D03*
X025059Y018857D03*
X025045Y018843D03*
X025017Y018815D03*
X024961Y018745D03*
X024947Y018731D03*
X024933Y018717D03*
X024919Y018703D03*
X024863Y018633D03*
X024765Y018633D03*
X024765Y018647D03*
X024765Y018661D03*
X024765Y018675D03*
X024765Y018703D03*
X024765Y018717D03*
X024765Y018731D03*
X024765Y018745D03*
X024765Y018773D03*
X024765Y018787D03*
X024765Y018801D03*
X024765Y018815D03*
X024765Y018843D03*
X024765Y018857D03*
X024765Y018871D03*
X024765Y018885D03*
X024765Y018913D03*
X024765Y018927D03*
X024765Y018941D03*
X024765Y018955D03*
X024765Y018983D03*
X024765Y018997D03*
X024765Y019011D03*
X024765Y019025D03*
X024765Y019053D03*
X024765Y019067D03*
X024765Y019081D03*
X024765Y019095D03*
X024765Y019123D03*
X024513Y018997D03*
X024499Y019025D03*
X024527Y018885D03*
X024527Y018871D03*
X024527Y018857D03*
X024527Y018843D03*
X024527Y018815D03*
X024527Y018801D03*
X024527Y018787D03*
X024527Y018773D03*
X024527Y018745D03*
X024527Y018731D03*
X024527Y018717D03*
X024527Y018703D03*
X024527Y018675D03*
X024527Y018661D03*
X024527Y018647D03*
X024527Y018633D03*
X024527Y018605D03*
X024527Y018591D03*
X024527Y018577D03*
X024527Y018563D03*
X024527Y018535D03*
X024527Y018521D03*
X024527Y018507D03*
X024527Y018493D03*
X024527Y018465D03*
X024765Y018521D03*
X024149Y018997D03*
X024163Y019025D03*
X031457Y019193D03*
X031667Y019137D03*
X031681Y018745D03*
X031681Y018633D03*
X031457Y018633D03*
X031457Y018745D03*
X031457Y018283D03*
X031681Y018283D03*
D21*
X030239Y019361D03*
X030239Y019445D03*
X030253Y019487D03*
X029693Y019487D03*
X029693Y019473D03*
X029693Y019445D03*
X029693Y019431D03*
X029693Y019417D03*
X029693Y019403D03*
X029693Y019375D03*
X029693Y019361D03*
X029693Y019347D03*
X029693Y019333D03*
X029693Y019501D03*
X029693Y019515D03*
X029693Y019543D03*
X029693Y019557D03*
X027999Y019053D03*
X026963Y019025D03*
X026949Y019011D03*
X026949Y018577D03*
X026963Y018563D03*
X027999Y018535D03*
X025899Y018577D03*
X025899Y019025D03*
X025213Y019025D03*
X024443Y019081D03*
D22*
X028874Y018997D03*
X029924Y018605D03*
X031114Y018983D03*
X031114Y018997D03*
X030344Y019305D03*
X030344Y019501D03*
X030008Y019501D03*
X030008Y019515D03*
X030008Y019543D03*
X030008Y019557D03*
X030008Y019305D03*
X030008Y019291D03*
X030008Y019277D03*
X030008Y019263D03*
D23*
X030309Y019123D03*
X030309Y019095D03*
X030309Y019081D03*
X030309Y019067D03*
X030309Y019053D03*
X030309Y019025D03*
X030309Y019011D03*
X030309Y018997D03*
X030309Y018983D03*
X030309Y018955D03*
X030309Y018941D03*
X030309Y018927D03*
X030309Y018913D03*
X030309Y018885D03*
X030309Y018871D03*
X030309Y018857D03*
X030309Y018843D03*
X030309Y018815D03*
X030309Y018801D03*
X030309Y018787D03*
X030309Y018773D03*
X031177Y019151D03*
X031233Y019207D03*
X030337Y019557D03*
X028769Y019543D03*
X028769Y019263D03*
X028769Y018815D03*
X028769Y018801D03*
X028769Y018787D03*
X028769Y018773D03*
X027929Y019543D03*
X025829Y019067D03*
X031163Y018311D03*
X031177Y018297D03*
X031975Y018325D03*
D24*
X031667Y019193D03*
X030715Y018633D03*
X029581Y018241D03*
X028811Y018661D03*
X028797Y018675D03*
X028797Y018913D03*
X028811Y018941D03*
X027005Y019543D03*
X025801Y018521D03*
D25*
X024751Y018493D03*
X025241Y019095D03*
X026935Y019291D03*
X026935Y019305D03*
X026935Y019333D03*
X026935Y019347D03*
X026935Y019361D03*
X026935Y019375D03*
X026935Y019417D03*
X026935Y019431D03*
X026935Y019445D03*
X026935Y019473D03*
X026935Y019487D03*
X026935Y019501D03*
X026935Y019515D03*
X027117Y019487D03*
X027117Y019473D03*
X027117Y019445D03*
X027201Y019501D03*
X027201Y019515D03*
X027215Y019487D03*
X027215Y019473D03*
X027187Y019543D03*
X027257Y019375D03*
X027257Y019361D03*
X027257Y019347D03*
X027271Y019333D03*
X027327Y019305D03*
X027341Y019333D03*
X027341Y019347D03*
X027355Y019361D03*
X027355Y019375D03*
X027397Y019473D03*
X027397Y019487D03*
X027411Y019515D03*
X027425Y019543D03*
X027691Y019501D03*
X027817Y019445D03*
X027817Y019431D03*
X027817Y019417D03*
X027817Y019403D03*
X027817Y019375D03*
X027817Y019361D03*
X027817Y019347D03*
X027705Y019347D03*
X027705Y019333D03*
X027831Y019487D03*
X028027Y019487D03*
X028041Y019473D03*
X028027Y019333D03*
X028405Y019333D03*
X028405Y019347D03*
X028405Y019361D03*
X028405Y019375D03*
X028405Y019403D03*
X028405Y019417D03*
X028405Y019431D03*
X028405Y019445D03*
X028405Y019473D03*
X028405Y019487D03*
X028405Y019501D03*
X028405Y019515D03*
X028405Y019305D03*
X028405Y019291D03*
X028405Y019277D03*
X028405Y019263D03*
X028657Y019333D03*
X028657Y019347D03*
X028657Y019361D03*
X028657Y019445D03*
X028657Y019473D03*
X028671Y019487D03*
X028867Y019501D03*
X028881Y019473D03*
X028895Y019445D03*
X028895Y019431D03*
X028895Y019417D03*
X028895Y019403D03*
X028895Y019375D03*
X028895Y019361D03*
X028895Y019347D03*
X028881Y019333D03*
X028867Y019305D03*
X029007Y019263D03*
X029077Y019361D03*
X029105Y019403D03*
X029147Y019473D03*
X029287Y019515D03*
X029301Y019501D03*
X029301Y019487D03*
X029301Y019473D03*
X029357Y019347D03*
X029357Y019333D03*
X029427Y019333D03*
X029441Y019361D03*
X029441Y019375D03*
X029455Y019403D03*
X029497Y019501D03*
X029497Y019515D03*
X029511Y019543D03*
X030421Y019445D03*
X031471Y019165D03*
X031471Y019151D03*
X031471Y019137D03*
X031471Y019123D03*
X031471Y018983D03*
X031457Y018843D03*
X031457Y018773D03*
X031457Y018605D03*
X031457Y018381D03*
X031457Y018311D03*
X031681Y018311D03*
X031681Y018367D03*
X031681Y018381D03*
X031681Y018535D03*
X031681Y018605D03*
X031681Y018773D03*
X031681Y018843D03*
X031681Y019123D03*
X027201Y018437D03*
D26*
X027453Y018997D03*
X027509Y019291D03*
X027509Y019305D03*
X027509Y019333D03*
X027509Y019347D03*
X027509Y019361D03*
X027509Y019375D03*
X027509Y019431D03*
X027509Y019445D03*
X027509Y019473D03*
X027509Y019487D03*
X027509Y019501D03*
X027509Y019515D03*
X027509Y019543D03*
X027369Y019417D03*
X027369Y019403D03*
X027243Y019403D03*
X027103Y019361D03*
X027103Y019347D03*
X027103Y019333D03*
X027103Y019305D03*
X027719Y019543D03*
X028139Y019515D03*
X028139Y019501D03*
X028139Y019487D03*
X028139Y019473D03*
X028139Y019445D03*
X028139Y019431D03*
X028139Y019417D03*
X028139Y019375D03*
X028139Y019361D03*
X028139Y019347D03*
X028139Y019333D03*
X028139Y019305D03*
X028139Y019291D03*
X028643Y019375D03*
X028643Y019403D03*
X028643Y019417D03*
X028643Y019431D03*
X029063Y019347D03*
X029119Y019431D03*
X029133Y019445D03*
X029203Y019445D03*
X029203Y019431D03*
X029203Y019417D03*
X029203Y019403D03*
X029203Y019375D03*
X029203Y019361D03*
X029203Y019347D03*
X029203Y019333D03*
X029203Y019305D03*
X029203Y019291D03*
X029203Y019277D03*
X029203Y019263D03*
X029343Y019361D03*
X029343Y019375D03*
X029329Y019403D03*
X029329Y019417D03*
X029203Y019473D03*
X029483Y019473D03*
D27*
X029224Y018997D03*
X028230Y019543D03*
X027600Y019277D03*
X027208Y018451D03*
X030344Y019277D03*
X031562Y019347D03*
X031142Y018395D03*
D28*
X031142Y018367D03*
X031450Y018675D03*
X031142Y019081D03*
X031142Y019095D03*
X030344Y019543D03*
X029392Y019445D03*
X028818Y018955D03*
X028818Y018647D03*
X028832Y018633D03*
X029574Y018325D03*
X029574Y018311D03*
X029574Y018297D03*
X029574Y018283D03*
X029574Y018255D03*
X028482Y019543D03*
X027012Y019403D03*
X027012Y019277D03*
X023302Y018101D03*
D29*
X027236Y019417D03*
X029000Y019417D03*
X029000Y019403D03*
X029000Y019375D03*
X029000Y019361D03*
X029000Y019347D03*
X029000Y019333D03*
X029000Y019431D03*
X029000Y019445D03*
X029000Y019473D03*
X029000Y019487D03*
X029000Y019501D03*
X029000Y019515D03*
X029000Y019543D03*
X031352Y019123D03*
X031352Y019095D03*
X031352Y019081D03*
X031352Y019067D03*
X031352Y019053D03*
X031352Y019025D03*
X031352Y019011D03*
X031352Y018997D03*
X031352Y018983D03*
X031450Y018815D03*
X031450Y018801D03*
X031450Y018787D03*
X031450Y018591D03*
X031450Y018577D03*
X031450Y018563D03*
X031450Y018367D03*
X031450Y018353D03*
X031450Y018325D03*
X031590Y019053D03*
X031590Y019067D03*
X031702Y019025D03*
D30*
X029196Y019543D03*
X029056Y019333D03*
X028846Y019291D03*
X028846Y019515D03*
X028006Y019515D03*
X028006Y019291D03*
X027656Y019445D03*
X027306Y019263D03*
X027096Y019515D03*
X027866Y018815D03*
X027866Y018801D03*
X027866Y018787D03*
X027866Y018773D03*
X028496Y018661D03*
X026536Y018745D03*
X025976Y018731D03*
X025976Y018717D03*
X025976Y018871D03*
X025976Y018885D03*
X024506Y019011D03*
X024156Y019011D03*
D31*
X024142Y018983D03*
X024142Y018955D03*
X024142Y018941D03*
X024142Y018927D03*
X024142Y018913D03*
X024142Y018885D03*
X024142Y018871D03*
X024142Y018857D03*
X024142Y018843D03*
X024142Y018815D03*
X024142Y018801D03*
X024142Y018787D03*
X024142Y018773D03*
X024142Y018745D03*
X024142Y018731D03*
X024142Y018717D03*
X024142Y018703D03*
X024142Y018675D03*
X024142Y018661D03*
X024142Y018647D03*
X024142Y018633D03*
X024142Y018605D03*
X024142Y018591D03*
X024142Y018577D03*
X024142Y018563D03*
X024142Y018535D03*
X024142Y018521D03*
X024142Y018507D03*
X024142Y018493D03*
X024142Y018465D03*
X024520Y018913D03*
X024520Y018927D03*
X024520Y018941D03*
X024520Y018955D03*
X024520Y018983D03*
X024758Y018507D03*
X025234Y018507D03*
X025234Y018493D03*
X025234Y018465D03*
X025234Y018521D03*
X025234Y018535D03*
X025234Y018563D03*
X025234Y018577D03*
X025234Y018591D03*
X025234Y018605D03*
X025234Y018633D03*
X025234Y018647D03*
X025234Y018661D03*
X025234Y018675D03*
X025234Y018703D03*
X025234Y018717D03*
X025234Y018731D03*
X025234Y018745D03*
X025234Y018773D03*
X025234Y018787D03*
X025234Y018801D03*
X025234Y018815D03*
X025234Y018843D03*
X025234Y018857D03*
X025234Y018871D03*
X025234Y018885D03*
X025234Y018913D03*
X025234Y018927D03*
X025234Y018941D03*
X025234Y018955D03*
X025234Y019067D03*
X025234Y019081D03*
X025472Y019067D03*
X025472Y019053D03*
X025472Y019025D03*
X025472Y019011D03*
X025472Y018997D03*
X025472Y018983D03*
X025472Y018955D03*
X025472Y018941D03*
X025472Y018927D03*
X025472Y018913D03*
X025472Y018885D03*
X025472Y018871D03*
X025472Y018857D03*
X025472Y018843D03*
X025472Y018815D03*
X025472Y018801D03*
X025472Y018787D03*
X025472Y018773D03*
X025472Y018745D03*
X025472Y018731D03*
X025472Y018717D03*
X025472Y018703D03*
X025472Y018675D03*
X025472Y018661D03*
X025472Y018647D03*
X025472Y018633D03*
X025472Y018605D03*
X025472Y018591D03*
X025472Y018577D03*
X025472Y018563D03*
X025472Y018535D03*
X025472Y018521D03*
X025962Y018675D03*
X025990Y018801D03*
X025962Y018927D03*
X026172Y019053D03*
X026158Y019081D03*
X026284Y018815D03*
X026298Y018787D03*
X026522Y018717D03*
X026550Y018773D03*
X026620Y018927D03*
X026634Y018955D03*
X026648Y018983D03*
X026872Y018857D03*
X026872Y018843D03*
X026872Y018815D03*
X026872Y018801D03*
X026872Y018773D03*
X026872Y018745D03*
X026424Y018507D03*
X026424Y018493D03*
X027460Y018591D03*
X027880Y018703D03*
X027894Y018661D03*
X027880Y018885D03*
X027894Y018927D03*
X028510Y018885D03*
X028510Y018871D03*
X028524Y018815D03*
X028524Y018801D03*
X028524Y018787D03*
X028524Y018773D03*
X028510Y018717D03*
X028510Y018703D03*
X028188Y018437D03*
X028174Y018381D03*
X029238Y018647D03*
X029574Y018185D03*
X031450Y018297D03*
X031450Y018395D03*
X031450Y018521D03*
X031450Y018535D03*
X031688Y018521D03*
X031688Y018395D03*
X031688Y018297D03*
X031688Y018857D03*
X031702Y019011D03*
X031828Y019123D03*
X031450Y018857D03*
X029490Y019487D03*
X029462Y019417D03*
X029392Y019277D03*
X029392Y019263D03*
X029280Y019543D03*
X029112Y019417D03*
X029084Y019375D03*
X029014Y019277D03*
X028874Y019487D03*
X028692Y019515D03*
X028678Y019501D03*
X028678Y019305D03*
X028692Y019291D03*
X028020Y019305D03*
X027852Y019291D03*
X027838Y019305D03*
X027824Y019333D03*
X027698Y019305D03*
X027684Y019291D03*
X027698Y019361D03*
X027684Y019375D03*
X027642Y019431D03*
X027670Y019473D03*
X027684Y019487D03*
X027698Y019515D03*
X027824Y019473D03*
X027838Y019501D03*
X027852Y019515D03*
X028020Y019501D03*
X027404Y019501D03*
X027110Y019501D03*
X027110Y019431D03*
X027082Y019375D03*
X027082Y019291D03*
D32*
X028391Y019053D03*
X029245Y018633D03*
X028391Y018535D03*
X027411Y018535D03*
X025885Y018563D03*
X029931Y019333D03*
X029931Y019347D03*
X029931Y019361D03*
X029931Y019431D03*
X029931Y019445D03*
X029931Y019473D03*
X029931Y019487D03*
X030421Y019487D03*
X030435Y019473D03*
X030435Y019333D03*
X030575Y019333D03*
X030575Y019347D03*
X030575Y019361D03*
X030575Y019305D03*
X030575Y019291D03*
X030575Y019277D03*
X030575Y019263D03*
X030575Y019445D03*
X030575Y019473D03*
X030575Y019487D03*
X030575Y019501D03*
X030575Y019515D03*
X030575Y019543D03*
X030771Y019361D03*
X031457Y018731D03*
X031457Y018647D03*
X031681Y018647D03*
X031681Y018731D03*
D33*
X030708Y018619D03*
X029574Y018269D03*
X028482Y019529D03*
X027012Y019529D03*
D34*
X027194Y019529D03*
X027712Y019529D03*
X028524Y018829D03*
X028524Y018759D03*
X028874Y019319D03*
X028888Y019459D03*
X029140Y019459D03*
X031464Y019179D03*
X031450Y018759D03*
X031450Y018619D03*
X031688Y018619D03*
X031688Y018759D03*
X026872Y018759D03*
X026872Y018829D03*
X026144Y019109D03*
X025472Y019039D03*
X025472Y018969D03*
X025472Y018899D03*
X025472Y018829D03*
X025472Y018759D03*
X025472Y018689D03*
X025472Y018619D03*
X025472Y018549D03*
X025234Y018549D03*
X025234Y018479D03*
X025234Y018619D03*
X025234Y018689D03*
X025234Y018759D03*
X025234Y018829D03*
X025234Y018899D03*
X025234Y018969D03*
X024520Y018969D03*
X024520Y018899D03*
X024142Y018899D03*
X024142Y018829D03*
X024142Y018759D03*
X024142Y018689D03*
X024142Y018619D03*
X024142Y018549D03*
X024142Y018479D03*
X024142Y018969D03*
D35*
X024751Y018479D03*
X026431Y018479D03*
X026935Y019319D03*
X026935Y019459D03*
X027117Y019459D03*
X027271Y019319D03*
X027327Y019319D03*
X027355Y019389D03*
X027411Y019529D03*
X027705Y019319D03*
X027831Y019319D03*
X027817Y019389D03*
X027817Y019459D03*
X028041Y019459D03*
X028027Y019319D03*
X028405Y019319D03*
X028405Y019389D03*
X028405Y019459D03*
X028657Y019459D03*
X028671Y019319D03*
X028895Y019389D03*
X029091Y019389D03*
X029287Y019529D03*
X029455Y019389D03*
X029427Y019319D03*
X029511Y019529D03*
X031471Y019109D03*
X031457Y018549D03*
X031681Y018549D03*
D36*
X029343Y019389D03*
X029203Y019389D03*
X029203Y019319D03*
X029203Y019459D03*
X028643Y019389D03*
X028139Y019319D03*
X028139Y019459D03*
X027663Y019459D03*
X027509Y019459D03*
X027509Y019529D03*
X027509Y019319D03*
X027243Y019389D03*
X027103Y019319D03*
D37*
X027929Y019529D03*
X028769Y019529D03*
X029889Y018689D03*
X030309Y018689D03*
X031149Y018339D03*
X031149Y019109D03*
D38*
X031128Y019039D03*
X029910Y018619D03*
X028230Y019529D03*
X027600Y019389D03*
D39*
X029000Y019389D03*
X029000Y019459D03*
X029000Y019529D03*
X031352Y019109D03*
X031352Y019039D03*
X031450Y018829D03*
X031702Y019039D03*
X031450Y018339D03*
D40*
X029196Y019529D03*
X027866Y018829D03*
X027866Y018759D03*
X026886Y018899D03*
X025976Y018899D03*
D41*
X024779Y018549D03*
X027439Y019039D03*
X029693Y019389D03*
X029693Y019459D03*
X029693Y019529D03*
X030239Y019459D03*
D42*
X030008Y019529D03*
D43*
X030337Y019529D03*
X029399Y019459D03*
X028839Y018969D03*
X028223Y019389D03*
X027299Y019459D03*
D44*
X026977Y019039D03*
X026977Y018549D03*
X026431Y018549D03*
X025885Y019039D03*
X029931Y019319D03*
X029931Y019459D03*
X030435Y019459D03*
X030575Y019459D03*
X030575Y019529D03*
X030575Y019319D03*
X030421Y019319D03*
X031457Y018269D03*
X031681Y018269D03*
D45*
X031688Y018409D03*
X031450Y018409D03*
X030778Y019319D03*
X030778Y019459D03*
X030778Y019529D03*
X030232Y019389D03*
X029028Y019319D03*
X028412Y019039D03*
X027978Y019039D03*
X027978Y018549D03*
X028412Y018549D03*
X028258Y018269D03*
X027432Y018549D03*
X026914Y018619D03*
X025934Y018619D03*
X025220Y019039D03*
X025150Y018969D03*
X025094Y018899D03*
X024968Y018759D03*
X024912Y018689D03*
X024492Y019039D03*
X024170Y019039D03*
D46*
X024331Y019123D03*
X028867Y018605D03*
X030001Y019375D03*
X030001Y019403D03*
X030001Y019417D03*
X030337Y019515D03*
X030337Y019291D03*
X031121Y019025D03*
X031121Y019011D03*
D47*
X030246Y019333D03*
X030246Y019347D03*
X030246Y019473D03*
X028426Y019025D03*
X027936Y018997D03*
X027936Y018591D03*
X027446Y018563D03*
X027446Y019025D03*
X027306Y019291D03*
X028426Y018563D03*
X025906Y019011D03*
X025066Y018871D03*
X024996Y018787D03*
D48*
X027306Y019431D03*
X027306Y019445D03*
X027586Y019403D03*
X027586Y019263D03*
X029896Y018661D03*
X029896Y018647D03*
X030316Y018661D03*
X030316Y018675D03*
X031996Y018381D03*
D49*
X031989Y018367D03*
X031989Y018353D03*
X031149Y018353D03*
X030729Y018661D03*
X030309Y018703D03*
X030309Y018717D03*
X029889Y018675D03*
X029399Y019431D03*
X028769Y019277D03*
X027929Y019277D03*
D50*
X028195Y018465D03*
X029693Y019263D03*
X029693Y019277D03*
X029693Y019291D03*
X029693Y019305D03*
X030673Y019375D03*
X030673Y019403D03*
X030673Y019417D03*
X030673Y019431D03*
X031093Y018843D03*
X031093Y018815D03*
X031093Y018605D03*
X031093Y018591D03*
X031093Y018577D03*
X031093Y018563D03*
X031107Y018521D03*
X030589Y018493D03*
X030169Y018493D03*
X029945Y018591D03*
X031975Y018437D03*
X032003Y018493D03*
X032017Y018507D03*
X032045Y018773D03*
X032045Y018787D03*
X032045Y018801D03*
X032045Y018815D03*
X031947Y019067D03*
X031933Y019095D03*
D51*
X031170Y019137D03*
X031156Y019123D03*
X030736Y019123D03*
X030736Y019095D03*
X030736Y019081D03*
X030736Y019067D03*
X030736Y019053D03*
X030736Y019025D03*
X030736Y019011D03*
X030736Y018997D03*
X030736Y018983D03*
X030736Y018955D03*
X030736Y018941D03*
X030736Y018927D03*
X030736Y018913D03*
X030736Y018885D03*
X030736Y018871D03*
X030736Y018857D03*
X030736Y018843D03*
X030736Y018815D03*
X030736Y018801D03*
X030736Y018787D03*
X030736Y018773D03*
X030736Y018745D03*
X030736Y018731D03*
X030736Y018717D03*
X030736Y018703D03*
X030736Y018675D03*
X030722Y018647D03*
X030316Y018731D03*
X030316Y018745D03*
X029882Y018745D03*
X029882Y018731D03*
X029882Y018717D03*
X029882Y018703D03*
X029882Y018773D03*
X029882Y018787D03*
X029882Y018801D03*
X029882Y018815D03*
X029882Y018843D03*
X029882Y018857D03*
X029882Y018871D03*
X029882Y018885D03*
X029882Y018913D03*
X029882Y018927D03*
X029882Y018941D03*
X029882Y018955D03*
X029882Y018983D03*
X029882Y018997D03*
X029882Y019011D03*
X029882Y019025D03*
X029882Y019053D03*
X029882Y019067D03*
X029882Y019081D03*
X029882Y019095D03*
X029882Y019123D03*
X029882Y018521D03*
X029882Y018507D03*
X029882Y018493D03*
X029882Y018465D03*
X029070Y018451D03*
X028790Y018703D03*
X028790Y018717D03*
X028776Y018731D03*
X028776Y018745D03*
X028776Y018843D03*
X028776Y018857D03*
X028776Y018871D03*
X028790Y018885D03*
X027572Y019417D03*
X031156Y018325D03*
X031450Y018437D03*
X031562Y018101D03*
D52*
X031135Y018381D03*
X030701Y018605D03*
X030589Y018465D03*
X030169Y018465D03*
X029903Y018633D03*
X029245Y018605D03*
X028853Y018983D03*
X028195Y019137D03*
X028223Y019263D03*
X028223Y019277D03*
X028223Y019403D03*
X027201Y019137D03*
X028195Y018451D03*
X031135Y019053D03*
X031135Y019067D03*
X031681Y018675D03*
D53*
X029581Y018339D03*
X028797Y018689D03*
X027005Y019389D03*
D54*
X030001Y019389D03*
D55*
X029693Y019319D03*
X030673Y019389D03*
X031093Y018829D03*
X032045Y018829D03*
D56*
X031695Y019053D03*
X031695Y019067D03*
X031695Y019081D03*
X031695Y019095D03*
X030407Y019361D03*
X027453Y018605D03*
X025255Y019123D03*
D57*
X023309Y019347D03*
X032003Y019025D03*
D58*
X031688Y018815D03*
X031688Y018801D03*
X031688Y018787D03*
X031688Y018591D03*
X031688Y018577D03*
X031688Y018563D03*
X031688Y018353D03*
X031688Y018325D03*
X031478Y018997D03*
X031478Y019011D03*
X031478Y019025D03*
X031478Y019053D03*
X031478Y019067D03*
X031478Y019081D03*
X031478Y019095D03*
X029434Y019347D03*
X029238Y018941D03*
X029238Y018661D03*
X027278Y019305D03*
X026424Y018465D03*
X024744Y018465D03*
D59*
X023757Y018731D03*
X023757Y018745D03*
X023757Y018773D03*
X023757Y018787D03*
X023757Y018801D03*
X023757Y018815D03*
X023309Y019333D03*
X022931Y019053D03*
X030589Y018521D03*
X031107Y018661D03*
X032017Y018717D03*
D60*
X032024Y018661D03*
X031562Y019333D03*
X031100Y018731D03*
X031100Y018647D03*
X030162Y018507D03*
X023302Y018115D03*
X022938Y019067D03*
X022938Y019081D03*
D61*
X023302Y019319D03*
D62*
X025248Y019109D03*
X029364Y019319D03*
X031478Y019039D03*
X031688Y019109D03*
X031688Y018829D03*
X031688Y018339D03*
D63*
X031940Y019179D03*
X030260Y019319D03*
D64*
X031562Y019319D03*
X031562Y018129D03*
X022896Y018549D03*
X022896Y018899D03*
D65*
X023309Y019305D03*
X029063Y018535D03*
D66*
X031562Y019305D03*
X023302Y018143D03*
D67*
X023309Y019291D03*
X029063Y019025D03*
X029063Y018563D03*
D68*
X031562Y018157D03*
X031562Y019291D03*
X023554Y019081D03*
X023554Y019067D03*
X023302Y018157D03*
D69*
X023589Y018913D03*
X023589Y018927D03*
X023589Y018941D03*
X023309Y019277D03*
D70*
X023582Y018955D03*
X023302Y018171D03*
X031562Y018171D03*
X031562Y019277D03*
D71*
X023302Y019263D03*
D72*
X024338Y019137D03*
X026998Y019263D03*
X028804Y018927D03*
X029238Y018983D03*
X029574Y018983D03*
X029574Y018997D03*
X029574Y019011D03*
X029574Y019025D03*
X029574Y019053D03*
X029574Y019067D03*
X029574Y019081D03*
X029574Y019095D03*
X029574Y019123D03*
X029574Y018955D03*
X029574Y018941D03*
X029574Y018927D03*
X029574Y018913D03*
X029574Y018885D03*
X029574Y018871D03*
X029574Y018857D03*
X029574Y018843D03*
X029574Y018815D03*
X029574Y018801D03*
X029574Y018787D03*
X029574Y018773D03*
X029574Y018745D03*
X029574Y018731D03*
X029574Y018717D03*
X029574Y018703D03*
X029574Y018675D03*
X029574Y018661D03*
X029574Y018647D03*
X029574Y018633D03*
X029574Y018605D03*
X029574Y018591D03*
X029574Y018577D03*
X029574Y018563D03*
X029574Y018535D03*
X029574Y018521D03*
X029574Y018507D03*
X029574Y018493D03*
X029574Y018465D03*
X029574Y018353D03*
X029574Y018227D03*
X030344Y019263D03*
X031968Y019123D03*
X031688Y018437D03*
D73*
X031688Y018255D03*
X031450Y018255D03*
X031212Y018255D03*
X031184Y018283D03*
X031954Y018283D03*
X031954Y018297D03*
X031968Y018311D03*
X031688Y018717D03*
X031450Y018717D03*
X031702Y018983D03*
X031646Y019151D03*
X031646Y019165D03*
X031954Y019151D03*
X031212Y019193D03*
X031184Y019165D03*
X029574Y018367D03*
X029574Y018213D03*
X028342Y018507D03*
X028048Y018507D03*
X027362Y018507D03*
X027054Y018507D03*
X026424Y018591D03*
X025192Y018983D03*
X024800Y018605D03*
X024800Y018591D03*
X027936Y019263D03*
X028342Y019081D03*
D74*
X031562Y019263D03*
D75*
X023302Y019249D03*
D76*
X024527Y018829D03*
X024527Y018759D03*
X024527Y018689D03*
X024527Y018619D03*
X024527Y018549D03*
X024527Y018479D03*
X024765Y018619D03*
X024765Y018689D03*
X024765Y018759D03*
X024765Y018829D03*
X024765Y018899D03*
X024765Y018969D03*
X024765Y019039D03*
X024765Y019109D03*
X025031Y018829D03*
X024849Y018619D03*
X025969Y018689D03*
X025983Y018759D03*
X025983Y018829D03*
X025941Y018969D03*
X026179Y019039D03*
X026207Y018969D03*
X026277Y018829D03*
X026305Y018759D03*
X026347Y018689D03*
X026375Y018619D03*
X026473Y018619D03*
X026515Y018689D03*
X026543Y018759D03*
X026571Y018829D03*
X026641Y018969D03*
X026669Y019039D03*
X026711Y019109D03*
X026921Y018969D03*
X026879Y018689D03*
X027663Y018689D03*
X027663Y018619D03*
X027663Y018549D03*
X027663Y018479D03*
X027663Y018759D03*
X027663Y018829D03*
X027663Y018899D03*
X027663Y018969D03*
X027663Y019039D03*
X027663Y019109D03*
X027915Y018969D03*
X027887Y018899D03*
X027887Y018689D03*
X027915Y018619D03*
X028209Y018339D03*
X028475Y018619D03*
X028503Y018689D03*
X028503Y018899D03*
X028475Y018969D03*
X028769Y019249D03*
X027929Y019249D03*
D77*
X029252Y018619D03*
X030344Y019249D03*
X031198Y019179D03*
X031198Y018269D03*
X031940Y018269D03*
D78*
X031562Y018199D03*
X031562Y019249D03*
X023302Y018199D03*
D79*
X023302Y019235D03*
D80*
X023295Y018213D03*
X031555Y019235D03*
D81*
X023309Y019221D03*
D82*
X023302Y018227D03*
X031562Y018227D03*
X031562Y019221D03*
D83*
X023302Y019207D03*
D84*
X022910Y018983D03*
X022910Y018493D03*
X025640Y018493D03*
X031590Y019207D03*
D85*
X031912Y019207D03*
X031926Y019193D03*
X031450Y018885D03*
X031450Y018493D03*
X031450Y018423D03*
X028370Y018521D03*
X028020Y018521D03*
X027390Y018521D03*
X027390Y019067D03*
X028020Y019067D03*
X028370Y019067D03*
X025206Y019011D03*
X024786Y018563D03*
X024212Y019081D03*
D86*
X023302Y019193D03*
D87*
X023302Y019179D03*
D88*
X028769Y018829D03*
X030309Y018829D03*
X030309Y018899D03*
X030309Y018969D03*
X030309Y019039D03*
X030309Y019109D03*
X031457Y018899D03*
X031653Y019179D03*
D89*
X023302Y019165D03*
D90*
X024793Y018577D03*
X025199Y018997D03*
X025843Y018535D03*
X027019Y018521D03*
X027019Y019067D03*
X027047Y019081D03*
X027369Y019081D03*
X030169Y018451D03*
X030589Y018451D03*
X031457Y018661D03*
X031919Y018255D03*
X031947Y019165D03*
D91*
X023302Y019151D03*
X023302Y018311D03*
D92*
X023302Y018325D03*
X023302Y019137D03*
D93*
X029056Y019137D03*
X030316Y018647D03*
X031996Y018395D03*
X031996Y019053D03*
D94*
X031961Y019137D03*
D95*
X030302Y018577D03*
X023302Y019123D03*
D96*
X022945Y019095D03*
X025605Y019123D03*
X032031Y018731D03*
X032031Y018647D03*
D97*
X032038Y018633D03*
X032038Y018745D03*
X032024Y018885D03*
X031114Y018885D03*
X031128Y018493D03*
X027208Y018465D03*
X027208Y019123D03*
X025598Y018465D03*
X024324Y019095D03*
D98*
X028188Y019123D03*
X031100Y018535D03*
X031142Y018423D03*
X032024Y018521D03*
X032038Y018563D03*
X032038Y018577D03*
X032038Y018591D03*
X032038Y018605D03*
X032038Y018843D03*
X032010Y018983D03*
D99*
X031940Y019081D03*
X031100Y018871D03*
X031100Y018857D03*
X031086Y018801D03*
X031086Y018787D03*
X031086Y018773D03*
X031100Y018633D03*
X031156Y018437D03*
X031562Y018115D03*
X030316Y018605D03*
X029056Y019123D03*
D100*
X031100Y018619D03*
X022952Y019109D03*
D101*
X023540Y019109D03*
D102*
X024331Y019109D03*
X032031Y018549D03*
D103*
X029063Y019109D03*
X025633Y019109D03*
D104*
X027208Y019109D03*
X027208Y018479D03*
X022924Y019039D03*
D105*
X023757Y018829D03*
X023757Y018759D03*
X028195Y018479D03*
X029063Y018479D03*
X028195Y019109D03*
D106*
X029574Y019109D03*
X029574Y019039D03*
X029574Y018969D03*
X029574Y018899D03*
X029574Y018829D03*
X029574Y018759D03*
X029574Y018689D03*
X029574Y018619D03*
X029574Y018549D03*
X029574Y018479D03*
X031688Y018479D03*
D107*
X031450Y018479D03*
X031982Y018339D03*
X030736Y018689D03*
X030736Y018759D03*
X030736Y018829D03*
X030736Y018899D03*
X030736Y018969D03*
X030736Y019039D03*
X030736Y019109D03*
X030316Y018759D03*
X029882Y018759D03*
X029882Y018829D03*
X029882Y018899D03*
X029882Y018969D03*
X029882Y019039D03*
X029882Y019109D03*
X029882Y018479D03*
X028776Y018759D03*
X028790Y018899D03*
D108*
X031100Y018549D03*
X031926Y019109D03*
D109*
X023547Y019095D03*
D110*
X022896Y018913D03*
X022896Y018885D03*
X022896Y018871D03*
X022896Y018591D03*
X022896Y018577D03*
X022896Y018563D03*
X025654Y018507D03*
X026424Y018885D03*
X025654Y019095D03*
X027208Y019095D03*
X027208Y018493D03*
D111*
X028195Y019095D03*
X022917Y019011D03*
X022917Y018997D03*
X022917Y018465D03*
X022917Y018451D03*
D112*
X022889Y018605D03*
X022889Y018633D03*
X022889Y018647D03*
X022889Y018661D03*
X022889Y018675D03*
X022889Y018703D03*
X022889Y018717D03*
X022889Y018731D03*
X022889Y018745D03*
X022889Y018773D03*
X022889Y018787D03*
X022889Y018801D03*
X022889Y018815D03*
X022889Y018843D03*
X022889Y018857D03*
X029063Y019095D03*
X029063Y018507D03*
D113*
X025661Y019081D03*
D114*
X026431Y018577D03*
X028041Y019081D03*
X031681Y018661D03*
D115*
X029063Y019081D03*
D116*
X029056Y019067D03*
D117*
X023561Y019053D03*
D118*
X025864Y019053D03*
X026424Y018563D03*
X026998Y018535D03*
X026998Y019053D03*
X027418Y019053D03*
X031688Y018885D03*
X031688Y018493D03*
X031688Y018423D03*
D119*
X029056Y019053D03*
D120*
X023561Y019039D03*
D121*
X029063Y019039D03*
X029063Y018549D03*
D122*
X028846Y018619D03*
X031996Y019039D03*
D123*
X031114Y018717D03*
X030162Y018521D03*
X022924Y019025D03*
D124*
X023568Y019025D03*
D125*
X023575Y019011D03*
X023575Y018997D03*
X023575Y018983D03*
D126*
X029063Y019011D03*
X029063Y018591D03*
X029063Y018577D03*
D127*
X030316Y018633D03*
X030680Y018591D03*
X032010Y018997D03*
X032010Y019011D03*
D128*
X022910Y018969D03*
X022910Y018479D03*
D129*
X023582Y018969D03*
D130*
X025864Y018549D03*
X029238Y018969D03*
X029574Y018199D03*
D131*
X031569Y018969D03*
D132*
X029063Y018493D03*
X022903Y018507D03*
X022903Y018521D03*
X022903Y018535D03*
X022903Y018927D03*
X022903Y018941D03*
X022903Y018955D03*
D133*
X031562Y018955D03*
D134*
X031569Y018941D03*
D135*
X031562Y018927D03*
X031562Y018913D03*
D136*
X023596Y018899D03*
D137*
X026431Y018899D03*
D138*
X031128Y018899D03*
X031142Y018479D03*
X032010Y018899D03*
D139*
X031681Y018899D03*
D140*
X023596Y018885D03*
X023596Y018871D03*
X023596Y018857D03*
X023596Y018843D03*
X023596Y018605D03*
X023596Y018591D03*
X023596Y018577D03*
X023596Y018563D03*
D141*
X026431Y018871D03*
D142*
X031121Y018507D03*
X032031Y018857D03*
X032031Y018871D03*
D143*
X031128Y018675D03*
X028188Y018493D03*
X026424Y018857D03*
D144*
X023295Y018129D03*
X022889Y018619D03*
X022889Y018689D03*
X022889Y018759D03*
X022889Y018829D03*
D145*
X031093Y018759D03*
X031989Y018479D03*
D146*
X032038Y018759D03*
D147*
X031093Y018745D03*
X030589Y018507D03*
D148*
X031569Y018185D03*
X023603Y018633D03*
X023603Y018647D03*
X023603Y018661D03*
X023603Y018675D03*
X023603Y018703D03*
X023603Y018717D03*
D149*
X031562Y018703D03*
D150*
X023603Y018689D03*
X023603Y018619D03*
D151*
X031562Y018689D03*
D152*
X032003Y018675D03*
X030589Y018535D03*
X030323Y018591D03*
D153*
X030323Y018619D03*
X030589Y018479D03*
D154*
X032031Y018619D03*
D155*
X030295Y018563D03*
D156*
X030078Y018549D03*
D157*
X030589Y018549D03*
D158*
X030071Y018535D03*
D159*
X032031Y018535D03*
D160*
X031562Y018143D03*
X029070Y018521D03*
D161*
X025626Y018479D03*
D162*
X030162Y018479D03*
X031142Y018409D03*
D163*
X031989Y018423D03*
X029063Y018465D03*
D164*
X031562Y018465D03*
X031562Y018451D03*
D165*
X023302Y018437D03*
X023302Y018423D03*
D166*
X023302Y018409D03*
D167*
X031989Y018409D03*
D168*
X023302Y018395D03*
D169*
X023302Y018381D03*
D170*
X023302Y018367D03*
X023302Y018353D03*
D171*
X023302Y018339D03*
D172*
X023295Y018297D03*
D173*
X023295Y018283D03*
D174*
X023295Y018269D03*
D175*
X023295Y018255D03*
D176*
X023302Y018241D03*
X031562Y018241D03*
D177*
X031569Y018213D03*
D178*
X023295Y018185D03*
D179*
X005407Y020222D03*
X001749Y020222D03*
X003532Y013960D03*
D180*
X006630Y020222D03*
D181*
X006655Y020214D03*
X005436Y020214D03*
X005436Y018879D03*
X006655Y018879D03*
X005776Y016449D03*
X002881Y016449D03*
X002881Y014334D03*
X003561Y013944D03*
X005776Y014334D03*
X001778Y020214D03*
D182*
X003238Y020214D03*
X002749Y014516D03*
X005909Y014516D03*
D183*
X007194Y019119D03*
X003885Y019119D03*
X003885Y019111D03*
X003885Y019094D03*
X003885Y019086D03*
X003885Y019061D03*
X003885Y019045D03*
X003885Y019136D03*
X003885Y019144D03*
X003885Y019169D03*
X003885Y019186D03*
X003885Y019211D03*
X003885Y019235D03*
X003885Y019252D03*
X003885Y019277D03*
X003885Y019285D03*
X003885Y019302D03*
X003885Y019310D03*
X003885Y019335D03*
X003885Y019352D03*
X003885Y019376D03*
X003885Y019401D03*
X003885Y019426D03*
X003885Y019443D03*
X003885Y019468D03*
X003885Y019476D03*
X003885Y019493D03*
X003885Y019501D03*
X003885Y019526D03*
X003885Y019542D03*
X003885Y019567D03*
X003885Y019592D03*
X003885Y019617D03*
X003885Y019634D03*
X003885Y019658D03*
X003885Y019667D03*
X003885Y019683D03*
X003885Y019692D03*
X003885Y019716D03*
X003885Y019733D03*
X003885Y019758D03*
X003885Y019783D03*
X003885Y019799D03*
X003885Y019824D03*
X003885Y019833D03*
X003885Y019849D03*
X003885Y019857D03*
X003885Y019874D03*
X003885Y019882D03*
X003885Y019907D03*
X003885Y019924D03*
X003885Y019949D03*
X003885Y019974D03*
X003885Y019990D03*
X003885Y020015D03*
X003885Y020023D03*
X003885Y020040D03*
X003885Y020048D03*
X003885Y020073D03*
X003885Y020090D03*
X003885Y020115D03*
X003885Y020139D03*
X003885Y020164D03*
X003885Y020181D03*
X003885Y020206D03*
X003885Y020214D03*
X001463Y020048D03*
X001463Y020040D03*
X001463Y020023D03*
X001463Y020015D03*
X001463Y019990D03*
X001463Y019974D03*
X001463Y019949D03*
X001463Y019924D03*
X001463Y019907D03*
X001463Y019882D03*
X001463Y019874D03*
X001463Y019857D03*
X001463Y019849D03*
X001463Y019833D03*
X001463Y019824D03*
X001463Y019799D03*
X001463Y019783D03*
X001463Y019758D03*
X001463Y019733D03*
X001463Y019716D03*
X001463Y019692D03*
X001463Y019683D03*
X001463Y019667D03*
X001463Y019658D03*
X001463Y019634D03*
X001463Y019468D03*
X001463Y019443D03*
X001463Y019426D03*
X001463Y019401D03*
X001463Y019376D03*
X001463Y019352D03*
X001463Y019335D03*
X001463Y019310D03*
X001463Y019302D03*
X001463Y019285D03*
X001463Y019277D03*
X001463Y019252D03*
X001463Y019235D03*
X001463Y019211D03*
X001463Y019186D03*
X001463Y019169D03*
X001463Y019144D03*
X001463Y019136D03*
X001463Y019119D03*
X001463Y019111D03*
X001463Y019094D03*
X001463Y019086D03*
X001463Y019061D03*
X001463Y019045D03*
D184*
X002317Y019136D03*
X002326Y019169D03*
X002326Y019186D03*
X002326Y019211D03*
X002326Y019235D03*
X002326Y019252D03*
X002326Y019277D03*
X002326Y019285D03*
X002326Y019302D03*
X002326Y019310D03*
X002326Y019335D03*
X002682Y019335D03*
X002682Y019352D03*
X002682Y019376D03*
X002682Y019401D03*
X002682Y019426D03*
X002682Y019443D03*
X002682Y019468D03*
X002682Y019476D03*
X002682Y019493D03*
X002682Y019501D03*
X002682Y019526D03*
X002682Y019542D03*
X002682Y019567D03*
X002682Y019592D03*
X002682Y019617D03*
X002682Y019634D03*
X002682Y019658D03*
X002682Y019667D03*
X002682Y019683D03*
X002682Y019692D03*
X002682Y019716D03*
X002682Y019733D03*
X002682Y019758D03*
X002682Y019783D03*
X002682Y019799D03*
X002682Y019824D03*
X002682Y019833D03*
X002682Y019849D03*
X002682Y019857D03*
X002682Y019874D03*
X002682Y019882D03*
X002682Y019907D03*
X002682Y019924D03*
X002326Y019924D03*
X002326Y019907D03*
X002326Y019882D03*
X002326Y019874D03*
X002326Y019857D03*
X002326Y019849D03*
X002326Y019833D03*
X002326Y019824D03*
X002326Y019799D03*
X002326Y019783D03*
X002326Y019758D03*
X002317Y019733D03*
X002682Y019310D03*
X002682Y019302D03*
X002682Y019285D03*
X002682Y019277D03*
X002682Y019252D03*
X002682Y019235D03*
X002682Y019211D03*
X002682Y019186D03*
X002682Y019169D03*
X004756Y019136D03*
X004764Y019169D03*
X004764Y019186D03*
X004764Y019211D03*
X004764Y019235D03*
X004764Y019252D03*
X004764Y019277D03*
X004764Y019285D03*
X004764Y019302D03*
X004764Y019310D03*
X004764Y019335D03*
X004764Y019352D03*
X004764Y019376D03*
X004764Y019401D03*
X004764Y019426D03*
X004764Y019443D03*
X004764Y019468D03*
X004764Y019476D03*
X004764Y019493D03*
X004764Y019501D03*
X004764Y019526D03*
X004764Y019542D03*
X004764Y019567D03*
X004764Y019592D03*
X004764Y019617D03*
X004764Y019634D03*
X004764Y019658D03*
X004764Y019667D03*
X004764Y019683D03*
X004764Y019692D03*
X004764Y019716D03*
X004764Y019733D03*
X004764Y019758D03*
X004764Y019783D03*
X004764Y019799D03*
X004764Y019824D03*
X004764Y019833D03*
X004764Y019849D03*
X004764Y019857D03*
X004764Y019874D03*
X004764Y019882D03*
X004764Y019907D03*
X004764Y019924D03*
X004764Y019949D03*
X004764Y019974D03*
X004764Y019990D03*
X004764Y020015D03*
X004764Y020023D03*
X004764Y020040D03*
X004764Y020048D03*
X004764Y020073D03*
X004764Y020090D03*
X004764Y020115D03*
X004764Y020139D03*
X004764Y020164D03*
X004764Y020181D03*
X004764Y020206D03*
X004764Y020214D03*
X005975Y019974D03*
X005983Y019924D03*
X005983Y019907D03*
X005983Y019882D03*
X005983Y019874D03*
X005983Y019857D03*
X005983Y019849D03*
X005983Y019833D03*
X005983Y019824D03*
X005983Y019799D03*
X005983Y019783D03*
X005983Y019758D03*
X006340Y019758D03*
X006340Y019783D03*
X006340Y019799D03*
X006340Y019824D03*
X006340Y019833D03*
X006340Y019849D03*
X006340Y019857D03*
X006340Y019874D03*
X006340Y019882D03*
X006340Y019907D03*
X006340Y019924D03*
X006340Y019949D03*
X006340Y019974D03*
X006340Y019990D03*
X006340Y020015D03*
X006340Y020023D03*
X006340Y020040D03*
X006340Y020048D03*
X006340Y019733D03*
X006340Y019716D03*
X006340Y019692D03*
X006340Y019683D03*
X006340Y019667D03*
X006340Y019658D03*
X006340Y019634D03*
X006340Y019617D03*
X006340Y019592D03*
X006340Y019567D03*
X006340Y019542D03*
X006340Y019526D03*
X006340Y019501D03*
X006340Y019493D03*
X006340Y019476D03*
X006340Y019468D03*
X006340Y019443D03*
X006340Y019426D03*
X006340Y019401D03*
X006340Y019376D03*
X006340Y019352D03*
X006340Y019335D03*
X006340Y019310D03*
X006340Y019302D03*
X006340Y019285D03*
X006340Y019277D03*
X006340Y019252D03*
X006340Y019235D03*
X006340Y019211D03*
X006340Y019186D03*
X006340Y019169D03*
X006340Y019144D03*
X006340Y019136D03*
X006340Y019119D03*
X006340Y019111D03*
X006340Y019094D03*
X006340Y019086D03*
X006340Y019061D03*
X006340Y019045D03*
X005983Y019169D03*
X005983Y019186D03*
X005983Y019211D03*
X005983Y019235D03*
X005983Y019252D03*
X005983Y019277D03*
X005983Y019285D03*
X005983Y019302D03*
X005983Y019310D03*
X005983Y019335D03*
X007203Y019335D03*
X007203Y019352D03*
X007203Y019376D03*
X007203Y019401D03*
X007203Y019426D03*
X007203Y019443D03*
X007203Y019468D03*
X007203Y019476D03*
X007203Y019493D03*
X007203Y019501D03*
X007203Y019526D03*
X007203Y019542D03*
X007203Y019567D03*
X007203Y019592D03*
X007203Y019617D03*
X007203Y019634D03*
X007203Y019658D03*
X007203Y019667D03*
X007203Y019683D03*
X007203Y019692D03*
X007203Y019716D03*
X007203Y019733D03*
X007203Y019758D03*
X007203Y019783D03*
X007203Y019799D03*
X007203Y019824D03*
X007203Y019833D03*
X007203Y019849D03*
X007203Y019857D03*
X007203Y019874D03*
X007203Y019882D03*
X007203Y019907D03*
X007203Y019924D03*
X007203Y019949D03*
X007203Y019310D03*
X007203Y019302D03*
X007203Y019285D03*
X007203Y019277D03*
X007203Y019252D03*
X007203Y019235D03*
X007203Y019211D03*
X007203Y019186D03*
X007203Y019169D03*
X007203Y019144D03*
X003437Y017286D03*
X005220Y013496D03*
D185*
X005739Y016490D03*
X004329Y016681D03*
X005448Y020206D03*
X001791Y020206D03*
D186*
X003217Y020206D03*
X001774Y018879D03*
X002861Y016424D03*
X005797Y016424D03*
X005813Y016399D03*
X005797Y014358D03*
X002861Y014358D03*
D187*
X002931Y014275D03*
X005726Y014275D03*
X005569Y019526D03*
X005569Y019567D03*
X006672Y020206D03*
D188*
X006680Y020198D03*
X005461Y020198D03*
X005577Y019509D03*
X001803Y020198D03*
X002956Y014242D03*
X005701Y014242D03*
D189*
X005751Y016482D03*
X002906Y016482D03*
X003205Y020198D03*
D190*
X003885Y020198D03*
X003885Y020173D03*
X003885Y020148D03*
X003885Y020131D03*
X003885Y020106D03*
X003885Y020081D03*
X003885Y020057D03*
X003885Y020007D03*
X003885Y019982D03*
X003885Y019957D03*
X003885Y019940D03*
X003885Y019916D03*
X003885Y019891D03*
X003885Y019816D03*
X003885Y019791D03*
X003885Y019766D03*
X003885Y019750D03*
X003885Y019725D03*
X003885Y019700D03*
X003885Y019650D03*
X003885Y019625D03*
X003885Y019600D03*
X003885Y019575D03*
X003885Y019559D03*
X003885Y019534D03*
X003885Y019509D03*
X003885Y019459D03*
X003885Y019434D03*
X003885Y019410D03*
X003885Y019393D03*
X003885Y019368D03*
X003885Y019343D03*
X003885Y019318D03*
X003885Y019269D03*
X003885Y019244D03*
X003885Y019219D03*
X003885Y019202D03*
X003885Y019177D03*
X003885Y019152D03*
X003885Y019078D03*
X003885Y019053D03*
X003885Y019028D03*
X001463Y019028D03*
X001463Y019053D03*
X001463Y019078D03*
X001463Y019152D03*
X001463Y019177D03*
X001463Y019202D03*
X001463Y019219D03*
X001463Y019244D03*
X001463Y019269D03*
X001463Y019318D03*
X001463Y019343D03*
X001463Y019368D03*
X001463Y019393D03*
X001463Y019410D03*
X001463Y019434D03*
X001463Y019459D03*
X001463Y019650D03*
X001463Y019700D03*
X001463Y019725D03*
X001463Y019750D03*
X001463Y019766D03*
X001463Y019791D03*
X001463Y019816D03*
X001463Y019891D03*
X001463Y019916D03*
X001463Y019940D03*
X001463Y019957D03*
X001463Y019982D03*
X001463Y020007D03*
X001463Y020057D03*
D191*
X002317Y019957D03*
X002326Y019916D03*
X002326Y019891D03*
X002326Y019816D03*
X002326Y019791D03*
X002326Y019766D03*
X002317Y019725D03*
X002682Y019725D03*
X002682Y019750D03*
X002682Y019766D03*
X002682Y019791D03*
X002682Y019816D03*
X002682Y019891D03*
X002682Y019916D03*
X002682Y019700D03*
X002682Y019650D03*
X002682Y019625D03*
X002682Y019600D03*
X002682Y019575D03*
X002682Y019559D03*
X002682Y019534D03*
X002682Y019509D03*
X002682Y019459D03*
X002682Y019434D03*
X002682Y019410D03*
X002682Y019393D03*
X002682Y019368D03*
X002682Y019343D03*
X002682Y019318D03*
X002682Y019269D03*
X002682Y019244D03*
X002682Y019219D03*
X002682Y019202D03*
X002682Y019177D03*
X002682Y019152D03*
X002326Y019177D03*
X002326Y019202D03*
X002326Y019219D03*
X002326Y019244D03*
X002326Y019269D03*
X002326Y019318D03*
X002317Y019368D03*
X004764Y019368D03*
X004764Y019343D03*
X004764Y019318D03*
X004764Y019269D03*
X004764Y019244D03*
X004764Y019219D03*
X004764Y019202D03*
X004764Y019177D03*
X004764Y019393D03*
X004764Y019410D03*
X004764Y019434D03*
X004764Y019459D03*
X004764Y019509D03*
X004764Y019534D03*
X004764Y019559D03*
X004764Y019575D03*
X004764Y019600D03*
X004764Y019625D03*
X004764Y019650D03*
X004764Y019700D03*
X004764Y019725D03*
X004764Y019750D03*
X004764Y019766D03*
X004764Y019791D03*
X004764Y019816D03*
X004764Y019891D03*
X004764Y019916D03*
X004764Y019940D03*
X004764Y019957D03*
X004764Y019982D03*
X004764Y020007D03*
X004764Y020057D03*
X004764Y020081D03*
X004764Y020106D03*
X004764Y020131D03*
X004764Y020148D03*
X004764Y020173D03*
X004764Y020198D03*
X005983Y019940D03*
X005983Y019916D03*
X005983Y019891D03*
X005983Y019816D03*
X005983Y019791D03*
X005983Y019766D03*
X005983Y019750D03*
X005975Y019725D03*
X006340Y019725D03*
X006340Y019750D03*
X006340Y019766D03*
X006340Y019791D03*
X006340Y019816D03*
X006340Y019891D03*
X006340Y019916D03*
X006340Y019940D03*
X006340Y019957D03*
X006340Y019982D03*
X006340Y020007D03*
X006340Y020057D03*
X006340Y019700D03*
X006340Y019650D03*
X006340Y019625D03*
X006340Y019600D03*
X006340Y019575D03*
X006340Y019559D03*
X006340Y019534D03*
X006340Y019509D03*
X006340Y019459D03*
X006340Y019434D03*
X006340Y019410D03*
X006340Y019393D03*
X006340Y019368D03*
X006340Y019343D03*
X006340Y019318D03*
X006340Y019269D03*
X006340Y019244D03*
X006340Y019219D03*
X006340Y019202D03*
X006340Y019177D03*
X006340Y019152D03*
X006340Y019078D03*
X006340Y019053D03*
X006340Y019028D03*
X005983Y019152D03*
X005983Y019177D03*
X005983Y019202D03*
X005983Y019219D03*
X005983Y019244D03*
X005983Y019269D03*
X005983Y019318D03*
X005983Y019343D03*
X005975Y019368D03*
X007203Y019368D03*
X007203Y019343D03*
X007203Y019318D03*
X007203Y019269D03*
X007203Y019244D03*
X007203Y019219D03*
X007203Y019202D03*
X007203Y019177D03*
X007203Y019152D03*
X007203Y019393D03*
X007203Y019410D03*
X007203Y019434D03*
X007203Y019459D03*
X007203Y019509D03*
X007203Y019534D03*
X007203Y019559D03*
X007203Y019575D03*
X007203Y019600D03*
X007203Y019625D03*
X007203Y019650D03*
X007203Y019700D03*
X007203Y019725D03*
X007203Y019750D03*
X007203Y019766D03*
X007203Y019791D03*
X007203Y019816D03*
X007203Y019891D03*
X007203Y019916D03*
X007203Y019940D03*
X005204Y017295D03*
X002657Y016606D03*
X006000Y014176D03*
X003454Y013488D03*
D192*
X002981Y014217D03*
X005676Y016565D03*
X005469Y018904D03*
X005469Y020189D03*
X001811Y020189D03*
X001811Y018904D03*
D193*
X003192Y020189D03*
D194*
X003885Y020189D03*
X003885Y020156D03*
X003885Y020123D03*
X003885Y020098D03*
X003885Y020065D03*
X003885Y019998D03*
X003885Y019965D03*
X003885Y019932D03*
X003885Y019899D03*
X003885Y019808D03*
X003885Y019775D03*
X003885Y019741D03*
X003885Y019708D03*
X003885Y019642D03*
X003885Y019609D03*
X003885Y019584D03*
X003885Y019551D03*
X003885Y019517D03*
X003885Y019451D03*
X003885Y019418D03*
X003885Y019385D03*
X003885Y019360D03*
X003885Y019327D03*
X003885Y019260D03*
X003885Y019227D03*
X003885Y019194D03*
X003885Y019161D03*
X003885Y019070D03*
X003885Y019036D03*
X001463Y019036D03*
X001463Y019070D03*
X001463Y019161D03*
X001463Y019194D03*
X001463Y019227D03*
X001463Y019260D03*
X001463Y019327D03*
X001463Y019360D03*
X001463Y019385D03*
X001463Y019418D03*
X001463Y019451D03*
X001463Y019642D03*
X001463Y019708D03*
X001463Y019741D03*
X001463Y019775D03*
X001463Y019808D03*
X001463Y019899D03*
X001463Y019932D03*
X001463Y019965D03*
X001463Y019998D03*
X001463Y020065D03*
D195*
X002317Y019965D03*
X002326Y019932D03*
X002326Y019899D03*
X002326Y019808D03*
X002326Y019775D03*
X002682Y019775D03*
X002682Y019808D03*
X002682Y019741D03*
X002682Y019708D03*
X002682Y019642D03*
X002682Y019609D03*
X002682Y019584D03*
X002682Y019551D03*
X002682Y019517D03*
X002682Y019451D03*
X002682Y019418D03*
X002682Y019385D03*
X002682Y019360D03*
X002682Y019327D03*
X002682Y019260D03*
X002682Y019227D03*
X002682Y019194D03*
X002682Y019161D03*
X002326Y019161D03*
X002326Y019194D03*
X002326Y019227D03*
X002326Y019260D03*
X002326Y019327D03*
X002317Y019360D03*
X002682Y019899D03*
X002682Y019932D03*
X002691Y019965D03*
X004764Y019965D03*
X004764Y019932D03*
X004764Y019899D03*
X004764Y019808D03*
X004764Y019775D03*
X004764Y019741D03*
X004764Y019708D03*
X004764Y019642D03*
X004764Y019609D03*
X004764Y019584D03*
X004764Y019551D03*
X004764Y019517D03*
X004764Y019451D03*
X004764Y019418D03*
X004764Y019385D03*
X004764Y019360D03*
X004764Y019327D03*
X004764Y019260D03*
X004764Y019227D03*
X004764Y019194D03*
X004764Y019161D03*
X005983Y019161D03*
X005983Y019194D03*
X005983Y019227D03*
X005983Y019260D03*
X005983Y019327D03*
X006340Y019327D03*
X006340Y019360D03*
X006340Y019385D03*
X006340Y019418D03*
X006340Y019451D03*
X006340Y019517D03*
X006340Y019551D03*
X006340Y019584D03*
X006340Y019609D03*
X006340Y019642D03*
X006340Y019708D03*
X006340Y019741D03*
X006340Y019775D03*
X006340Y019808D03*
X006340Y019899D03*
X006340Y019932D03*
X006340Y019965D03*
X006340Y019998D03*
X006340Y020065D03*
X005983Y019932D03*
X005983Y019899D03*
X005983Y019808D03*
X005983Y019775D03*
X006340Y019260D03*
X006340Y019227D03*
X006340Y019194D03*
X006340Y019161D03*
X006340Y019070D03*
X006340Y019036D03*
X007203Y019161D03*
X007203Y019194D03*
X007203Y019227D03*
X007203Y019260D03*
X007203Y019327D03*
X007203Y019360D03*
X007203Y019385D03*
X007203Y019418D03*
X007203Y019451D03*
X007203Y019517D03*
X007203Y019551D03*
X007203Y019584D03*
X007203Y019609D03*
X007203Y019642D03*
X007203Y019708D03*
X007203Y019741D03*
X007203Y019775D03*
X007203Y019808D03*
X007203Y019899D03*
X007203Y019932D03*
X004764Y019998D03*
X004764Y020065D03*
X004764Y020098D03*
X004764Y020123D03*
X004764Y020156D03*
X004764Y020189D03*
D196*
X005585Y019609D03*
X006688Y020189D03*
X006688Y018904D03*
D197*
X003176Y018920D03*
X001816Y020181D03*
D198*
X003184Y020181D03*
X003566Y016847D03*
D199*
X003595Y013927D03*
X005477Y020181D03*
X006697Y020181D03*
D200*
X005482Y020173D03*
X004246Y018912D03*
X001824Y020173D03*
D201*
X003180Y020173D03*
X003180Y018912D03*
X002973Y014226D03*
D202*
X006705Y020173D03*
D203*
X001828Y020164D03*
X001828Y018929D03*
X005071Y013927D03*
D204*
X003172Y020164D03*
D205*
X005490Y020164D03*
X006709Y020164D03*
X006709Y018929D03*
X005490Y018929D03*
D206*
X005494Y020156D03*
X001836Y020156D03*
D207*
X003167Y020156D03*
D208*
X006713Y020156D03*
D209*
X005498Y020148D03*
X003151Y020131D03*
X001840Y020148D03*
X005042Y016863D03*
D210*
X004329Y017178D03*
X003159Y020148D03*
D211*
X006722Y020148D03*
D212*
X001845Y020139D03*
X001845Y019542D03*
X001845Y018953D03*
D213*
X003155Y020139D03*
X004258Y018929D03*
D214*
X005502Y018953D03*
X006722Y018953D03*
X005502Y020139D03*
D215*
X006726Y020139D03*
X004329Y014118D03*
D216*
X003607Y016863D03*
X001849Y018962D03*
X001849Y019534D03*
X001849Y019559D03*
X001849Y020131D03*
X005506Y020131D03*
X005506Y018962D03*
D217*
X006730Y018962D03*
X006730Y020131D03*
X003138Y020106D03*
X003138Y018987D03*
D218*
X001853Y018970D03*
X001853Y020123D03*
X005511Y020123D03*
X005511Y018970D03*
X006730Y018970D03*
D219*
X003147Y020123D03*
X001845Y019551D03*
D220*
X001857Y019517D03*
X003134Y020098D03*
X006734Y020123D03*
X005208Y015379D03*
X003449Y015379D03*
D221*
X003449Y015370D03*
X003449Y015354D03*
X003449Y015395D03*
X003449Y015403D03*
X003449Y015420D03*
X003449Y015428D03*
X005208Y015420D03*
X005208Y015403D03*
X005208Y015395D03*
X005208Y015370D03*
X005208Y015354D03*
X005515Y018978D03*
X006734Y018978D03*
X005515Y020115D03*
X003134Y020090D03*
X001857Y020115D03*
X001857Y018978D03*
X003134Y018995D03*
D222*
X003143Y018978D03*
X004271Y018945D03*
X003143Y020115D03*
X005050Y013919D03*
D223*
X005204Y015304D03*
X005204Y015329D03*
X005204Y015428D03*
X005204Y015445D03*
X005204Y015453D03*
X005204Y015478D03*
X003454Y015478D03*
X003454Y015453D03*
X003454Y015445D03*
X003454Y015329D03*
X003454Y015304D03*
X006738Y020115D03*
D224*
X005519Y020106D03*
X005519Y018987D03*
X003130Y019011D03*
X001861Y018987D03*
X001861Y019509D03*
X001861Y020106D03*
X003130Y020081D03*
X003462Y015271D03*
D225*
X003454Y015321D03*
X003454Y015337D03*
X003454Y015462D03*
X005204Y015462D03*
X005204Y015337D03*
X005204Y015321D03*
X006738Y018987D03*
X006738Y020106D03*
D226*
X006742Y020098D03*
X005523Y020098D03*
X003126Y020065D03*
X001865Y020098D03*
X001865Y019003D03*
X004329Y017170D03*
X004329Y016656D03*
X003458Y015503D03*
X003458Y015279D03*
D227*
X003458Y015287D03*
X003466Y015262D03*
X003466Y015254D03*
X003458Y015495D03*
X003466Y015520D03*
X005191Y015520D03*
X005200Y015495D03*
X005200Y015287D03*
X005191Y015262D03*
X005191Y015254D03*
X005523Y018995D03*
X004287Y018978D03*
X003126Y019020D03*
X001865Y018995D03*
X001865Y019493D03*
X001865Y020090D03*
X003126Y020073D03*
X006742Y018995D03*
D228*
X006746Y020090D03*
X005527Y020090D03*
X001869Y019617D03*
X001869Y019476D03*
X003470Y015544D03*
X003470Y015238D03*
X003470Y015229D03*
X005187Y015229D03*
X005187Y015238D03*
X005187Y015544D03*
D229*
X003470Y015553D03*
X003636Y013911D03*
X001869Y019011D03*
X001869Y020081D03*
X005527Y020081D03*
X005527Y019011D03*
X006746Y019011D03*
D230*
X006751Y020081D03*
X005175Y015578D03*
X005175Y015196D03*
X003483Y015196D03*
D231*
X003474Y015561D03*
X005183Y015561D03*
X004295Y018995D03*
X001874Y019020D03*
X001874Y020073D03*
D232*
X005531Y020073D03*
X006751Y020073D03*
X006751Y019020D03*
X005531Y019020D03*
X005017Y016872D03*
X005175Y015586D03*
X003483Y015586D03*
D233*
X002243Y020065D03*
X007128Y020065D03*
D234*
X005905Y020065D03*
D235*
X005917Y020057D03*
X005917Y019459D03*
X002259Y019459D03*
X002259Y020057D03*
D236*
X002757Y020057D03*
X005900Y019028D03*
D237*
X007140Y020057D03*
D238*
X007153Y020048D03*
X005934Y020048D03*
X007153Y019045D03*
X004706Y019045D03*
X002732Y020040D03*
X002268Y020048D03*
X002268Y019045D03*
X005212Y017278D03*
D239*
X005929Y019045D03*
X002744Y020048D03*
D240*
X002280Y020040D03*
X002280Y019443D03*
X007165Y019061D03*
D241*
X005938Y019443D03*
X005938Y020040D03*
X007157Y020040D03*
X002720Y020023D03*
X004329Y016739D03*
D242*
X003885Y019103D03*
X003885Y019128D03*
X003885Y019293D03*
X003885Y019484D03*
X003885Y019675D03*
X003885Y019841D03*
X003885Y019866D03*
X003885Y020032D03*
X001463Y020032D03*
X001463Y019866D03*
X001463Y019841D03*
X001463Y019675D03*
X001463Y019293D03*
X001463Y019128D03*
X001463Y019103D03*
D243*
X002284Y020032D03*
X005942Y020032D03*
D244*
X002728Y020032D03*
X003433Y017270D03*
D245*
X002691Y019128D03*
X002682Y019293D03*
X002682Y019484D03*
X002682Y019675D03*
X002682Y019841D03*
X002682Y019866D03*
X002326Y019866D03*
X002326Y019841D03*
X002326Y019293D03*
X002317Y019128D03*
X004756Y019128D03*
X004764Y019293D03*
X004764Y019484D03*
X004764Y019675D03*
X004764Y019841D03*
X004764Y019866D03*
X004764Y020032D03*
X005983Y019866D03*
X005983Y019841D03*
X006340Y019841D03*
X006340Y019866D03*
X006340Y020032D03*
X006340Y019675D03*
X006340Y019484D03*
X006340Y019293D03*
X006340Y019128D03*
X006340Y019103D03*
X005983Y019293D03*
X007203Y019293D03*
X007203Y019484D03*
X007203Y019675D03*
X007203Y019841D03*
X007203Y019866D03*
D246*
X007165Y020032D03*
D247*
X002724Y019061D03*
X002292Y020023D03*
D248*
X002715Y020015D03*
X002284Y019658D03*
X002284Y019061D03*
X004723Y019061D03*
X005942Y019061D03*
X005950Y019426D03*
X005942Y019658D03*
X005950Y019667D03*
X005950Y020023D03*
X007169Y020023D03*
X005992Y014184D03*
D249*
X003449Y013496D03*
X002670Y014168D03*
X005988Y016614D03*
X005208Y017286D03*
X003433Y017278D03*
X007182Y019086D03*
X007174Y020015D03*
X005954Y020015D03*
X002297Y020015D03*
X002288Y019667D03*
X002288Y019426D03*
D250*
X002301Y019410D03*
X002309Y019393D03*
X002309Y019700D03*
X002301Y020007D03*
X005967Y019700D03*
X005967Y019393D03*
D251*
X005954Y019078D03*
X007174Y019078D03*
X007182Y020007D03*
X002711Y020007D03*
X002711Y019078D03*
X002297Y019078D03*
X005224Y013504D03*
D252*
X005958Y019410D03*
X005958Y020007D03*
D253*
X005967Y019998D03*
X007186Y019998D03*
X002309Y019998D03*
D254*
X002703Y019998D03*
X002297Y019418D03*
X005954Y019418D03*
D255*
X005967Y019401D03*
X005967Y019692D03*
X005967Y019094D03*
X004748Y019094D03*
X004739Y019086D03*
X002707Y019086D03*
X002309Y019094D03*
X002301Y019086D03*
X002301Y019683D03*
X002301Y019692D03*
X002309Y019990D03*
X007186Y019094D03*
D256*
X005958Y019086D03*
X005958Y019683D03*
X002699Y019990D03*
X002699Y019094D03*
D257*
X002686Y019136D03*
X002686Y019144D03*
X002305Y019401D03*
X002686Y019949D03*
X004752Y019119D03*
X004752Y019111D03*
X005971Y019111D03*
X005971Y019119D03*
X005971Y019376D03*
X005971Y019716D03*
X005971Y019990D03*
X007190Y019990D03*
X007198Y019974D03*
X007198Y019136D03*
X007190Y019111D03*
D258*
X005979Y019957D03*
X004760Y019152D03*
X002695Y019982D03*
X002321Y019940D03*
X002313Y019982D03*
X002321Y019750D03*
X002321Y019343D03*
X002321Y019152D03*
D259*
X001467Y019625D03*
X002686Y019940D03*
X002686Y019957D03*
X005971Y019982D03*
X007190Y019982D03*
X007198Y019957D03*
D260*
X005979Y019949D03*
X005979Y019733D03*
X005979Y019352D03*
X005979Y019144D03*
X005979Y019136D03*
X004760Y019144D03*
X002695Y019119D03*
X002695Y019111D03*
X002321Y019144D03*
X002313Y019119D03*
X002313Y019111D03*
X002321Y019352D03*
X002313Y019376D03*
X002313Y019716D03*
X002321Y019949D03*
X002313Y019974D03*
X002695Y019974D03*
D261*
X002321Y019741D03*
X002313Y019708D03*
X002313Y019385D03*
X005979Y019360D03*
X005979Y019741D03*
X005979Y019965D03*
D262*
X005971Y019708D03*
X005971Y019385D03*
X007198Y019965D03*
D263*
X005954Y019675D03*
X002297Y019675D03*
D264*
X002276Y019650D03*
X005934Y019650D03*
X005975Y016606D03*
X002682Y014176D03*
X003445Y013504D03*
D265*
X003441Y013512D03*
X005979Y014193D03*
X002263Y019642D03*
D266*
X002268Y019451D03*
X005925Y019451D03*
X005925Y019642D03*
D267*
X005913Y019634D03*
X002255Y019634D03*
D268*
X002230Y019625D03*
D269*
X005892Y019625D03*
D270*
X005589Y019617D03*
X005589Y019476D03*
D271*
X005527Y019003D03*
X006746Y019003D03*
X001869Y019609D03*
X003470Y015536D03*
X005187Y015536D03*
X004325Y013612D03*
D272*
X005191Y015271D03*
X005200Y015296D03*
X005200Y015486D03*
X005191Y015511D03*
X005191Y015528D03*
X003466Y015528D03*
X003466Y015511D03*
X003458Y015486D03*
X003458Y015296D03*
X001865Y019600D03*
D273*
X005581Y019600D03*
D274*
X001861Y019592D03*
X001861Y019501D03*
D275*
X005581Y019501D03*
X005581Y019493D03*
X005581Y019592D03*
X005689Y016548D03*
X002968Y016548D03*
X005689Y014234D03*
D276*
X005195Y015279D03*
X005195Y015503D03*
X004283Y018970D03*
X003130Y019003D03*
X001861Y019584D03*
D277*
X003188Y018904D03*
X005577Y019584D03*
X005710Y014251D03*
X002948Y014251D03*
D278*
X003449Y015362D03*
X003449Y015387D03*
X005208Y015387D03*
X005208Y015362D03*
X001857Y019575D03*
D279*
X005573Y019575D03*
X004329Y014101D03*
D280*
X004275Y018953D03*
X001853Y019526D03*
X001853Y019567D03*
D281*
X001791Y018887D03*
X005448Y018887D03*
X005564Y019534D03*
X005564Y019559D03*
X006668Y018887D03*
D282*
X005560Y019551D03*
D283*
X005560Y019542D03*
X002914Y016490D03*
X005104Y013944D03*
D284*
X005573Y019517D03*
D285*
X001869Y019484D03*
X005187Y015246D03*
D286*
X005585Y019484D03*
D287*
X002239Y019468D03*
X004329Y014043D03*
D288*
X002691Y014184D03*
X005900Y019468D03*
D289*
X005942Y019434D03*
X002284Y019434D03*
D290*
X005979Y019128D03*
D291*
X007190Y019103D03*
X007198Y019128D03*
D292*
X005967Y019103D03*
X004748Y019103D03*
X002309Y019103D03*
D293*
X002699Y019103D03*
D294*
X004735Y019078D03*
D295*
X004731Y019070D03*
X002292Y019070D03*
D296*
X002715Y019070D03*
X005950Y019070D03*
X007169Y019070D03*
X002666Y016598D03*
D297*
X002280Y019053D03*
D298*
X002728Y019053D03*
X004719Y019053D03*
X005938Y019053D03*
X007157Y019053D03*
D299*
X002736Y019045D03*
D300*
X002259Y019036D03*
X004698Y019036D03*
X005917Y019036D03*
D301*
X002749Y019036D03*
D302*
X007140Y019036D03*
D303*
X007128Y019028D03*
X004681Y019028D03*
X002243Y019028D03*
D304*
X002761Y019028D03*
X002686Y016581D03*
X005971Y014201D03*
X005233Y013529D03*
D305*
X004304Y019020D03*
D306*
X004300Y019011D03*
X003479Y015578D03*
X005030Y013911D03*
D307*
X005183Y015213D03*
X005183Y015569D03*
X003474Y015569D03*
X003474Y015213D03*
X004295Y019003D03*
D308*
X004291Y018987D03*
D309*
X003143Y018970D03*
D310*
X003147Y018962D03*
D311*
X004279Y018962D03*
D312*
X005498Y018945D03*
X006717Y018945D03*
X003151Y018953D03*
X001840Y018945D03*
X004329Y016664D03*
X003615Y013919D03*
D313*
X004254Y018920D03*
X003159Y018945D03*
D314*
X001836Y018937D03*
X005494Y018937D03*
D315*
X003163Y018937D03*
D316*
X004266Y018937D03*
D317*
X006713Y018937D03*
D318*
X005482Y018920D03*
X003167Y018929D03*
X001824Y018920D03*
D319*
X006701Y018920D03*
X004329Y014110D03*
D320*
X004329Y016672D03*
X001816Y018912D03*
D321*
X005477Y018912D03*
X006697Y018912D03*
D322*
X004242Y018904D03*
D323*
X001799Y018895D03*
X005083Y016847D03*
X005714Y016523D03*
X005722Y016515D03*
X002944Y016523D03*
X002935Y016515D03*
X002944Y014259D03*
X005714Y014259D03*
D324*
X003196Y018895D03*
D325*
X004233Y018895D03*
D326*
X005461Y018895D03*
X006680Y018895D03*
X005701Y016540D03*
X002956Y016540D03*
X002964Y014234D03*
X004325Y013595D03*
D327*
X003209Y018887D03*
D328*
X004221Y018887D03*
X002935Y014267D03*
X005722Y014267D03*
D329*
X002840Y016399D03*
X003221Y018879D03*
D330*
X004204Y018879D03*
D331*
X001745Y018870D03*
X006630Y018870D03*
D332*
X003250Y018870D03*
D333*
X004184Y018870D03*
X002757Y016274D03*
X002732Y016241D03*
X005900Y016274D03*
X005925Y014541D03*
D334*
X005125Y016822D03*
X005407Y018870D03*
D335*
X006435Y018331D03*
X006435Y018298D03*
X006435Y018265D03*
X006435Y018232D03*
X006435Y018165D03*
X006435Y018132D03*
X006435Y018107D03*
X006435Y018074D03*
X006435Y018041D03*
X006435Y017975D03*
X002222Y017975D03*
X002222Y018041D03*
X002222Y018074D03*
X002222Y018107D03*
X002222Y018132D03*
X002222Y018165D03*
X002222Y018232D03*
X002222Y018265D03*
X002222Y018298D03*
X002222Y018331D03*
X002222Y012807D03*
X002222Y012774D03*
X002222Y012741D03*
X002222Y012716D03*
X002222Y012683D03*
X002222Y012617D03*
X002222Y012583D03*
X002222Y012550D03*
X002222Y012517D03*
X006435Y012517D03*
X006435Y012550D03*
X006435Y012583D03*
X006435Y012617D03*
X006435Y012683D03*
X006435Y012716D03*
X006435Y012741D03*
X006435Y012774D03*
X006435Y012807D03*
D336*
X006435Y012799D03*
X006435Y012782D03*
X006435Y012758D03*
X006435Y012733D03*
X006435Y012708D03*
X006435Y012691D03*
X006435Y012666D03*
X006435Y012658D03*
X006435Y012641D03*
X006435Y012633D03*
X006435Y012608D03*
X006435Y012592D03*
X006435Y012567D03*
X006435Y012542D03*
X006435Y012525D03*
X006435Y012500D03*
X006435Y012492D03*
X006435Y012476D03*
X006435Y012467D03*
X006435Y012451D03*
X004329Y014325D03*
X002222Y012799D03*
X002222Y012782D03*
X002222Y012758D03*
X002222Y012733D03*
X002222Y012708D03*
X002222Y012691D03*
X002222Y012666D03*
X002222Y012658D03*
X002222Y012641D03*
X002222Y012633D03*
X002222Y012608D03*
X002222Y012592D03*
X002222Y012567D03*
X002222Y012542D03*
X002222Y012525D03*
X002222Y012500D03*
X002222Y012492D03*
X002222Y012476D03*
X002222Y012467D03*
X002222Y012451D03*
X002222Y017966D03*
X002222Y017991D03*
X002222Y018000D03*
X002222Y018016D03*
X002222Y018024D03*
X002222Y018049D03*
X002222Y018066D03*
X002222Y018091D03*
X002222Y018116D03*
X002222Y018141D03*
X002222Y018157D03*
X002222Y018182D03*
X002222Y018190D03*
X002222Y018207D03*
X002222Y018215D03*
X002222Y018240D03*
X002222Y018257D03*
X002222Y018282D03*
X002222Y018306D03*
X002222Y018323D03*
X006435Y018323D03*
X006435Y018306D03*
X006435Y018282D03*
X006435Y018257D03*
X006435Y018240D03*
X006435Y018215D03*
X006435Y018207D03*
X006435Y018190D03*
X006435Y018182D03*
X006435Y018157D03*
X006435Y018141D03*
X006435Y018116D03*
X006435Y018091D03*
X006435Y018066D03*
X006435Y018049D03*
X006435Y018024D03*
X006435Y018016D03*
X006435Y018000D03*
X006435Y017991D03*
X006435Y017966D03*
D337*
X006435Y017983D03*
X006435Y018033D03*
X006435Y018058D03*
X006435Y018083D03*
X006435Y018099D03*
X006435Y018124D03*
X006435Y018149D03*
X006435Y018174D03*
X006435Y018224D03*
X006435Y018248D03*
X006435Y018273D03*
X006435Y018290D03*
X006435Y018315D03*
X002222Y018315D03*
X002222Y018290D03*
X002222Y018273D03*
X002222Y018248D03*
X002222Y018224D03*
X002222Y018174D03*
X002222Y018149D03*
X002222Y018124D03*
X002222Y018099D03*
X002222Y018083D03*
X002222Y018058D03*
X002222Y018033D03*
X002222Y017983D03*
X002222Y012816D03*
X002222Y012791D03*
X002222Y012766D03*
X002222Y012749D03*
X002222Y012724D03*
X002222Y012700D03*
X002222Y012675D03*
X002222Y012625D03*
X002222Y012600D03*
X002222Y012575D03*
X002222Y012559D03*
X002222Y012534D03*
X002222Y012509D03*
X006435Y012509D03*
X006435Y012534D03*
X006435Y012559D03*
X006435Y012575D03*
X006435Y012600D03*
X006435Y012625D03*
X006435Y012675D03*
X006435Y012700D03*
X006435Y012724D03*
X006435Y012749D03*
X006435Y012766D03*
X006435Y012791D03*
X006435Y012816D03*
D338*
X006435Y012650D03*
X006435Y012484D03*
X006435Y012459D03*
X002222Y012459D03*
X002222Y012484D03*
X002222Y012650D03*
X002222Y018008D03*
X002222Y018199D03*
X006435Y018199D03*
X006435Y018008D03*
D339*
X007086Y017958D03*
X007086Y017933D03*
X007086Y017917D03*
X007086Y017892D03*
X007086Y017867D03*
X007086Y017842D03*
X007086Y017792D03*
X007086Y017767D03*
X007086Y017742D03*
X007086Y017726D03*
X007086Y017701D03*
X007086Y017676D03*
X007086Y017601D03*
X007086Y017577D03*
X007086Y017552D03*
X007086Y017535D03*
X007086Y017510D03*
X007086Y017485D03*
X007086Y017436D03*
X007086Y017411D03*
X007086Y017386D03*
X007086Y017361D03*
X007086Y017344D03*
X007086Y017319D03*
X007086Y017295D03*
X007086Y017245D03*
X007086Y017220D03*
X007086Y017195D03*
X007086Y017178D03*
X007086Y017154D03*
X007086Y017129D03*
X007086Y017104D03*
X007086Y017054D03*
X007086Y017029D03*
X007086Y017004D03*
X007086Y016988D03*
X007086Y016963D03*
X007086Y016938D03*
X007086Y016863D03*
X007086Y016838D03*
X007086Y016814D03*
X007086Y016797D03*
X007086Y016772D03*
X007086Y016747D03*
X007086Y016697D03*
X007086Y016672D03*
X005876Y016009D03*
X005892Y015959D03*
X005917Y014889D03*
X005900Y014839D03*
X005892Y014815D03*
X005876Y014773D03*
X007086Y014101D03*
X007086Y014076D03*
X007086Y014052D03*
X007086Y014035D03*
X007086Y014010D03*
X007086Y013985D03*
X007086Y013911D03*
X007086Y013886D03*
X007086Y013861D03*
X007086Y013844D03*
X007086Y013819D03*
X007086Y013794D03*
X007086Y013745D03*
X007086Y013720D03*
X007086Y013695D03*
X007086Y013670D03*
X007086Y013653D03*
X007086Y013629D03*
X007086Y013604D03*
X007086Y013554D03*
X007086Y013529D03*
X007086Y013504D03*
X007086Y013488D03*
X007086Y013463D03*
X007086Y013438D03*
X007086Y013413D03*
X007086Y013363D03*
X007086Y013338D03*
X007086Y013313D03*
X007086Y013297D03*
X007086Y013272D03*
X007086Y013247D03*
X007086Y013172D03*
X007086Y013147D03*
X007086Y013123D03*
X007086Y013106D03*
X007086Y013081D03*
X007086Y013056D03*
X007086Y013006D03*
X007086Y012982D03*
X007086Y012957D03*
X007086Y012932D03*
X007086Y012915D03*
X007086Y012890D03*
X007086Y012865D03*
X002782Y014773D03*
X002765Y014815D03*
X002757Y014839D03*
X001571Y014101D03*
X001571Y014076D03*
X001571Y014052D03*
X001571Y014035D03*
X001571Y014010D03*
X001571Y013985D03*
X001571Y013911D03*
X001571Y013886D03*
X001571Y013861D03*
X001571Y013844D03*
X001571Y013819D03*
X001571Y013794D03*
X001571Y013745D03*
X001571Y013720D03*
X001571Y013695D03*
X001571Y013670D03*
X001571Y013653D03*
X001571Y013629D03*
X001571Y013604D03*
X001571Y013554D03*
X001571Y013529D03*
X001571Y013504D03*
X001571Y013488D03*
X001571Y013463D03*
X001571Y013438D03*
X001571Y013413D03*
X001571Y013363D03*
X001571Y013338D03*
X001571Y013313D03*
X001571Y013297D03*
X001571Y013272D03*
X001571Y013247D03*
X001571Y013172D03*
X001571Y013147D03*
X001571Y013123D03*
X001571Y013106D03*
X001571Y013081D03*
X001571Y013056D03*
X001571Y013006D03*
X001571Y012982D03*
X001571Y012957D03*
X001571Y012932D03*
X001571Y012915D03*
X001571Y012890D03*
X001571Y012865D03*
X002765Y015959D03*
X002782Y016009D03*
X001571Y016672D03*
X001571Y016697D03*
X001571Y016747D03*
X001571Y016772D03*
X001571Y016797D03*
X001571Y016814D03*
X001571Y016838D03*
X001571Y016863D03*
X001571Y016938D03*
X001571Y016963D03*
X001571Y016988D03*
X001571Y017004D03*
X001571Y017029D03*
X001571Y017054D03*
X001571Y017104D03*
X001571Y017129D03*
X001571Y017154D03*
X001571Y017178D03*
X001571Y017195D03*
X001571Y017220D03*
X001571Y017245D03*
X001571Y017295D03*
X001571Y017319D03*
X001571Y017344D03*
X001571Y017361D03*
X001571Y017386D03*
X001571Y017411D03*
X001571Y017436D03*
X001571Y017485D03*
X001571Y017510D03*
X001571Y017535D03*
X001571Y017552D03*
X001571Y017577D03*
X001571Y017601D03*
X001571Y017676D03*
X001571Y017701D03*
X001571Y017726D03*
X001571Y017742D03*
X001571Y017767D03*
X001571Y017792D03*
X001571Y017842D03*
X001571Y017867D03*
X001571Y017892D03*
X001571Y017917D03*
X001571Y017933D03*
X001571Y017958D03*
D340*
X001571Y017950D03*
X001571Y017925D03*
X001571Y017900D03*
X001571Y017875D03*
X001571Y017859D03*
X001571Y017834D03*
X001571Y017825D03*
X001571Y017809D03*
X001571Y017801D03*
X001571Y017776D03*
X001571Y017759D03*
X001571Y017734D03*
X001571Y017709D03*
X001571Y017693D03*
X001571Y017668D03*
X001571Y017660D03*
X001571Y017643D03*
X001571Y017635D03*
X001571Y017618D03*
X001571Y017610D03*
X001571Y017585D03*
X001571Y017568D03*
X001571Y017543D03*
X001571Y017519D03*
X001571Y017502D03*
X001571Y017477D03*
X001571Y017469D03*
X001571Y017452D03*
X001571Y017444D03*
X001571Y017419D03*
X001571Y017402D03*
X001571Y017378D03*
X001571Y017353D03*
X001571Y017328D03*
X001571Y017311D03*
X001571Y017286D03*
X001571Y017278D03*
X001571Y017261D03*
X001571Y017253D03*
X001571Y017228D03*
X001571Y017212D03*
X001571Y017187D03*
X001571Y017162D03*
X001571Y017137D03*
X001571Y017120D03*
X001571Y017096D03*
X001571Y017087D03*
X001571Y017071D03*
X001571Y017062D03*
X001571Y017037D03*
X001571Y017021D03*
X001571Y016996D03*
X001571Y016971D03*
X001571Y016955D03*
X001571Y016930D03*
X001571Y016921D03*
X001571Y016905D03*
X001571Y016896D03*
X001571Y016880D03*
X001571Y016872D03*
X001571Y016847D03*
X001571Y016830D03*
X001571Y016805D03*
X001571Y016780D03*
X001571Y016764D03*
X001571Y016739D03*
X001571Y016731D03*
X001571Y016714D03*
X001571Y016706D03*
X001571Y016681D03*
X001571Y016664D03*
X002765Y015976D03*
X002765Y015967D03*
X002757Y015943D03*
X002740Y015901D03*
X002740Y014881D03*
X002765Y014823D03*
X002765Y014806D03*
X001571Y014118D03*
X001571Y014110D03*
X001571Y014085D03*
X001571Y014068D03*
X001571Y014043D03*
X001571Y014018D03*
X001571Y014002D03*
X001571Y013977D03*
X001571Y013969D03*
X001571Y013952D03*
X001571Y013944D03*
X001571Y013927D03*
X001571Y013919D03*
X001571Y013894D03*
X001571Y013877D03*
X001571Y013852D03*
X001571Y013828D03*
X001571Y013811D03*
X001571Y013786D03*
X001571Y013778D03*
X001571Y013761D03*
X001571Y013753D03*
X001571Y013728D03*
X001571Y013711D03*
X001571Y013687D03*
X001571Y013662D03*
X001571Y013637D03*
X001571Y013620D03*
X001571Y013595D03*
X001571Y013587D03*
X001571Y013570D03*
X001571Y013562D03*
X001571Y013537D03*
X001571Y013521D03*
X001571Y013496D03*
X001571Y013471D03*
X001571Y013446D03*
X001571Y013429D03*
X001571Y013405D03*
X001571Y013396D03*
X001571Y013380D03*
X001571Y013371D03*
X001571Y013347D03*
X001571Y013330D03*
X001571Y013305D03*
X001571Y013280D03*
X001571Y013264D03*
X001571Y013239D03*
X001571Y013230D03*
X001571Y013214D03*
X001571Y013205D03*
X001571Y013189D03*
X001571Y013181D03*
X001571Y013156D03*
X001571Y013139D03*
X001571Y013114D03*
X001571Y013089D03*
X001571Y013073D03*
X001571Y013048D03*
X001571Y013040D03*
X001571Y013023D03*
X001571Y013015D03*
X001571Y012990D03*
X001571Y012973D03*
X001571Y012948D03*
X001571Y012923D03*
X001571Y012899D03*
X001571Y012882D03*
X001571Y012857D03*
X001571Y012849D03*
X001571Y012832D03*
X001571Y012824D03*
X005892Y014806D03*
X005892Y014823D03*
X005917Y014881D03*
X007086Y014118D03*
X007086Y014110D03*
X007086Y014085D03*
X007086Y014068D03*
X007086Y014043D03*
X007086Y014018D03*
X007086Y014002D03*
X007086Y013977D03*
X007086Y013969D03*
X007086Y013952D03*
X007086Y013944D03*
X007086Y013927D03*
X007086Y013919D03*
X007086Y013894D03*
X007086Y013877D03*
X007086Y013852D03*
X007086Y013828D03*
X007086Y013811D03*
X007086Y013786D03*
X007086Y013778D03*
X007086Y013761D03*
X007086Y013753D03*
X007086Y013728D03*
X007086Y013711D03*
X007086Y013687D03*
X007086Y013662D03*
X007086Y013637D03*
X007086Y013620D03*
X007086Y013595D03*
X007086Y013587D03*
X007086Y013570D03*
X007086Y013562D03*
X007086Y013537D03*
X007086Y013521D03*
X007086Y013496D03*
X007086Y013471D03*
X007086Y013446D03*
X007086Y013429D03*
X007086Y013405D03*
X007086Y013396D03*
X007086Y013380D03*
X007086Y013371D03*
X007086Y013347D03*
X007086Y013330D03*
X007086Y013305D03*
X007086Y013280D03*
X007086Y013264D03*
X007086Y013239D03*
X007086Y013230D03*
X007086Y013214D03*
X007086Y013205D03*
X007086Y013189D03*
X007086Y013181D03*
X007086Y013156D03*
X007086Y013139D03*
X007086Y013114D03*
X007086Y013089D03*
X007086Y013073D03*
X007086Y013048D03*
X007086Y013040D03*
X007086Y013023D03*
X007086Y013015D03*
X007086Y012990D03*
X007086Y012973D03*
X007086Y012948D03*
X007086Y012923D03*
X007086Y012899D03*
X007086Y012882D03*
X007086Y012857D03*
X007086Y012849D03*
X007086Y012832D03*
X007086Y012824D03*
X005900Y015943D03*
X005892Y015967D03*
X005892Y015976D03*
X007086Y016664D03*
X007086Y016681D03*
X007086Y016706D03*
X007086Y016714D03*
X007086Y016731D03*
X007086Y016739D03*
X007086Y016764D03*
X007086Y016780D03*
X007086Y016805D03*
X007086Y016830D03*
X007086Y016847D03*
X007086Y016872D03*
X007086Y016880D03*
X007086Y016896D03*
X007086Y016905D03*
X007086Y016921D03*
X007086Y016930D03*
X007086Y016955D03*
X007086Y016971D03*
X007086Y016996D03*
X007086Y017021D03*
X007086Y017037D03*
X007086Y017062D03*
X007086Y017071D03*
X007086Y017087D03*
X007086Y017096D03*
X007086Y017120D03*
X007086Y017137D03*
X007086Y017162D03*
X007086Y017187D03*
X007086Y017212D03*
X007086Y017228D03*
X007086Y017253D03*
X007086Y017261D03*
X007086Y017278D03*
X007086Y017286D03*
X007086Y017311D03*
X007086Y017328D03*
X007086Y017353D03*
X007086Y017378D03*
X007086Y017402D03*
X007086Y017419D03*
X007086Y017444D03*
X007086Y017452D03*
X007086Y017469D03*
X007086Y017477D03*
X007086Y017502D03*
X007086Y017519D03*
X007086Y017543D03*
X007086Y017568D03*
X007086Y017585D03*
X007086Y017610D03*
X007086Y017618D03*
X007086Y017635D03*
X007086Y017643D03*
X007086Y017660D03*
X007086Y017668D03*
X007086Y017693D03*
X007086Y017709D03*
X007086Y017734D03*
X007086Y017759D03*
X007086Y017776D03*
X007086Y017801D03*
X007086Y017809D03*
X007086Y017825D03*
X007086Y017834D03*
X007086Y017859D03*
X007086Y017875D03*
X007086Y017900D03*
X007086Y017925D03*
X007086Y017950D03*
D341*
X007086Y017942D03*
X007086Y017908D03*
X007086Y017883D03*
X007086Y017850D03*
X007086Y017784D03*
X007086Y017751D03*
X007086Y017718D03*
X007086Y017684D03*
X007086Y017593D03*
X007086Y017560D03*
X007086Y017527D03*
X007086Y017494D03*
X007086Y017427D03*
X007086Y017394D03*
X007086Y017369D03*
X007086Y017336D03*
X007086Y017303D03*
X007086Y017237D03*
X007086Y017203D03*
X007086Y017170D03*
X007086Y017145D03*
X007086Y017112D03*
X007086Y017046D03*
X007086Y017013D03*
X007086Y016979D03*
X007086Y016946D03*
X007086Y016855D03*
X007086Y016822D03*
X007086Y016789D03*
X007086Y016755D03*
X007086Y016689D03*
X005900Y015951D03*
X005917Y015893D03*
X005900Y014831D03*
X007086Y014093D03*
X007086Y014060D03*
X007086Y014027D03*
X007086Y013993D03*
X007086Y013902D03*
X007086Y013869D03*
X007086Y013836D03*
X007086Y013803D03*
X007086Y013736D03*
X007086Y013703D03*
X007086Y013678D03*
X007086Y013645D03*
X007086Y013612D03*
X007086Y013546D03*
X007086Y013512D03*
X007086Y013479D03*
X007086Y013454D03*
X007086Y013421D03*
X007086Y013355D03*
X007086Y013322D03*
X007086Y013288D03*
X007086Y013255D03*
X007086Y013164D03*
X007086Y013131D03*
X007086Y013098D03*
X007086Y013064D03*
X007086Y012998D03*
X007086Y012965D03*
X007086Y012940D03*
X007086Y012907D03*
X007086Y012874D03*
X002757Y014831D03*
X001571Y014093D03*
X001571Y014060D03*
X001571Y014027D03*
X001571Y013993D03*
X001571Y013902D03*
X001571Y013869D03*
X001571Y013836D03*
X001571Y013803D03*
X001571Y013736D03*
X001571Y013703D03*
X001571Y013678D03*
X001571Y013645D03*
X001571Y013612D03*
X001571Y013546D03*
X001571Y013512D03*
X001571Y013479D03*
X001571Y013454D03*
X001571Y013421D03*
X001571Y013355D03*
X001571Y013322D03*
X001571Y013288D03*
X001571Y013255D03*
X001571Y013164D03*
X001571Y013131D03*
X001571Y013098D03*
X001571Y013064D03*
X001571Y012998D03*
X001571Y012965D03*
X001571Y012940D03*
X001571Y012907D03*
X001571Y012874D03*
X002757Y015951D03*
X001571Y016689D03*
X001571Y016755D03*
X001571Y016789D03*
X001571Y016822D03*
X001571Y016855D03*
X001571Y016946D03*
X001571Y016979D03*
X001571Y017013D03*
X001571Y017046D03*
X001571Y017112D03*
X001571Y017145D03*
X001571Y017170D03*
X001571Y017203D03*
X001571Y017237D03*
X001571Y017303D03*
X001571Y017336D03*
X001571Y017369D03*
X001571Y017394D03*
X001571Y017427D03*
X001571Y017494D03*
X001571Y017527D03*
X001571Y017560D03*
X001571Y017593D03*
X001571Y017684D03*
X001571Y017718D03*
X001571Y017751D03*
X001571Y017784D03*
X001571Y017850D03*
X001571Y017883D03*
X001571Y017908D03*
X001571Y017942D03*
X003404Y017203D03*
D342*
X001571Y017270D03*
X001571Y017460D03*
X001571Y017626D03*
X001571Y017651D03*
X001571Y017817D03*
X001571Y017079D03*
X001571Y016913D03*
X001571Y016888D03*
X001571Y016722D03*
X001571Y013960D03*
X001571Y013935D03*
X001571Y013770D03*
X001571Y013579D03*
X001571Y013388D03*
X001571Y013222D03*
X001571Y013197D03*
X001571Y013031D03*
X001571Y012841D03*
X005253Y013579D03*
X007086Y013579D03*
X007086Y013770D03*
X007086Y013935D03*
X007086Y013960D03*
X007086Y013388D03*
X007086Y013222D03*
X007086Y013197D03*
X007086Y013031D03*
X007086Y012841D03*
X007086Y016722D03*
X007086Y016888D03*
X007086Y016913D03*
X007086Y017079D03*
X007086Y017270D03*
X007086Y017460D03*
X007086Y017626D03*
X007086Y017651D03*
X007086Y017817D03*
D343*
X004320Y017510D03*
X004320Y017485D03*
X004337Y013297D03*
X004337Y013272D03*
D344*
X004337Y013280D03*
X005274Y013620D03*
X003383Y017162D03*
X004320Y017502D03*
D345*
X004320Y017494D03*
X005258Y017170D03*
X003400Y013612D03*
X004337Y013288D03*
D346*
X004337Y013330D03*
X004320Y017444D03*
X004320Y017452D03*
X004320Y017469D03*
X004320Y017477D03*
D347*
X004320Y017460D03*
D348*
X004325Y017436D03*
X003379Y017154D03*
X005884Y016125D03*
X005278Y013629D03*
D349*
X005473Y014193D03*
X004337Y013355D03*
X003184Y014193D03*
X003192Y016598D03*
X004320Y017394D03*
X004320Y017427D03*
X005465Y016598D03*
D350*
X005473Y016590D03*
X004320Y017402D03*
X004320Y017419D03*
X003184Y016590D03*
X005888Y014665D03*
X005465Y014184D03*
X004337Y013380D03*
X004337Y013371D03*
X003192Y014184D03*
D351*
X003176Y014201D03*
X004337Y013363D03*
X005482Y014201D03*
X005482Y016581D03*
X004320Y017411D03*
X003176Y016581D03*
D352*
X002761Y016125D03*
X004320Y017361D03*
X004320Y017386D03*
X005266Y017154D03*
X005432Y016623D03*
X003391Y013629D03*
X004337Y013413D03*
D353*
X004337Y013405D03*
X004337Y013396D03*
X004337Y013429D03*
X005896Y014657D03*
X006062Y015661D03*
X004320Y017353D03*
X004320Y017378D03*
D354*
X004320Y017369D03*
X002769Y014640D03*
X003217Y014159D03*
X004337Y013421D03*
D355*
X003479Y013429D03*
X005179Y017353D03*
D356*
X003462Y017344D03*
X005195Y013438D03*
D357*
X004337Y013463D03*
X005896Y014649D03*
X005407Y016648D03*
X004320Y017319D03*
X004320Y017344D03*
X003250Y016648D03*
D358*
X005183Y017344D03*
X003474Y013438D03*
D359*
X003462Y017336D03*
D360*
X004320Y017336D03*
X005283Y013645D03*
X004337Y013454D03*
D361*
X005200Y013454D03*
X005183Y017336D03*
D362*
X003458Y017328D03*
X002620Y016639D03*
X006037Y014143D03*
D363*
X005407Y014134D03*
X004337Y013471D03*
X004337Y013446D03*
X003250Y014134D03*
X002761Y016133D03*
X003375Y017137D03*
X004320Y017311D03*
X004320Y017328D03*
X005415Y016639D03*
D364*
X005191Y017328D03*
D365*
X003454Y017319D03*
X005204Y013463D03*
D366*
X003462Y013463D03*
X005195Y017319D03*
D367*
X003449Y017311D03*
D368*
X005200Y017311D03*
D369*
X003449Y017303D03*
X005208Y013479D03*
D370*
X004333Y013479D03*
X005394Y016656D03*
X004325Y017303D03*
X003263Y016656D03*
D371*
X005200Y017303D03*
X003458Y013479D03*
D372*
X005216Y013488D03*
X003441Y017295D03*
D373*
X003284Y016672D03*
X004320Y017295D03*
X005374Y016672D03*
X002769Y014624D03*
X004337Y013504D03*
X004337Y013488D03*
D374*
X004337Y013496D03*
X005374Y014110D03*
X003284Y014110D03*
X005888Y016158D03*
X005274Y017137D03*
X004320Y017261D03*
X004320Y017278D03*
X004320Y017286D03*
D375*
X004320Y017270D03*
D376*
X005216Y017270D03*
D377*
X003429Y017261D03*
X005229Y013521D03*
D378*
X003437Y013521D03*
X005220Y017261D03*
D379*
X003425Y017253D03*
D380*
X004320Y017253D03*
X004320Y017228D03*
X005896Y016167D03*
X002761Y014616D03*
X003317Y014085D03*
X004337Y013562D03*
X004337Y013537D03*
X005341Y014085D03*
D381*
X005954Y016590D03*
X005224Y017253D03*
D382*
X003420Y017245D03*
D383*
X003317Y016697D03*
X004320Y017220D03*
X004320Y017245D03*
X005341Y016697D03*
X004337Y013554D03*
X004337Y013529D03*
D384*
X005224Y017245D03*
D385*
X003416Y017237D03*
X005241Y013546D03*
D386*
X004337Y013546D03*
X004320Y017237D03*
D387*
X005229Y017237D03*
X005950Y014217D03*
X003429Y013546D03*
D388*
X003412Y017228D03*
D389*
X005233Y017228D03*
X005249Y013562D03*
D390*
X005946Y014226D03*
X003425Y013554D03*
X002711Y016556D03*
X003408Y017220D03*
D391*
X005237Y017220D03*
X005934Y015843D03*
X005950Y015768D03*
X005958Y015744D03*
X005967Y015719D03*
X005967Y015702D03*
X005967Y015080D03*
X005958Y015030D03*
X005950Y015005D03*
X005934Y014939D03*
X002724Y014939D03*
X002715Y014964D03*
X002707Y015005D03*
X002699Y015030D03*
X002691Y015080D03*
X002682Y015677D03*
X002691Y015702D03*
X002691Y015719D03*
X002699Y015744D03*
X002707Y015768D03*
X002715Y015818D03*
X002724Y015843D03*
D392*
X003408Y017212D03*
X005249Y013570D03*
D393*
X004337Y013570D03*
X003342Y014068D03*
X003342Y016714D03*
X004320Y017212D03*
D394*
X004329Y016731D03*
X005241Y017212D03*
X005913Y015901D03*
X005929Y015851D03*
X005938Y015835D03*
X005938Y014947D03*
X005929Y014922D03*
X005913Y014873D03*
X005905Y014848D03*
X002753Y014848D03*
X002744Y014873D03*
X002728Y014922D03*
X002720Y014947D03*
X002720Y015835D03*
X002728Y015851D03*
D395*
X004329Y017203D03*
D396*
X005245Y017203D03*
X005859Y016050D03*
X002798Y014732D03*
D397*
X003400Y017195D03*
D398*
X004329Y017195D03*
X005838Y016366D03*
X002819Y016366D03*
D399*
X005249Y017195D03*
D400*
X003396Y017187D03*
X002790Y014707D03*
X005262Y013595D03*
D401*
X004329Y017187D03*
D402*
X005253Y017187D03*
X002782Y016067D03*
X003404Y013595D03*
D403*
X003391Y017178D03*
D404*
X005253Y017178D03*
X003404Y013604D03*
D405*
X005270Y013612D03*
X003387Y017170D03*
D406*
X004329Y017162D03*
X005141Y015661D03*
X003516Y015661D03*
X004329Y013620D03*
D407*
X004333Y013347D03*
X003396Y013620D03*
X003163Y014209D03*
X002773Y014657D03*
X005494Y014209D03*
X005494Y016573D03*
X005262Y017162D03*
X003163Y016573D03*
D408*
X004329Y017154D03*
X005100Y015719D03*
X003557Y015719D03*
X004329Y013629D03*
D409*
X005436Y014159D03*
X002765Y016117D03*
X003379Y017145D03*
D410*
X004329Y017145D03*
X004329Y014159D03*
D411*
X005270Y017145D03*
D412*
X004329Y017137D03*
X005034Y015777D03*
X003624Y015777D03*
D413*
X003371Y017129D03*
X003296Y014101D03*
X005287Y013653D03*
X005361Y014101D03*
D414*
X004329Y013653D03*
X004329Y017129D03*
D415*
X005278Y017129D03*
X005900Y014624D03*
X005328Y014076D03*
X003379Y013653D03*
X003329Y014076D03*
D416*
X003362Y017120D03*
D417*
X004329Y017120D03*
X004329Y013662D03*
D418*
X002749Y016167D03*
X005278Y017120D03*
D419*
X004325Y017112D03*
X004333Y013678D03*
D420*
X004329Y014914D03*
X004329Y015868D03*
X004320Y017104D03*
D421*
X004320Y017096D03*
X004320Y017087D03*
X004337Y013687D03*
D422*
X004316Y017079D03*
D423*
X004320Y017071D03*
X004320Y017062D03*
X004337Y013711D03*
D424*
X004337Y013745D03*
X004320Y017054D03*
D425*
X004320Y017046D03*
X004329Y015918D03*
X004337Y013736D03*
D426*
X004337Y013728D03*
X004329Y014856D03*
X004329Y015926D03*
X004320Y017037D03*
D427*
X004320Y017029D03*
D428*
X004320Y017021D03*
X004337Y013761D03*
X004337Y013753D03*
D429*
X004320Y017013D03*
D430*
X004320Y017004D03*
X004320Y016988D03*
X004337Y013794D03*
D431*
X004337Y013786D03*
X004337Y013778D03*
X004320Y016996D03*
D432*
X004320Y016979D03*
X004329Y014798D03*
X004337Y013803D03*
D433*
X004337Y013811D03*
X004329Y014806D03*
X004329Y015976D03*
X004320Y016971D03*
D434*
X004320Y016963D03*
X004337Y013819D03*
D435*
X004337Y013828D03*
X004320Y016955D03*
D436*
X004320Y016946D03*
X004337Y013836D03*
D437*
X004333Y013844D03*
X004316Y016938D03*
D438*
X004320Y016930D03*
X004320Y016921D03*
X004337Y013852D03*
D439*
X004320Y016913D03*
D440*
X004320Y016905D03*
X004320Y016896D03*
X004329Y016026D03*
X004329Y014757D03*
X004337Y013877D03*
D441*
X004320Y016888D03*
D442*
X003665Y016880D03*
D443*
X004980Y016880D03*
D444*
X003632Y016872D03*
X003491Y015611D03*
X005166Y015611D03*
D445*
X003586Y016855D03*
D446*
X005063Y016855D03*
D447*
X003553Y016838D03*
X002914Y014292D03*
X005743Y014292D03*
D448*
X005784Y014342D03*
X002873Y014342D03*
X002873Y016440D03*
X005096Y016838D03*
X005784Y016440D03*
D449*
X003541Y016830D03*
D450*
X002811Y016357D03*
X005108Y016830D03*
X005846Y016357D03*
X005846Y014425D03*
X004329Y013587D03*
X002811Y014425D03*
D451*
X003524Y016822D03*
D452*
X003512Y016814D03*
D453*
X002736Y016225D03*
X005141Y016814D03*
X005921Y014557D03*
D454*
X005162Y013977D03*
X003495Y013977D03*
X005909Y016233D03*
X005162Y016805D03*
X003495Y016805D03*
D455*
X003479Y016797D03*
X005179Y016797D03*
X005909Y016225D03*
X002749Y014557D03*
X003479Y013985D03*
X005179Y013985D03*
D456*
X005195Y013993D03*
X003462Y013993D03*
X003462Y016789D03*
X005195Y016789D03*
D457*
X003449Y016780D03*
X003449Y014002D03*
D458*
X005208Y014002D03*
X005208Y016780D03*
D459*
X005224Y016772D03*
X003433Y016772D03*
X003433Y014010D03*
X004329Y014076D03*
X005224Y014010D03*
D460*
X005241Y014018D03*
X003416Y014018D03*
X003416Y016764D03*
D461*
X002749Y016183D03*
X002525Y015586D03*
X002525Y015561D03*
X002525Y015544D03*
X002525Y015520D03*
X002525Y015262D03*
X002525Y015254D03*
X002525Y015238D03*
X002525Y015229D03*
X002525Y015204D03*
X005237Y016764D03*
X006133Y015586D03*
X006133Y015561D03*
X006133Y015544D03*
X006133Y015520D03*
X006133Y015262D03*
X006133Y015254D03*
X006133Y015238D03*
X006133Y015229D03*
X006133Y015204D03*
D462*
X006133Y015213D03*
X006133Y015536D03*
X006133Y015569D03*
X005253Y016755D03*
X003404Y016755D03*
X002525Y015569D03*
X002525Y015536D03*
X002525Y015213D03*
X003404Y014027D03*
X005253Y014027D03*
D463*
X005266Y014035D03*
X003391Y014035D03*
X003391Y016747D03*
X005266Y016747D03*
D464*
X005278Y016739D03*
X003379Y016739D03*
X003379Y014043D03*
X005278Y014043D03*
D465*
X005896Y016183D03*
X005291Y016731D03*
X003367Y016731D03*
D466*
X003354Y016722D03*
X005303Y016722D03*
D467*
X004329Y016722D03*
X005880Y014698D03*
D468*
X002757Y016142D03*
X004325Y016714D03*
D469*
X005316Y016714D03*
X005905Y014616D03*
X005316Y014068D03*
X005291Y013662D03*
D470*
X002757Y016158D03*
X003329Y016706D03*
X005328Y016706D03*
D471*
X004329Y016706D03*
X006137Y015495D03*
X006137Y015478D03*
X006137Y015453D03*
X006137Y015445D03*
X006137Y015428D03*
X006137Y015420D03*
X006137Y015403D03*
X006137Y015395D03*
X006137Y015370D03*
X006137Y015354D03*
X006137Y015329D03*
X006137Y015304D03*
X006137Y015287D03*
X002521Y015287D03*
X002521Y015304D03*
X002521Y015329D03*
X002521Y015354D03*
X002521Y015370D03*
X002521Y015395D03*
X002521Y015403D03*
X002521Y015420D03*
X002521Y015428D03*
X002521Y015445D03*
X002521Y015453D03*
X002521Y015478D03*
X002521Y015495D03*
D472*
X004329Y016697D03*
D473*
X005353Y016689D03*
X003304Y016689D03*
X002566Y015636D03*
X003304Y014093D03*
X005353Y014093D03*
D474*
X005838Y014416D03*
X004329Y014093D03*
X002819Y014416D03*
X005830Y016374D03*
X004329Y016689D03*
D475*
X005361Y016681D03*
X003296Y016681D03*
D476*
X003271Y016664D03*
X005386Y016664D03*
X005386Y014118D03*
X003271Y014118D03*
D477*
X002616Y014118D03*
X006041Y016664D03*
D478*
X006033Y016656D03*
D479*
X002612Y016648D03*
D480*
X004329Y016648D03*
D481*
X006021Y016648D03*
D482*
X005884Y016142D03*
X006066Y015138D03*
X005419Y014143D03*
X003238Y014143D03*
X002591Y015644D03*
X003238Y016639D03*
D483*
X004329Y016639D03*
X004329Y014143D03*
D484*
X005208Y013471D03*
X002645Y014143D03*
X006012Y016639D03*
D485*
X002628Y016631D03*
D486*
X003230Y016631D03*
X005428Y016631D03*
X002591Y015121D03*
D487*
X004329Y016631D03*
D488*
X006008Y016631D03*
D489*
X002641Y016623D03*
D490*
X003221Y016623D03*
X003230Y014151D03*
X004333Y013438D03*
X005428Y014151D03*
D491*
X004329Y016623D03*
D492*
X005996Y016623D03*
D493*
X002645Y016614D03*
D494*
X003213Y016614D03*
X005444Y016614D03*
X005884Y016133D03*
X005444Y014168D03*
X003213Y014168D03*
D495*
X004329Y016614D03*
D496*
X005453Y016606D03*
X003205Y016606D03*
X002773Y014649D03*
X003205Y014176D03*
X005453Y014176D03*
D497*
X004325Y016606D03*
D498*
X004325Y016598D03*
D499*
X005967Y016598D03*
D500*
X002674Y016590D03*
D501*
X004329Y016590D03*
D502*
X004329Y016581D03*
D503*
X005950Y016581D03*
D504*
X002695Y016573D03*
X005963Y014209D03*
D505*
X004329Y016573D03*
D506*
X005942Y016573D03*
X002715Y014209D03*
D507*
X002703Y016565D03*
D508*
X003159Y016565D03*
X005880Y016117D03*
X005498Y014217D03*
X004329Y014060D03*
D509*
X004329Y014217D03*
X004329Y016565D03*
D510*
X003151Y016556D03*
D511*
X004329Y016556D03*
X004329Y014226D03*
D512*
X005685Y016556D03*
D513*
X004329Y016548D03*
D514*
X004329Y016540D03*
D515*
X005710Y016531D03*
X002948Y016531D03*
D516*
X004329Y016531D03*
D517*
X004329Y016523D03*
X004329Y014259D03*
D518*
X004325Y016515D03*
D519*
X005726Y016507D03*
X002931Y016507D03*
D520*
X004329Y016507D03*
D521*
X005735Y016498D03*
X002923Y016498D03*
X002923Y014284D03*
X005735Y014284D03*
D522*
X004329Y016498D03*
D523*
X004329Y016490D03*
D524*
X004329Y016482D03*
D525*
X005759Y016473D03*
X002898Y016473D03*
X002898Y014309D03*
X002906Y014300D03*
X005751Y014300D03*
X005759Y014309D03*
D526*
X004329Y014309D03*
X004329Y016473D03*
D527*
X005764Y016465D03*
X002894Y016465D03*
D528*
X004329Y016465D03*
D529*
X005772Y016457D03*
X002885Y016457D03*
D530*
X004329Y016457D03*
D531*
X004329Y016449D03*
X004329Y014334D03*
D532*
X004329Y014342D03*
X004329Y016440D03*
D533*
X005788Y016432D03*
X002869Y016432D03*
X005788Y014350D03*
D534*
X004329Y014350D03*
X004329Y016432D03*
D535*
X004329Y016424D03*
D536*
X005805Y016415D03*
X002852Y016415D03*
X002852Y014367D03*
X005805Y014367D03*
D537*
X004329Y016415D03*
D538*
X005809Y016407D03*
X002848Y016407D03*
X002823Y016374D03*
D539*
X004329Y016407D03*
D540*
X004329Y016399D03*
D541*
X005817Y016390D03*
X002840Y016390D03*
X002840Y014392D03*
X005817Y014392D03*
D542*
X004329Y014392D03*
X004329Y016390D03*
D543*
X005826Y016382D03*
X002832Y016382D03*
X002832Y014400D03*
X002848Y014375D03*
X005121Y013952D03*
X005809Y014375D03*
X005826Y014400D03*
D544*
X004329Y014400D03*
X004329Y016382D03*
D545*
X004329Y016374D03*
D546*
X004329Y016366D03*
D547*
X004329Y016357D03*
X004329Y014425D03*
D548*
X003545Y013952D03*
X002782Y014466D03*
X005859Y014450D03*
X005876Y014466D03*
X005859Y016332D03*
X005851Y016349D03*
X002807Y016349D03*
X002798Y016332D03*
D549*
X004329Y016349D03*
D550*
X005859Y016341D03*
X002798Y016341D03*
D551*
X004329Y016341D03*
D552*
X004329Y016332D03*
X004329Y014450D03*
D553*
X005867Y016324D03*
X002790Y016324D03*
D554*
X004329Y016324D03*
D555*
X005876Y016316D03*
X002782Y016316D03*
X002807Y014433D03*
X005851Y014433D03*
D556*
X004329Y016316D03*
D557*
X005880Y016308D03*
X002778Y016308D03*
X002778Y014475D03*
X005880Y014475D03*
D558*
X004329Y014475D03*
X004329Y016308D03*
D559*
X005888Y016299D03*
X005896Y016283D03*
X005913Y016258D03*
X002769Y016299D03*
X002761Y016283D03*
X002744Y016258D03*
X002744Y014524D03*
X002761Y014499D03*
X002769Y014491D03*
X002794Y014450D03*
X005888Y014491D03*
X005896Y014499D03*
X005913Y014524D03*
D560*
X004329Y016299D03*
D561*
X005888Y016291D03*
X002769Y016291D03*
X002769Y014483D03*
X005888Y014483D03*
D562*
X004329Y016291D03*
D563*
X004329Y016283D03*
X004329Y014499D03*
D564*
X004329Y016274D03*
D565*
X005909Y016266D03*
X002749Y016266D03*
X002740Y016249D03*
X005917Y014533D03*
D566*
X004329Y016266D03*
D567*
X004329Y016258D03*
X004329Y014524D03*
D568*
X004329Y014533D03*
X004329Y016249D03*
D569*
X005913Y016249D03*
X002744Y014533D03*
D570*
X004329Y014541D03*
X004329Y016241D03*
D571*
X005913Y016241D03*
X002744Y014541D03*
D572*
X003512Y013969D03*
X005146Y013969D03*
X005925Y014549D03*
X002732Y016233D03*
D573*
X004329Y016233D03*
X004329Y014549D03*
D574*
X004329Y016225D03*
D575*
X002736Y016216D03*
X002744Y014549D03*
D576*
X004329Y014566D03*
X004329Y016216D03*
D577*
X005909Y016216D03*
X002749Y014566D03*
D578*
X002740Y016208D03*
X005917Y014574D03*
D579*
X004329Y014574D03*
X004329Y016208D03*
D580*
X005905Y016208D03*
X002753Y014574D03*
D581*
X002744Y016200D03*
X005913Y014582D03*
D582*
X004329Y014582D03*
X004329Y016200D03*
D583*
X005900Y016200D03*
X006133Y015578D03*
X006133Y015553D03*
X006133Y015528D03*
X006133Y015511D03*
X006133Y015271D03*
X006133Y015221D03*
X005909Y014599D03*
X002757Y014582D03*
X002525Y015196D03*
X002525Y015221D03*
X002525Y015528D03*
X002525Y015553D03*
X002525Y015578D03*
D584*
X002529Y015594D03*
X002529Y015611D03*
X002529Y015619D03*
X002529Y015188D03*
X002529Y015163D03*
X002744Y016191D03*
X005913Y014591D03*
X006129Y015163D03*
X006129Y015188D03*
X006129Y015594D03*
X006129Y015611D03*
X006129Y015619D03*
D585*
X004329Y016191D03*
D586*
X005900Y016191D03*
X006108Y015644D03*
X002757Y014591D03*
X002550Y015138D03*
D587*
X004329Y014591D03*
X004329Y016183D03*
D588*
X002749Y016175D03*
D589*
X004329Y016175D03*
D590*
X005896Y016175D03*
D591*
X004325Y016167D03*
D592*
X004329Y016158D03*
X004329Y014616D03*
D593*
X002757Y016150D03*
D594*
X004329Y016150D03*
D595*
X005888Y016150D03*
D596*
X004329Y016142D03*
X004329Y016133D03*
D597*
X004329Y016125D03*
D598*
X004325Y016117D03*
D599*
X002769Y016108D03*
X002778Y014665D03*
D600*
X004329Y014665D03*
X004329Y016108D03*
D601*
X005876Y016108D03*
D602*
X002773Y016100D03*
D603*
X004329Y016100D03*
D604*
X005871Y016100D03*
D605*
X005884Y014690D03*
X002773Y016092D03*
D606*
X004329Y016092D03*
X004329Y014682D03*
D607*
X002786Y014690D03*
X002637Y015661D03*
X005871Y016092D03*
D608*
X002778Y016084D03*
D609*
X004329Y016084D03*
D610*
X005867Y016084D03*
D611*
X002778Y016075D03*
D612*
X004329Y016075D03*
D613*
X005867Y016075D03*
D614*
X004329Y016067D03*
X004329Y014715D03*
X004329Y014707D03*
D615*
X002794Y014715D03*
X003408Y013587D03*
X005863Y016067D03*
D616*
X005871Y014723D03*
X002786Y016059D03*
D617*
X004329Y016059D03*
X004329Y014723D03*
D618*
X002798Y014723D03*
X005859Y016059D03*
D619*
X005867Y014732D03*
X002657Y015669D03*
X002790Y016050D03*
D620*
X004329Y016050D03*
D621*
X002790Y016042D03*
X005867Y014740D03*
D622*
X004329Y014740D03*
X004329Y016042D03*
D623*
X005863Y016042D03*
X005871Y016026D03*
X005880Y016001D03*
X005880Y014781D03*
X005871Y014757D03*
X002794Y014740D03*
X002786Y014757D03*
X002778Y014781D03*
X002778Y016001D03*
X002786Y016026D03*
D624*
X002794Y016034D03*
X002794Y014748D03*
X005863Y014748D03*
X005863Y016034D03*
D625*
X004329Y016034D03*
D626*
X005871Y016017D03*
X005871Y014765D03*
X002786Y014765D03*
X002786Y016017D03*
D627*
X004329Y016017D03*
X004329Y014765D03*
D628*
X004329Y014773D03*
X004329Y016009D03*
D629*
X004329Y016001D03*
X004329Y015992D03*
X004329Y014781D03*
D630*
X005909Y014856D03*
X005909Y015926D03*
X005884Y015992D03*
X002773Y015992D03*
X002749Y015926D03*
X002749Y014856D03*
X003412Y013570D03*
D631*
X002749Y014864D03*
X002773Y015984D03*
X005884Y015984D03*
X005909Y014864D03*
D632*
X004329Y015984D03*
D633*
X004329Y015967D03*
X004329Y014823D03*
D634*
X004329Y014815D03*
X004329Y015959D03*
D635*
X004329Y015951D03*
D636*
X004329Y015943D03*
X004329Y014848D03*
D637*
X005929Y014914D03*
X005938Y014964D03*
X005979Y015105D03*
X005938Y015818D03*
X005929Y015868D03*
X005913Y015909D03*
X005905Y015934D03*
X002753Y015934D03*
X002744Y015909D03*
X002728Y015868D03*
X002728Y014914D03*
D638*
X004329Y014839D03*
X004329Y015934D03*
D639*
X005909Y015918D03*
X005884Y014798D03*
X002773Y014798D03*
X002749Y015918D03*
D640*
X004329Y015909D03*
D641*
X004329Y015901D03*
X004329Y014881D03*
X004329Y014873D03*
D642*
X005921Y014898D03*
X005946Y014989D03*
X005971Y015694D03*
X002736Y015893D03*
X002686Y015088D03*
X002711Y014989D03*
X002736Y014898D03*
D643*
X004329Y015893D03*
D644*
X005921Y015885D03*
X005946Y014980D03*
X002736Y014889D03*
X002711Y014980D03*
X002736Y015885D03*
D645*
X004329Y015885D03*
X004329Y014889D03*
D646*
X005921Y014906D03*
X005946Y015802D03*
X005921Y015876D03*
X002736Y015876D03*
X002711Y015802D03*
X002736Y014906D03*
D647*
X004329Y014906D03*
X004329Y015876D03*
D648*
X005929Y015860D03*
X005938Y015826D03*
X005954Y015760D03*
X005954Y015022D03*
X005938Y014956D03*
X005929Y014931D03*
X002728Y014931D03*
X002720Y014956D03*
X002703Y015022D03*
X002703Y015760D03*
X002720Y015826D03*
X002728Y015860D03*
D649*
X004329Y015860D03*
X004329Y014931D03*
D650*
X004329Y014922D03*
X004329Y015851D03*
D651*
X004329Y015843D03*
X004329Y014939D03*
D652*
X004329Y014947D03*
X004329Y015835D03*
D653*
X004329Y015826D03*
D654*
X004329Y015818D03*
X004329Y014964D03*
D655*
X005942Y014972D03*
X005950Y014997D03*
X005950Y015014D03*
X005958Y015039D03*
X005958Y015047D03*
X005967Y015063D03*
X005967Y015072D03*
X005967Y015097D03*
X005967Y015710D03*
X005958Y015735D03*
X005958Y015752D03*
X005950Y015777D03*
X005950Y015785D03*
X005942Y015810D03*
X002715Y015810D03*
X002707Y015785D03*
X002707Y015777D03*
X002699Y015752D03*
X002699Y015735D03*
X002691Y015710D03*
X002691Y015072D03*
X002691Y015063D03*
X002699Y015047D03*
X002699Y015039D03*
X002707Y015014D03*
X002707Y014997D03*
X002715Y014972D03*
X003420Y013562D03*
D656*
X004329Y014972D03*
X004329Y015802D03*
X004329Y015810D03*
D657*
X005946Y015793D03*
X002711Y015793D03*
D658*
X003669Y015793D03*
X004988Y015793D03*
D659*
X005017Y015785D03*
X003640Y015785D03*
D660*
X003607Y015768D03*
X005050Y015768D03*
D661*
X005059Y015760D03*
X003599Y015760D03*
D662*
X003586Y015752D03*
X005071Y015752D03*
D663*
X003578Y015744D03*
D664*
X005075Y015744D03*
D665*
X005088Y015735D03*
X003570Y015735D03*
D666*
X002699Y015727D03*
X002691Y015694D03*
X005958Y015727D03*
X005967Y015088D03*
D667*
X005096Y015727D03*
X003561Y015727D03*
D668*
X003549Y015710D03*
X005108Y015710D03*
D669*
X005117Y015702D03*
X005117Y015080D03*
X003541Y015080D03*
X003541Y015702D03*
D670*
X003537Y015694D03*
X003537Y015088D03*
X005121Y015088D03*
X005121Y015694D03*
D671*
X002686Y015685D03*
D672*
X003532Y015685D03*
X003532Y015097D03*
X005125Y015097D03*
X005125Y015685D03*
D673*
X005992Y015685D03*
X006000Y015113D03*
X002657Y015097D03*
D674*
X003528Y015105D03*
X003528Y015677D03*
X005129Y015677D03*
X005129Y015105D03*
D675*
X006021Y015677D03*
X002637Y015105D03*
D676*
X003520Y015669D03*
X005137Y015669D03*
D677*
X006041Y015669D03*
D678*
X006046Y015130D03*
X005506Y014226D03*
X004337Y013338D03*
X004337Y013313D03*
X002612Y015652D03*
D679*
X003512Y015652D03*
X003512Y015130D03*
X005146Y015130D03*
X005146Y015652D03*
D680*
X006087Y015652D03*
X002570Y015130D03*
D681*
X003508Y015138D03*
X003508Y015644D03*
X005150Y015644D03*
X005150Y015138D03*
X004329Y014134D03*
D682*
X005162Y015155D03*
X005154Y015636D03*
X003503Y015636D03*
X003495Y015155D03*
D683*
X002529Y015155D03*
X002529Y015180D03*
X006129Y015180D03*
X006129Y015636D03*
D684*
X002541Y015627D03*
D685*
X003499Y015627D03*
X005158Y015627D03*
D686*
X006129Y015627D03*
X006129Y015196D03*
X006129Y015171D03*
X002529Y015171D03*
X002529Y015146D03*
D687*
X003495Y015163D03*
X003495Y015619D03*
X005162Y015619D03*
X005162Y015163D03*
D688*
X006129Y015603D03*
X002529Y015603D03*
D689*
X003491Y015603D03*
X005166Y015603D03*
D690*
X005171Y015594D03*
X005171Y015188D03*
X003487Y015188D03*
X003487Y015594D03*
D691*
X003474Y015221D03*
X005183Y015221D03*
X005183Y015553D03*
D692*
X006137Y015486D03*
X006137Y015462D03*
X006137Y015387D03*
X006137Y015362D03*
X006137Y015337D03*
X006137Y015321D03*
X006137Y015296D03*
X002521Y015296D03*
X002521Y015321D03*
X002521Y015337D03*
X002521Y015362D03*
X002521Y015387D03*
X002521Y015462D03*
X002521Y015486D03*
X002521Y015511D03*
X002521Y015271D03*
D693*
X002521Y015279D03*
X002521Y015312D03*
X002521Y015345D03*
X002521Y015379D03*
X002521Y015470D03*
X002521Y015503D03*
X006137Y015503D03*
X006137Y015470D03*
X006137Y015379D03*
X006137Y015345D03*
X006137Y015312D03*
X006137Y015279D03*
D694*
X005204Y015312D03*
X005204Y015345D03*
X005204Y015470D03*
X003454Y015470D03*
X003454Y015345D03*
X003454Y015312D03*
D695*
X002521Y015412D03*
X002521Y015437D03*
X006137Y015437D03*
X006137Y015412D03*
D696*
X005204Y015437D03*
X003454Y015437D03*
D697*
X003449Y015412D03*
X005208Y015412D03*
D698*
X006133Y015246D03*
X002525Y015246D03*
D699*
X003466Y015246D03*
X004329Y014126D03*
D700*
X005179Y015204D03*
X003479Y015204D03*
D701*
X003487Y015180D03*
X005171Y015180D03*
D702*
X005166Y015171D03*
X003491Y015171D03*
D703*
X005909Y014607D03*
X006116Y015155D03*
D704*
X005154Y015146D03*
X003503Y015146D03*
D705*
X006091Y015146D03*
D706*
X005141Y015121D03*
X003516Y015121D03*
D707*
X006021Y015121D03*
D708*
X004333Y013305D03*
X002616Y015113D03*
D709*
X003520Y015113D03*
X005137Y015113D03*
D710*
X005112Y015072D03*
X005104Y015063D03*
X003553Y015063D03*
X003545Y015072D03*
D711*
X002699Y015055D03*
X005958Y015055D03*
D712*
X005096Y015055D03*
X003561Y015055D03*
D713*
X003566Y015047D03*
X005092Y015047D03*
D714*
X005083Y015039D03*
X003574Y015039D03*
D715*
X003586Y015030D03*
X005071Y015030D03*
D716*
X005063Y015022D03*
X003595Y015022D03*
D717*
X003603Y015014D03*
X005054Y015014D03*
D718*
X005038Y015005D03*
X003620Y015005D03*
D719*
X003636Y014997D03*
X005021Y014997D03*
D720*
X005000Y014989D03*
X003657Y014989D03*
D721*
X004325Y014980D03*
D722*
X004325Y014956D03*
D723*
X004329Y014898D03*
D724*
X004329Y014864D03*
D725*
X004329Y014831D03*
D726*
X005884Y014790D03*
X002773Y014790D03*
D727*
X004329Y014790D03*
D728*
X004329Y014748D03*
X004337Y013886D03*
D729*
X004325Y014732D03*
D730*
X005871Y014715D03*
D731*
X005880Y014707D03*
D732*
X002790Y014698D03*
D733*
X004329Y014698D03*
D734*
X004329Y014690D03*
D735*
X002786Y014682D03*
D736*
X005884Y014682D03*
D737*
X002782Y014674D03*
D738*
X004329Y014674D03*
D739*
X005888Y014674D03*
D740*
X004329Y014657D03*
D741*
X004329Y014649D03*
D742*
X004329Y014640D03*
D743*
X005896Y014640D03*
X004337Y013512D03*
X003383Y013645D03*
D744*
X002769Y014632D03*
D745*
X004329Y014632D03*
D746*
X005900Y014632D03*
X004333Y013521D03*
D747*
X004329Y014624D03*
D748*
X002761Y014607D03*
D749*
X004329Y014607D03*
D750*
X002757Y014599D03*
D751*
X004329Y014599D03*
D752*
X005917Y014566D03*
D753*
X004329Y014557D03*
D754*
X004325Y014516D03*
D755*
X005900Y014508D03*
X002757Y014508D03*
D756*
X004329Y014508D03*
D757*
X004329Y014491D03*
D758*
X004329Y014483D03*
D759*
X004329Y014466D03*
D760*
X005867Y014458D03*
X002790Y014458D03*
D761*
X004329Y014458D03*
D762*
X005859Y014441D03*
X002798Y014441D03*
D763*
X004329Y014441D03*
D764*
X004329Y014433D03*
D765*
X004329Y014416D03*
D766*
X005834Y014408D03*
X002823Y014408D03*
D767*
X004329Y014408D03*
D768*
X005817Y014383D03*
X002840Y014383D03*
D769*
X004329Y014383D03*
D770*
X004329Y014375D03*
D771*
X004329Y014367D03*
D772*
X004325Y014358D03*
D773*
X002865Y014350D03*
D774*
X002885Y014325D03*
X005772Y014325D03*
D775*
X005764Y014317D03*
X002894Y014317D03*
D776*
X004329Y014317D03*
D777*
X004329Y014300D03*
D778*
X004329Y014292D03*
D779*
X004329Y014284D03*
D780*
X004329Y014275D03*
D781*
X004329Y014267D03*
D782*
X004329Y014251D03*
D783*
X004329Y014242D03*
D784*
X004329Y014234D03*
D785*
X004329Y014209D03*
D786*
X002711Y014201D03*
D787*
X004329Y014201D03*
D788*
X002699Y014193D03*
D789*
X004329Y014193D03*
D790*
X004329Y014184D03*
D791*
X004329Y014176D03*
D792*
X004329Y014168D03*
D793*
X006008Y014168D03*
D794*
X002662Y014159D03*
D795*
X006017Y014159D03*
D796*
X002649Y014151D03*
D797*
X004329Y014151D03*
D798*
X006029Y014151D03*
D799*
X002632Y014134D03*
D800*
X006046Y014134D03*
D801*
X002624Y014126D03*
D802*
X003263Y014126D03*
X005394Y014126D03*
D803*
X004329Y014085D03*
D804*
X004329Y014068D03*
D805*
X005303Y014060D03*
X003354Y014060D03*
D806*
X003367Y014052D03*
X005291Y014052D03*
D807*
X004329Y014052D03*
D808*
X005133Y013960D03*
D809*
X003574Y013935D03*
D810*
X005092Y013935D03*
D811*
X003673Y013902D03*
D812*
X004992Y013902D03*
D813*
X004337Y013894D03*
D814*
X004337Y013869D03*
D815*
X004337Y013861D03*
D816*
X004337Y013770D03*
D817*
X004337Y013720D03*
D818*
X004333Y013703D03*
D819*
X004337Y013695D03*
D820*
X004333Y013670D03*
D821*
X003375Y013662D03*
D822*
X004325Y013645D03*
D823*
X003387Y013637D03*
D824*
X004325Y013637D03*
D825*
X005278Y013637D03*
D826*
X004325Y013604D03*
D827*
X005262Y013604D03*
D828*
X005258Y013587D03*
D829*
X003412Y013579D03*
D830*
X004329Y013579D03*
D831*
X005245Y013554D03*
D832*
X003429Y013537D03*
D833*
X005237Y013537D03*
D834*
X003433Y013529D03*
D835*
X005224Y013512D03*
D836*
X003458Y013471D03*
D837*
X003466Y013454D03*
D838*
X003470Y013446D03*
D839*
X005200Y013446D03*
D840*
X004333Y013388D03*
D841*
X004337Y013322D03*
M02*
