G75*
%MOIN*%
%OFA0B0*%
%FSLAX24Y24*%
%IPPOS*%
%LPD*%
%AMOC8*
5,1,8,0,0,1.08239X$1,22.5*
%
%ADD10C,0.0000*%
%ADD11C,0.0030*%
%ADD12C,0.0100*%
%ADD13C,0.0249*%
%ADD14C,0.0080*%
%ADD15R,0.0059X0.0118*%
%ADD16R,0.0118X0.0118*%
%ADD17C,0.0060*%
%ADD18C,0.0040*%
%ADD19C,0.0050*%
%ADD20R,0.0340X0.0300*%
%ADD21C,0.0020*%
%ADD22C,0.0059*%
D10*
X000754Y002824D02*
X039336Y002824D01*
X039375Y002826D01*
X039413Y002832D01*
X039450Y002841D01*
X039487Y002854D01*
X039522Y002871D01*
X039555Y002890D01*
X039586Y002913D01*
X039615Y002939D01*
X039641Y002968D01*
X039664Y002999D01*
X039683Y003032D01*
X039700Y003067D01*
X039713Y003104D01*
X039722Y003141D01*
X039728Y003179D01*
X039730Y003218D01*
X039730Y022115D01*
X039728Y022154D01*
X039722Y022192D01*
X039713Y022229D01*
X039700Y022266D01*
X039683Y022301D01*
X039664Y022334D01*
X039641Y022365D01*
X039615Y022394D01*
X039586Y022420D01*
X039555Y022443D01*
X039522Y022462D01*
X039487Y022479D01*
X039450Y022492D01*
X039413Y022501D01*
X039375Y022507D01*
X039336Y022509D01*
X000754Y022509D01*
X000715Y022507D01*
X000677Y022501D01*
X000640Y022492D01*
X000603Y022479D01*
X000568Y022462D01*
X000535Y022443D01*
X000504Y022420D01*
X000475Y022394D01*
X000449Y022365D01*
X000426Y022334D01*
X000407Y022301D01*
X000390Y022266D01*
X000377Y022229D01*
X000368Y022192D01*
X000362Y022154D01*
X000360Y022115D01*
X000360Y003218D01*
X000362Y003179D01*
X000368Y003141D01*
X000377Y003104D01*
X000390Y003067D01*
X000407Y003032D01*
X000426Y002999D01*
X000449Y002968D01*
X000475Y002939D01*
X000504Y002913D01*
X000535Y002890D01*
X000568Y002871D01*
X000603Y002854D01*
X000640Y002841D01*
X000677Y002832D01*
X000715Y002826D01*
X000754Y002824D01*
X000517Y003611D02*
X000519Y003661D01*
X000525Y003711D01*
X000535Y003760D01*
X000549Y003808D01*
X000566Y003855D01*
X000587Y003900D01*
X000612Y003944D01*
X000640Y003985D01*
X000672Y004024D01*
X000706Y004061D01*
X000743Y004095D01*
X000783Y004125D01*
X000825Y004152D01*
X000869Y004176D01*
X000915Y004197D01*
X000962Y004213D01*
X001010Y004226D01*
X001060Y004235D01*
X001109Y004240D01*
X001160Y004241D01*
X001210Y004238D01*
X001259Y004231D01*
X001308Y004220D01*
X001356Y004205D01*
X001402Y004187D01*
X001447Y004165D01*
X001490Y004139D01*
X001531Y004110D01*
X001570Y004078D01*
X001606Y004043D01*
X001638Y004005D01*
X001668Y003965D01*
X001695Y003922D01*
X001718Y003878D01*
X001737Y003832D01*
X001753Y003784D01*
X001765Y003735D01*
X001773Y003686D01*
X001777Y003636D01*
X001777Y003586D01*
X001773Y003536D01*
X001765Y003487D01*
X001753Y003438D01*
X001737Y003390D01*
X001718Y003344D01*
X001695Y003300D01*
X001668Y003257D01*
X001638Y003217D01*
X001606Y003179D01*
X001570Y003144D01*
X001531Y003112D01*
X001490Y003083D01*
X001447Y003057D01*
X001402Y003035D01*
X001356Y003017D01*
X001308Y003002D01*
X001259Y002991D01*
X001210Y002984D01*
X001160Y002981D01*
X001109Y002982D01*
X001060Y002987D01*
X001010Y002996D01*
X000962Y003009D01*
X000915Y003025D01*
X000869Y003046D01*
X000825Y003070D01*
X000783Y003097D01*
X000743Y003127D01*
X000706Y003161D01*
X000672Y003198D01*
X000640Y003237D01*
X000612Y003278D01*
X000587Y003322D01*
X000566Y003367D01*
X000549Y003414D01*
X000535Y003462D01*
X000525Y003511D01*
X000519Y003561D01*
X000517Y003611D01*
X000517Y021722D02*
X000519Y021772D01*
X000525Y021822D01*
X000535Y021871D01*
X000549Y021919D01*
X000566Y021966D01*
X000587Y022011D01*
X000612Y022055D01*
X000640Y022096D01*
X000672Y022135D01*
X000706Y022172D01*
X000743Y022206D01*
X000783Y022236D01*
X000825Y022263D01*
X000869Y022287D01*
X000915Y022308D01*
X000962Y022324D01*
X001010Y022337D01*
X001060Y022346D01*
X001109Y022351D01*
X001160Y022352D01*
X001210Y022349D01*
X001259Y022342D01*
X001308Y022331D01*
X001356Y022316D01*
X001402Y022298D01*
X001447Y022276D01*
X001490Y022250D01*
X001531Y022221D01*
X001570Y022189D01*
X001606Y022154D01*
X001638Y022116D01*
X001668Y022076D01*
X001695Y022033D01*
X001718Y021989D01*
X001737Y021943D01*
X001753Y021895D01*
X001765Y021846D01*
X001773Y021797D01*
X001777Y021747D01*
X001777Y021697D01*
X001773Y021647D01*
X001765Y021598D01*
X001753Y021549D01*
X001737Y021501D01*
X001718Y021455D01*
X001695Y021411D01*
X001668Y021368D01*
X001638Y021328D01*
X001606Y021290D01*
X001570Y021255D01*
X001531Y021223D01*
X001490Y021194D01*
X001447Y021168D01*
X001402Y021146D01*
X001356Y021128D01*
X001308Y021113D01*
X001259Y021102D01*
X001210Y021095D01*
X001160Y021092D01*
X001109Y021093D01*
X001060Y021098D01*
X001010Y021107D01*
X000962Y021120D01*
X000915Y021136D01*
X000869Y021157D01*
X000825Y021181D01*
X000783Y021208D01*
X000743Y021238D01*
X000706Y021272D01*
X000672Y021309D01*
X000640Y021348D01*
X000612Y021389D01*
X000587Y021433D01*
X000566Y021478D01*
X000549Y021525D01*
X000535Y021573D01*
X000525Y021622D01*
X000519Y021672D01*
X000517Y021722D01*
X032795Y021590D02*
X032797Y021638D01*
X032803Y021686D01*
X032813Y021733D01*
X032826Y021779D01*
X032844Y021824D01*
X032864Y021868D01*
X032889Y021910D01*
X032917Y021949D01*
X032947Y021986D01*
X032981Y022020D01*
X033018Y022052D01*
X033056Y022081D01*
X033097Y022106D01*
X033140Y022128D01*
X033185Y022146D01*
X033231Y022160D01*
X033278Y022171D01*
X033326Y022178D01*
X033374Y022181D01*
X033422Y022180D01*
X033470Y022175D01*
X033518Y022166D01*
X033564Y022154D01*
X033609Y022137D01*
X033653Y022117D01*
X033695Y022094D01*
X033735Y022067D01*
X033773Y022037D01*
X033808Y022004D01*
X033840Y021968D01*
X033870Y021930D01*
X033896Y021889D01*
X033918Y021846D01*
X033938Y021802D01*
X033953Y021757D01*
X033965Y021710D01*
X033973Y021662D01*
X033977Y021614D01*
X033977Y021566D01*
X033973Y021518D01*
X033965Y021470D01*
X033953Y021423D01*
X033938Y021378D01*
X033918Y021334D01*
X033896Y021291D01*
X033870Y021250D01*
X033840Y021212D01*
X033808Y021176D01*
X033773Y021143D01*
X033735Y021113D01*
X033695Y021086D01*
X033653Y021063D01*
X033609Y021043D01*
X033564Y021026D01*
X033518Y021014D01*
X033470Y021005D01*
X033422Y021000D01*
X033374Y020999D01*
X033326Y021002D01*
X033278Y021009D01*
X033231Y021020D01*
X033185Y021034D01*
X033140Y021052D01*
X033097Y021074D01*
X033056Y021099D01*
X033018Y021128D01*
X032981Y021160D01*
X032947Y021194D01*
X032917Y021231D01*
X032889Y021270D01*
X032864Y021312D01*
X032844Y021356D01*
X032826Y021401D01*
X032813Y021447D01*
X032803Y021494D01*
X032797Y021542D01*
X032795Y021590D01*
X037755Y021590D02*
X037757Y021638D01*
X037763Y021686D01*
X037773Y021733D01*
X037786Y021779D01*
X037804Y021824D01*
X037824Y021868D01*
X037849Y021910D01*
X037877Y021949D01*
X037907Y021986D01*
X037941Y022020D01*
X037978Y022052D01*
X038016Y022081D01*
X038057Y022106D01*
X038100Y022128D01*
X038145Y022146D01*
X038191Y022160D01*
X038238Y022171D01*
X038286Y022178D01*
X038334Y022181D01*
X038382Y022180D01*
X038430Y022175D01*
X038478Y022166D01*
X038524Y022154D01*
X038569Y022137D01*
X038613Y022117D01*
X038655Y022094D01*
X038695Y022067D01*
X038733Y022037D01*
X038768Y022004D01*
X038800Y021968D01*
X038830Y021930D01*
X038856Y021889D01*
X038878Y021846D01*
X038898Y021802D01*
X038913Y021757D01*
X038925Y021710D01*
X038933Y021662D01*
X038937Y021614D01*
X038937Y021566D01*
X038933Y021518D01*
X038925Y021470D01*
X038913Y021423D01*
X038898Y021378D01*
X038878Y021334D01*
X038856Y021291D01*
X038830Y021250D01*
X038800Y021212D01*
X038768Y021176D01*
X038733Y021143D01*
X038695Y021113D01*
X038655Y021086D01*
X038613Y021063D01*
X038569Y021043D01*
X038524Y021026D01*
X038478Y021014D01*
X038430Y021005D01*
X038382Y021000D01*
X038334Y020999D01*
X038286Y021002D01*
X038238Y021009D01*
X038191Y021020D01*
X038145Y021034D01*
X038100Y021052D01*
X038057Y021074D01*
X038016Y021099D01*
X037978Y021128D01*
X037941Y021160D01*
X037907Y021194D01*
X037877Y021231D01*
X037849Y021270D01*
X037824Y021312D01*
X037804Y021356D01*
X037786Y021401D01*
X037773Y021447D01*
X037763Y021494D01*
X037757Y021542D01*
X037755Y021590D01*
D11*
X031334Y020609D02*
X031141Y020609D01*
X031286Y020754D01*
X031286Y020464D01*
X031039Y020464D02*
X030846Y020464D01*
X030943Y020464D02*
X030943Y020754D01*
X030846Y020657D01*
X030745Y020705D02*
X030696Y020754D01*
X030600Y020754D01*
X030551Y020705D01*
X030551Y020512D01*
X030600Y020464D01*
X030696Y020464D01*
X030745Y020512D01*
X029153Y020759D02*
X028960Y020759D01*
X029153Y020953D01*
X029153Y021001D01*
X029105Y021049D01*
X029008Y021049D01*
X028960Y021001D01*
X028858Y021049D02*
X028858Y020807D01*
X028810Y020759D01*
X028713Y020759D01*
X028665Y020807D01*
X028665Y021049D01*
X027124Y020705D02*
X027124Y020657D01*
X027076Y020609D01*
X027124Y020560D01*
X027124Y020512D01*
X027076Y020464D01*
X026979Y020464D01*
X026931Y020512D01*
X026829Y020464D02*
X026636Y020464D01*
X026733Y020464D02*
X026733Y020754D01*
X026636Y020657D01*
X026535Y020705D02*
X026486Y020754D01*
X026390Y020754D01*
X026341Y020705D01*
X026341Y020512D01*
X026390Y020464D01*
X026486Y020464D01*
X026535Y020512D01*
X026931Y020705D02*
X026979Y020754D01*
X027076Y020754D01*
X027124Y020705D01*
X027076Y020609D02*
X027027Y020609D01*
X024824Y020885D02*
X024631Y020692D01*
X024631Y020644D01*
X024529Y020644D02*
X024336Y020644D01*
X024433Y020644D02*
X024433Y020934D01*
X024336Y020837D01*
X024235Y020885D02*
X024186Y020934D01*
X024090Y020934D01*
X024041Y020885D01*
X024041Y020692D01*
X024090Y020644D01*
X024186Y020644D01*
X024235Y020692D01*
X024631Y020934D02*
X024824Y020934D01*
X024824Y020885D01*
X020982Y021323D02*
X020933Y021275D01*
X020836Y021275D01*
X020788Y021323D01*
X020788Y021371D01*
X020836Y021420D01*
X020933Y021420D01*
X020982Y021371D01*
X020982Y021323D01*
X020933Y021420D02*
X020982Y021468D01*
X020982Y021516D01*
X020933Y021565D01*
X020836Y021565D01*
X020788Y021516D01*
X020788Y021468D01*
X020836Y021420D01*
X020687Y021275D02*
X020493Y021275D01*
X020590Y021275D02*
X020590Y021565D01*
X020493Y021468D01*
X020392Y021516D02*
X020344Y021565D01*
X020247Y021565D01*
X020199Y021516D01*
X020199Y021323D01*
X020247Y021275D01*
X020344Y021275D01*
X020392Y021323D01*
X018528Y019765D02*
X018431Y019716D01*
X018334Y019620D01*
X018479Y019620D01*
X018528Y019571D01*
X018528Y019523D01*
X018479Y019475D01*
X018382Y019475D01*
X018334Y019523D01*
X018334Y019620D01*
X018233Y019475D02*
X018039Y019475D01*
X018136Y019475D02*
X018136Y019765D01*
X018039Y019668D01*
X017938Y019716D02*
X017890Y019765D01*
X017793Y019765D01*
X017745Y019716D01*
X017745Y019523D01*
X017793Y019475D01*
X017890Y019475D01*
X017938Y019523D01*
X016094Y017754D02*
X015901Y017754D01*
X015901Y017609D01*
X015997Y017657D01*
X016046Y017657D01*
X016094Y017609D01*
X016094Y017512D01*
X016046Y017464D01*
X015949Y017464D01*
X015901Y017512D01*
X015799Y017464D02*
X015606Y017464D01*
X015703Y017464D02*
X015703Y017754D01*
X015606Y017657D01*
X015505Y017705D02*
X015456Y017754D01*
X015360Y017754D01*
X015311Y017705D01*
X015311Y017512D01*
X015360Y017464D01*
X015456Y017464D01*
X015505Y017512D01*
X015446Y015684D02*
X015350Y015684D01*
X015301Y015635D01*
X015301Y015442D01*
X015350Y015394D01*
X015446Y015394D01*
X015495Y015442D01*
X015596Y015394D02*
X015789Y015394D01*
X015693Y015394D02*
X015693Y015684D01*
X015596Y015587D01*
X015495Y015635D02*
X015446Y015684D01*
X015891Y015587D02*
X015987Y015684D01*
X015987Y015394D01*
X015891Y015394D02*
X016084Y015394D01*
X016090Y012953D02*
X016138Y012905D01*
X016138Y012808D01*
X016090Y012759D01*
X015945Y012759D01*
X015945Y012663D02*
X015945Y012953D01*
X016090Y012953D01*
X016240Y012856D02*
X016336Y012953D01*
X016336Y012663D01*
X016240Y012663D02*
X016433Y012663D01*
X016534Y012663D02*
X016728Y012663D01*
X016631Y012663D02*
X016631Y012953D01*
X016534Y012856D01*
X016138Y012663D02*
X016042Y012759D01*
X017035Y012729D02*
X017180Y012729D01*
X017228Y012778D01*
X017228Y012875D01*
X017180Y012923D01*
X017035Y012923D01*
X017035Y012633D01*
X017132Y012729D02*
X017228Y012633D01*
X017330Y012633D02*
X017523Y012633D01*
X017426Y012633D02*
X017426Y012923D01*
X017330Y012826D01*
X017624Y012875D02*
X017673Y012923D01*
X017769Y012923D01*
X017818Y012875D01*
X017624Y012681D01*
X017673Y012633D01*
X017769Y012633D01*
X017818Y012681D01*
X017818Y012875D01*
X017624Y012875D02*
X017624Y012681D01*
X020281Y015354D02*
X020378Y015354D01*
X020330Y015354D02*
X020330Y015644D01*
X020378Y015644D02*
X020281Y015644D01*
X020478Y015596D02*
X020478Y015402D01*
X020526Y015354D01*
X020623Y015354D01*
X020671Y015402D01*
X020772Y015354D02*
X020966Y015354D01*
X020869Y015354D02*
X020869Y015644D01*
X020772Y015547D01*
X020671Y015596D02*
X020623Y015644D01*
X020526Y015644D01*
X020478Y015596D01*
X024225Y015617D02*
X024321Y015617D01*
X024273Y015617D02*
X024273Y015327D01*
X024225Y015327D02*
X024321Y015327D01*
X024421Y015375D02*
X024421Y015569D01*
X024469Y015617D01*
X024566Y015617D01*
X024615Y015569D01*
X024716Y015569D02*
X024764Y015617D01*
X024861Y015617D01*
X024909Y015569D01*
X024909Y015520D01*
X024716Y015327D01*
X024909Y015327D01*
X024615Y015375D02*
X024566Y015327D01*
X024469Y015327D01*
X024421Y015375D01*
X026566Y015410D02*
X026711Y015410D01*
X026760Y015459D01*
X026760Y015507D01*
X026711Y015555D01*
X026566Y015555D01*
X026566Y015410D02*
X026566Y015700D01*
X026711Y015700D01*
X026760Y015652D01*
X026760Y015604D01*
X026711Y015555D01*
X026861Y015652D02*
X026861Y015459D01*
X026909Y015410D01*
X027006Y015410D01*
X027054Y015459D01*
X027155Y015410D02*
X027155Y015700D01*
X027349Y015410D01*
X027349Y015700D01*
X027450Y015652D02*
X027499Y015700D01*
X027595Y015700D01*
X027644Y015652D01*
X027644Y015604D01*
X027595Y015555D01*
X027644Y015507D01*
X027644Y015459D01*
X027595Y015410D01*
X027499Y015410D01*
X027450Y015459D01*
X027547Y015555D02*
X027595Y015555D01*
X027745Y015410D02*
X027890Y015410D01*
X027938Y015459D01*
X027938Y015652D01*
X027890Y015700D01*
X027745Y015700D01*
X027745Y015410D01*
X027644Y015220D02*
X027644Y014930D01*
X027499Y014930D01*
X027450Y014979D01*
X027450Y015075D01*
X027499Y015124D01*
X027644Y015124D01*
X027793Y015124D02*
X027890Y015124D01*
X027938Y015075D01*
X027938Y014930D01*
X027793Y014930D01*
X027745Y014979D01*
X027793Y015027D01*
X027938Y015027D01*
X028039Y015075D02*
X028039Y014979D01*
X028088Y014930D01*
X028233Y014930D01*
X028334Y014930D02*
X028431Y014930D01*
X028382Y014930D02*
X028382Y015124D01*
X028334Y015124D01*
X028233Y015124D02*
X028088Y015124D01*
X028039Y015075D01*
X028382Y015220D02*
X028382Y015269D01*
X028431Y015410D02*
X028431Y015700D01*
X028334Y015700D02*
X028528Y015700D01*
X028629Y015555D02*
X028629Y015459D01*
X028677Y015410D01*
X028774Y015410D01*
X028822Y015507D02*
X028629Y015507D01*
X028629Y015555D02*
X028677Y015604D01*
X028774Y015604D01*
X028822Y015555D01*
X028822Y015507D01*
X028923Y015555D02*
X028923Y015459D01*
X028972Y015410D01*
X029117Y015410D01*
X029218Y015410D02*
X029218Y015700D01*
X029266Y015604D02*
X029363Y015604D01*
X029412Y015555D01*
X029412Y015410D01*
X029513Y015410D02*
X029513Y015604D01*
X029658Y015604D01*
X029706Y015555D01*
X029706Y015410D01*
X029807Y015459D02*
X029856Y015410D01*
X029952Y015410D01*
X030001Y015459D01*
X030001Y015555D01*
X029952Y015604D01*
X029856Y015604D01*
X029807Y015555D01*
X029807Y015459D01*
X029804Y015220D02*
X029804Y014930D01*
X029611Y014930D02*
X029611Y015220D01*
X029708Y015124D01*
X029804Y015220D01*
X029511Y015220D02*
X029414Y015220D01*
X029463Y015220D02*
X029463Y014930D01*
X029511Y014930D02*
X029414Y014930D01*
X029313Y014979D02*
X029265Y014930D01*
X029168Y014930D01*
X029120Y014979D01*
X029120Y015172D01*
X029168Y015220D01*
X029265Y015220D01*
X029313Y015172D01*
X028724Y015075D02*
X028724Y014979D01*
X028676Y014930D01*
X028579Y014930D01*
X028531Y014979D01*
X028531Y015075D01*
X028579Y015124D01*
X028676Y015124D01*
X028724Y015075D01*
X028923Y015555D02*
X028972Y015604D01*
X029117Y015604D01*
X029218Y015555D02*
X029266Y015604D01*
X029216Y015890D02*
X029119Y015890D01*
X029071Y015939D01*
X029071Y016035D01*
X029119Y016084D01*
X029216Y016084D01*
X029264Y016035D01*
X029264Y015987D01*
X029071Y015987D01*
X028971Y015890D02*
X028874Y015890D01*
X028923Y015890D02*
X028923Y016180D01*
X028874Y016180D01*
X028773Y016035D02*
X028725Y016084D01*
X028580Y016084D01*
X028580Y016180D02*
X028580Y015890D01*
X028725Y015890D01*
X028773Y015939D01*
X028773Y016035D01*
X028478Y016035D02*
X028478Y015939D01*
X028430Y015890D01*
X028333Y015890D01*
X028285Y015939D01*
X028285Y016035D01*
X028333Y016084D01*
X028430Y016084D01*
X028478Y016035D01*
X028184Y015939D02*
X028135Y015890D01*
X028039Y015890D01*
X027990Y015939D01*
X027990Y016132D01*
X028039Y016180D01*
X028135Y016180D01*
X028184Y016132D01*
X028135Y016370D02*
X027990Y016370D01*
X027941Y016419D01*
X027941Y016515D01*
X027990Y016564D01*
X028135Y016564D01*
X028135Y016660D02*
X028135Y016370D01*
X027840Y016370D02*
X027840Y016515D01*
X027792Y016564D01*
X027647Y016564D01*
X027647Y016370D01*
X027545Y016467D02*
X027352Y016467D01*
X027352Y016515D02*
X027400Y016564D01*
X027497Y016564D01*
X027545Y016515D01*
X027545Y016467D01*
X027497Y016370D02*
X027400Y016370D01*
X027352Y016419D01*
X027352Y016515D01*
X027252Y016564D02*
X027155Y016564D01*
X027204Y016612D02*
X027204Y016419D01*
X027252Y016370D01*
X027054Y016419D02*
X027054Y016515D01*
X027006Y016564D01*
X026909Y016564D01*
X026861Y016515D01*
X026861Y016419D01*
X026909Y016370D01*
X027006Y016370D01*
X027054Y016419D01*
X026760Y016370D02*
X026760Y016660D01*
X026760Y016515D02*
X026566Y016515D01*
X026566Y016370D02*
X026566Y016660D01*
X026566Y016180D02*
X026663Y016084D01*
X026760Y016180D01*
X026760Y015890D01*
X026861Y015939D02*
X026909Y015987D01*
X027054Y015987D01*
X027054Y016035D02*
X027054Y015890D01*
X026909Y015890D01*
X026861Y015939D01*
X026909Y016084D02*
X027006Y016084D01*
X027054Y016035D01*
X027155Y015987D02*
X027252Y016084D01*
X027301Y016084D01*
X027401Y016035D02*
X027401Y015939D01*
X027449Y015890D01*
X027595Y015890D01*
X027595Y016084D02*
X027449Y016084D01*
X027401Y016035D01*
X027155Y016084D02*
X027155Y015890D01*
X027006Y015700D02*
X026909Y015700D01*
X026861Y015652D01*
X027006Y015700D02*
X027054Y015652D01*
X026566Y015890D02*
X026566Y016180D01*
X026566Y015220D02*
X026760Y015220D01*
X026861Y015124D02*
X026861Y014979D01*
X026909Y014930D01*
X027054Y014930D01*
X027054Y015124D01*
X027155Y015124D02*
X027301Y015124D01*
X027349Y015075D01*
X027349Y014930D01*
X027155Y014930D02*
X027155Y015124D01*
X026663Y015075D02*
X026566Y015075D01*
X026566Y014930D02*
X026566Y015220D01*
X026566Y014402D02*
X026760Y014402D01*
X026861Y014402D02*
X027054Y014402D01*
X027155Y014402D02*
X027349Y014402D01*
X027450Y014402D02*
X027644Y014402D01*
X027745Y014402D02*
X027938Y014402D01*
X028039Y014402D02*
X028233Y014402D01*
X028334Y014402D02*
X028528Y014402D01*
X028629Y014402D02*
X028822Y014402D01*
X028923Y014402D02*
X029117Y014402D01*
X029218Y014402D02*
X029412Y014402D01*
X029513Y014402D02*
X029706Y014402D01*
X029807Y014402D02*
X030001Y014402D01*
X030102Y014402D02*
X030296Y014402D01*
X030397Y014402D02*
X030590Y014402D01*
X030691Y014402D02*
X030885Y014402D01*
X030986Y014402D02*
X031179Y014402D01*
X031281Y014402D02*
X031474Y014402D01*
X031575Y014402D02*
X031769Y014402D01*
X031870Y014402D02*
X032063Y014402D01*
X031524Y015410D02*
X031572Y015459D01*
X031524Y015507D01*
X031427Y015507D01*
X031379Y015555D01*
X031427Y015604D01*
X031572Y015604D01*
X031524Y015410D02*
X031379Y015410D01*
X031278Y015507D02*
X031084Y015507D01*
X031084Y015555D02*
X031133Y015604D01*
X031229Y015604D01*
X031278Y015555D01*
X031278Y015507D01*
X031229Y015410D02*
X031133Y015410D01*
X031084Y015459D01*
X031084Y015555D01*
X030936Y015604D02*
X030936Y015410D01*
X030888Y015410D02*
X030984Y015410D01*
X030787Y015410D02*
X030641Y015410D01*
X030593Y015459D01*
X030593Y015555D01*
X030641Y015604D01*
X030787Y015604D01*
X030787Y015362D01*
X030738Y015313D01*
X030690Y015313D01*
X030492Y015459D02*
X030492Y015555D01*
X030444Y015604D01*
X030347Y015604D01*
X030298Y015555D01*
X030298Y015459D01*
X030347Y015410D01*
X030444Y015410D01*
X030492Y015459D01*
X030199Y015410D02*
X030102Y015410D01*
X030150Y015410D02*
X030150Y015700D01*
X030102Y015700D01*
X030495Y015939D02*
X030543Y015890D01*
X030592Y015890D01*
X030640Y015939D01*
X030640Y016180D01*
X030592Y016180D02*
X030688Y016180D01*
X030790Y016084D02*
X030790Y015939D01*
X030838Y015890D01*
X030983Y015890D01*
X030983Y016084D01*
X031084Y016084D02*
X031229Y016084D01*
X031278Y016035D01*
X031278Y015890D01*
X031379Y015939D02*
X031379Y016035D01*
X031427Y016084D01*
X031524Y016084D01*
X031572Y016035D01*
X031572Y015987D01*
X031379Y015987D01*
X031379Y015939D02*
X031427Y015890D01*
X031524Y015890D01*
X031084Y015890D02*
X031084Y016084D01*
X030983Y016370D02*
X030983Y016515D01*
X030935Y016564D01*
X030838Y016564D01*
X030790Y016515D01*
X030688Y016564D02*
X030543Y016564D01*
X030495Y016515D01*
X030495Y016419D01*
X030543Y016370D01*
X030688Y016370D01*
X030790Y016370D02*
X030790Y016660D01*
X030394Y016515D02*
X030394Y016370D01*
X030394Y016515D02*
X030345Y016564D01*
X030200Y016564D01*
X030200Y016370D01*
X030099Y016467D02*
X029906Y016467D01*
X029906Y016515D02*
X029954Y016564D01*
X030051Y016564D01*
X030099Y016515D01*
X030099Y016467D01*
X030051Y016370D02*
X029954Y016370D01*
X029906Y016419D01*
X029906Y016515D01*
X029804Y016467D02*
X029804Y016419D01*
X029756Y016370D01*
X029611Y016370D01*
X029611Y016660D01*
X029756Y016660D01*
X029804Y016612D01*
X029804Y016564D01*
X029756Y016515D01*
X029611Y016515D01*
X029511Y016564D02*
X029414Y016564D01*
X029463Y016612D02*
X029463Y016419D01*
X029511Y016370D01*
X029313Y016419D02*
X029265Y016467D01*
X029168Y016467D01*
X029120Y016515D01*
X029168Y016564D01*
X029313Y016564D01*
X029313Y016419D02*
X029265Y016370D01*
X029120Y016370D01*
X029019Y016467D02*
X028825Y016467D01*
X028825Y016515D02*
X028874Y016564D01*
X028970Y016564D01*
X029019Y016515D01*
X029019Y016467D01*
X028970Y016370D02*
X028874Y016370D01*
X028825Y016419D01*
X028825Y016515D01*
X028724Y016660D02*
X028531Y016660D01*
X028627Y016660D02*
X028627Y016370D01*
X029365Y016084D02*
X029365Y015890D01*
X029365Y015987D02*
X029462Y016084D01*
X029510Y016084D01*
X029906Y016035D02*
X030099Y016035D01*
X029804Y016467D02*
X029756Y016515D01*
X030735Y017069D02*
X030735Y017359D01*
X030880Y017359D01*
X030928Y017311D01*
X030928Y017117D01*
X030880Y017069D01*
X030735Y017069D01*
X031030Y017069D02*
X031030Y017117D01*
X031223Y017311D01*
X031223Y017359D01*
X031030Y017359D01*
X032017Y016180D02*
X031968Y016132D01*
X032017Y016180D02*
X032113Y016180D01*
X032162Y016132D01*
X032162Y016084D01*
X031968Y015890D01*
X032162Y015890D01*
X032263Y015939D02*
X032456Y016132D01*
X032456Y015939D01*
X032408Y015890D01*
X032311Y015890D01*
X032263Y015939D01*
X032263Y016132D01*
X032311Y016180D01*
X032408Y016180D01*
X032456Y016132D01*
X032557Y016084D02*
X032654Y016180D01*
X032654Y015890D01*
X032557Y015890D02*
X032751Y015890D01*
X032852Y015939D02*
X032900Y015890D01*
X032997Y015890D01*
X033046Y015939D01*
X033046Y016035D01*
X032997Y016084D01*
X032949Y016084D01*
X032852Y016035D01*
X032852Y016180D01*
X033046Y016180D01*
X033040Y016579D02*
X033088Y016627D01*
X033088Y016724D01*
X032992Y016724D01*
X033088Y016821D02*
X033040Y016869D01*
X032943Y016869D01*
X032895Y016821D01*
X032895Y016627D01*
X032943Y016579D01*
X033040Y016579D01*
X033190Y016579D02*
X033190Y016869D01*
X033383Y016579D01*
X033383Y016869D01*
X033484Y016869D02*
X033629Y016869D01*
X033678Y016821D01*
X033678Y016627D01*
X033629Y016579D01*
X033484Y016579D01*
X033484Y016869D01*
X034875Y016869D02*
X034875Y016676D01*
X034972Y016579D01*
X035068Y016676D01*
X035068Y016869D01*
X035170Y016724D02*
X035363Y016724D01*
X035266Y016821D02*
X035266Y016627D01*
X036255Y016627D02*
X036303Y016579D01*
X036400Y016579D01*
X036448Y016627D01*
X036448Y016724D01*
X036352Y016724D01*
X036448Y016821D02*
X036400Y016869D01*
X036303Y016869D01*
X036255Y016821D01*
X036255Y016627D01*
X036550Y016579D02*
X036550Y016869D01*
X036743Y016579D01*
X036743Y016869D01*
X036844Y016869D02*
X036989Y016869D01*
X037038Y016821D01*
X037038Y016627D01*
X036989Y016579D01*
X036844Y016579D01*
X036844Y016869D01*
X038235Y016869D02*
X038235Y016676D01*
X038332Y016579D01*
X038428Y016676D01*
X038428Y016869D01*
X038530Y016724D02*
X038723Y016724D01*
X038626Y016821D02*
X038626Y016627D01*
X038245Y015807D02*
X038245Y015614D01*
X038245Y015710D02*
X037955Y015710D01*
X038052Y015614D01*
X037955Y015513D02*
X037955Y015319D01*
X038245Y015319D01*
X038100Y015319D02*
X038100Y015416D01*
X036889Y013013D02*
X036793Y013013D01*
X036744Y012965D01*
X036643Y012965D02*
X036595Y013013D01*
X036498Y013013D01*
X036450Y012965D01*
X036348Y012965D02*
X036348Y012868D01*
X036300Y012819D01*
X036155Y012819D01*
X036155Y012723D02*
X036155Y013013D01*
X036300Y013013D01*
X036348Y012965D01*
X036252Y012819D02*
X036348Y012723D01*
X036450Y012723D02*
X036643Y012916D01*
X036643Y012965D01*
X036643Y012723D02*
X036450Y012723D01*
X036744Y012723D02*
X036938Y012916D01*
X036938Y012965D01*
X036889Y013013D01*
X036938Y012723D02*
X036744Y012723D01*
X035808Y012771D02*
X035759Y012723D01*
X035663Y012723D01*
X035614Y012771D01*
X035513Y012723D02*
X035320Y012723D01*
X035513Y012916D01*
X035513Y012965D01*
X035465Y013013D01*
X035368Y013013D01*
X035320Y012965D01*
X035218Y012965D02*
X035218Y012868D01*
X035170Y012819D01*
X035025Y012819D01*
X035025Y012723D02*
X035025Y013013D01*
X035170Y013013D01*
X035218Y012965D01*
X035122Y012819D02*
X035218Y012723D01*
X035614Y012965D02*
X035663Y013013D01*
X035759Y013013D01*
X035808Y012965D01*
X035808Y012916D01*
X035759Y012868D01*
X035808Y012819D01*
X035808Y012771D01*
X035759Y012868D02*
X035711Y012868D01*
X033615Y010263D02*
X033325Y010263D01*
X033325Y010069D01*
X033325Y009968D02*
X033325Y009775D01*
X033325Y009673D02*
X033325Y009528D01*
X033373Y009480D01*
X033567Y009480D01*
X033615Y009528D01*
X033615Y009673D01*
X033325Y009673D01*
X033470Y009871D02*
X033470Y009968D01*
X033615Y009968D02*
X033325Y009968D01*
X033615Y009968D02*
X033615Y009775D01*
X033470Y009379D02*
X033470Y009234D01*
X033422Y009185D01*
X033373Y009185D01*
X033325Y009234D01*
X033325Y009330D01*
X033373Y009379D01*
X033470Y009379D01*
X033567Y009282D01*
X033615Y009185D01*
X034405Y009105D02*
X034405Y008911D01*
X034453Y008863D01*
X034550Y008863D01*
X034598Y008911D01*
X034598Y009105D01*
X034550Y009153D01*
X034453Y009153D01*
X034405Y009105D01*
X034502Y008959D02*
X034598Y008863D01*
X034700Y008911D02*
X034748Y008863D01*
X034845Y008863D01*
X034893Y008911D01*
X034893Y008959D01*
X034845Y009008D01*
X034700Y009008D01*
X034700Y008911D01*
X034700Y009008D02*
X034796Y009105D01*
X034893Y009153D01*
X033602Y008519D02*
X033602Y008374D01*
X033553Y008326D01*
X033456Y008326D01*
X033408Y008374D01*
X033408Y008519D01*
X033311Y008519D02*
X033602Y008519D01*
X033408Y008422D02*
X033311Y008326D01*
X033311Y008224D02*
X033505Y008031D01*
X033553Y008031D01*
X033602Y008079D01*
X033602Y008176D01*
X033553Y008224D01*
X033311Y008224D02*
X033311Y008031D01*
X033311Y007930D02*
X033311Y007736D01*
X033311Y007833D02*
X033602Y007833D01*
X033505Y007930D01*
X032498Y007881D02*
X032449Y007833D01*
X032353Y007833D01*
X032304Y007881D01*
X032498Y008075D01*
X032498Y007881D01*
X032498Y008075D02*
X032449Y008123D01*
X032353Y008123D01*
X032304Y008075D01*
X032304Y007881D01*
X032203Y007833D02*
X032010Y007833D01*
X032203Y008026D01*
X032203Y008075D01*
X032155Y008123D01*
X032058Y008123D01*
X032010Y008075D01*
X031908Y008075D02*
X031908Y007978D01*
X031860Y007929D01*
X031715Y007929D01*
X031715Y007833D02*
X031715Y008123D01*
X031860Y008123D01*
X031908Y008075D01*
X031812Y007929D02*
X031908Y007833D01*
X034248Y007203D02*
X034248Y006913D01*
X034393Y006913D01*
X034442Y006961D01*
X034442Y007155D01*
X034393Y007203D01*
X034248Y007203D01*
X034543Y007058D02*
X034688Y007058D01*
X034736Y007009D01*
X034736Y006961D01*
X034688Y006913D01*
X034591Y006913D01*
X034543Y006961D01*
X034543Y007058D01*
X034640Y007155D01*
X034736Y007203D01*
X037195Y007483D02*
X037195Y007773D01*
X037340Y007773D01*
X037388Y007725D01*
X037388Y007628D01*
X037340Y007579D01*
X037195Y007579D01*
X037292Y007579D02*
X037388Y007483D01*
X037490Y007483D02*
X037683Y007676D01*
X037683Y007725D01*
X037635Y007773D01*
X037538Y007773D01*
X037490Y007725D01*
X037490Y007483D02*
X037683Y007483D01*
X037784Y007628D02*
X037978Y007628D01*
X037929Y007773D02*
X037784Y007628D01*
X037929Y007483D02*
X037929Y007773D01*
X037419Y005627D02*
X037323Y005579D01*
X037226Y005482D01*
X037371Y005482D01*
X037419Y005434D01*
X037419Y005386D01*
X037371Y005337D01*
X037274Y005337D01*
X037226Y005386D01*
X037226Y005482D01*
X037125Y005386D02*
X037076Y005337D01*
X036980Y005337D01*
X036931Y005386D01*
X036931Y005579D01*
X036980Y005627D01*
X037076Y005627D01*
X037125Y005579D01*
X032289Y005616D02*
X032241Y005567D01*
X032144Y005567D01*
X032096Y005616D01*
X032096Y005712D02*
X032193Y005761D01*
X032241Y005761D01*
X032289Y005712D01*
X032289Y005616D01*
X032096Y005712D02*
X032096Y005857D01*
X032289Y005857D01*
X031995Y005809D02*
X031946Y005857D01*
X031850Y005857D01*
X031801Y005809D01*
X031801Y005616D01*
X031850Y005567D01*
X031946Y005567D01*
X031995Y005616D01*
X029216Y006961D02*
X029168Y006913D01*
X029071Y006913D01*
X029023Y006961D01*
X029023Y007058D02*
X029120Y007106D01*
X029168Y007106D01*
X029216Y007058D01*
X029216Y006961D01*
X029023Y007058D02*
X029023Y007203D01*
X029216Y007203D01*
X028922Y007155D02*
X028922Y006961D01*
X028873Y006913D01*
X028728Y006913D01*
X028728Y007203D01*
X028873Y007203D01*
X028922Y007155D01*
X027832Y007696D02*
X027783Y007696D01*
X027590Y007890D01*
X027541Y007890D01*
X027541Y007991D02*
X027541Y008184D01*
X027541Y008088D02*
X027832Y008088D01*
X027735Y008184D01*
X027783Y008286D02*
X027686Y008286D01*
X027638Y008334D01*
X027638Y008479D01*
X027541Y008479D02*
X027832Y008479D01*
X027832Y008334D01*
X027783Y008286D01*
X027638Y008382D02*
X027541Y008286D01*
X027832Y007890D02*
X027832Y007696D01*
X026088Y007851D02*
X026088Y007899D01*
X026039Y007948D01*
X025894Y007948D01*
X025894Y007851D01*
X025943Y007803D01*
X026039Y007803D01*
X026088Y007851D01*
X025991Y008045D02*
X025894Y007948D01*
X025991Y008045D02*
X026088Y008093D01*
X025696Y008093D02*
X025696Y007803D01*
X025600Y007803D02*
X025793Y007803D01*
X025600Y007996D02*
X025696Y008093D01*
X025498Y008045D02*
X025498Y007948D01*
X025450Y007899D01*
X025305Y007899D01*
X025305Y007803D02*
X025305Y008093D01*
X025450Y008093D01*
X025498Y008045D01*
X025402Y007899D02*
X025498Y007803D01*
X024955Y008873D02*
X024955Y009163D01*
X024810Y009018D01*
X025003Y009018D01*
X024708Y009115D02*
X024660Y009163D01*
X024563Y009163D01*
X024515Y009115D01*
X024515Y008921D01*
X024563Y008873D01*
X024660Y008873D01*
X024708Y008921D01*
X024708Y009115D01*
X024612Y008969D02*
X024708Y008873D01*
X022778Y007203D02*
X022633Y007058D01*
X022826Y007058D01*
X022778Y006913D02*
X022778Y007203D01*
X022532Y007155D02*
X022532Y006961D01*
X022483Y006913D01*
X022338Y006913D01*
X022338Y007203D01*
X022483Y007203D01*
X022532Y007155D01*
X020985Y007588D02*
X020937Y007540D01*
X020888Y007540D01*
X020840Y007588D01*
X020792Y007540D01*
X020743Y007540D01*
X020695Y007588D01*
X020695Y007685D01*
X020743Y007733D01*
X020695Y007835D02*
X020695Y008028D01*
X020695Y007931D02*
X020985Y007931D01*
X020888Y008028D01*
X020840Y008129D02*
X020792Y008178D01*
X020792Y008323D01*
X020695Y008323D02*
X020985Y008323D01*
X020985Y008178D01*
X020937Y008129D01*
X020840Y008129D01*
X020792Y008226D02*
X020695Y008129D01*
X020937Y007733D02*
X020985Y007685D01*
X020985Y007588D01*
X020840Y007588D02*
X020840Y007637D01*
X019478Y007803D02*
X019284Y007803D01*
X019478Y007996D01*
X019478Y008045D01*
X019429Y008093D01*
X019333Y008093D01*
X019284Y008045D01*
X019086Y008093D02*
X019086Y007803D01*
X018990Y007803D02*
X019183Y007803D01*
X018990Y007996D02*
X019086Y008093D01*
X018888Y008045D02*
X018888Y007948D01*
X018840Y007899D01*
X018695Y007899D01*
X018695Y007803D02*
X018695Y008093D01*
X018840Y008093D01*
X018888Y008045D01*
X018792Y007899D02*
X018888Y007803D01*
X018375Y008863D02*
X018278Y008863D01*
X018230Y008911D01*
X018128Y008911D02*
X018080Y008863D01*
X017983Y008863D01*
X017935Y008911D01*
X017935Y009105D01*
X017983Y009153D01*
X018080Y009153D01*
X018128Y009105D01*
X018128Y008911D01*
X018128Y008863D02*
X018032Y008959D01*
X018230Y009105D02*
X018278Y009153D01*
X018375Y009153D01*
X018423Y009105D01*
X018423Y009056D01*
X018375Y009008D01*
X018423Y008959D01*
X018423Y008911D01*
X018375Y008863D01*
X018375Y009008D02*
X018326Y009008D01*
X020715Y009114D02*
X021005Y009114D01*
X020860Y009259D01*
X020860Y009065D01*
X020763Y009360D02*
X020957Y009360D01*
X021005Y009408D01*
X021005Y009553D01*
X020715Y009553D01*
X020715Y009408D01*
X020763Y009360D01*
X020715Y009655D02*
X020715Y009848D01*
X021005Y009848D01*
X021005Y009655D01*
X020860Y009751D02*
X020860Y009848D01*
X020715Y009949D02*
X020715Y010143D01*
X021005Y010143D01*
X022515Y012613D02*
X022515Y012903D01*
X022660Y012903D01*
X022708Y012855D01*
X022708Y012758D01*
X022660Y012709D01*
X022515Y012709D01*
X022612Y012709D02*
X022708Y012613D01*
X022810Y012613D02*
X023003Y012613D01*
X022906Y012613D02*
X022906Y012903D01*
X022810Y012806D01*
X023104Y012758D02*
X023201Y012806D01*
X023249Y012806D01*
X023298Y012758D01*
X023298Y012661D01*
X023249Y012613D01*
X023153Y012613D01*
X023104Y012661D01*
X023104Y012758D02*
X023104Y012903D01*
X023298Y012903D01*
X023465Y012873D02*
X023610Y012873D01*
X023658Y012825D01*
X023658Y012728D01*
X023610Y012679D01*
X023465Y012679D01*
X023465Y012583D02*
X023465Y012873D01*
X023562Y012679D02*
X023658Y012583D01*
X023760Y012583D02*
X023953Y012583D01*
X023856Y012583D02*
X023856Y012873D01*
X023760Y012776D01*
X024054Y012728D02*
X024248Y012728D01*
X024199Y012873D02*
X024054Y012728D01*
X024199Y012583D02*
X024199Y012873D01*
X026566Y014164D02*
X026663Y013970D01*
X026760Y014164D01*
X027155Y014164D02*
X027252Y014260D01*
X027252Y013970D01*
X027155Y013970D02*
X027349Y013970D01*
X027450Y013970D02*
X027499Y013970D01*
X027499Y014019D01*
X027450Y014019D01*
X027450Y013970D01*
X027597Y014019D02*
X027791Y014212D01*
X027791Y014019D01*
X027743Y013970D01*
X027646Y013970D01*
X027597Y014019D01*
X027597Y014212D01*
X027646Y014260D01*
X027743Y014260D01*
X027791Y014212D01*
X028187Y014115D02*
X028380Y014115D01*
X028776Y014067D02*
X028921Y014067D01*
X028970Y014115D01*
X028970Y014212D01*
X028921Y014260D01*
X028776Y014260D01*
X028776Y013970D01*
X028873Y014067D02*
X028970Y013970D01*
X029071Y013970D02*
X029071Y014260D01*
X029264Y014260D01*
X029365Y014260D02*
X029365Y014067D01*
X029462Y013970D01*
X029559Y014067D01*
X029559Y014260D01*
X029660Y013922D02*
X029854Y013922D01*
X029955Y013970D02*
X029955Y014164D01*
X030051Y014260D01*
X030148Y014164D01*
X030148Y013970D01*
X030148Y014115D02*
X029955Y014115D01*
X029264Y013970D02*
X029071Y013970D01*
X029071Y014115D02*
X029167Y014115D01*
X029255Y013053D02*
X029400Y013053D01*
X029448Y013005D01*
X029448Y012908D01*
X029400Y012859D01*
X029255Y012859D01*
X029255Y012763D02*
X029255Y013053D01*
X029352Y012859D02*
X029448Y012763D01*
X029550Y012763D02*
X029743Y012763D01*
X029646Y012763D02*
X029646Y013053D01*
X029550Y012956D01*
X029844Y012956D02*
X029893Y012908D01*
X030038Y012908D01*
X030038Y012811D02*
X030038Y013005D01*
X029989Y013053D01*
X029893Y013053D01*
X029844Y013005D01*
X029844Y012956D01*
X029844Y012811D02*
X029893Y012763D01*
X029989Y012763D01*
X030038Y012811D01*
X030275Y012839D02*
X030420Y012839D01*
X030468Y012888D01*
X030468Y012985D01*
X030420Y013033D01*
X030275Y013033D01*
X030275Y012743D01*
X030372Y012839D02*
X030468Y012743D01*
X030570Y012743D02*
X030763Y012743D01*
X030666Y012743D02*
X030666Y013033D01*
X030570Y012936D01*
X030864Y012936D02*
X030913Y012888D01*
X031009Y012888D01*
X031058Y012839D01*
X031058Y012791D01*
X031009Y012743D01*
X030913Y012743D01*
X030864Y012791D01*
X030864Y012839D01*
X030913Y012888D01*
X030864Y012936D02*
X030864Y012985D01*
X030913Y013033D01*
X031009Y013033D01*
X031058Y012985D01*
X031058Y012936D01*
X031009Y012888D01*
X027855Y010243D02*
X027565Y010243D01*
X027565Y010049D01*
X027565Y009948D02*
X027565Y009755D01*
X027565Y009653D02*
X027565Y009508D01*
X027613Y009460D01*
X027807Y009460D01*
X027855Y009508D01*
X027855Y009653D01*
X027565Y009653D01*
X027710Y009851D02*
X027710Y009948D01*
X027855Y009948D02*
X027565Y009948D01*
X027855Y009948D02*
X027855Y009755D01*
X027855Y009359D02*
X027710Y009359D01*
X027758Y009262D01*
X027758Y009214D01*
X027710Y009165D01*
X027613Y009165D01*
X027565Y009214D01*
X027565Y009310D01*
X027613Y009359D01*
X027855Y009359D02*
X027855Y009165D01*
X028605Y009081D02*
X028653Y009033D01*
X028750Y009033D01*
X028798Y009081D01*
X028798Y009275D01*
X028750Y009323D01*
X028653Y009323D01*
X028605Y009275D01*
X028605Y009081D01*
X028702Y009129D02*
X028798Y009033D01*
X028900Y009081D02*
X028948Y009033D01*
X029045Y009033D01*
X029093Y009081D01*
X029093Y009178D01*
X029045Y009226D01*
X028996Y009226D01*
X028900Y009178D01*
X028900Y009323D01*
X029093Y009323D01*
X025751Y005877D02*
X025606Y005732D01*
X025799Y005732D01*
X025751Y005587D02*
X025751Y005877D01*
X025505Y005829D02*
X025456Y005877D01*
X025360Y005877D01*
X025311Y005829D01*
X025311Y005636D01*
X025360Y005587D01*
X025456Y005587D01*
X025505Y005636D01*
X019309Y005656D02*
X019261Y005607D01*
X019164Y005607D01*
X019116Y005656D01*
X019015Y005656D02*
X018966Y005607D01*
X018870Y005607D01*
X018821Y005656D01*
X018821Y005849D01*
X018870Y005897D01*
X018966Y005897D01*
X019015Y005849D01*
X019116Y005849D02*
X019164Y005897D01*
X019261Y005897D01*
X019309Y005849D01*
X019309Y005801D01*
X019261Y005752D01*
X019309Y005704D01*
X019309Y005656D01*
X019261Y005752D02*
X019213Y005752D01*
X016266Y006961D02*
X016218Y006913D01*
X016121Y006913D01*
X016073Y006961D01*
X015972Y006961D02*
X015972Y007155D01*
X015923Y007203D01*
X015778Y007203D01*
X015778Y006913D01*
X015923Y006913D01*
X015972Y006961D01*
X016073Y007155D02*
X016121Y007203D01*
X016218Y007203D01*
X016266Y007155D01*
X016266Y007106D01*
X016218Y007058D01*
X016266Y007009D01*
X016266Y006961D01*
X016218Y007058D02*
X016170Y007058D01*
X014295Y007883D02*
X014295Y007980D01*
X014247Y008028D01*
X014198Y008028D01*
X014150Y007980D01*
X014150Y007835D01*
X014053Y007835D02*
X014247Y007835D01*
X014295Y007883D01*
X014053Y007835D02*
X014005Y007883D01*
X014005Y007980D01*
X014053Y008028D01*
X014005Y008129D02*
X014102Y008226D01*
X014102Y008178D02*
X014102Y008323D01*
X014005Y008323D02*
X014295Y008323D01*
X014295Y008178D01*
X014247Y008129D01*
X014150Y008129D01*
X014102Y008178D01*
X014113Y009125D02*
X014065Y009174D01*
X014065Y009270D01*
X014113Y009319D01*
X014113Y009420D02*
X014065Y009468D01*
X014065Y009613D01*
X014355Y009613D01*
X014355Y009468D01*
X014307Y009420D01*
X014113Y009420D01*
X014307Y009319D02*
X014355Y009270D01*
X014355Y009174D01*
X014307Y009125D01*
X014258Y009125D01*
X014210Y009174D01*
X014162Y009125D01*
X014113Y009125D01*
X014210Y009174D02*
X014210Y009222D01*
X014065Y009715D02*
X014065Y009908D01*
X014355Y009908D01*
X014355Y009715D01*
X014210Y009811D02*
X014210Y009908D01*
X014065Y010009D02*
X014065Y010203D01*
X014355Y010203D01*
X011723Y009275D02*
X011675Y009323D01*
X011578Y009323D01*
X011530Y009275D01*
X011428Y009275D02*
X011428Y009081D01*
X011380Y009033D01*
X011283Y009033D01*
X011235Y009081D01*
X011235Y009275D01*
X011283Y009323D01*
X011380Y009323D01*
X011428Y009275D01*
X011332Y009129D02*
X011428Y009033D01*
X011530Y009033D02*
X011723Y009226D01*
X011723Y009275D01*
X011723Y009033D02*
X011530Y009033D01*
X012025Y008093D02*
X012170Y008093D01*
X012218Y008045D01*
X012218Y007948D01*
X012170Y007899D01*
X012025Y007899D01*
X012025Y007803D02*
X012025Y008093D01*
X012122Y007899D02*
X012218Y007803D01*
X012320Y007851D02*
X012320Y007899D01*
X012368Y007948D01*
X012465Y007948D01*
X012513Y007899D01*
X012513Y007851D01*
X012465Y007803D01*
X012368Y007803D01*
X012320Y007851D01*
X012368Y007948D02*
X012320Y007996D01*
X012320Y008045D01*
X012368Y008093D01*
X012465Y008093D01*
X012513Y008045D01*
X012513Y007996D01*
X012465Y007948D01*
X009674Y007155D02*
X009625Y007203D01*
X009529Y007203D01*
X009480Y007155D01*
X009379Y007155D02*
X009379Y006961D01*
X009331Y006913D01*
X009186Y006913D01*
X009186Y007203D01*
X009331Y007203D01*
X009379Y007155D01*
X009480Y006913D02*
X009674Y007106D01*
X009674Y007155D01*
X009674Y006913D02*
X009480Y006913D01*
X007765Y007605D02*
X007765Y007798D01*
X007620Y007798D01*
X007668Y007701D01*
X007668Y007653D01*
X007620Y007605D01*
X007523Y007605D01*
X007475Y007653D01*
X007475Y007750D01*
X007523Y007798D01*
X007475Y007899D02*
X007572Y007996D01*
X007572Y007948D02*
X007572Y008093D01*
X007475Y008093D02*
X007765Y008093D01*
X007765Y007948D01*
X007717Y007899D01*
X007620Y007899D01*
X007572Y007948D01*
X006483Y007908D02*
X006290Y007908D01*
X006435Y008053D01*
X006435Y007763D01*
X006188Y007763D02*
X006092Y007859D01*
X006140Y007859D02*
X005995Y007859D01*
X005995Y007763D02*
X005995Y008053D01*
X006140Y008053D01*
X006188Y008005D01*
X006188Y007908D01*
X006140Y007859D01*
X007545Y008865D02*
X007545Y009059D01*
X007738Y008865D01*
X007787Y008865D01*
X007835Y008914D01*
X007835Y009010D01*
X007787Y009059D01*
X007787Y009160D02*
X007593Y009160D01*
X007545Y009208D01*
X007545Y009353D01*
X007835Y009353D01*
X007835Y009208D01*
X007787Y009160D01*
X007835Y009455D02*
X007835Y009648D01*
X007545Y009648D01*
X007545Y009455D01*
X007690Y009551D02*
X007690Y009648D01*
X007545Y009749D02*
X007545Y009943D01*
X007835Y009943D01*
X005708Y009374D02*
X005708Y009278D01*
X005660Y009229D01*
X005466Y009229D01*
X005418Y009278D01*
X005418Y009374D01*
X005466Y009423D01*
X005660Y009423D01*
X005708Y009374D01*
X005515Y009326D02*
X005418Y009229D01*
X005418Y009128D02*
X005418Y008935D01*
X005418Y009031D02*
X005708Y009031D01*
X005611Y009128D01*
X003683Y007203D02*
X003683Y006913D01*
X003586Y006913D02*
X003780Y006913D01*
X003586Y007106D02*
X003683Y007203D01*
X003485Y007155D02*
X003436Y007203D01*
X003291Y007203D01*
X003291Y006913D01*
X003436Y006913D01*
X003485Y006961D01*
X003485Y007155D01*
X001945Y007631D02*
X001655Y007631D01*
X001655Y007535D02*
X001655Y007728D01*
X001655Y007829D02*
X001752Y007926D01*
X001752Y007878D02*
X001752Y008023D01*
X001655Y008023D02*
X001945Y008023D01*
X001945Y007878D01*
X001897Y007829D01*
X001800Y007829D01*
X001752Y007878D01*
X001848Y007728D02*
X001945Y007631D01*
X001785Y008915D02*
X001785Y009109D01*
X001785Y009012D02*
X002075Y009012D01*
X001978Y009109D01*
X002027Y009210D02*
X002075Y009258D01*
X002075Y009403D01*
X001785Y009403D01*
X001785Y009258D01*
X001833Y009210D01*
X002027Y009210D01*
X002075Y009505D02*
X002075Y009698D01*
X001785Y009698D01*
X001785Y009505D01*
X001930Y009601D02*
X001930Y009698D01*
X001785Y009799D02*
X001785Y009993D01*
X002075Y009993D01*
X003565Y012633D02*
X003565Y012923D01*
X003710Y012923D01*
X003758Y012875D01*
X003758Y012778D01*
X003710Y012729D01*
X003565Y012729D01*
X003662Y012729D02*
X003758Y012633D01*
X003860Y012681D02*
X003908Y012633D01*
X004005Y012633D01*
X004053Y012681D01*
X004053Y012729D01*
X004005Y012778D01*
X003956Y012778D01*
X004005Y012778D02*
X004053Y012826D01*
X004053Y012875D01*
X004005Y012923D01*
X003908Y012923D01*
X003860Y012875D01*
X004555Y012913D02*
X004555Y012623D01*
X004555Y012719D02*
X004700Y012719D01*
X004748Y012768D01*
X004748Y012865D01*
X004700Y012913D01*
X004555Y012913D01*
X004652Y012719D02*
X004748Y012623D01*
X004850Y012623D02*
X005043Y012816D01*
X005043Y012865D01*
X004995Y012913D01*
X004898Y012913D01*
X004850Y012865D01*
X004850Y012623D02*
X005043Y012623D01*
X006791Y013092D02*
X006840Y013044D01*
X006936Y013044D01*
X006985Y013092D01*
X007086Y013092D02*
X007086Y013140D01*
X007134Y013189D01*
X007231Y013189D01*
X007279Y013140D01*
X007279Y013092D01*
X007231Y013044D01*
X007134Y013044D01*
X007086Y013092D01*
X007134Y013189D02*
X007086Y013237D01*
X007086Y013285D01*
X007134Y013334D01*
X007231Y013334D01*
X007279Y013285D01*
X007279Y013237D01*
X007231Y013189D01*
X006985Y013285D02*
X006936Y013334D01*
X006840Y013334D01*
X006791Y013285D01*
X006791Y013092D01*
X008441Y013072D02*
X008490Y013024D01*
X008586Y013024D01*
X008635Y013072D01*
X008736Y013072D02*
X008736Y013024D01*
X008736Y013072D02*
X008929Y013265D01*
X008929Y013314D01*
X008736Y013314D01*
X008635Y013265D02*
X008586Y013314D01*
X008490Y013314D01*
X008441Y013265D01*
X008441Y013072D01*
X009425Y012823D02*
X009425Y012533D01*
X009425Y012629D02*
X009570Y012629D01*
X009618Y012678D01*
X009618Y012775D01*
X009570Y012823D01*
X009425Y012823D01*
X009522Y012629D02*
X009618Y012533D01*
X009720Y012533D02*
X009720Y012581D01*
X009913Y012775D01*
X009913Y012823D01*
X009720Y012823D01*
X010485Y012823D02*
X010485Y012533D01*
X010485Y012629D02*
X010630Y012629D01*
X010678Y012678D01*
X010678Y012775D01*
X010630Y012823D01*
X010485Y012823D01*
X010582Y012629D02*
X010678Y012533D01*
X010780Y012581D02*
X010828Y012533D01*
X010925Y012533D01*
X010973Y012581D01*
X010973Y012629D01*
X010925Y012678D01*
X010780Y012678D01*
X010780Y012581D01*
X010780Y012678D02*
X010876Y012775D01*
X010973Y012823D01*
X009766Y016344D02*
X009669Y016344D01*
X009621Y016392D01*
X009814Y016585D01*
X009814Y016392D01*
X009766Y016344D01*
X009621Y016392D02*
X009621Y016585D01*
X009669Y016634D01*
X009766Y016634D01*
X009814Y016585D01*
X009519Y016344D02*
X009326Y016344D01*
X009423Y016344D02*
X009423Y016634D01*
X009326Y016537D01*
X009225Y016585D02*
X009176Y016634D01*
X009080Y016634D01*
X009031Y016585D01*
X009031Y016392D01*
X009080Y016344D01*
X009176Y016344D01*
X009225Y016392D01*
X007193Y016289D02*
X007000Y016289D01*
X007096Y016289D02*
X007096Y016579D01*
X007000Y016483D01*
X006898Y016531D02*
X006898Y016579D01*
X006898Y016531D02*
X006802Y016434D01*
X006802Y016289D01*
X006802Y016434D02*
X006705Y016531D01*
X006705Y016579D01*
X006044Y017212D02*
X006044Y017405D01*
X005996Y017454D01*
X005899Y017454D01*
X005851Y017405D01*
X005851Y017357D01*
X005899Y017309D01*
X006044Y017309D01*
X006044Y017212D02*
X005996Y017164D01*
X005899Y017164D01*
X005851Y017212D01*
X005749Y017164D02*
X005556Y017164D01*
X005653Y017164D02*
X005653Y017454D01*
X005556Y017357D01*
X005455Y017405D02*
X005406Y017454D01*
X005310Y017454D01*
X005261Y017405D01*
X005261Y017212D01*
X005310Y017164D01*
X005406Y017164D01*
X005455Y017212D01*
X005029Y017899D02*
X005078Y017947D01*
X005078Y017996D01*
X005029Y018044D01*
X004884Y018044D01*
X004884Y017947D01*
X004933Y017899D01*
X005029Y017899D01*
X004884Y018044D02*
X004981Y018141D01*
X005078Y018189D01*
X004783Y018141D02*
X004735Y018189D01*
X004638Y018189D01*
X004590Y018141D01*
X004488Y018141D02*
X004488Y018044D01*
X004440Y017996D01*
X004295Y017996D01*
X004392Y017996D02*
X004488Y017899D01*
X004590Y017899D02*
X004783Y018093D01*
X004783Y018141D01*
X004783Y017899D02*
X004590Y017899D01*
X004488Y018141D02*
X004440Y018189D01*
X004295Y018189D01*
X004295Y017899D01*
X006161Y018032D02*
X006210Y017984D01*
X006306Y017984D01*
X006355Y018032D01*
X006456Y017984D02*
X006649Y017984D01*
X006553Y017984D02*
X006553Y018274D01*
X006456Y018177D01*
X006355Y018225D02*
X006306Y018274D01*
X006210Y018274D01*
X006161Y018225D01*
X006161Y018032D01*
X006751Y017984D02*
X006944Y018177D01*
X006944Y018225D01*
X006896Y018274D01*
X006799Y018274D01*
X006751Y018225D01*
X006751Y017984D02*
X006944Y017984D01*
X009181Y018312D02*
X009230Y018264D01*
X009326Y018264D01*
X009375Y018312D01*
X009476Y018312D02*
X009524Y018264D01*
X009621Y018264D01*
X009669Y018312D01*
X009669Y018505D01*
X009621Y018554D01*
X009524Y018554D01*
X009476Y018505D01*
X009476Y018457D01*
X009524Y018409D01*
X009669Y018409D01*
X009375Y018505D02*
X009326Y018554D01*
X009230Y018554D01*
X009181Y018505D01*
X009181Y018312D01*
X010585Y018847D02*
X010585Y019089D01*
X010778Y019089D02*
X010778Y018847D01*
X010730Y018799D01*
X010633Y018799D01*
X010585Y018847D01*
X010880Y018799D02*
X011073Y018799D01*
X010976Y018799D02*
X010976Y019089D01*
X010880Y018993D01*
X010715Y021799D02*
X010618Y021799D01*
X010570Y021847D01*
X010570Y022041D01*
X010618Y022089D01*
X010715Y022089D01*
X010763Y022041D01*
X010763Y021847D02*
X010715Y021799D01*
X010468Y021799D02*
X010468Y022089D01*
X010275Y022089D02*
X010468Y021799D01*
X010275Y021799D02*
X010275Y022089D01*
X009918Y022089D02*
X009918Y021896D01*
X009821Y021799D01*
X009724Y021896D01*
X009724Y022089D01*
X009623Y022089D02*
X009430Y022089D01*
X009430Y021944D01*
X009526Y021993D01*
X009575Y021993D01*
X009623Y021944D01*
X009623Y021847D01*
X009575Y021799D01*
X009478Y021799D01*
X009430Y021847D01*
X009328Y021944D02*
X009135Y021944D01*
X009232Y022041D02*
X009232Y021847D01*
X008783Y021799D02*
X008590Y022089D01*
X008488Y022089D02*
X008295Y022089D01*
X008392Y022089D02*
X008392Y021799D01*
X008590Y021799D02*
X008783Y022089D01*
X007703Y022089D02*
X007510Y021799D01*
X007408Y021799D02*
X007312Y021896D01*
X007360Y021896D02*
X007215Y021896D01*
X007215Y021799D02*
X007215Y022089D01*
X007360Y022089D01*
X007408Y022041D01*
X007408Y021944D01*
X007360Y021896D01*
X007510Y022089D02*
X007703Y021799D01*
X006858Y021799D02*
X006761Y021896D01*
X006809Y021896D02*
X006664Y021896D01*
X006664Y021799D02*
X006664Y022089D01*
X006809Y022089D01*
X006858Y022041D01*
X006858Y021944D01*
X006809Y021896D01*
X006563Y022089D02*
X006370Y022089D01*
X006466Y022089D02*
X006466Y021799D01*
X006268Y021847D02*
X006268Y022041D01*
X006220Y022089D01*
X006075Y022089D01*
X006075Y021799D01*
X006220Y021799D01*
X006268Y021847D01*
X011115Y021847D02*
X011163Y021799D01*
X011260Y021799D01*
X011308Y021847D01*
X011308Y021944D01*
X011212Y021944D01*
X011308Y022041D02*
X011260Y022089D01*
X011163Y022089D01*
X011115Y022041D01*
X011115Y021847D01*
X011410Y021799D02*
X011410Y022089D01*
X011603Y021799D01*
X011603Y022089D01*
X011704Y022089D02*
X011849Y022089D01*
X011898Y022041D01*
X011898Y021847D01*
X011849Y021799D01*
X011704Y021799D01*
X011704Y022089D01*
X001587Y018253D02*
X001297Y018253D01*
X001297Y018157D02*
X001297Y018350D01*
X001297Y018055D02*
X001297Y017862D01*
X001587Y017862D01*
X001587Y018055D01*
X001442Y017959D02*
X001442Y017862D01*
X001490Y017761D02*
X001539Y017761D01*
X001587Y017712D01*
X001587Y017616D01*
X001539Y017567D01*
X001442Y017616D02*
X001394Y017567D01*
X001345Y017567D01*
X001297Y017616D01*
X001297Y017712D01*
X001345Y017761D01*
X001442Y017712D02*
X001490Y017761D01*
X001442Y017712D02*
X001442Y017616D01*
X001587Y017466D02*
X001587Y017273D01*
X001297Y017273D01*
X001297Y017466D01*
X001442Y017369D02*
X001442Y017273D01*
X001442Y017171D02*
X001490Y017123D01*
X001490Y016978D01*
X001490Y017075D02*
X001587Y017171D01*
X001442Y017171D02*
X001345Y017171D01*
X001297Y017123D01*
X001297Y016978D01*
X001587Y016978D01*
X012090Y005887D02*
X012041Y005839D01*
X012041Y005646D01*
X012090Y005597D01*
X012186Y005597D01*
X012235Y005646D01*
X012336Y005597D02*
X012529Y005791D01*
X012529Y005839D01*
X012481Y005887D01*
X012384Y005887D01*
X012336Y005839D01*
X012235Y005839D02*
X012186Y005887D01*
X012090Y005887D01*
X012336Y005597D02*
X012529Y005597D01*
X006489Y005567D02*
X006296Y005567D01*
X006393Y005567D02*
X006393Y005857D01*
X006296Y005761D01*
X006195Y005809D02*
X006146Y005857D01*
X006050Y005857D01*
X006001Y005809D01*
X006001Y005616D01*
X006050Y005567D01*
X006146Y005567D01*
X006195Y005616D01*
X030888Y015604D02*
X030936Y015604D01*
X030936Y015700D02*
X030936Y015749D01*
D12*
X012300Y020164D02*
X012300Y022324D01*
X005820Y022324D01*
X005820Y020164D01*
X012300Y020164D01*
D13*
X010948Y009393D03*
X005071Y009393D03*
X017638Y009393D03*
X024148Y009393D03*
X030928Y009513D03*
X036748Y009513D03*
D14*
X035458Y006819D02*
X033647Y006819D01*
X033647Y006641D01*
X034159Y006641D02*
X034159Y005854D01*
X033647Y005854D02*
X033647Y005677D01*
X035458Y005677D01*
X035458Y005854D01*
X035458Y006641D02*
X035458Y006819D01*
X029938Y006819D02*
X029938Y006641D01*
X029938Y006819D02*
X028127Y006819D01*
X028127Y006641D01*
X028639Y006641D02*
X028639Y005854D01*
X028127Y005854D02*
X028127Y005677D01*
X029938Y005677D01*
X029938Y005854D01*
X023518Y005854D02*
X023518Y005677D01*
X021707Y005677D01*
X021707Y005854D01*
X022219Y005854D02*
X022219Y006641D01*
X021707Y006641D02*
X021707Y006819D01*
X023518Y006819D01*
X023518Y006641D01*
X016958Y006641D02*
X016958Y006819D01*
X015147Y006819D01*
X015147Y006641D01*
X015659Y006641D02*
X015659Y005854D01*
X015147Y005854D02*
X015147Y005677D01*
X016958Y005677D01*
X016958Y005854D01*
X010366Y005854D02*
X010366Y005677D01*
X008554Y005677D01*
X008554Y005854D01*
X009066Y005854D02*
X009066Y006641D01*
X008554Y006641D02*
X008554Y006819D01*
X010366Y006819D01*
X010366Y006641D01*
X004471Y006641D02*
X004471Y006819D01*
X002660Y006819D01*
X002660Y006641D01*
X003172Y006641D02*
X003172Y005854D01*
X002660Y005854D02*
X002660Y005677D01*
X004471Y005677D01*
X004471Y005854D01*
X006640Y014334D02*
X009340Y014334D01*
X009399Y014336D01*
X009457Y014342D01*
X009516Y014351D01*
X009573Y014365D01*
X009629Y014382D01*
X009684Y014403D01*
X009738Y014427D01*
X009790Y014455D01*
X009840Y014486D01*
X009888Y014520D01*
X009933Y014557D01*
X009976Y014598D01*
X010017Y014641D01*
X010054Y014686D01*
X010088Y014734D01*
X010119Y014784D01*
X010147Y014836D01*
X010171Y014890D01*
X010192Y014945D01*
X010209Y015001D01*
X010223Y015058D01*
X010232Y015117D01*
X010238Y015175D01*
X010240Y015234D01*
X010238Y015293D01*
X010232Y015351D01*
X010223Y015410D01*
X010209Y015467D01*
X010192Y015523D01*
X010171Y015578D01*
X010147Y015632D01*
X010119Y015684D01*
X010088Y015734D01*
X010054Y015782D01*
X010017Y015827D01*
X009976Y015870D01*
X009933Y015911D01*
X009888Y015948D01*
X009840Y015982D01*
X009790Y016013D01*
X009738Y016041D01*
X009684Y016065D01*
X009629Y016086D01*
X009573Y016103D01*
X009516Y016117D01*
X009457Y016126D01*
X009399Y016132D01*
X009340Y016134D01*
X006640Y016134D01*
X006581Y016132D01*
X006523Y016126D01*
X006464Y016117D01*
X006407Y016103D01*
X006351Y016086D01*
X006296Y016065D01*
X006242Y016041D01*
X006190Y016013D01*
X006140Y015982D01*
X006092Y015948D01*
X006047Y015911D01*
X006004Y015870D01*
X005963Y015827D01*
X005926Y015782D01*
X005892Y015734D01*
X005861Y015684D01*
X005833Y015632D01*
X005809Y015578D01*
X005788Y015523D01*
X005771Y015467D01*
X005757Y015410D01*
X005748Y015351D01*
X005742Y015293D01*
X005740Y015234D01*
X005742Y015175D01*
X005748Y015117D01*
X005757Y015058D01*
X005771Y015001D01*
X005788Y014945D01*
X005809Y014890D01*
X005833Y014836D01*
X005861Y014784D01*
X005892Y014734D01*
X005926Y014686D01*
X005963Y014641D01*
X006004Y014598D01*
X006047Y014557D01*
X006092Y014520D01*
X006140Y014486D01*
X006190Y014455D01*
X006242Y014427D01*
X006296Y014403D01*
X006351Y014382D01*
X006407Y014365D01*
X006464Y014351D01*
X006523Y014342D01*
X006581Y014336D01*
X006640Y014334D01*
X011160Y015824D02*
X011160Y018444D01*
X011300Y018584D01*
X013920Y018584D01*
X013920Y015824D01*
X011040Y018654D02*
X011042Y018669D01*
X011047Y018683D01*
X011056Y018695D01*
X011068Y018705D01*
X011081Y018711D01*
X011096Y018714D01*
X011111Y018713D01*
X011126Y018708D01*
X011138Y018700D01*
X011149Y018689D01*
X011156Y018676D01*
X011160Y018662D01*
X011160Y018646D01*
X011156Y018632D01*
X011149Y018619D01*
X011138Y018608D01*
X011126Y018600D01*
X011111Y018595D01*
X011096Y018594D01*
X011081Y018597D01*
X011068Y018603D01*
X011056Y018613D01*
X011047Y018625D01*
X011042Y018639D01*
X011040Y018654D01*
X010819Y020364D02*
X010319Y020364D01*
X010069Y020614D01*
X009819Y020364D01*
X009319Y020364D01*
X009069Y020614D01*
X008819Y020364D01*
X008319Y020364D01*
X008069Y020614D01*
X007819Y020364D01*
X007319Y020364D01*
X007069Y020614D01*
X006819Y020364D01*
X006319Y020364D01*
X006069Y020614D01*
X006069Y021114D01*
X006319Y021364D01*
X006819Y021364D01*
X007069Y021114D01*
X007319Y021364D01*
X007819Y021364D01*
X008069Y021114D01*
X008319Y021364D01*
X008819Y021364D01*
X009069Y021114D01*
X009319Y021364D01*
X009819Y021364D01*
X010069Y021114D01*
X010319Y021364D01*
X010819Y021364D01*
X011069Y021114D01*
X011319Y021364D01*
X011819Y021364D01*
X012069Y021114D01*
X012069Y020614D01*
X011819Y020364D01*
X011319Y020364D01*
X011069Y020614D01*
X010819Y020364D01*
X014480Y020474D02*
X014480Y020974D01*
X014730Y021224D01*
X016230Y021224D01*
X016480Y021474D01*
X016480Y021974D01*
X016230Y022224D01*
X014730Y022224D01*
X014480Y021974D01*
X014480Y021474D01*
X014730Y021224D01*
X014480Y020474D02*
X014730Y020224D01*
X016230Y020224D01*
X016480Y020474D01*
X016480Y020974D01*
X016230Y021224D01*
X016230Y020224D02*
X016480Y019974D01*
X016480Y019474D01*
X016230Y019224D01*
X014730Y019224D01*
X014480Y019474D01*
X014480Y019974D01*
X014730Y020224D01*
X016612Y019974D02*
X016612Y019474D01*
X027610Y020134D02*
X027610Y017774D01*
X030190Y017774D02*
X030190Y020134D01*
X027610Y020134D01*
X030459Y019540D02*
X030636Y019540D01*
X030459Y019540D02*
X030459Y017729D01*
X030636Y017729D01*
X031424Y017729D02*
X031601Y017729D01*
X031601Y019540D01*
X031424Y019540D01*
X031424Y019028D02*
X030636Y019028D01*
X038460Y015674D02*
X038460Y015174D01*
X039060Y015174D02*
X039060Y015674D01*
D15*
X034296Y009819D03*
X033824Y009819D03*
X028506Y009787D03*
X028034Y009787D03*
X021676Y009699D03*
X021204Y009699D03*
X014976Y009767D03*
X014504Y009767D03*
X008476Y009547D03*
X008004Y009547D03*
X002686Y009587D03*
X002214Y009587D03*
D16*
X002450Y009587D03*
X008240Y009547D03*
X014740Y009767D03*
X021440Y009699D03*
X028270Y009787D03*
X034060Y009819D03*
D17*
X034043Y005096D02*
X033793Y004846D01*
X033793Y004346D01*
X034043Y004096D01*
X034543Y004096D01*
X034793Y004346D01*
X035043Y004096D01*
X035543Y004096D01*
X035793Y004346D01*
X035793Y004846D01*
X035543Y005096D01*
X035043Y005096D01*
X034793Y004846D01*
X034793Y004346D01*
X034793Y004846D02*
X034543Y005096D01*
X034043Y005096D01*
X035793Y004846D02*
X036043Y005096D01*
X036543Y005096D01*
X036793Y004846D01*
X037043Y005096D01*
X037543Y005096D01*
X037793Y004846D01*
X037793Y004346D01*
X037543Y004096D01*
X037043Y004096D01*
X036793Y004346D01*
X036543Y004096D01*
X036043Y004096D01*
X035793Y004346D01*
X036793Y004346D02*
X036793Y004846D01*
X032281Y004846D02*
X032281Y004346D01*
X032031Y004096D01*
X031531Y004096D01*
X031281Y004346D01*
X031031Y004096D01*
X030531Y004096D01*
X030281Y004346D01*
X030031Y004096D01*
X029531Y004096D01*
X029281Y004346D01*
X029031Y004096D01*
X028531Y004096D01*
X028281Y004346D01*
X028281Y004846D01*
X028531Y005096D01*
X029031Y005096D01*
X029281Y004846D01*
X029531Y005096D01*
X030031Y005096D01*
X030281Y004846D01*
X030281Y004346D01*
X030281Y004846D02*
X030531Y005096D01*
X031031Y005096D01*
X031281Y004846D01*
X031531Y005096D01*
X032031Y005096D01*
X032281Y004846D01*
X031281Y004846D02*
X031281Y004346D01*
X029281Y004346D02*
X029281Y004846D01*
X025922Y004846D02*
X025922Y004346D01*
X025672Y004096D01*
X025172Y004096D01*
X024922Y004346D01*
X024672Y004096D01*
X024172Y004096D01*
X023922Y004346D01*
X023672Y004096D01*
X023172Y004096D01*
X022922Y004346D01*
X022672Y004096D01*
X022172Y004096D01*
X021922Y004346D01*
X021922Y004846D01*
X022172Y005096D01*
X022672Y005096D01*
X022922Y004846D01*
X023172Y005096D01*
X023672Y005096D01*
X023922Y004846D01*
X023922Y004346D01*
X023922Y004846D02*
X024172Y005096D01*
X024672Y005096D01*
X024922Y004846D01*
X025172Y005096D01*
X025672Y005096D01*
X025922Y004846D01*
X024922Y004846D02*
X024922Y004346D01*
X022922Y004346D02*
X022922Y004846D01*
X019195Y004846D02*
X019195Y004346D01*
X018945Y004096D01*
X018445Y004096D01*
X018195Y004346D01*
X017945Y004096D01*
X017445Y004096D01*
X017195Y004346D01*
X016945Y004096D01*
X016445Y004096D01*
X016195Y004346D01*
X015945Y004096D01*
X015445Y004096D01*
X015195Y004346D01*
X015195Y004846D01*
X015445Y005096D01*
X015945Y005096D01*
X016195Y004846D01*
X016445Y005096D01*
X016945Y005096D01*
X017195Y004846D01*
X017195Y004346D01*
X017195Y004846D02*
X017445Y005096D01*
X017945Y005096D01*
X018195Y004846D01*
X018445Y005096D01*
X018945Y005096D01*
X019195Y004846D01*
X018195Y004846D02*
X018195Y004346D01*
X016195Y004346D02*
X016195Y004846D01*
X012743Y004846D02*
X012743Y004346D01*
X012493Y004096D01*
X011993Y004096D01*
X011743Y004346D01*
X011493Y004096D01*
X010993Y004096D01*
X010743Y004346D01*
X010493Y004096D01*
X009993Y004096D01*
X009743Y004346D01*
X009493Y004096D01*
X008993Y004096D01*
X008743Y004346D01*
X008743Y004846D01*
X008993Y005096D01*
X009493Y005096D01*
X009743Y004846D01*
X009993Y005096D01*
X010493Y005096D01*
X010743Y004846D01*
X010743Y004346D01*
X010743Y004846D02*
X010993Y005096D01*
X011493Y005096D01*
X011743Y004846D01*
X011993Y005096D01*
X012493Y005096D01*
X012743Y004846D01*
X011743Y004846D02*
X011743Y004346D01*
X009743Y004346D02*
X009743Y004846D01*
X006897Y004846D02*
X006897Y004346D01*
X006647Y004096D01*
X006147Y004096D01*
X005897Y004346D01*
X005647Y004096D01*
X005147Y004096D01*
X004897Y004346D01*
X004647Y004096D01*
X004147Y004096D01*
X003897Y004346D01*
X003647Y004096D01*
X003147Y004096D01*
X002897Y004346D01*
X002897Y004846D01*
X003147Y005096D01*
X003647Y005096D01*
X003897Y004846D01*
X004147Y005096D01*
X004647Y005096D01*
X004897Y004846D01*
X004897Y004346D01*
X004897Y004846D02*
X005147Y005096D01*
X005647Y005096D01*
X005897Y004846D01*
X006147Y005096D01*
X006647Y005096D01*
X006897Y004846D01*
X005897Y004846D02*
X005897Y004346D01*
X003897Y004346D02*
X003897Y004846D01*
X011160Y015824D02*
X013920Y015824D01*
X019844Y015929D02*
X019844Y019629D01*
X019846Y019652D01*
X019851Y019675D01*
X019860Y019697D01*
X019873Y019717D01*
X019888Y019735D01*
X019906Y019750D01*
X019926Y019763D01*
X019948Y019772D01*
X019971Y019777D01*
X019994Y019779D01*
X021234Y019779D01*
X021257Y019777D01*
X021280Y019772D01*
X021302Y019763D01*
X021322Y019750D01*
X021340Y019735D01*
X021355Y019717D01*
X021368Y019697D01*
X021377Y019675D01*
X021382Y019652D01*
X021384Y019629D01*
X021384Y015929D01*
X021382Y015906D01*
X021377Y015883D01*
X021368Y015861D01*
X021355Y015841D01*
X021340Y015823D01*
X021322Y015808D01*
X021302Y015795D01*
X021280Y015786D01*
X021257Y015781D01*
X021234Y015779D01*
X020814Y015779D01*
X020414Y015779D01*
X019994Y015779D01*
X019971Y015781D01*
X019948Y015786D01*
X019926Y015795D01*
X019906Y015808D01*
X019888Y015823D01*
X019873Y015841D01*
X019860Y015861D01*
X019851Y015883D01*
X019846Y015906D01*
X019844Y015929D01*
X020414Y015779D02*
X020416Y015806D01*
X020421Y015833D01*
X020431Y015859D01*
X020443Y015883D01*
X020459Y015905D01*
X020477Y015925D01*
X020499Y015942D01*
X020522Y015957D01*
X020547Y015967D01*
X020573Y015975D01*
X020600Y015979D01*
X020628Y015979D01*
X020655Y015975D01*
X020681Y015967D01*
X020706Y015957D01*
X020729Y015942D01*
X020751Y015925D01*
X020769Y015905D01*
X020785Y015883D01*
X020797Y015859D01*
X020807Y015833D01*
X020812Y015806D01*
X020814Y015779D01*
X023760Y015896D02*
X023760Y019596D01*
X023762Y019619D01*
X023767Y019642D01*
X023776Y019664D01*
X023789Y019684D01*
X023804Y019702D01*
X023822Y019717D01*
X023842Y019730D01*
X023864Y019739D01*
X023887Y019744D01*
X023910Y019746D01*
X025150Y019746D01*
X025173Y019744D01*
X025196Y019739D01*
X025218Y019730D01*
X025238Y019717D01*
X025256Y019702D01*
X025271Y019684D01*
X025284Y019664D01*
X025293Y019642D01*
X025298Y019619D01*
X025300Y019596D01*
X025300Y015896D01*
X025298Y015873D01*
X025293Y015850D01*
X025284Y015828D01*
X025271Y015808D01*
X025256Y015790D01*
X025238Y015775D01*
X025218Y015762D01*
X025196Y015753D01*
X025173Y015748D01*
X025150Y015746D01*
X024730Y015746D01*
X024330Y015746D01*
X023910Y015746D01*
X023887Y015748D01*
X023864Y015753D01*
X023842Y015762D01*
X023822Y015775D01*
X023804Y015790D01*
X023789Y015808D01*
X023776Y015828D01*
X023767Y015850D01*
X023762Y015873D01*
X023760Y015896D01*
X024330Y015746D02*
X024332Y015773D01*
X024337Y015800D01*
X024347Y015826D01*
X024359Y015850D01*
X024375Y015872D01*
X024393Y015892D01*
X024415Y015909D01*
X024438Y015924D01*
X024463Y015934D01*
X024489Y015942D01*
X024516Y015946D01*
X024544Y015946D01*
X024571Y015942D01*
X024597Y015934D01*
X024622Y015924D01*
X024645Y015909D01*
X024667Y015892D01*
X024685Y015872D01*
X024701Y015850D01*
X024713Y015826D01*
X024723Y015800D01*
X024728Y015773D01*
X024730Y015746D01*
D18*
X014290Y020192D02*
X014230Y020132D01*
X014110Y020132D01*
X014050Y020192D01*
X014050Y020372D01*
X013930Y020372D02*
X014290Y020372D01*
X014290Y020192D01*
X014230Y020500D02*
X014290Y020560D01*
X014290Y020680D01*
X014230Y020740D01*
X014170Y020740D01*
X014110Y020680D01*
X014110Y020560D01*
X014050Y020500D01*
X013990Y020500D01*
X013930Y020560D01*
X013930Y020680D01*
X013990Y020740D01*
X013990Y020868D02*
X013930Y020928D01*
X013930Y021048D01*
X013990Y021108D01*
X014230Y021108D01*
X014290Y021048D01*
X014290Y020928D01*
X014230Y020868D01*
X014290Y021234D02*
X014290Y021354D01*
X014290Y021294D02*
X013930Y021294D01*
X013930Y021354D02*
X013930Y021234D01*
X011813Y003866D02*
X011692Y003866D01*
X011632Y003806D01*
X011504Y003806D02*
X011504Y003566D01*
X011444Y003506D01*
X011264Y003506D01*
X011264Y003866D01*
X011444Y003866D01*
X011504Y003806D01*
X011813Y003866D02*
X011873Y003806D01*
X011873Y003746D01*
X011632Y003506D01*
X011873Y003506D01*
X011136Y003506D02*
X011136Y003866D01*
X010896Y003866D02*
X011136Y003506D01*
X010896Y003506D02*
X010896Y003866D01*
X010768Y003866D02*
X010527Y003866D01*
X010527Y003506D01*
X010768Y003506D01*
X010648Y003686D02*
X010527Y003686D01*
X010399Y003866D02*
X010159Y003866D01*
X010279Y003866D02*
X010279Y003506D01*
X010031Y003566D02*
X010031Y003806D01*
X009971Y003866D01*
X009851Y003866D01*
X009791Y003806D01*
X009791Y003566D01*
X009851Y003506D01*
X009971Y003506D01*
X010031Y003566D01*
X009663Y003506D02*
X009663Y003866D01*
X009663Y003686D02*
X009423Y003686D01*
X009423Y003506D02*
X009423Y003866D01*
X005937Y003506D02*
X005697Y003506D01*
X005817Y003506D02*
X005817Y003866D01*
X005697Y003746D01*
X005569Y003806D02*
X005569Y003566D01*
X005509Y003506D01*
X005329Y003506D01*
X005329Y003866D01*
X005509Y003866D01*
X005569Y003806D01*
X005200Y003866D02*
X005200Y003506D01*
X004960Y003866D01*
X004960Y003506D01*
X004832Y003506D02*
X004592Y003506D01*
X004592Y003866D01*
X004832Y003866D01*
X004712Y003686D02*
X004592Y003686D01*
X004464Y003866D02*
X004224Y003866D01*
X004344Y003866D02*
X004344Y003506D01*
X004096Y003566D02*
X004096Y003806D01*
X004035Y003866D01*
X003915Y003866D01*
X003855Y003806D01*
X003855Y003566D01*
X003915Y003506D01*
X004035Y003506D01*
X004096Y003566D01*
X003727Y003506D02*
X003727Y003866D01*
X003727Y003686D02*
X003487Y003686D01*
X003487Y003506D02*
X003487Y003866D01*
X016025Y003836D02*
X016025Y003476D01*
X016025Y003656D02*
X016266Y003656D01*
X016394Y003776D02*
X016394Y003536D01*
X016454Y003476D01*
X016574Y003476D01*
X016634Y003536D01*
X016634Y003776D01*
X016574Y003836D01*
X016454Y003836D01*
X016394Y003776D01*
X016266Y003836D02*
X016266Y003476D01*
X016882Y003476D02*
X016882Y003836D01*
X016762Y003836D02*
X017002Y003836D01*
X017130Y003836D02*
X017130Y003476D01*
X017371Y003476D01*
X017499Y003476D02*
X017499Y003836D01*
X017739Y003476D01*
X017739Y003836D01*
X017867Y003836D02*
X018047Y003836D01*
X018107Y003776D01*
X018107Y003536D01*
X018047Y003476D01*
X017867Y003476D01*
X017867Y003836D01*
X018235Y003776D02*
X018295Y003836D01*
X018415Y003836D01*
X018476Y003776D01*
X018476Y003716D01*
X018415Y003656D01*
X018476Y003596D01*
X018476Y003536D01*
X018415Y003476D01*
X018295Y003476D01*
X018235Y003536D01*
X018355Y003656D02*
X018415Y003656D01*
X017371Y003836D02*
X017130Y003836D01*
X017130Y003656D02*
X017250Y003656D01*
X022602Y003626D02*
X022842Y003626D01*
X022970Y003746D02*
X022970Y003506D01*
X023030Y003446D01*
X023151Y003446D01*
X023211Y003506D01*
X023211Y003746D01*
X023151Y003806D01*
X023030Y003806D01*
X022970Y003746D01*
X022842Y003806D02*
X022842Y003446D01*
X022602Y003446D02*
X022602Y003806D01*
X023339Y003806D02*
X023579Y003806D01*
X023459Y003806D02*
X023459Y003446D01*
X023707Y003446D02*
X023947Y003446D01*
X024075Y003446D02*
X024075Y003806D01*
X024316Y003446D01*
X024316Y003806D01*
X024444Y003806D02*
X024624Y003806D01*
X024684Y003746D01*
X024684Y003506D01*
X024624Y003446D01*
X024444Y003446D01*
X024444Y003806D01*
X024812Y003626D02*
X025052Y003626D01*
X024992Y003806D02*
X024812Y003626D01*
X024992Y003446D02*
X024992Y003806D01*
X023947Y003806D02*
X023707Y003806D01*
X023707Y003446D01*
X023707Y003626D02*
X023827Y003626D01*
X028961Y003626D02*
X029201Y003626D01*
X029330Y003746D02*
X029330Y003506D01*
X029390Y003446D01*
X029510Y003446D01*
X029570Y003506D01*
X029570Y003746D01*
X029510Y003806D01*
X029390Y003806D01*
X029330Y003746D01*
X029201Y003806D02*
X029201Y003446D01*
X028961Y003446D02*
X028961Y003806D01*
X029698Y003806D02*
X029938Y003806D01*
X029818Y003806D02*
X029818Y003446D01*
X030066Y003446D02*
X030306Y003446D01*
X030435Y003446D02*
X030435Y003806D01*
X030675Y003446D01*
X030675Y003806D01*
X030803Y003806D02*
X030983Y003806D01*
X031043Y003746D01*
X031043Y003506D01*
X030983Y003446D01*
X030803Y003446D01*
X030803Y003806D01*
X031171Y003806D02*
X031171Y003626D01*
X031291Y003686D01*
X031351Y003686D01*
X031411Y003626D01*
X031411Y003506D01*
X031351Y003446D01*
X031231Y003446D01*
X031171Y003506D01*
X031171Y003806D02*
X031411Y003806D01*
X030306Y003806D02*
X030066Y003806D01*
X030066Y003446D01*
X030066Y003626D02*
X030186Y003626D01*
X034413Y003626D02*
X034653Y003626D01*
X034781Y003746D02*
X034781Y003506D01*
X034841Y003446D01*
X034962Y003446D01*
X035022Y003506D01*
X035022Y003746D01*
X034962Y003806D01*
X034841Y003806D01*
X034781Y003746D01*
X034653Y003806D02*
X034653Y003446D01*
X034413Y003446D02*
X034413Y003806D01*
X035150Y003806D02*
X035390Y003806D01*
X035270Y003806D02*
X035270Y003446D01*
X035518Y003446D02*
X035758Y003446D01*
X035886Y003446D02*
X035886Y003806D01*
X036127Y003446D01*
X036127Y003806D01*
X036255Y003806D02*
X036435Y003806D01*
X036495Y003746D01*
X036495Y003506D01*
X036435Y003446D01*
X036255Y003446D01*
X036255Y003806D01*
X036623Y003626D02*
X036803Y003626D01*
X036863Y003566D01*
X036863Y003506D01*
X036803Y003446D01*
X036683Y003446D01*
X036623Y003506D01*
X036623Y003626D01*
X036743Y003746D01*
X036863Y003806D01*
X035758Y003806D02*
X035518Y003806D01*
X035518Y003446D01*
X035518Y003626D02*
X035638Y003626D01*
D19*
X031968Y019504D02*
X031968Y023256D01*
X039685Y023256D01*
X039685Y019504D01*
X031968Y019504D01*
X004101Y018903D02*
X004101Y016305D01*
X001739Y016305D01*
X001739Y018903D01*
X004101Y018903D01*
X002526Y017604D02*
X002528Y017643D01*
X002534Y017682D01*
X002544Y017720D01*
X002557Y017757D01*
X002574Y017792D01*
X002594Y017826D01*
X002618Y017857D01*
X002645Y017886D01*
X002674Y017912D01*
X002706Y017935D01*
X002740Y017955D01*
X002776Y017971D01*
X002813Y017983D01*
X002852Y017992D01*
X002891Y017997D01*
X002930Y017998D01*
X002969Y017995D01*
X003008Y017988D01*
X003045Y017977D01*
X003082Y017963D01*
X003117Y017945D01*
X003150Y017924D01*
X003181Y017899D01*
X003209Y017872D01*
X003234Y017842D01*
X003256Y017809D01*
X003275Y017775D01*
X003290Y017739D01*
X003302Y017701D01*
X003310Y017663D01*
X003314Y017624D01*
X003314Y017584D01*
X003310Y017545D01*
X003302Y017507D01*
X003290Y017469D01*
X003275Y017433D01*
X003256Y017399D01*
X003234Y017366D01*
X003209Y017336D01*
X003181Y017309D01*
X003150Y017284D01*
X003117Y017263D01*
X003082Y017245D01*
X003045Y017231D01*
X003008Y017220D01*
X002969Y017213D01*
X002930Y017210D01*
X002891Y017211D01*
X002852Y017216D01*
X002813Y017225D01*
X002776Y017237D01*
X002740Y017253D01*
X002706Y017273D01*
X002674Y017296D01*
X002645Y017322D01*
X002618Y017351D01*
X002594Y017382D01*
X002574Y017416D01*
X002557Y017451D01*
X002544Y017488D01*
X002534Y017526D01*
X002528Y017565D01*
X002526Y017604D01*
X002328Y017604D02*
X002330Y017652D01*
X002336Y017700D01*
X002346Y017747D01*
X002359Y017794D01*
X002377Y017839D01*
X002398Y017882D01*
X002422Y017924D01*
X002450Y017964D01*
X002481Y018001D01*
X002514Y018035D01*
X002551Y018067D01*
X002590Y018095D01*
X002631Y018121D01*
X002674Y018143D01*
X002719Y018161D01*
X002765Y018175D01*
X002812Y018186D01*
X002860Y018193D01*
X002908Y018196D01*
X002956Y018195D01*
X003004Y018190D01*
X003052Y018181D01*
X003098Y018168D01*
X003144Y018152D01*
X003188Y018132D01*
X003230Y018108D01*
X003270Y018082D01*
X003308Y018051D01*
X003343Y018018D01*
X003375Y017982D01*
X003405Y017944D01*
X003431Y017903D01*
X003453Y017861D01*
X003473Y017817D01*
X003488Y017771D01*
X003500Y017724D01*
X003508Y017676D01*
X003512Y017628D01*
X003512Y017580D01*
X003508Y017532D01*
X003500Y017484D01*
X003488Y017437D01*
X003473Y017391D01*
X003453Y017347D01*
X003431Y017305D01*
X003405Y017264D01*
X003375Y017226D01*
X003343Y017190D01*
X003308Y017157D01*
X003270Y017126D01*
X003230Y017100D01*
X003188Y017076D01*
X003144Y017056D01*
X003098Y017040D01*
X003052Y017027D01*
X003004Y017018D01*
X002956Y017013D01*
X002908Y017012D01*
X002860Y017015D01*
X002812Y017022D01*
X002765Y017033D01*
X002719Y017047D01*
X002674Y017065D01*
X002631Y017087D01*
X002590Y017113D01*
X002551Y017141D01*
X002514Y017173D01*
X002481Y017207D01*
X002450Y017244D01*
X002422Y017284D01*
X002398Y017326D01*
X002377Y017369D01*
X002359Y017414D01*
X002346Y017461D01*
X002336Y017508D01*
X002330Y017556D01*
X002328Y017604D01*
D20*
X028900Y020324D03*
D21*
X025160Y019746D02*
X025160Y015746D01*
X021244Y015779D02*
X021244Y019779D01*
D22*
X032982Y013365D02*
X032937Y012920D01*
X032836Y012891D01*
X032739Y012851D01*
X032648Y012801D01*
X032301Y013083D01*
X032064Y012846D01*
X032346Y012499D01*
X032296Y012408D01*
X032256Y012311D01*
X032227Y012211D01*
X031782Y012165D01*
X031782Y011829D01*
X032227Y011784D01*
X032256Y011684D01*
X032296Y011587D01*
X032346Y011495D01*
X032064Y011149D01*
X032301Y010912D01*
X032648Y011194D01*
X032716Y011155D01*
X032787Y011122D01*
X032985Y011600D01*
X032921Y011633D01*
X032863Y011676D01*
X032813Y011729D01*
X032773Y011789D01*
X032743Y011855D01*
X032725Y011925D01*
X032719Y011997D01*
X032727Y012078D01*
X032749Y012155D01*
X032786Y012227D01*
X032835Y012291D01*
X032895Y012345D01*
X032965Y012386D01*
X033041Y012414D01*
X033120Y012427D01*
X033201Y012425D01*
X033280Y012408D01*
X033354Y012376D01*
X033422Y012331D01*
X033479Y012275D01*
X033525Y012208D01*
X033558Y012135D01*
X033576Y012056D01*
X033580Y011975D01*
X034517Y011975D01*
X034517Y011918D02*
X033571Y011918D01*
X033568Y011895D02*
X033542Y011819D01*
X033502Y011749D01*
X033449Y011688D01*
X033386Y011637D01*
X033315Y011600D01*
X033512Y011122D01*
X033584Y011155D01*
X033652Y011194D01*
X033998Y010912D01*
X034236Y011149D01*
X033953Y011495D01*
X034004Y011587D01*
X034044Y011684D01*
X034073Y011784D01*
X034517Y011829D01*
X034517Y012165D01*
X034073Y012211D01*
X034044Y012311D01*
X034004Y012408D01*
X033953Y012499D01*
X034236Y012846D01*
X033998Y013083D01*
X033652Y012801D01*
X033560Y012851D01*
X033463Y012891D01*
X033363Y012920D01*
X033318Y013365D01*
X032982Y013365D01*
X032981Y013357D02*
X033319Y013357D01*
X033324Y013299D02*
X032975Y013299D01*
X032969Y013242D02*
X033330Y013242D01*
X033336Y013184D02*
X032963Y013184D01*
X032958Y013126D02*
X033342Y013126D01*
X033348Y013069D02*
X032952Y013069D01*
X032946Y013011D02*
X033354Y013011D01*
X033359Y012954D02*
X032940Y012954D01*
X032853Y012896D02*
X033447Y012896D01*
X033583Y012839D02*
X032716Y012839D01*
X032601Y012839D02*
X032070Y012839D01*
X032114Y012896D02*
X032531Y012896D01*
X032460Y012954D02*
X032172Y012954D01*
X032230Y013011D02*
X032390Y013011D01*
X032319Y013069D02*
X032287Y013069D01*
X032117Y012781D02*
X034183Y012781D01*
X034230Y012839D02*
X033698Y012839D01*
X033769Y012896D02*
X034185Y012896D01*
X034128Y012954D02*
X033839Y012954D01*
X033910Y013011D02*
X034070Y013011D01*
X034012Y013069D02*
X033981Y013069D01*
X034136Y012724D02*
X032164Y012724D01*
X032211Y012666D02*
X034089Y012666D01*
X034042Y012608D02*
X032257Y012608D01*
X032304Y012551D02*
X033995Y012551D01*
X033957Y012493D02*
X032343Y012493D01*
X032311Y012436D02*
X033988Y012436D01*
X034016Y012378D02*
X033350Y012378D01*
X033432Y012321D02*
X034040Y012321D01*
X034058Y012263D02*
X033487Y012263D01*
X033526Y012206D02*
X034122Y012206D01*
X034517Y012148D02*
X033552Y012148D01*
X033568Y012090D02*
X034517Y012090D01*
X034517Y012033D02*
X033577Y012033D01*
X033580Y011975D02*
X033568Y011895D01*
X033556Y011860D02*
X034517Y011860D01*
X034253Y011803D02*
X033532Y011803D01*
X033498Y011745D02*
X034061Y011745D01*
X034045Y011688D02*
X033449Y011688D01*
X033372Y011630D02*
X034021Y011630D01*
X033996Y011572D02*
X033326Y011572D01*
X033350Y011515D02*
X033964Y011515D01*
X033984Y011457D02*
X033373Y011457D01*
X033397Y011400D02*
X034031Y011400D01*
X034078Y011342D02*
X033421Y011342D01*
X033445Y011285D02*
X034125Y011285D01*
X034172Y011227D02*
X033469Y011227D01*
X033493Y011170D02*
X033609Y011170D01*
X033682Y011170D02*
X034219Y011170D01*
X034199Y011112D02*
X033752Y011112D01*
X033823Y011054D02*
X034141Y011054D01*
X034083Y010997D02*
X033893Y010997D01*
X033964Y010939D02*
X034026Y010939D01*
X032902Y011400D02*
X032268Y011400D01*
X032221Y011342D02*
X032878Y011342D01*
X032855Y011285D02*
X032175Y011285D01*
X032128Y011227D02*
X032831Y011227D01*
X032807Y011170D02*
X032691Y011170D01*
X032618Y011170D02*
X032081Y011170D01*
X032101Y011112D02*
X032547Y011112D01*
X032477Y011054D02*
X032159Y011054D01*
X032216Y010997D02*
X032406Y010997D01*
X032335Y010939D02*
X032274Y010939D01*
X032315Y011457D02*
X032926Y011457D01*
X032950Y011515D02*
X032336Y011515D01*
X032304Y011572D02*
X032974Y011572D01*
X032926Y011630D02*
X032278Y011630D01*
X032255Y011688D02*
X032852Y011688D01*
X032802Y011745D02*
X032238Y011745D01*
X032046Y011803D02*
X032767Y011803D01*
X032742Y011860D02*
X031782Y011860D01*
X031782Y011918D02*
X032727Y011918D01*
X032721Y011975D02*
X031782Y011975D01*
X031782Y012033D02*
X032722Y012033D01*
X032730Y012090D02*
X031782Y012090D01*
X031782Y012148D02*
X032747Y012148D01*
X032775Y012206D02*
X032178Y012206D01*
X032242Y012263D02*
X032813Y012263D01*
X032868Y012321D02*
X032260Y012321D01*
X032284Y012378D02*
X032951Y012378D01*
M02*
