%
M48
M72
T01C0.0120
T02C0.0160
T03C0.0276
T04C0.0400
T05C0.0709
T06C0.1181
T07C0.1260
%
T01
X22620Y20884
X21780Y20884
X23460Y20884
X23040Y20164
X22860Y17524
X20700Y19504
X21060Y19504
X17220Y21004
X17940Y21004
X18660Y21004
X18300Y20404
X17580Y20404
X17340Y18724
X17340Y19384
X1740Y14704
X4980Y13084
X5940Y13144
X2160Y13924
X3120Y13144
X2040Y13144
X4140Y10804
X4560Y10804
X4980Y10804
X5400Y10804
X9840Y10744
X10200Y10744
X10560Y10744
X10920Y10744
X16620Y10804
X17040Y10804
X17460Y10804
X17880Y10804
X22980Y10804
X23340Y10804
X23760Y10804
X24120Y10804
X29820Y10864
X30240Y10864
X30660Y10864
X31080Y10864
X35640Y10924
X36060Y10924
X36480Y10924
X36900Y10924
X2880Y15964
X2880Y16624
X2160Y17224
X2160Y18064
X2880Y18544
X2880Y19264
X4560Y16624
X4560Y17344
X5160Y16984
X27720Y22084
X28500Y22084
X29280Y22084
X30060Y22084
X35220Y21544
X36780Y21544
X36000Y21544
X35580Y20944
X37140Y20944
X36360Y20944
X35940Y20344
X37500Y20344
X36720Y20344
X7140Y9184
X6660Y8704
X7320Y8524
X13080Y9304
X12600Y8824
X13260Y8644
X19560Y9244
X19080Y8764
X19740Y8584
X26460Y9244
X25980Y8764
X26640Y8584
X32460Y9304
X31980Y8824
X32640Y8644
X37620Y8944
X37620Y8404
X22560Y17764
X18840Y17644
X31680Y16504
X17100Y14644
X16980Y16864
X27420Y20824
X15600Y16564
X16080Y14284
X14700Y16084
X11400Y18244
X5460Y12124
X13320Y16144
X12420Y18244
X5940Y10684
X12840Y18244
X11820Y12664
X18480Y17284
X18480Y12964
X25680Y11284
X17640Y14104
X17460Y17524
X24660Y14104
X17340Y14344
X31560Y14164
X31560Y13564
X17340Y16924
X22440Y14884
X21180Y15964
X20820Y16504
X20460Y16804
X20700Y17464
X20700Y18004
X20520Y18424
X20520Y18904
X26160Y14884
X25440Y15544
X25020Y16264
X24720Y16564
X17400Y13084
X18120Y17824
X18120Y13084
X18960Y18664
X18960Y20044
T02
X7380Y7264
X780Y7264
X13440Y7324
X20220Y7324
X26820Y7324
X33060Y7324
X37620Y7564
X20100Y19624
X19680Y20824
T03
X8990Y15234
X6990Y15234
T04
X3397Y4596
X4397Y4596
X5397Y4596
X6397Y4596
X9243Y4596
X10243Y4596
X11243Y4596
X12243Y4596
X15695Y4596
X16695Y4596
X17695Y4596
X18695Y4596
X22422Y4596
X23422Y4596
X24422Y4596
X25422Y4596
X28781Y4596
X29781Y4596
X30781Y4596
X31781Y4596
X34293Y4596
X35293Y4596
X36293Y4596
X37293Y4596
X15980Y19724
X14980Y19724
X15980Y20724
X14980Y20724
X15980Y21724
X14980Y21724
X6569Y20864
X7569Y20864
X8569Y20864
X9569Y20864
X10569Y20864
X11569Y20864
T05
X38346Y18716
X36693Y18716
X35039Y18716
X33386Y18716
T06
X38346Y21590
X33386Y21590
T07
X1147Y21722
X1147Y3611
M30
