G75*
%MOIN*%
%OFA0B0*%
%FSLAX24Y24*%
%IPPOS*%
%LPD*%
%AMOC8*
5,1,8,0,0,1.08239X$1,22.5*
%
%ADD10C,0.0000*%
%ADD11C,0.0600*%
%ADD12C,0.0650*%
%ADD13OC8,0.0740*%
%ADD14C,0.0740*%
%ADD15C,0.1063*%
%ADD16R,0.0472X0.0472*%
%ADD17R,0.0197X0.0354*%
%ADD18R,0.0591X0.0512*%
%ADD19C,0.0120*%
%ADD20C,0.0240*%
%ADD21C,0.0100*%
%ADD22C,0.0280*%
%ADD23C,0.0160*%
%ADD24C,0.0140*%
%ADD25C,0.0240*%
D10*
X000754Y002824D02*
X039336Y002824D01*
X039375Y002826D01*
X039413Y002832D01*
X039450Y002841D01*
X039487Y002854D01*
X039522Y002871D01*
X039555Y002890D01*
X039586Y002913D01*
X039615Y002939D01*
X039641Y002968D01*
X039664Y002999D01*
X039683Y003032D01*
X039700Y003067D01*
X039713Y003104D01*
X039722Y003141D01*
X039728Y003179D01*
X039730Y003218D01*
X039730Y022115D01*
X039728Y022154D01*
X039722Y022192D01*
X039713Y022229D01*
X039700Y022266D01*
X039683Y022301D01*
X039664Y022334D01*
X039641Y022365D01*
X039615Y022394D01*
X039586Y022420D01*
X039555Y022443D01*
X039522Y022462D01*
X039487Y022479D01*
X039450Y022492D01*
X039413Y022501D01*
X039375Y022507D01*
X039336Y022509D01*
X000754Y022509D01*
X000715Y022507D01*
X000677Y022501D01*
X000640Y022492D01*
X000603Y022479D01*
X000568Y022462D01*
X000535Y022443D01*
X000504Y022420D01*
X000475Y022394D01*
X000449Y022365D01*
X000426Y022334D01*
X000407Y022301D01*
X000390Y022266D01*
X000377Y022229D01*
X000368Y022192D01*
X000362Y022154D01*
X000360Y022115D01*
X000360Y003218D01*
X000362Y003179D01*
X000368Y003141D01*
X000377Y003104D01*
X000390Y003067D01*
X000407Y003032D01*
X000426Y002999D01*
X000449Y002968D01*
X000475Y002939D01*
X000504Y002913D01*
X000535Y002890D01*
X000568Y002871D01*
X000603Y002854D01*
X000640Y002841D01*
X000677Y002832D01*
X000715Y002826D01*
X000754Y002824D01*
X000517Y003611D02*
X000519Y003661D01*
X000525Y003711D01*
X000535Y003760D01*
X000549Y003808D01*
X000566Y003855D01*
X000587Y003900D01*
X000612Y003944D01*
X000640Y003985D01*
X000672Y004024D01*
X000706Y004061D01*
X000743Y004095D01*
X000783Y004125D01*
X000825Y004152D01*
X000869Y004176D01*
X000915Y004197D01*
X000962Y004213D01*
X001010Y004226D01*
X001060Y004235D01*
X001109Y004240D01*
X001160Y004241D01*
X001210Y004238D01*
X001259Y004231D01*
X001308Y004220D01*
X001356Y004205D01*
X001402Y004187D01*
X001447Y004165D01*
X001490Y004139D01*
X001531Y004110D01*
X001570Y004078D01*
X001606Y004043D01*
X001638Y004005D01*
X001668Y003965D01*
X001695Y003922D01*
X001718Y003878D01*
X001737Y003832D01*
X001753Y003784D01*
X001765Y003735D01*
X001773Y003686D01*
X001777Y003636D01*
X001777Y003586D01*
X001773Y003536D01*
X001765Y003487D01*
X001753Y003438D01*
X001737Y003390D01*
X001718Y003344D01*
X001695Y003300D01*
X001668Y003257D01*
X001638Y003217D01*
X001606Y003179D01*
X001570Y003144D01*
X001531Y003112D01*
X001490Y003083D01*
X001447Y003057D01*
X001402Y003035D01*
X001356Y003017D01*
X001308Y003002D01*
X001259Y002991D01*
X001210Y002984D01*
X001160Y002981D01*
X001109Y002982D01*
X001060Y002987D01*
X001010Y002996D01*
X000962Y003009D01*
X000915Y003025D01*
X000869Y003046D01*
X000825Y003070D01*
X000783Y003097D01*
X000743Y003127D01*
X000706Y003161D01*
X000672Y003198D01*
X000640Y003237D01*
X000612Y003278D01*
X000587Y003322D01*
X000566Y003367D01*
X000549Y003414D01*
X000535Y003462D01*
X000525Y003511D01*
X000519Y003561D01*
X000517Y003611D01*
X000517Y021722D02*
X000519Y021772D01*
X000525Y021822D01*
X000535Y021871D01*
X000549Y021919D01*
X000566Y021966D01*
X000587Y022011D01*
X000612Y022055D01*
X000640Y022096D01*
X000672Y022135D01*
X000706Y022172D01*
X000743Y022206D01*
X000783Y022236D01*
X000825Y022263D01*
X000869Y022287D01*
X000915Y022308D01*
X000962Y022324D01*
X001010Y022337D01*
X001060Y022346D01*
X001109Y022351D01*
X001160Y022352D01*
X001210Y022349D01*
X001259Y022342D01*
X001308Y022331D01*
X001356Y022316D01*
X001402Y022298D01*
X001447Y022276D01*
X001490Y022250D01*
X001531Y022221D01*
X001570Y022189D01*
X001606Y022154D01*
X001638Y022116D01*
X001668Y022076D01*
X001695Y022033D01*
X001718Y021989D01*
X001737Y021943D01*
X001753Y021895D01*
X001765Y021846D01*
X001773Y021797D01*
X001777Y021747D01*
X001777Y021697D01*
X001773Y021647D01*
X001765Y021598D01*
X001753Y021549D01*
X001737Y021501D01*
X001718Y021455D01*
X001695Y021411D01*
X001668Y021368D01*
X001638Y021328D01*
X001606Y021290D01*
X001570Y021255D01*
X001531Y021223D01*
X001490Y021194D01*
X001447Y021168D01*
X001402Y021146D01*
X001356Y021128D01*
X001308Y021113D01*
X001259Y021102D01*
X001210Y021095D01*
X001160Y021092D01*
X001109Y021093D01*
X001060Y021098D01*
X001010Y021107D01*
X000962Y021120D01*
X000915Y021136D01*
X000869Y021157D01*
X000825Y021181D01*
X000783Y021208D01*
X000743Y021238D01*
X000706Y021272D01*
X000672Y021309D01*
X000640Y021348D01*
X000612Y021389D01*
X000587Y021433D01*
X000566Y021478D01*
X000549Y021525D01*
X000535Y021573D01*
X000525Y021622D01*
X000519Y021672D01*
X000517Y021722D01*
X032795Y021590D02*
X032797Y021638D01*
X032803Y021686D01*
X032813Y021733D01*
X032826Y021779D01*
X032844Y021824D01*
X032864Y021868D01*
X032889Y021910D01*
X032917Y021949D01*
X032947Y021986D01*
X032981Y022020D01*
X033018Y022052D01*
X033056Y022081D01*
X033097Y022106D01*
X033140Y022128D01*
X033185Y022146D01*
X033231Y022160D01*
X033278Y022171D01*
X033326Y022178D01*
X033374Y022181D01*
X033422Y022180D01*
X033470Y022175D01*
X033518Y022166D01*
X033564Y022154D01*
X033609Y022137D01*
X033653Y022117D01*
X033695Y022094D01*
X033735Y022067D01*
X033773Y022037D01*
X033808Y022004D01*
X033840Y021968D01*
X033870Y021930D01*
X033896Y021889D01*
X033918Y021846D01*
X033938Y021802D01*
X033953Y021757D01*
X033965Y021710D01*
X033973Y021662D01*
X033977Y021614D01*
X033977Y021566D01*
X033973Y021518D01*
X033965Y021470D01*
X033953Y021423D01*
X033938Y021378D01*
X033918Y021334D01*
X033896Y021291D01*
X033870Y021250D01*
X033840Y021212D01*
X033808Y021176D01*
X033773Y021143D01*
X033735Y021113D01*
X033695Y021086D01*
X033653Y021063D01*
X033609Y021043D01*
X033564Y021026D01*
X033518Y021014D01*
X033470Y021005D01*
X033422Y021000D01*
X033374Y020999D01*
X033326Y021002D01*
X033278Y021009D01*
X033231Y021020D01*
X033185Y021034D01*
X033140Y021052D01*
X033097Y021074D01*
X033056Y021099D01*
X033018Y021128D01*
X032981Y021160D01*
X032947Y021194D01*
X032917Y021231D01*
X032889Y021270D01*
X032864Y021312D01*
X032844Y021356D01*
X032826Y021401D01*
X032813Y021447D01*
X032803Y021494D01*
X032797Y021542D01*
X032795Y021590D01*
X037755Y021590D02*
X037757Y021638D01*
X037763Y021686D01*
X037773Y021733D01*
X037786Y021779D01*
X037804Y021824D01*
X037824Y021868D01*
X037849Y021910D01*
X037877Y021949D01*
X037907Y021986D01*
X037941Y022020D01*
X037978Y022052D01*
X038016Y022081D01*
X038057Y022106D01*
X038100Y022128D01*
X038145Y022146D01*
X038191Y022160D01*
X038238Y022171D01*
X038286Y022178D01*
X038334Y022181D01*
X038382Y022180D01*
X038430Y022175D01*
X038478Y022166D01*
X038524Y022154D01*
X038569Y022137D01*
X038613Y022117D01*
X038655Y022094D01*
X038695Y022067D01*
X038733Y022037D01*
X038768Y022004D01*
X038800Y021968D01*
X038830Y021930D01*
X038856Y021889D01*
X038878Y021846D01*
X038898Y021802D01*
X038913Y021757D01*
X038925Y021710D01*
X038933Y021662D01*
X038937Y021614D01*
X038937Y021566D01*
X038933Y021518D01*
X038925Y021470D01*
X038913Y021423D01*
X038898Y021378D01*
X038878Y021334D01*
X038856Y021291D01*
X038830Y021250D01*
X038800Y021212D01*
X038768Y021176D01*
X038733Y021143D01*
X038695Y021113D01*
X038655Y021086D01*
X038613Y021063D01*
X038569Y021043D01*
X038524Y021026D01*
X038478Y021014D01*
X038430Y021005D01*
X038382Y021000D01*
X038334Y020999D01*
X038286Y021002D01*
X038238Y021009D01*
X038191Y021020D01*
X038145Y021034D01*
X038100Y021052D01*
X038057Y021074D01*
X038016Y021099D01*
X037978Y021128D01*
X037941Y021160D01*
X037907Y021194D01*
X037877Y021231D01*
X037849Y021270D01*
X037824Y021312D01*
X037804Y021356D01*
X037786Y021401D01*
X037773Y021447D01*
X037763Y021494D01*
X037757Y021542D01*
X037755Y021590D01*
D11*
X037293Y004896D02*
X037293Y004296D01*
X036293Y004296D02*
X036293Y004896D01*
X035293Y004896D02*
X035293Y004296D01*
X034293Y004296D02*
X034293Y004896D01*
X031781Y004896D02*
X031781Y004296D01*
X030781Y004296D02*
X030781Y004896D01*
X029781Y004896D02*
X029781Y004296D01*
X028781Y004296D02*
X028781Y004896D01*
X025422Y004896D02*
X025422Y004296D01*
X024422Y004296D02*
X024422Y004896D01*
X023422Y004896D02*
X023422Y004296D01*
X022422Y004296D02*
X022422Y004896D01*
X018695Y004896D02*
X018695Y004296D01*
X017695Y004296D02*
X017695Y004896D01*
X016695Y004896D02*
X016695Y004296D01*
X015695Y004296D02*
X015695Y004896D01*
X012243Y004896D02*
X012243Y004296D01*
X011243Y004296D02*
X011243Y004896D01*
X010243Y004896D02*
X010243Y004296D01*
X009243Y004296D02*
X009243Y004896D01*
X006397Y004896D02*
X006397Y004296D01*
X005397Y004296D02*
X005397Y004896D01*
X004397Y004896D02*
X004397Y004296D01*
X003397Y004296D02*
X003397Y004896D01*
D12*
X006990Y015234D03*
X008990Y015234D03*
D13*
X014980Y019724D03*
X015980Y019724D03*
X015980Y020724D03*
X014980Y020724D03*
X014980Y021724D03*
X015980Y021724D03*
D14*
X011569Y020864D03*
X010569Y020864D03*
X009569Y020864D03*
X008569Y020864D03*
X007569Y020864D03*
X006569Y020864D03*
D15*
X033386Y018716D02*
X033386Y017653D01*
X035039Y017653D02*
X035039Y018716D01*
X036693Y018716D02*
X036693Y017653D01*
X038346Y017653D02*
X038346Y018716D01*
D16*
X030780Y015897D03*
X030780Y015071D03*
X029460Y015071D03*
X029460Y015897D03*
X029868Y010304D03*
X030695Y010304D03*
X030695Y008336D03*
X029868Y008336D03*
X024395Y008336D03*
X023569Y008336D03*
X023569Y010304D03*
X024395Y010304D03*
X017309Y010304D03*
X016482Y010304D03*
X016482Y008336D03*
X017309Y008336D03*
X011010Y008336D03*
X010183Y008336D03*
X010183Y010304D03*
X011010Y010304D03*
X005104Y010304D03*
X004277Y010304D03*
X004277Y008336D03*
X005104Y008336D03*
X035380Y008336D03*
X036206Y008336D03*
X036206Y010304D03*
X035380Y010304D03*
D17*
X026153Y013533D03*
X025838Y013533D03*
X025523Y013533D03*
X025208Y013533D03*
X025208Y014163D03*
X025523Y014163D03*
X025838Y014163D03*
X026153Y014163D03*
X022486Y014163D03*
X022171Y014163D03*
X021856Y014163D03*
X021541Y014163D03*
X021541Y013533D03*
X021856Y013533D03*
X022171Y013533D03*
X022486Y013533D03*
X019790Y013533D03*
X019475Y013533D03*
X019160Y013533D03*
X018845Y013533D03*
X018845Y014163D03*
X019160Y014163D03*
X019475Y014163D03*
X019790Y014163D03*
D18*
X028620Y015140D03*
X028620Y015888D03*
X031680Y015858D03*
X031680Y015110D03*
D19*
X032095Y015148D02*
X039570Y015148D01*
X039570Y015030D02*
X032095Y015030D01*
X032095Y014911D02*
X039570Y014911D01*
X039570Y014793D02*
X032083Y014793D01*
X032095Y014804D02*
X032095Y015416D01*
X032027Y015484D01*
X032095Y015552D01*
X032095Y016164D01*
X032025Y016234D01*
X031860Y016234D01*
X031860Y016345D01*
X031883Y016368D01*
X031920Y016456D01*
X031920Y016552D01*
X031883Y016640D01*
X031816Y016707D01*
X031728Y016744D01*
X031632Y016744D01*
X031544Y016707D01*
X031477Y016640D01*
X031440Y016552D01*
X031440Y016456D01*
X031477Y016368D01*
X031500Y016345D01*
X031500Y016234D01*
X031335Y016234D01*
X031265Y016164D01*
X031265Y015552D01*
X031333Y015484D01*
X031265Y015416D01*
X031265Y015311D01*
X031136Y015311D01*
X031136Y015357D01*
X031066Y015427D01*
X030494Y015427D01*
X030424Y015357D01*
X030424Y014785D01*
X030494Y014714D01*
X031066Y014714D01*
X031136Y014785D01*
X031136Y014831D01*
X031265Y014831D01*
X031265Y014804D01*
X031335Y014734D01*
X032025Y014734D01*
X032095Y014804D01*
X032095Y015267D02*
X039570Y015267D01*
X039570Y015385D02*
X032095Y015385D01*
X032046Y015504D02*
X039570Y015504D01*
X039570Y015622D02*
X032095Y015622D01*
X032095Y015741D02*
X039570Y015741D01*
X039570Y015859D02*
X032095Y015859D01*
X032095Y015978D02*
X039570Y015978D01*
X039570Y016096D02*
X032095Y016096D01*
X032044Y016215D02*
X039570Y016215D01*
X039570Y016333D02*
X031860Y016333D01*
X031918Y016452D02*
X039570Y016452D01*
X039570Y016570D02*
X031912Y016570D01*
X031835Y016689D02*
X039570Y016689D01*
X039570Y016807D02*
X027600Y016807D01*
X027600Y016689D02*
X031525Y016689D01*
X031448Y016570D02*
X027600Y016570D01*
X027600Y016452D02*
X031442Y016452D01*
X031500Y016333D02*
X027600Y016333D01*
X027600Y016215D02*
X028226Y016215D01*
X028205Y016194D02*
X028275Y016264D01*
X028965Y016264D01*
X029035Y016194D01*
X029035Y016128D01*
X029104Y016128D01*
X029104Y016183D01*
X029174Y016254D01*
X029746Y016254D01*
X029816Y016183D01*
X029816Y015611D01*
X029746Y015541D01*
X029174Y015541D01*
X029104Y015611D01*
X029104Y015648D01*
X029035Y015648D01*
X029035Y015582D01*
X028967Y015514D01*
X029035Y015446D01*
X029035Y014834D01*
X028965Y014764D01*
X028275Y014764D01*
X028205Y014834D01*
X028205Y015004D01*
X027465Y015004D01*
X027345Y015124D01*
X027240Y015229D01*
X027240Y020665D01*
X027217Y020688D01*
X027180Y020776D01*
X027180Y020872D01*
X027217Y020960D01*
X027284Y021027D01*
X027372Y021064D01*
X027468Y021064D01*
X027556Y021027D01*
X027623Y020960D01*
X027660Y020872D01*
X027660Y020776D01*
X027623Y020688D01*
X027600Y020665D01*
X027600Y015379D01*
X027615Y015364D01*
X028205Y015364D01*
X028205Y015446D01*
X028273Y015514D01*
X028205Y015582D01*
X028205Y016194D01*
X028205Y016096D02*
X027600Y016096D01*
X027600Y015978D02*
X028205Y015978D01*
X028205Y015859D02*
X027600Y015859D01*
X027600Y015741D02*
X028205Y015741D01*
X028205Y015622D02*
X027600Y015622D01*
X027600Y015504D02*
X028263Y015504D01*
X028205Y015385D02*
X027600Y015385D01*
X027420Y015304D02*
X027420Y020824D01*
X027660Y020836D02*
X039570Y020836D01*
X039570Y020718D02*
X027636Y020718D01*
X027600Y020599D02*
X039570Y020599D01*
X039570Y020481D02*
X027600Y020481D01*
X027600Y020362D02*
X039570Y020362D01*
X039570Y020244D02*
X027600Y020244D01*
X027600Y020125D02*
X039570Y020125D01*
X039570Y020007D02*
X027600Y020007D01*
X027600Y019888D02*
X039570Y019888D01*
X039570Y019770D02*
X027600Y019770D01*
X027600Y019651D02*
X039570Y019651D01*
X039570Y019533D02*
X027600Y019533D01*
X027600Y019414D02*
X039570Y019414D01*
X039570Y019296D02*
X038650Y019296D01*
X038715Y019269D02*
X038476Y019368D01*
X038217Y019368D01*
X037977Y019269D01*
X037794Y019085D01*
X037695Y018846D01*
X037695Y017524D01*
X037794Y017284D01*
X037977Y017101D01*
X038217Y017002D01*
X038476Y017002D01*
X038715Y017101D01*
X038899Y017284D01*
X038998Y017524D01*
X038998Y018846D01*
X038899Y019085D01*
X038715Y019269D01*
X038807Y019177D02*
X039570Y019177D01*
X039570Y019059D02*
X038910Y019059D01*
X038959Y018940D02*
X039570Y018940D01*
X039570Y018822D02*
X038998Y018822D01*
X038998Y018703D02*
X039570Y018703D01*
X039570Y018585D02*
X038998Y018585D01*
X038998Y018466D02*
X039570Y018466D01*
X039570Y018348D02*
X038998Y018348D01*
X038998Y018229D02*
X039570Y018229D01*
X039570Y018111D02*
X038998Y018111D01*
X038998Y017992D02*
X039570Y017992D01*
X039570Y017874D02*
X038998Y017874D01*
X038998Y017755D02*
X039570Y017755D01*
X039570Y017637D02*
X038998Y017637D01*
X038995Y017518D02*
X039570Y017518D01*
X039570Y017400D02*
X038946Y017400D01*
X038895Y017281D02*
X039570Y017281D01*
X039570Y017163D02*
X038777Y017163D01*
X038578Y017044D02*
X039570Y017044D01*
X039570Y016926D02*
X027600Y016926D01*
X027600Y017044D02*
X034808Y017044D01*
X034910Y017002D02*
X035169Y017002D01*
X035408Y017101D01*
X035592Y017284D01*
X035691Y017524D01*
X035691Y018846D01*
X035592Y019085D01*
X035408Y019269D01*
X035169Y019368D01*
X034910Y019368D01*
X034670Y019269D01*
X034487Y019085D01*
X034388Y018846D01*
X034388Y017524D01*
X034487Y017284D01*
X034670Y017101D01*
X034910Y017002D01*
X034609Y017163D02*
X027600Y017163D01*
X027600Y017281D02*
X034490Y017281D01*
X034439Y017400D02*
X027600Y017400D01*
X027600Y017518D02*
X034390Y017518D01*
X034388Y017637D02*
X027600Y017637D01*
X027600Y017755D02*
X034388Y017755D01*
X034388Y017874D02*
X027600Y017874D01*
X027600Y017992D02*
X034388Y017992D01*
X034388Y018111D02*
X027600Y018111D01*
X027600Y018229D02*
X034388Y018229D01*
X034388Y018348D02*
X027600Y018348D01*
X027600Y018466D02*
X034388Y018466D01*
X034388Y018585D02*
X027600Y018585D01*
X027600Y018703D02*
X034388Y018703D01*
X034388Y018822D02*
X027600Y018822D01*
X027600Y018940D02*
X034427Y018940D01*
X034476Y019059D02*
X027600Y019059D01*
X027600Y019177D02*
X034579Y019177D01*
X034735Y019296D02*
X027600Y019296D01*
X027240Y019296D02*
X019130Y019296D01*
X019130Y019414D02*
X019942Y019414D01*
X019953Y019404D02*
X020048Y019364D01*
X020152Y019364D01*
X020247Y019404D01*
X020320Y019477D01*
X020360Y019572D01*
X020360Y019676D01*
X020320Y019771D01*
X020247Y019844D01*
X020152Y019884D01*
X020123Y019884D01*
X019880Y020127D01*
X019880Y020656D01*
X019900Y020677D01*
X019940Y020772D01*
X019940Y020876D01*
X019900Y020971D01*
X019827Y021044D01*
X019732Y021084D01*
X019628Y021084D01*
X019533Y021044D01*
X019460Y020971D01*
X019420Y020876D01*
X019420Y020772D01*
X019460Y020677D01*
X019480Y020656D01*
X019480Y019961D01*
X019597Y019844D01*
X019840Y019601D01*
X019840Y019572D01*
X019880Y019477D01*
X019953Y019404D01*
X019856Y019533D02*
X019130Y019533D01*
X019130Y019651D02*
X019790Y019651D01*
X019672Y019770D02*
X019130Y019770D01*
X019130Y019875D02*
X019163Y019908D01*
X019200Y019996D01*
X019200Y020092D01*
X019163Y020180D01*
X019096Y020247D01*
X019008Y020284D01*
X018912Y020284D01*
X018824Y020247D01*
X018757Y020180D01*
X018720Y020092D01*
X018720Y019996D01*
X018757Y019908D01*
X018790Y019875D01*
X018790Y018833D01*
X018757Y018800D01*
X018720Y018712D01*
X018720Y018616D01*
X018757Y018528D01*
X018790Y018495D01*
X018790Y018254D01*
X018360Y017824D01*
X018360Y017872D01*
X018323Y017960D01*
X018256Y018027D01*
X018168Y018064D01*
X018072Y018064D01*
X017984Y018027D01*
X017917Y017960D01*
X017881Y017874D01*
X017870Y017874D01*
X017832Y017836D01*
X017787Y017806D01*
X017783Y017788D01*
X017770Y017774D01*
X017770Y017721D01*
X017759Y017668D01*
X017770Y017653D01*
X017770Y017454D01*
X017700Y017524D01*
X017700Y017572D01*
X017663Y017660D01*
X017596Y017727D01*
X017508Y017764D01*
X017412Y017764D01*
X017324Y017727D01*
X017257Y017660D01*
X017220Y017572D01*
X017220Y017476D01*
X017257Y017388D01*
X017324Y017321D01*
X017412Y017284D01*
X017460Y017284D01*
X017470Y017274D01*
X017470Y017130D01*
X017388Y017164D01*
X017292Y017164D01*
X017204Y017127D01*
X017137Y017060D01*
X017133Y017051D01*
X017116Y017067D01*
X017028Y017104D01*
X016932Y017104D01*
X016844Y017067D01*
X016777Y017000D01*
X016740Y016912D01*
X016740Y016816D01*
X016777Y016728D01*
X016844Y016661D01*
X016930Y016625D01*
X016930Y014813D01*
X016897Y014780D01*
X016860Y014692D01*
X016860Y014596D01*
X016897Y014508D01*
X016964Y014441D01*
X017052Y014404D01*
X017105Y014404D01*
X017100Y014392D01*
X017100Y014296D01*
X017137Y014208D01*
X017204Y014141D01*
X017292Y014104D01*
X017388Y014104D01*
X017400Y014109D01*
X017400Y014056D01*
X017437Y013968D01*
X017504Y013901D01*
X017592Y013864D01*
X017688Y013864D01*
X017770Y013898D01*
X017770Y013694D01*
X017400Y013324D01*
X017352Y013324D01*
X017264Y013287D01*
X017197Y013220D01*
X017160Y013132D01*
X017160Y013036D01*
X017197Y012948D01*
X017264Y012881D01*
X017352Y012844D01*
X017448Y012844D01*
X017536Y012881D01*
X017603Y012948D01*
X017640Y013036D01*
X017640Y013084D01*
X018010Y013454D01*
X018010Y013298D01*
X017984Y013287D01*
X017917Y013220D01*
X017880Y013132D01*
X017880Y013036D01*
X017917Y012948D01*
X017984Y012881D01*
X018072Y012844D01*
X018168Y012844D01*
X018255Y012880D01*
X018277Y012828D01*
X018344Y012761D01*
X018432Y012724D01*
X018445Y012724D01*
X018175Y012454D01*
X011940Y012454D01*
X011956Y012461D01*
X012023Y012528D01*
X012060Y012616D01*
X012060Y012664D01*
X012110Y012714D01*
X012110Y017274D01*
X012840Y018004D01*
X012888Y018004D01*
X012976Y018041D01*
X013043Y018108D01*
X013080Y018196D01*
X013080Y018292D01*
X013043Y018380D01*
X012976Y018447D01*
X012888Y018484D01*
X012792Y018484D01*
X012704Y018447D01*
X012637Y018380D01*
X012630Y018364D01*
X012623Y018380D01*
X012556Y018447D01*
X012468Y018484D01*
X012372Y018484D01*
X012284Y018447D01*
X012217Y018380D01*
X012180Y018292D01*
X012180Y018244D01*
X011580Y017644D01*
X011580Y018085D01*
X011603Y018108D01*
X011640Y018196D01*
X011640Y018292D01*
X011603Y018380D01*
X011536Y018447D01*
X011448Y018484D01*
X011352Y018484D01*
X011264Y018447D01*
X011197Y018380D01*
X011160Y018292D01*
X011160Y018196D01*
X011197Y018108D01*
X011220Y018085D01*
X011220Y016579D01*
X010425Y015784D01*
X010320Y015679D01*
X010320Y013639D01*
X009645Y012964D01*
X006045Y012964D01*
X005940Y012859D01*
X005445Y012364D01*
X005412Y012364D01*
X005324Y012327D01*
X005257Y012260D01*
X005220Y012172D01*
X005220Y012076D01*
X005257Y011988D01*
X005324Y011921D01*
X005412Y011884D01*
X005508Y011884D01*
X005596Y011921D01*
X005663Y011988D01*
X005700Y012076D01*
X005700Y012109D01*
X006195Y012604D01*
X007620Y012604D01*
X005940Y010924D01*
X005892Y010924D01*
X005804Y010887D01*
X005737Y010820D01*
X005700Y010732D01*
X005700Y010636D01*
X005737Y010548D01*
X005800Y010484D01*
X005460Y010484D01*
X005460Y010590D01*
X005390Y010661D01*
X004818Y010661D01*
X004748Y010590D01*
X004748Y010018D01*
X004818Y009948D01*
X005390Y009948D01*
X005460Y010018D01*
X005460Y010124D01*
X006971Y010124D01*
X005460Y008614D01*
X005460Y008622D01*
X005390Y008692D01*
X004818Y008692D01*
X004748Y008622D01*
X004748Y008050D01*
X004818Y007980D01*
X005390Y007980D01*
X005460Y008050D01*
X005460Y008156D01*
X005511Y008156D01*
X005617Y008261D01*
X005617Y008261D01*
X009135Y011779D01*
X013726Y011779D01*
X012472Y010525D01*
X011366Y010525D01*
X011366Y010590D01*
X011296Y010661D01*
X010724Y010661D01*
X010653Y010590D01*
X010653Y010018D01*
X010724Y009948D01*
X011296Y009948D01*
X011366Y010018D01*
X011366Y010145D01*
X012564Y010145D01*
X011111Y008692D01*
X010724Y008692D01*
X010653Y008622D01*
X010653Y008050D01*
X010724Y007980D01*
X011296Y007980D01*
X011366Y008050D01*
X011366Y008437D01*
X014032Y011104D01*
X018895Y011104D01*
X019000Y011209D01*
X019980Y012189D01*
X019980Y013277D01*
X020009Y013306D01*
X020009Y013760D01*
X019938Y013830D01*
X019642Y013830D01*
X019633Y013820D01*
X019623Y013830D01*
X019327Y013830D01*
X019318Y013820D01*
X019308Y013830D01*
X019012Y013830D01*
X019003Y013820D01*
X018993Y013830D01*
X018697Y013830D01*
X018650Y013783D01*
X018650Y013913D01*
X018697Y013865D01*
X018993Y013865D01*
X019003Y013875D01*
X019012Y013865D01*
X019308Y013865D01*
X019318Y013875D01*
X019327Y013865D01*
X019623Y013865D01*
X019633Y013875D01*
X019642Y013865D01*
X019938Y013865D01*
X020009Y013936D01*
X020009Y014389D01*
X019960Y014438D01*
X019960Y016484D01*
X020224Y016747D01*
X020257Y016668D01*
X020290Y016635D01*
X020290Y015534D01*
X021371Y014452D01*
X021371Y014438D01*
X021323Y014389D01*
X021323Y013936D01*
X021393Y013865D01*
X021689Y013865D01*
X021699Y013875D01*
X021708Y013865D01*
X022004Y013865D01*
X022014Y013875D01*
X022023Y013865D01*
X022319Y013865D01*
X022329Y013875D01*
X022338Y013865D01*
X022634Y013865D01*
X022704Y013936D01*
X022704Y014389D01*
X022656Y014438D01*
X022656Y014778D01*
X022680Y014836D01*
X022680Y014932D01*
X022643Y015020D01*
X022576Y015087D01*
X022488Y015124D01*
X022392Y015124D01*
X022304Y015087D01*
X022237Y015020D01*
X022204Y014941D01*
X021350Y015794D01*
X021350Y015795D01*
X021383Y015828D01*
X021420Y015916D01*
X021420Y016012D01*
X021383Y016100D01*
X021316Y016167D01*
X021228Y016204D01*
X021132Y016204D01*
X021044Y016167D01*
X020990Y016113D01*
X020990Y016335D01*
X021023Y016368D01*
X021060Y016456D01*
X021060Y016552D01*
X021023Y016640D01*
X020956Y016707D01*
X020868Y016744D01*
X020772Y016744D01*
X020684Y016707D01*
X020677Y016700D01*
X020700Y016756D01*
X020700Y016852D01*
X020663Y016940D01*
X020596Y017007D01*
X020517Y017040D01*
X020700Y017224D01*
X020748Y017224D01*
X020836Y017261D01*
X020903Y017328D01*
X020940Y017416D01*
X020940Y017512D01*
X020903Y017600D01*
X020836Y017667D01*
X020748Y017704D01*
X020652Y017704D01*
X020632Y017696D01*
X020700Y017764D01*
X020748Y017764D01*
X020836Y017801D01*
X020903Y017868D01*
X020940Y017956D01*
X020940Y018052D01*
X020903Y018140D01*
X020836Y018207D01*
X020748Y018244D01*
X020679Y018244D01*
X020723Y018288D01*
X020760Y018376D01*
X020760Y018472D01*
X020723Y018560D01*
X020656Y018627D01*
X020568Y018664D01*
X020656Y018701D01*
X020723Y018768D01*
X020760Y018856D01*
X020760Y018952D01*
X020723Y019040D01*
X020656Y019107D01*
X020568Y019144D01*
X020472Y019144D01*
X020384Y019107D01*
X020317Y019040D01*
X020280Y018952D01*
X020280Y018904D01*
X018775Y017399D01*
X018716Y017341D01*
X018683Y017420D01*
X018616Y017487D01*
X018537Y017520D01*
X019030Y018014D01*
X019130Y018114D01*
X019130Y018495D01*
X019163Y018528D01*
X019200Y018616D01*
X019200Y018712D01*
X019163Y018800D01*
X019130Y018833D01*
X019130Y019875D01*
X019143Y019888D02*
X019553Y019888D01*
X019480Y020007D02*
X019200Y020007D01*
X019186Y020125D02*
X019480Y020125D01*
X019480Y020244D02*
X019100Y020244D01*
X018820Y020244D02*
X016193Y020244D01*
X016183Y020234D02*
X016470Y020521D01*
X016470Y020927D01*
X016183Y021214D01*
X015777Y021214D01*
X015490Y020927D01*
X015490Y020521D01*
X015513Y020498D01*
X015410Y020394D01*
X015310Y020294D01*
X015310Y020087D01*
X015183Y020214D01*
X014777Y020214D01*
X014570Y020007D01*
X014570Y020074D01*
X014754Y020257D01*
X014777Y020234D01*
X015183Y020234D01*
X015470Y020521D01*
X015470Y020927D01*
X015183Y021214D01*
X014777Y021214D01*
X014490Y020927D01*
X014490Y020521D01*
X014513Y020498D01*
X014330Y020314D01*
X014230Y020214D01*
X014230Y019374D01*
X015370Y018234D01*
X015370Y016934D01*
X015290Y016854D01*
X013790Y016854D01*
X013320Y016384D01*
X013272Y016384D01*
X013184Y016347D01*
X013117Y016280D01*
X013080Y016192D01*
X013080Y016096D01*
X012110Y016096D01*
X012110Y015978D02*
X013147Y015978D01*
X013117Y016008D02*
X013184Y015941D01*
X013272Y015904D01*
X013368Y015904D01*
X013456Y015941D01*
X013523Y016008D01*
X013560Y016096D01*
X014460Y016096D01*
X014460Y016132D02*
X014460Y016036D01*
X014497Y015948D01*
X014564Y015881D01*
X014652Y015844D01*
X014748Y015844D01*
X014836Y015881D01*
X014869Y015914D01*
X015410Y015914D01*
X015470Y015854D01*
X015970Y015854D01*
X016070Y015954D01*
X016090Y015974D01*
X016090Y014534D01*
X016080Y014524D01*
X016032Y014524D01*
X015944Y014487D01*
X015877Y014420D01*
X015840Y014332D01*
X015840Y014236D01*
X015877Y014148D01*
X015944Y014081D01*
X016032Y014044D01*
X016128Y014044D01*
X016216Y014081D01*
X016283Y014148D01*
X016320Y014236D01*
X016320Y014284D01*
X016430Y014394D01*
X016430Y019481D01*
X016470Y019521D01*
X016470Y019927D01*
X016183Y020214D01*
X015777Y020214D01*
X015650Y020087D01*
X015650Y020154D01*
X015754Y020257D01*
X015777Y020234D01*
X016183Y020234D01*
X016272Y020125D02*
X018734Y020125D01*
X018720Y020007D02*
X016390Y020007D01*
X016470Y019888D02*
X018777Y019888D01*
X018790Y019770D02*
X016470Y019770D01*
X016470Y019651D02*
X018790Y019651D01*
X018790Y019533D02*
X016470Y019533D01*
X016430Y019414D02*
X018790Y019414D01*
X018790Y019296D02*
X016430Y019296D01*
X016430Y019177D02*
X018790Y019177D01*
X018790Y019059D02*
X016430Y019059D01*
X016430Y018940D02*
X018790Y018940D01*
X018778Y018822D02*
X016430Y018822D01*
X016430Y018703D02*
X018720Y018703D01*
X018733Y018585D02*
X016430Y018585D01*
X016430Y018466D02*
X018790Y018466D01*
X018790Y018348D02*
X016430Y018348D01*
X016430Y018229D02*
X018765Y018229D01*
X018646Y018111D02*
X016430Y018111D01*
X016430Y017992D02*
X017949Y017992D01*
X017869Y017874D02*
X016430Y017874D01*
X016430Y017755D02*
X017391Y017755D01*
X017529Y017755D02*
X017770Y017755D01*
X017770Y017637D02*
X017673Y017637D01*
X017706Y017518D02*
X017770Y017518D01*
X017463Y017281D02*
X016430Y017281D01*
X016430Y017163D02*
X017289Y017163D01*
X017391Y017163D02*
X017470Y017163D01*
X017252Y017400D02*
X016430Y017400D01*
X016430Y017518D02*
X017220Y017518D01*
X017247Y017637D02*
X016430Y017637D01*
X015370Y017637D02*
X012473Y017637D01*
X012591Y017755D02*
X015370Y017755D01*
X015370Y017874D02*
X012710Y017874D01*
X012828Y017992D02*
X015370Y017992D01*
X015370Y018111D02*
X013044Y018111D01*
X013080Y018229D02*
X015370Y018229D01*
X015256Y018348D02*
X013057Y018348D01*
X012931Y018466D02*
X015138Y018466D01*
X015019Y018585D02*
X000520Y018585D01*
X000520Y018703D02*
X014901Y018703D01*
X014782Y018822D02*
X000520Y018822D01*
X000520Y018940D02*
X014664Y018940D01*
X014545Y019059D02*
X000520Y019059D01*
X000520Y019177D02*
X014427Y019177D01*
X014308Y019296D02*
X000520Y019296D01*
X000520Y019414D02*
X014230Y019414D01*
X014230Y019533D02*
X000520Y019533D01*
X000520Y019651D02*
X014230Y019651D01*
X014230Y019770D02*
X000520Y019770D01*
X000520Y019888D02*
X014230Y019888D01*
X014230Y020007D02*
X000520Y020007D01*
X000520Y020125D02*
X014230Y020125D01*
X014259Y020244D02*
X000520Y020244D01*
X000520Y020362D02*
X014378Y020362D01*
X014496Y020481D02*
X010878Y020481D01*
X010846Y020449D02*
X010984Y020586D01*
X011059Y020767D01*
X011059Y020961D01*
X010984Y021142D01*
X010846Y021279D01*
X010666Y021354D01*
X010471Y021354D01*
X010291Y021279D01*
X010153Y021142D01*
X010079Y020961D01*
X010079Y020767D01*
X010153Y020586D01*
X010291Y020449D01*
X010471Y020374D01*
X010666Y020374D01*
X010846Y020449D01*
X010990Y020599D02*
X014490Y020599D01*
X014490Y020718D02*
X011039Y020718D01*
X011059Y020836D02*
X014490Y020836D01*
X014518Y020955D02*
X011059Y020955D01*
X011013Y021073D02*
X014636Y021073D01*
X014755Y021192D02*
X010934Y021192D01*
X010772Y021310D02*
X015701Y021310D01*
X015777Y021234D02*
X016183Y021234D01*
X016470Y021521D01*
X016470Y021927D01*
X016183Y022214D01*
X015777Y022214D01*
X015490Y021927D01*
X015490Y021521D01*
X015777Y021234D01*
X015755Y021192D02*
X015205Y021192D01*
X015324Y021073D02*
X015636Y021073D01*
X015518Y020955D02*
X015442Y020955D01*
X015470Y020836D02*
X015490Y020836D01*
X015490Y020718D02*
X015470Y020718D01*
X015470Y020599D02*
X015490Y020599D01*
X015496Y020481D02*
X015430Y020481D01*
X015378Y020362D02*
X015311Y020362D01*
X015310Y020244D02*
X015193Y020244D01*
X015272Y020125D02*
X015310Y020125D01*
X015650Y020125D02*
X015688Y020125D01*
X015740Y020244D02*
X015767Y020244D01*
X016311Y020362D02*
X019480Y020362D01*
X019480Y020481D02*
X016430Y020481D01*
X016470Y020599D02*
X019480Y020599D01*
X019443Y020718D02*
X016470Y020718D01*
X016470Y020836D02*
X019420Y020836D01*
X019453Y020955D02*
X016442Y020955D01*
X016324Y021073D02*
X019602Y021073D01*
X019758Y021073D02*
X032841Y021073D01*
X032749Y021165D02*
X032961Y020954D01*
X033236Y020840D01*
X033535Y020840D01*
X033811Y020954D01*
X034022Y021165D01*
X034136Y021441D01*
X034136Y021740D01*
X034022Y022015D01*
X033811Y022227D01*
X033535Y022341D01*
X033236Y022341D01*
X032961Y022227D01*
X032749Y022015D01*
X032635Y021740D01*
X032635Y021441D01*
X032749Y021165D01*
X032738Y021192D02*
X016205Y021192D01*
X016259Y021310D02*
X032689Y021310D01*
X032640Y021429D02*
X016378Y021429D01*
X016470Y021547D02*
X032635Y021547D01*
X032635Y021666D02*
X016470Y021666D01*
X016470Y021784D02*
X032654Y021784D01*
X032703Y021903D02*
X016470Y021903D01*
X016376Y022021D02*
X032755Y022021D01*
X032873Y022140D02*
X016257Y022140D01*
X015703Y022140D02*
X001829Y022140D01*
X001817Y022169D02*
X001637Y022349D01*
X039336Y022349D01*
X039382Y022345D01*
X039466Y022310D01*
X039531Y022245D01*
X039566Y022161D01*
X039570Y022115D01*
X039570Y003218D01*
X039566Y003172D01*
X039531Y003088D01*
X039466Y003023D01*
X039382Y002989D01*
X039336Y002984D01*
X001637Y002984D01*
X001817Y003164D01*
X001937Y003454D01*
X001937Y003769D01*
X001817Y004059D01*
X001595Y004281D01*
X001305Y004401D01*
X000990Y004401D01*
X000700Y004281D01*
X000520Y004101D01*
X000520Y021232D01*
X000700Y021052D01*
X000990Y020932D01*
X001305Y020932D01*
X001595Y021052D01*
X001817Y021274D01*
X001937Y021565D01*
X001937Y021879D01*
X001817Y022169D01*
X001728Y022258D02*
X033036Y022258D01*
X033735Y022258D02*
X037997Y022258D01*
X037921Y022227D02*
X037710Y022015D01*
X037596Y021740D01*
X037596Y021441D01*
X037710Y021165D01*
X037921Y020954D01*
X038197Y020840D01*
X038496Y020840D01*
X038771Y020954D01*
X038983Y021165D01*
X039097Y021441D01*
X039097Y021740D01*
X038983Y022015D01*
X038771Y022227D01*
X038496Y022341D01*
X038197Y022341D01*
X037921Y022227D01*
X037834Y022140D02*
X033898Y022140D01*
X034016Y022021D02*
X037716Y022021D01*
X037663Y021903D02*
X034069Y021903D01*
X034118Y021784D02*
X037614Y021784D01*
X037596Y021666D02*
X034136Y021666D01*
X034136Y021547D02*
X037596Y021547D01*
X037601Y021429D02*
X034131Y021429D01*
X034082Y021310D02*
X037650Y021310D01*
X037699Y021192D02*
X034033Y021192D01*
X033930Y021073D02*
X037802Y021073D01*
X037921Y020955D02*
X033811Y020955D01*
X032960Y020955D02*
X027626Y020955D01*
X027214Y020955D02*
X019907Y020955D01*
X019940Y020836D02*
X027180Y020836D01*
X027204Y020718D02*
X019917Y020718D01*
X019880Y020599D02*
X027240Y020599D01*
X027240Y020481D02*
X019880Y020481D01*
X019880Y020362D02*
X027240Y020362D01*
X027240Y020244D02*
X019880Y020244D01*
X019882Y020125D02*
X027240Y020125D01*
X027240Y020007D02*
X020000Y020007D01*
X020119Y019888D02*
X027240Y019888D01*
X027240Y019770D02*
X020321Y019770D01*
X020360Y019651D02*
X027240Y019651D01*
X027240Y019533D02*
X020344Y019533D01*
X020258Y019414D02*
X027240Y019414D01*
X027240Y019177D02*
X019130Y019177D01*
X019130Y019059D02*
X020335Y019059D01*
X020280Y018940D02*
X019130Y018940D01*
X019142Y018822D02*
X020197Y018822D01*
X020079Y018703D02*
X019200Y018703D01*
X019187Y018585D02*
X019960Y018585D01*
X019842Y018466D02*
X019130Y018466D01*
X019130Y018348D02*
X019723Y018348D01*
X019605Y018229D02*
X019130Y018229D01*
X019127Y018111D02*
X019486Y018111D01*
X019368Y017992D02*
X019008Y017992D01*
X018890Y017874D02*
X019249Y017874D01*
X019131Y017755D02*
X018771Y017755D01*
X018653Y017637D02*
X019012Y017637D01*
X018894Y017518D02*
X018542Y017518D01*
X018692Y017400D02*
X018775Y017400D01*
X018409Y017874D02*
X018359Y017874D01*
X018291Y017992D02*
X018528Y017992D01*
X016821Y017044D02*
X016430Y017044D01*
X016430Y016926D02*
X016746Y016926D01*
X016744Y016807D02*
X016430Y016807D01*
X016430Y016689D02*
X016816Y016689D01*
X016930Y016570D02*
X016430Y016570D01*
X016430Y016452D02*
X016930Y016452D01*
X016930Y016333D02*
X016430Y016333D01*
X016430Y016215D02*
X016930Y016215D01*
X016930Y016096D02*
X016430Y016096D01*
X016430Y015978D02*
X016930Y015978D01*
X016930Y015859D02*
X016430Y015859D01*
X016430Y015741D02*
X016930Y015741D01*
X016930Y015622D02*
X016430Y015622D01*
X016430Y015504D02*
X016930Y015504D01*
X016930Y015385D02*
X016430Y015385D01*
X016430Y015267D02*
X016930Y015267D01*
X016930Y015148D02*
X016430Y015148D01*
X016430Y015030D02*
X016930Y015030D01*
X016930Y014911D02*
X016430Y014911D01*
X016430Y014793D02*
X016909Y014793D01*
X016860Y014674D02*
X016430Y014674D01*
X016430Y014556D02*
X016877Y014556D01*
X016973Y014437D02*
X016430Y014437D01*
X016355Y014319D02*
X017100Y014319D01*
X017145Y014200D02*
X016305Y014200D01*
X016217Y014082D02*
X017400Y014082D01*
X017442Y013963D02*
X012110Y013963D01*
X012110Y013845D02*
X017770Y013845D01*
X017770Y013726D02*
X012110Y013726D01*
X012110Y013608D02*
X017683Y013608D01*
X017565Y013489D02*
X012110Y013489D01*
X012110Y013371D02*
X017446Y013371D01*
X017229Y013252D02*
X012110Y013252D01*
X012110Y013134D02*
X017161Y013134D01*
X017169Y013015D02*
X012110Y013015D01*
X012110Y012897D02*
X017248Y012897D01*
X017552Y012897D02*
X017968Y012897D01*
X017889Y013015D02*
X017631Y013015D01*
X017690Y013134D02*
X017881Y013134D01*
X017949Y013252D02*
X017808Y013252D01*
X017927Y013371D02*
X018010Y013371D01*
X018327Y012778D02*
X012110Y012778D01*
X012060Y012660D02*
X018381Y012660D01*
X018262Y012541D02*
X012029Y012541D01*
X013540Y011593D02*
X008949Y011593D01*
X009067Y011712D02*
X013659Y011712D01*
X013860Y011644D02*
X018740Y011644D01*
X019480Y012384D01*
X019480Y013528D01*
X019475Y013533D01*
X019160Y013533D02*
X019160Y013533D01*
X019160Y012624D01*
X018495Y011959D01*
X009060Y011959D01*
X005437Y008336D01*
X005104Y008336D01*
X004748Y008394D02*
X000520Y008394D01*
X000520Y008512D02*
X004748Y008512D01*
X004757Y008631D02*
X000520Y008631D01*
X000520Y008749D02*
X005595Y008749D01*
X005477Y008631D02*
X005452Y008631D01*
X005714Y008868D02*
X000520Y008868D01*
X000520Y008986D02*
X005832Y008986D01*
X005951Y009105D02*
X000520Y009105D01*
X000520Y009223D02*
X006069Y009223D01*
X006188Y009342D02*
X000520Y009342D01*
X000520Y009460D02*
X006306Y009460D01*
X006425Y009579D02*
X000520Y009579D01*
X000520Y009697D02*
X006543Y009697D01*
X006662Y009816D02*
X000520Y009816D01*
X000520Y009934D02*
X006780Y009934D01*
X006899Y010053D02*
X005460Y010053D01*
X005104Y010304D02*
X006940Y010304D01*
X008910Y012274D01*
X018250Y012274D01*
X018840Y012864D01*
X018840Y013527D01*
X018845Y013533D01*
X018780Y013527D01*
X018650Y013845D02*
X024490Y013845D01*
X024490Y013935D02*
X024490Y012234D01*
X024590Y012134D01*
X025440Y011284D01*
X025440Y011236D01*
X025477Y011148D01*
X025544Y011081D01*
X025632Y011044D01*
X025728Y011044D01*
X025816Y011081D01*
X025883Y011148D01*
X025920Y011236D01*
X025920Y011332D01*
X025883Y011420D01*
X025816Y011487D01*
X025728Y011524D01*
X025680Y011524D01*
X024830Y012374D01*
X024830Y013935D01*
X024863Y013968D01*
X024900Y014056D01*
X024900Y014152D01*
X024863Y014240D01*
X024796Y014307D01*
X024708Y014344D01*
X024612Y014344D01*
X024524Y014307D01*
X024457Y014240D01*
X024420Y014152D01*
X024420Y014056D01*
X024457Y013968D01*
X024490Y013935D01*
X024462Y013963D02*
X022704Y013963D01*
X022704Y014082D02*
X024420Y014082D01*
X024440Y014200D02*
X022704Y014200D01*
X022704Y014319D02*
X024551Y014319D01*
X024693Y014437D02*
X022657Y014437D01*
X022656Y014556D02*
X024575Y014556D01*
X024550Y014580D02*
X024990Y014141D01*
X024990Y013936D01*
X025060Y013865D01*
X025356Y013865D01*
X025366Y013875D01*
X025375Y013865D01*
X025671Y013865D01*
X025681Y013875D01*
X025690Y013865D01*
X025986Y013865D01*
X025996Y013875D01*
X026005Y013865D01*
X026301Y013865D01*
X026371Y013936D01*
X026371Y014389D01*
X026330Y014431D01*
X026330Y014715D01*
X026363Y014748D01*
X026400Y014836D01*
X026400Y014932D01*
X026363Y015020D01*
X026296Y015087D01*
X026208Y015124D01*
X026112Y015124D01*
X026024Y015087D01*
X025957Y015020D01*
X025920Y014932D01*
X025920Y014836D01*
X025928Y014816D01*
X025870Y014874D01*
X025610Y015134D01*
X025610Y015375D01*
X025643Y015408D01*
X025680Y015496D01*
X025680Y015592D01*
X025643Y015680D01*
X025576Y015747D01*
X025488Y015784D01*
X025392Y015784D01*
X025304Y015747D01*
X025237Y015680D01*
X025200Y015592D01*
X025200Y015496D01*
X025237Y015408D01*
X025270Y015375D01*
X025270Y014994D01*
X025190Y015074D01*
X025190Y016095D01*
X025223Y016128D01*
X025260Y016216D01*
X025260Y016312D01*
X025223Y016400D01*
X025156Y016467D01*
X025068Y016504D01*
X024972Y016504D01*
X024951Y016495D01*
X024960Y016516D01*
X024960Y016612D01*
X024923Y016700D01*
X024856Y016767D01*
X024768Y016804D01*
X024672Y016804D01*
X024584Y016767D01*
X024517Y016700D01*
X024480Y016612D01*
X024480Y016516D01*
X024517Y016428D01*
X024550Y016395D01*
X024550Y014580D01*
X024550Y014674D02*
X022656Y014674D01*
X022662Y014793D02*
X024550Y014793D01*
X024550Y014911D02*
X022680Y014911D01*
X022634Y015030D02*
X024550Y015030D01*
X024550Y015148D02*
X021996Y015148D01*
X021878Y015267D02*
X024550Y015267D01*
X024550Y015385D02*
X021759Y015385D01*
X021641Y015504D02*
X024550Y015504D01*
X024550Y015622D02*
X021522Y015622D01*
X021404Y015741D02*
X024550Y015741D01*
X024550Y015859D02*
X021396Y015859D01*
X021420Y015978D02*
X024550Y015978D01*
X024550Y016096D02*
X021385Y016096D01*
X020990Y016215D02*
X024550Y016215D01*
X024550Y016333D02*
X020990Y016333D01*
X021058Y016452D02*
X024507Y016452D01*
X024480Y016570D02*
X021052Y016570D01*
X020975Y016689D02*
X024512Y016689D01*
X024928Y016689D02*
X027240Y016689D01*
X027240Y016807D02*
X020700Y016807D01*
X020669Y016926D02*
X027240Y016926D01*
X027240Y017044D02*
X020520Y017044D01*
X020639Y017163D02*
X027240Y017163D01*
X027240Y017281D02*
X020856Y017281D01*
X020933Y017400D02*
X027240Y017400D01*
X027240Y017518D02*
X020937Y017518D01*
X020867Y017637D02*
X027240Y017637D01*
X027240Y017755D02*
X020691Y017755D01*
X020906Y017874D02*
X027240Y017874D01*
X027240Y017992D02*
X020940Y017992D01*
X020916Y018111D02*
X027240Y018111D01*
X027240Y018229D02*
X020784Y018229D01*
X020748Y018348D02*
X027240Y018348D01*
X027240Y018466D02*
X020760Y018466D01*
X020699Y018585D02*
X027240Y018585D01*
X027240Y018703D02*
X020658Y018703D01*
X020568Y018664D02*
X020520Y018664D01*
X020520Y018664D01*
X020568Y018664D01*
X020746Y018822D02*
X027240Y018822D01*
X027240Y018940D02*
X020760Y018940D01*
X020705Y019059D02*
X027240Y019059D01*
X027240Y016570D02*
X024960Y016570D01*
X025172Y016452D02*
X027240Y016452D01*
X027240Y016333D02*
X025251Y016333D01*
X025259Y016215D02*
X027240Y016215D01*
X027240Y016096D02*
X025191Y016096D01*
X025190Y015978D02*
X027240Y015978D01*
X027240Y015859D02*
X025190Y015859D01*
X025190Y015741D02*
X025297Y015741D01*
X025213Y015622D02*
X025190Y015622D01*
X025190Y015504D02*
X025200Y015504D01*
X025190Y015385D02*
X025260Y015385D01*
X025270Y015267D02*
X025190Y015267D01*
X025190Y015148D02*
X025270Y015148D01*
X025270Y015030D02*
X025235Y015030D01*
X025610Y015148D02*
X027321Y015148D01*
X027240Y015267D02*
X025610Y015267D01*
X025620Y015385D02*
X027240Y015385D01*
X027240Y015504D02*
X025680Y015504D01*
X025667Y015622D02*
X027240Y015622D01*
X027240Y015741D02*
X025583Y015741D01*
X025715Y015030D02*
X025966Y015030D01*
X025920Y014911D02*
X025833Y014911D01*
X025870Y014874D02*
X025870Y014874D01*
X026330Y014674D02*
X039570Y014674D01*
X039570Y014556D02*
X026330Y014556D01*
X026330Y014437D02*
X039570Y014437D01*
X039570Y014319D02*
X031745Y014319D01*
X031763Y014300D02*
X031696Y014367D01*
X031608Y014404D01*
X031512Y014404D01*
X031424Y014367D01*
X031357Y014300D01*
X031320Y014212D01*
X031320Y014116D01*
X031357Y014028D01*
X031390Y013995D01*
X031390Y013733D01*
X031357Y013700D01*
X031320Y013612D01*
X031320Y013516D01*
X031357Y013428D01*
X031424Y013361D01*
X031512Y013324D01*
X031608Y013324D01*
X031696Y013361D01*
X031763Y013428D01*
X031800Y013516D01*
X031800Y013612D01*
X031763Y013700D01*
X031730Y013733D01*
X031730Y013995D01*
X031763Y014028D01*
X031800Y014116D01*
X031800Y014212D01*
X031763Y014300D01*
X031800Y014200D02*
X039570Y014200D01*
X039570Y014082D02*
X031786Y014082D01*
X031730Y013963D02*
X039570Y013963D01*
X039570Y013845D02*
X031730Y013845D01*
X031737Y013726D02*
X039570Y013726D01*
X039570Y013608D02*
X031800Y013608D01*
X031789Y013489D02*
X039570Y013489D01*
X039570Y013371D02*
X031706Y013371D01*
X031414Y013371D02*
X026371Y013371D01*
X026371Y013306D02*
X026371Y013760D01*
X026301Y013830D01*
X026005Y013830D01*
X025996Y013820D01*
X025986Y013830D01*
X025690Y013830D01*
X025681Y013820D01*
X025671Y013830D01*
X025375Y013830D01*
X025366Y013820D01*
X025356Y013830D01*
X025060Y013830D01*
X024990Y013760D01*
X024990Y013306D01*
X025020Y013275D01*
X025020Y012349D01*
X025665Y011704D01*
X030825Y011704D01*
X031320Y011209D01*
X031320Y010699D01*
X031125Y010504D01*
X031051Y010504D01*
X031051Y010590D01*
X030981Y010661D01*
X030409Y010661D01*
X030338Y010590D01*
X030338Y010018D01*
X030409Y009948D01*
X030981Y009948D01*
X031051Y010018D01*
X031051Y010144D01*
X031275Y010144D01*
X031380Y010249D01*
X031560Y010429D01*
X031560Y009456D01*
X030796Y008692D01*
X030409Y008692D01*
X030338Y008622D01*
X030338Y008050D01*
X030409Y007980D01*
X030981Y007980D01*
X031051Y008050D01*
X031051Y008437D01*
X031920Y009307D01*
X031920Y011479D01*
X031815Y011584D01*
X031137Y012262D01*
X034421Y012274D01*
X036735Y012274D01*
X037560Y011449D01*
X037560Y010939D01*
X037065Y010444D01*
X036563Y010444D01*
X036563Y010590D01*
X036492Y010661D01*
X035921Y010661D01*
X035850Y010590D01*
X035850Y010018D01*
X035921Y009948D01*
X036492Y009948D01*
X036563Y010018D01*
X036563Y010084D01*
X037215Y010084D01*
X037320Y010189D01*
X037920Y010789D01*
X037920Y011509D01*
X037920Y010249D01*
X036735Y009064D01*
X036600Y008929D01*
X036363Y008692D01*
X035921Y008692D01*
X035850Y008622D01*
X035850Y008050D01*
X035921Y007980D01*
X036492Y007980D01*
X036563Y008050D01*
X036563Y008382D01*
X036855Y008674D01*
X036990Y008809D01*
X036990Y008809D01*
X038175Y009994D01*
X038280Y010099D01*
X038280Y011659D01*
X038175Y011764D01*
X037075Y012864D01*
X026425Y012864D01*
X026340Y012949D01*
X026340Y013274D01*
X026371Y013306D01*
X026340Y013252D02*
X039570Y013252D01*
X039570Y013134D02*
X026340Y013134D01*
X026340Y013015D02*
X039570Y013015D01*
X039570Y012897D02*
X026392Y012897D01*
X026350Y012684D02*
X026160Y012874D01*
X026160Y013526D01*
X026153Y013533D01*
X026371Y013489D02*
X031331Y013489D01*
X031320Y013608D02*
X026371Y013608D01*
X026371Y013726D02*
X031383Y013726D01*
X031390Y013845D02*
X024830Y013845D01*
X024830Y013726D02*
X024990Y013726D01*
X024990Y013608D02*
X024830Y013608D01*
X024830Y013489D02*
X024990Y013489D01*
X024990Y013371D02*
X024830Y013371D01*
X024830Y013252D02*
X025020Y013252D01*
X025020Y013134D02*
X024830Y013134D01*
X024830Y013015D02*
X025020Y013015D01*
X025020Y012897D02*
X024830Y012897D01*
X024830Y012778D02*
X025020Y012778D01*
X025020Y012660D02*
X024830Y012660D01*
X024830Y012541D02*
X025020Y012541D01*
X025020Y012423D02*
X024830Y012423D01*
X024900Y012304D02*
X025065Y012304D01*
X025019Y012186D02*
X025184Y012186D01*
X025137Y012067D02*
X025302Y012067D01*
X025256Y011949D02*
X025421Y011949D01*
X025374Y011830D02*
X025539Y011830D01*
X025493Y011712D02*
X025658Y011712D01*
X025611Y011593D02*
X030936Y011593D01*
X031055Y011475D02*
X025829Y011475D01*
X025910Y011356D02*
X031173Y011356D01*
X031292Y011238D02*
X025920Y011238D01*
X025854Y011119D02*
X031320Y011119D01*
X031320Y011001D02*
X025350Y011001D01*
X025350Y011094D02*
X025353Y011097D01*
X025350Y011168D01*
X025350Y011239D01*
X025347Y011242D01*
X025347Y011246D01*
X025295Y011294D01*
X025245Y011344D01*
X025240Y011344D01*
X024905Y011654D01*
X024855Y011704D01*
X024850Y011704D01*
X024847Y011707D01*
X024776Y011704D01*
X022785Y011704D01*
X022666Y011823D01*
X022666Y013267D01*
X022704Y013306D01*
X022704Y013760D01*
X022634Y013830D01*
X022338Y013830D01*
X022329Y013820D01*
X022319Y013830D01*
X022023Y013830D01*
X022014Y013820D01*
X022004Y013830D01*
X021708Y013830D01*
X021699Y013820D01*
X021689Y013830D01*
X021393Y013830D01*
X021323Y013760D01*
X021323Y013306D01*
X021360Y013268D01*
X021360Y013249D01*
X018596Y010484D01*
X017665Y010484D01*
X017665Y010590D01*
X017595Y010661D01*
X017023Y010661D01*
X016953Y010590D01*
X016953Y010018D01*
X017023Y009948D01*
X017595Y009948D01*
X017665Y010018D01*
X017665Y010124D01*
X018686Y010124D01*
X017253Y008692D01*
X017023Y008692D01*
X016953Y008622D01*
X016953Y008050D01*
X017023Y007980D01*
X017595Y007980D01*
X017665Y008050D01*
X017665Y008594D01*
X021915Y012844D01*
X021991Y012920D01*
X021991Y011448D01*
X022290Y011149D01*
X022395Y011044D01*
X024075Y011044D01*
X024215Y010904D01*
X024215Y010661D01*
X024110Y010661D01*
X024039Y010590D01*
X024039Y010018D01*
X024110Y009948D01*
X024681Y009948D01*
X024752Y010018D01*
X024752Y010590D01*
X024681Y010661D01*
X024575Y010661D01*
X024575Y011053D01*
X024470Y011159D01*
X024285Y011344D01*
X024710Y011344D01*
X024990Y011085D01*
X024990Y008929D01*
X024717Y008656D01*
X024681Y008692D01*
X024110Y008692D01*
X024039Y008622D01*
X024039Y008050D01*
X024110Y007980D01*
X024681Y007980D01*
X024752Y008050D01*
X024752Y008181D01*
X024832Y008261D01*
X025350Y008779D01*
X025350Y011094D01*
X025352Y011119D02*
X025506Y011119D01*
X025440Y011238D02*
X025350Y011238D01*
X025368Y011356D02*
X025227Y011356D01*
X025249Y011475D02*
X025099Y011475D01*
X025131Y011593D02*
X024971Y011593D01*
X025012Y011712D02*
X022777Y011712D01*
X022666Y011830D02*
X024894Y011830D01*
X024775Y011949D02*
X022666Y011949D01*
X022666Y012067D02*
X024657Y012067D01*
X024538Y012186D02*
X022666Y012186D01*
X022666Y012304D02*
X024490Y012304D01*
X024490Y012423D02*
X022666Y012423D01*
X022666Y012541D02*
X024490Y012541D01*
X024490Y012660D02*
X022666Y012660D01*
X022666Y012778D02*
X024490Y012778D01*
X024490Y012897D02*
X022666Y012897D01*
X022666Y013015D02*
X024490Y013015D01*
X024490Y013134D02*
X022666Y013134D01*
X022666Y013252D02*
X024490Y013252D01*
X024490Y013371D02*
X022704Y013371D01*
X022704Y013489D02*
X024490Y013489D01*
X024490Y013608D02*
X022704Y013608D01*
X022704Y013726D02*
X024490Y013726D01*
X024858Y013963D02*
X024990Y013963D01*
X024990Y014082D02*
X024900Y014082D01*
X024880Y014200D02*
X024930Y014200D01*
X024812Y014319D02*
X024769Y014319D01*
X026371Y014319D02*
X031375Y014319D01*
X031320Y014200D02*
X026371Y014200D01*
X026371Y014082D02*
X031334Y014082D01*
X031390Y013963D02*
X026371Y013963D01*
X025860Y013511D02*
X025838Y013533D01*
X025860Y013511D02*
X025860Y012634D01*
X026070Y012424D01*
X026280Y012424D01*
X034420Y012454D01*
X036810Y012454D01*
X037740Y011524D01*
X037740Y010864D01*
X037140Y010264D01*
X036247Y010264D01*
X036206Y010304D01*
X036180Y010331D01*
X035850Y010290D02*
X031920Y010290D01*
X031920Y010408D02*
X035850Y010408D01*
X035850Y010527D02*
X031920Y010527D01*
X031920Y010645D02*
X035905Y010645D01*
X036508Y010645D02*
X037266Y010645D01*
X037148Y010527D02*
X036563Y010527D01*
X035850Y010171D02*
X031920Y010171D01*
X031920Y010053D02*
X035850Y010053D01*
X036563Y010053D02*
X037724Y010053D01*
X037842Y010171D02*
X037302Y010171D01*
X037420Y010290D02*
X037920Y010290D01*
X037920Y010408D02*
X037539Y010408D01*
X037657Y010527D02*
X037920Y010527D01*
X037920Y010645D02*
X037776Y010645D01*
X037894Y010764D02*
X037920Y010764D01*
X037920Y010882D02*
X037920Y010882D01*
X037920Y011001D02*
X037920Y011001D01*
X037920Y011119D02*
X037920Y011119D01*
X037920Y011238D02*
X037920Y011238D01*
X037920Y011356D02*
X037920Y011356D01*
X037920Y011475D02*
X037920Y011475D01*
X037920Y011509D02*
X037920Y011509D01*
X038100Y011584D02*
X038100Y010174D01*
X036810Y008884D01*
X036675Y008749D01*
X036262Y008336D01*
X036206Y008336D01*
X035850Y008394D02*
X031051Y008394D01*
X031051Y008275D02*
X035850Y008275D01*
X035850Y008157D02*
X031051Y008157D01*
X031039Y008038D02*
X035862Y008038D01*
X036551Y008038D02*
X039570Y008038D01*
X039570Y007920D02*
X000520Y007920D01*
X000520Y008038D02*
X004760Y008038D01*
X004748Y008157D02*
X000520Y008157D01*
X000520Y008275D02*
X004748Y008275D01*
X005448Y008038D02*
X010665Y008038D01*
X010653Y008157D02*
X005512Y008157D01*
X005631Y008275D02*
X010653Y008275D01*
X010653Y008394D02*
X005749Y008394D01*
X005868Y008512D02*
X010653Y008512D01*
X010662Y008631D02*
X005986Y008631D01*
X006105Y008749D02*
X011168Y008749D01*
X011287Y008868D02*
X006223Y008868D01*
X006342Y008986D02*
X011405Y008986D01*
X011524Y009105D02*
X006460Y009105D01*
X006579Y009223D02*
X011642Y009223D01*
X011761Y009342D02*
X006697Y009342D01*
X006816Y009460D02*
X011879Y009460D01*
X011998Y009579D02*
X006934Y009579D01*
X007053Y009697D02*
X012116Y009697D01*
X012235Y009816D02*
X007171Y009816D01*
X007290Y009934D02*
X012353Y009934D01*
X012472Y010053D02*
X011366Y010053D01*
X011040Y010335D02*
X011010Y010304D01*
X010653Y010290D02*
X007645Y010290D01*
X007764Y010408D02*
X010653Y010408D01*
X010653Y010527D02*
X007882Y010527D01*
X008001Y010645D02*
X010708Y010645D01*
X011311Y010645D02*
X012592Y010645D01*
X012474Y010527D02*
X011366Y010527D01*
X010653Y010171D02*
X007527Y010171D01*
X007408Y010053D02*
X010653Y010053D01*
X011914Y008986D02*
X017547Y008986D01*
X017429Y008868D02*
X011796Y008868D01*
X011677Y008749D02*
X017310Y008749D01*
X017309Y008493D02*
X017309Y008336D01*
X017309Y008493D02*
X021840Y013024D01*
X021840Y013517D01*
X021856Y013533D01*
X021541Y013533D02*
X021540Y013532D01*
X021540Y013174D01*
X018670Y010304D01*
X017309Y010304D01*
X016953Y010290D02*
X013218Y010290D01*
X013336Y010408D02*
X016953Y010408D01*
X016953Y010527D02*
X013455Y010527D01*
X013573Y010645D02*
X017007Y010645D01*
X016953Y010171D02*
X013099Y010171D01*
X012981Y010053D02*
X016953Y010053D01*
X017665Y010053D02*
X018614Y010053D01*
X018495Y009934D02*
X012862Y009934D01*
X012744Y009816D02*
X018377Y009816D01*
X018258Y009697D02*
X012625Y009697D01*
X012507Y009579D02*
X018140Y009579D01*
X018021Y009460D02*
X012388Y009460D01*
X012270Y009342D02*
X017903Y009342D01*
X017784Y009223D02*
X012151Y009223D01*
X012033Y009105D02*
X017666Y009105D01*
X017938Y008868D02*
X024929Y008868D01*
X024990Y008986D02*
X018057Y008986D01*
X018175Y009105D02*
X024990Y009105D01*
X024990Y009223D02*
X018294Y009223D01*
X018412Y009342D02*
X024990Y009342D01*
X024990Y009460D02*
X018531Y009460D01*
X018649Y009579D02*
X024990Y009579D01*
X024990Y009697D02*
X018768Y009697D01*
X018886Y009816D02*
X024990Y009816D01*
X024990Y009934D02*
X019005Y009934D01*
X019123Y010053D02*
X024039Y010053D01*
X024039Y010171D02*
X019242Y010171D01*
X019360Y010290D02*
X024039Y010290D01*
X024039Y010408D02*
X019479Y010408D01*
X019597Y010527D02*
X024039Y010527D01*
X024094Y010645D02*
X019716Y010645D01*
X019834Y010764D02*
X024215Y010764D01*
X024215Y010882D02*
X019953Y010882D01*
X020071Y011001D02*
X024119Y011001D01*
X024150Y011224D02*
X024395Y010979D01*
X024395Y010304D01*
X024752Y010290D02*
X024990Y010290D01*
X024990Y010408D02*
X024752Y010408D01*
X024752Y010527D02*
X024990Y010527D01*
X024990Y010645D02*
X024697Y010645D01*
X024575Y010764D02*
X024990Y010764D01*
X024990Y010882D02*
X024575Y010882D01*
X024575Y011001D02*
X024990Y011001D01*
X024953Y011119D02*
X024510Y011119D01*
X024391Y011238D02*
X024825Y011238D01*
X024780Y011524D02*
X025170Y011164D01*
X025170Y008854D01*
X024652Y008336D01*
X024395Y008336D01*
X024039Y008394D02*
X017665Y008394D01*
X017665Y008512D02*
X024039Y008512D01*
X024048Y008631D02*
X017701Y008631D01*
X017820Y008749D02*
X024810Y008749D01*
X025083Y008512D02*
X030338Y008512D01*
X030338Y008394D02*
X024964Y008394D01*
X024846Y008275D02*
X030338Y008275D01*
X030338Y008157D02*
X024752Y008157D01*
X024740Y008038D02*
X030350Y008038D01*
X030695Y008336D02*
X031740Y009381D01*
X031740Y011404D01*
X031020Y012124D01*
X025920Y012124D01*
X025530Y012514D01*
X025530Y013526D01*
X025523Y013533D01*
X025208Y013533D02*
X025200Y013525D01*
X025200Y012424D01*
X025740Y011884D01*
X030900Y011884D01*
X031500Y011284D01*
X031500Y010624D01*
X031200Y010324D01*
X030714Y010324D01*
X030695Y010304D01*
X030720Y010330D01*
X030338Y010290D02*
X025350Y010290D01*
X025350Y010408D02*
X030338Y010408D01*
X030338Y010527D02*
X025350Y010527D01*
X025350Y010645D02*
X030393Y010645D01*
X030996Y010645D02*
X031266Y010645D01*
X031320Y010764D02*
X025350Y010764D01*
X025350Y010882D02*
X031320Y010882D01*
X031920Y010882D02*
X037503Y010882D01*
X037560Y011001D02*
X031920Y011001D01*
X031920Y011119D02*
X037560Y011119D01*
X037560Y011238D02*
X031920Y011238D01*
X031920Y011356D02*
X037560Y011356D01*
X037535Y011475D02*
X031920Y011475D01*
X031806Y011593D02*
X037416Y011593D01*
X037298Y011712D02*
X031687Y011712D01*
X031569Y011830D02*
X037179Y011830D01*
X037061Y011949D02*
X031450Y011949D01*
X031332Y012067D02*
X036942Y012067D01*
X036824Y012186D02*
X031213Y012186D01*
X031920Y010764D02*
X037385Y010764D01*
X038280Y010764D02*
X039570Y010764D01*
X039570Y010882D02*
X038280Y010882D01*
X038280Y011001D02*
X039570Y011001D01*
X039570Y011119D02*
X038280Y011119D01*
X038280Y011238D02*
X039570Y011238D01*
X039570Y011356D02*
X038280Y011356D01*
X038280Y011475D02*
X039570Y011475D01*
X039570Y011593D02*
X038280Y011593D01*
X038227Y011712D02*
X039570Y011712D01*
X039570Y011830D02*
X038109Y011830D01*
X037990Y011949D02*
X039570Y011949D01*
X039570Y012067D02*
X037872Y012067D01*
X037753Y012186D02*
X039570Y012186D01*
X039570Y012304D02*
X037635Y012304D01*
X037516Y012423D02*
X039570Y012423D01*
X039570Y012541D02*
X037398Y012541D01*
X037279Y012660D02*
X039570Y012660D01*
X039570Y012778D02*
X037161Y012778D01*
X037000Y012684D02*
X038100Y011584D01*
X038280Y010645D02*
X039570Y010645D01*
X039570Y010527D02*
X038280Y010527D01*
X038280Y010408D02*
X039570Y010408D01*
X039570Y010290D02*
X038280Y010290D01*
X038280Y010171D02*
X039570Y010171D01*
X039570Y010053D02*
X038233Y010053D01*
X038175Y009994D02*
X038175Y009994D01*
X038115Y009934D02*
X039570Y009934D01*
X039570Y009816D02*
X037996Y009816D01*
X037878Y009697D02*
X039570Y009697D01*
X039570Y009579D02*
X037759Y009579D01*
X037641Y009460D02*
X039570Y009460D01*
X039570Y009342D02*
X037522Y009342D01*
X037404Y009223D02*
X039570Y009223D01*
X039570Y009105D02*
X037285Y009105D01*
X037167Y008986D02*
X039570Y008986D01*
X039570Y008868D02*
X037048Y008868D01*
X036930Y008749D02*
X039570Y008749D01*
X039570Y008631D02*
X036811Y008631D01*
X036693Y008512D02*
X039570Y008512D01*
X039570Y008394D02*
X036574Y008394D01*
X036563Y008275D02*
X039570Y008275D01*
X039570Y008157D02*
X036563Y008157D01*
X035850Y008512D02*
X031125Y008512D01*
X031244Y008631D02*
X035859Y008631D01*
X036420Y008749D02*
X031362Y008749D01*
X031481Y008868D02*
X036539Y008868D01*
X036657Y008986D02*
X031599Y008986D01*
X031718Y009105D02*
X036776Y009105D01*
X036735Y009064D02*
X036735Y009064D01*
X036894Y009223D02*
X031836Y009223D01*
X031920Y009342D02*
X037013Y009342D01*
X037131Y009460D02*
X031920Y009460D01*
X031920Y009579D02*
X037250Y009579D01*
X037368Y009697D02*
X031920Y009697D01*
X031920Y009816D02*
X037487Y009816D01*
X037605Y009934D02*
X031920Y009934D01*
X031560Y009934D02*
X025350Y009934D01*
X025350Y009816D02*
X031560Y009816D01*
X031560Y009697D02*
X025350Y009697D01*
X025350Y009579D02*
X031560Y009579D01*
X031560Y009460D02*
X025350Y009460D01*
X025350Y009342D02*
X031446Y009342D01*
X031327Y009223D02*
X025350Y009223D01*
X025350Y009105D02*
X031209Y009105D01*
X031090Y008986D02*
X025350Y008986D01*
X025350Y008868D02*
X030972Y008868D01*
X030853Y008749D02*
X025320Y008749D01*
X025201Y008631D02*
X030347Y008631D01*
X030338Y010053D02*
X025350Y010053D01*
X025350Y010171D02*
X030338Y010171D01*
X031051Y010053D02*
X031560Y010053D01*
X031560Y010171D02*
X031302Y010171D01*
X031420Y010290D02*
X031560Y010290D01*
X031560Y010408D02*
X031539Y010408D01*
X031148Y010527D02*
X031051Y010527D01*
X033217Y007764D02*
X033100Y007647D01*
X033037Y007584D01*
X033008Y007584D01*
X032913Y007544D01*
X032892Y007524D01*
X026988Y007524D01*
X026967Y007544D01*
X026872Y007584D01*
X026768Y007584D01*
X026673Y007544D01*
X026652Y007524D01*
X020388Y007524D01*
X020367Y007544D01*
X020272Y007584D01*
X020168Y007584D01*
X020073Y007544D01*
X020052Y007524D01*
X013608Y007524D01*
X013587Y007544D01*
X013492Y007584D01*
X013388Y007584D01*
X013293Y007544D01*
X013272Y007524D01*
X007357Y007524D01*
X007328Y007524D01*
X007233Y007484D01*
X007212Y007464D01*
X000948Y007464D01*
X000927Y007484D01*
X000832Y007524D01*
X000728Y007524D01*
X000633Y007484D01*
X000560Y007411D01*
X000520Y007316D01*
X000520Y007212D01*
X000560Y007117D01*
X000633Y007044D01*
X000728Y007004D01*
X000832Y007004D01*
X000927Y007044D01*
X000948Y007064D01*
X007212Y007064D01*
X007233Y007044D01*
X007328Y007004D01*
X007432Y007004D01*
X007527Y007044D01*
X007600Y007117D01*
X007603Y007124D01*
X013272Y007124D01*
X013293Y007104D01*
X013388Y007064D01*
X013492Y007064D01*
X013587Y007104D01*
X013608Y007124D01*
X020052Y007124D01*
X020073Y007104D01*
X020168Y007064D01*
X020272Y007064D01*
X020367Y007104D01*
X020388Y007124D01*
X026652Y007124D01*
X026673Y007104D01*
X026768Y007064D01*
X026872Y007064D01*
X026967Y007104D01*
X026988Y007124D01*
X032892Y007124D01*
X032913Y007104D01*
X033008Y007064D01*
X033112Y007064D01*
X033207Y007104D01*
X033280Y007177D01*
X033320Y007272D01*
X033320Y007301D01*
X033383Y007364D01*
X037452Y007364D01*
X037473Y007344D01*
X037568Y007304D01*
X037672Y007304D01*
X037767Y007344D01*
X037840Y007417D01*
X037880Y007512D01*
X037880Y007616D01*
X037840Y007711D01*
X037767Y007784D01*
X037672Y007824D01*
X037568Y007824D01*
X037473Y007784D01*
X037452Y007764D01*
X033217Y007764D01*
X033136Y007683D02*
X000520Y007683D01*
X000520Y007801D02*
X037513Y007801D01*
X037727Y007801D02*
X039570Y007801D01*
X039570Y007683D02*
X037852Y007683D01*
X037880Y007564D02*
X039570Y007564D01*
X039570Y007446D02*
X037852Y007446D01*
X037727Y007327D02*
X039570Y007327D01*
X039570Y007209D02*
X033294Y007209D01*
X033346Y007327D02*
X037513Y007327D01*
X039570Y007090D02*
X033175Y007090D01*
X032945Y007090D02*
X026935Y007090D01*
X026705Y007090D02*
X020335Y007090D01*
X020105Y007090D02*
X013555Y007090D01*
X013325Y007090D02*
X007574Y007090D01*
X009005Y005252D02*
X008886Y005134D01*
X008823Y004979D01*
X008823Y004212D01*
X008886Y004058D01*
X009005Y003940D01*
X009159Y003876D01*
X009326Y003876D01*
X009480Y003940D01*
X009599Y004058D01*
X009663Y004212D01*
X009663Y004979D01*
X009599Y005134D01*
X009480Y005252D01*
X009326Y005316D01*
X009159Y005316D01*
X009005Y005252D01*
X008947Y005194D02*
X005693Y005194D01*
X005635Y005252D02*
X005481Y005316D01*
X005313Y005316D01*
X005159Y005252D01*
X005041Y005134D01*
X004977Y004979D01*
X004977Y004212D01*
X005041Y004058D01*
X005159Y003940D01*
X005313Y003876D01*
X005481Y003876D01*
X005635Y003940D01*
X005753Y004058D01*
X005817Y004212D01*
X005817Y004979D01*
X005753Y005134D01*
X005635Y005252D01*
X005488Y005313D02*
X009151Y005313D01*
X009334Y005313D02*
X010151Y005313D01*
X010159Y005316D02*
X010005Y005252D01*
X009886Y005134D01*
X009823Y004979D01*
X009823Y004212D01*
X009886Y004058D01*
X010005Y003940D01*
X010159Y003876D01*
X010326Y003876D01*
X010480Y003940D01*
X010599Y004058D01*
X010663Y004212D01*
X010663Y004979D01*
X010599Y005134D01*
X010480Y005252D01*
X010326Y005316D01*
X010159Y005316D01*
X010334Y005313D02*
X011151Y005313D01*
X011159Y005316D02*
X011005Y005252D01*
X010886Y005134D01*
X010823Y004979D01*
X010823Y004212D01*
X010886Y004058D01*
X011005Y003940D01*
X011159Y003876D01*
X011326Y003876D01*
X011480Y003940D01*
X011599Y004058D01*
X011663Y004212D01*
X011663Y004979D01*
X011599Y005134D01*
X011480Y005252D01*
X011326Y005316D01*
X011159Y005316D01*
X011334Y005313D02*
X015604Y005313D01*
X015612Y005316D02*
X015458Y005252D01*
X015339Y005134D01*
X015275Y004979D01*
X015275Y004212D01*
X015339Y004058D01*
X015458Y003940D01*
X015612Y003876D01*
X015779Y003876D01*
X015933Y003940D01*
X016051Y004058D01*
X016115Y004212D01*
X016115Y004979D01*
X016051Y005134D01*
X015933Y005252D01*
X015779Y005316D01*
X015612Y005316D01*
X015787Y005313D02*
X016604Y005313D01*
X016612Y005316D02*
X016458Y005252D01*
X016339Y005134D01*
X016275Y004979D01*
X016275Y004212D01*
X016339Y004058D01*
X016458Y003940D01*
X016612Y003876D01*
X016779Y003876D01*
X016933Y003940D01*
X017051Y004058D01*
X017115Y004212D01*
X017115Y004979D01*
X017051Y005134D01*
X016933Y005252D01*
X016779Y005316D01*
X016612Y005316D01*
X016787Y005313D02*
X017604Y005313D01*
X017612Y005316D02*
X017458Y005252D01*
X017339Y005134D01*
X017275Y004979D01*
X017275Y004212D01*
X017339Y004058D01*
X017458Y003940D01*
X017612Y003876D01*
X017779Y003876D01*
X017933Y003940D01*
X018051Y004058D01*
X018115Y004212D01*
X018115Y004979D01*
X018051Y005134D01*
X017933Y005252D01*
X017779Y005316D01*
X017612Y005316D01*
X017787Y005313D02*
X022331Y005313D01*
X022339Y005316D02*
X022184Y005252D01*
X022066Y005134D01*
X022002Y004979D01*
X022002Y004212D01*
X022066Y004058D01*
X022184Y003940D01*
X022339Y003876D01*
X022506Y003876D01*
X022660Y003940D01*
X022778Y004058D01*
X022842Y004212D01*
X022842Y004979D01*
X022778Y005134D01*
X022660Y005252D01*
X022506Y005316D01*
X022339Y005316D01*
X022513Y005313D02*
X023331Y005313D01*
X023339Y005316D02*
X023184Y005252D01*
X023066Y005134D01*
X023002Y004979D01*
X023002Y004212D01*
X023066Y004058D01*
X023184Y003940D01*
X023339Y003876D01*
X023506Y003876D01*
X023660Y003940D01*
X023778Y004058D01*
X023842Y004212D01*
X023842Y004979D01*
X023778Y005134D01*
X023660Y005252D01*
X023506Y005316D01*
X023339Y005316D01*
X023513Y005313D02*
X024331Y005313D01*
X024339Y005316D02*
X024184Y005252D01*
X024066Y005134D01*
X024002Y004979D01*
X024002Y004212D01*
X024066Y004058D01*
X024184Y003940D01*
X024339Y003876D01*
X024506Y003876D01*
X024660Y003940D01*
X024778Y004058D01*
X024842Y004212D01*
X024842Y004979D01*
X024778Y005134D01*
X024660Y005252D01*
X024506Y005316D01*
X024339Y005316D01*
X024513Y005313D02*
X028690Y005313D01*
X028698Y005316D02*
X028543Y005252D01*
X028425Y005134D01*
X028361Y004979D01*
X028361Y004212D01*
X028425Y004058D01*
X028543Y003940D01*
X028698Y003876D01*
X028865Y003876D01*
X029019Y003940D01*
X029137Y004058D01*
X029201Y004212D01*
X029201Y004979D01*
X029137Y005134D01*
X029019Y005252D01*
X028865Y005316D01*
X028698Y005316D01*
X028872Y005313D02*
X029690Y005313D01*
X029698Y005316D02*
X029543Y005252D01*
X029425Y005134D01*
X029361Y004979D01*
X029361Y004212D01*
X029425Y004058D01*
X029543Y003940D01*
X029698Y003876D01*
X029865Y003876D01*
X030019Y003940D01*
X030137Y004058D01*
X030201Y004212D01*
X030201Y004979D01*
X030137Y005134D01*
X030019Y005252D01*
X029865Y005316D01*
X029698Y005316D01*
X029872Y005313D02*
X030690Y005313D01*
X030698Y005316D02*
X030543Y005252D01*
X030425Y005134D01*
X030361Y004979D01*
X030361Y004212D01*
X030425Y004058D01*
X030543Y003940D01*
X030698Y003876D01*
X030865Y003876D01*
X031019Y003940D01*
X031137Y004058D01*
X031201Y004212D01*
X031201Y004979D01*
X031137Y005134D01*
X031019Y005252D01*
X030865Y005316D01*
X030698Y005316D01*
X030872Y005313D02*
X034202Y005313D01*
X034210Y005316D02*
X034055Y005252D01*
X033937Y005134D01*
X033873Y004979D01*
X033873Y004212D01*
X033937Y004058D01*
X034055Y003940D01*
X034210Y003876D01*
X034377Y003876D01*
X034531Y003940D01*
X034649Y004058D01*
X034713Y004212D01*
X034713Y004979D01*
X034649Y005134D01*
X034531Y005252D01*
X034377Y005316D01*
X034210Y005316D01*
X034384Y005313D02*
X035202Y005313D01*
X035210Y005316D02*
X035055Y005252D01*
X034937Y005134D01*
X034873Y004979D01*
X034873Y004212D01*
X034937Y004058D01*
X035055Y003940D01*
X035210Y003876D01*
X035377Y003876D01*
X035531Y003940D01*
X035649Y004058D01*
X035713Y004212D01*
X035713Y004979D01*
X035649Y005134D01*
X035531Y005252D01*
X035377Y005316D01*
X035210Y005316D01*
X035384Y005313D02*
X036202Y005313D01*
X036210Y005316D02*
X036055Y005252D01*
X035937Y005134D01*
X035873Y004979D01*
X035873Y004212D01*
X035937Y004058D01*
X036055Y003940D01*
X036210Y003876D01*
X036377Y003876D01*
X036531Y003940D01*
X036649Y004058D01*
X036713Y004212D01*
X036713Y004979D01*
X036649Y005134D01*
X036531Y005252D01*
X036377Y005316D01*
X036210Y005316D01*
X036384Y005313D02*
X039570Y005313D01*
X039570Y005431D02*
X000520Y005431D01*
X000520Y005313D02*
X003306Y005313D01*
X003313Y005316D02*
X003159Y005252D01*
X003041Y005134D01*
X002977Y004979D01*
X002977Y004212D01*
X003041Y004058D01*
X003159Y003940D01*
X003313Y003876D01*
X003481Y003876D01*
X003635Y003940D01*
X003753Y004058D01*
X003817Y004212D01*
X003817Y004979D01*
X003753Y005134D01*
X003635Y005252D01*
X003481Y005316D01*
X003313Y005316D01*
X003488Y005313D02*
X004306Y005313D01*
X004313Y005316D02*
X004159Y005252D01*
X004041Y005134D01*
X003977Y004979D01*
X003977Y004212D01*
X004041Y004058D01*
X004159Y003940D01*
X004313Y003876D01*
X004481Y003876D01*
X004635Y003940D01*
X004753Y004058D01*
X004817Y004212D01*
X004817Y004979D01*
X004753Y005134D01*
X004635Y005252D01*
X004481Y005316D01*
X004313Y005316D01*
X004488Y005313D02*
X005306Y005313D01*
X005101Y005194D02*
X004693Y005194D01*
X004777Y005076D02*
X005017Y005076D01*
X004977Y004957D02*
X004817Y004957D01*
X004817Y004839D02*
X004977Y004839D01*
X004977Y004720D02*
X004817Y004720D01*
X004817Y004602D02*
X004977Y004602D01*
X004977Y004483D02*
X004817Y004483D01*
X004817Y004365D02*
X004977Y004365D01*
X004977Y004246D02*
X004817Y004246D01*
X004782Y004128D02*
X005012Y004128D01*
X005090Y004009D02*
X004704Y004009D01*
X004516Y003891D02*
X005278Y003891D01*
X005516Y003891D02*
X009123Y003891D01*
X008935Y004009D02*
X005704Y004009D01*
X005782Y004128D02*
X008858Y004128D01*
X008823Y004246D02*
X005817Y004246D01*
X005817Y004365D02*
X008823Y004365D01*
X008823Y004483D02*
X005817Y004483D01*
X005817Y004602D02*
X008823Y004602D01*
X008823Y004720D02*
X005817Y004720D01*
X005817Y004839D02*
X008823Y004839D01*
X008823Y004957D02*
X005817Y004957D01*
X005777Y005076D02*
X008862Y005076D01*
X009538Y005194D02*
X009947Y005194D01*
X009862Y005076D02*
X009623Y005076D01*
X009663Y004957D02*
X009823Y004957D01*
X009823Y004839D02*
X009663Y004839D01*
X009663Y004720D02*
X009823Y004720D01*
X009823Y004602D02*
X009663Y004602D01*
X009663Y004483D02*
X009823Y004483D01*
X009823Y004365D02*
X009663Y004365D01*
X009663Y004246D02*
X009823Y004246D01*
X009858Y004128D02*
X009627Y004128D01*
X009550Y004009D02*
X009935Y004009D01*
X010123Y003891D02*
X009362Y003891D01*
X010362Y003891D02*
X011123Y003891D01*
X010935Y004009D02*
X010550Y004009D01*
X010627Y004128D02*
X010858Y004128D01*
X010823Y004246D02*
X010663Y004246D01*
X010663Y004365D02*
X010823Y004365D01*
X010823Y004483D02*
X010663Y004483D01*
X010663Y004602D02*
X010823Y004602D01*
X010823Y004720D02*
X010663Y004720D01*
X010663Y004839D02*
X010823Y004839D01*
X010823Y004957D02*
X010663Y004957D01*
X010623Y005076D02*
X010862Y005076D01*
X010947Y005194D02*
X010538Y005194D01*
X011538Y005194D02*
X015400Y005194D01*
X015315Y005076D02*
X011623Y005076D01*
X011663Y004957D02*
X015275Y004957D01*
X015275Y004839D02*
X011663Y004839D01*
X011663Y004720D02*
X015275Y004720D01*
X015275Y004602D02*
X011663Y004602D01*
X011663Y004483D02*
X015275Y004483D01*
X015275Y004365D02*
X011663Y004365D01*
X011663Y004246D02*
X015275Y004246D01*
X015310Y004128D02*
X011627Y004128D01*
X011550Y004009D02*
X015388Y004009D01*
X015576Y003891D02*
X011362Y003891D01*
X015815Y003891D02*
X016576Y003891D01*
X016388Y004009D02*
X016003Y004009D01*
X016080Y004128D02*
X016310Y004128D01*
X016275Y004246D02*
X016115Y004246D01*
X016115Y004365D02*
X016275Y004365D01*
X016275Y004483D02*
X016115Y004483D01*
X016115Y004602D02*
X016275Y004602D01*
X016275Y004720D02*
X016115Y004720D01*
X016115Y004839D02*
X016275Y004839D01*
X016275Y004957D02*
X016115Y004957D01*
X016076Y005076D02*
X016315Y005076D01*
X016400Y005194D02*
X015991Y005194D01*
X016991Y005194D02*
X017400Y005194D01*
X017315Y005076D02*
X017076Y005076D01*
X017115Y004957D02*
X017275Y004957D01*
X017275Y004839D02*
X017115Y004839D01*
X017115Y004720D02*
X017275Y004720D01*
X017275Y004602D02*
X017115Y004602D01*
X017115Y004483D02*
X017275Y004483D01*
X017275Y004365D02*
X017115Y004365D01*
X017115Y004246D02*
X017275Y004246D01*
X017310Y004128D02*
X017080Y004128D01*
X017003Y004009D02*
X017388Y004009D01*
X017576Y003891D02*
X016815Y003891D01*
X017815Y003891D02*
X022303Y003891D01*
X022115Y004009D02*
X018003Y004009D01*
X018080Y004128D02*
X022037Y004128D01*
X022002Y004246D02*
X018115Y004246D01*
X018115Y004365D02*
X022002Y004365D01*
X022002Y004483D02*
X018115Y004483D01*
X018115Y004602D02*
X022002Y004602D01*
X022002Y004720D02*
X018115Y004720D01*
X018115Y004839D02*
X022002Y004839D01*
X022002Y004957D02*
X018115Y004957D01*
X018076Y005076D02*
X022042Y005076D01*
X022126Y005194D02*
X017991Y005194D01*
X020120Y007564D02*
X013540Y007564D01*
X013340Y007564D02*
X000520Y007564D01*
X000520Y007446D02*
X000594Y007446D01*
X000525Y007327D02*
X000520Y007327D01*
X000520Y007209D02*
X000522Y007209D01*
X000520Y007090D02*
X000586Y007090D01*
X000520Y006972D02*
X039570Y006972D01*
X039570Y006853D02*
X000520Y006853D01*
X000520Y006735D02*
X039570Y006735D01*
X039570Y006616D02*
X000520Y006616D01*
X000520Y006498D02*
X039570Y006498D01*
X039570Y006379D02*
X000520Y006379D01*
X000520Y006261D02*
X039570Y006261D01*
X039570Y006142D02*
X000520Y006142D01*
X000520Y006024D02*
X039570Y006024D01*
X039570Y005905D02*
X000520Y005905D01*
X000520Y005787D02*
X039570Y005787D01*
X039570Y005668D02*
X000520Y005668D01*
X000520Y005550D02*
X039570Y005550D01*
X039570Y005194D02*
X036589Y005194D01*
X036673Y005076D02*
X039570Y005076D01*
X039570Y004957D02*
X036713Y004957D01*
X036713Y004839D02*
X039570Y004839D01*
X039570Y004720D02*
X036713Y004720D01*
X036713Y004602D02*
X039570Y004602D01*
X039570Y004483D02*
X036713Y004483D01*
X036713Y004365D02*
X039570Y004365D01*
X039570Y004246D02*
X036713Y004246D01*
X036678Y004128D02*
X039570Y004128D01*
X039570Y004009D02*
X036600Y004009D01*
X036412Y003891D02*
X039570Y003891D01*
X039570Y003772D02*
X001936Y003772D01*
X001937Y003654D02*
X039570Y003654D01*
X039570Y003535D02*
X001937Y003535D01*
X001922Y003417D02*
X039570Y003417D01*
X039570Y003298D02*
X001873Y003298D01*
X001824Y003180D02*
X039566Y003180D01*
X039504Y003061D02*
X001714Y003061D01*
X001887Y003891D02*
X003278Y003891D01*
X003090Y004009D02*
X001838Y004009D01*
X001748Y004128D02*
X003012Y004128D01*
X002977Y004246D02*
X001630Y004246D01*
X001393Y004365D02*
X002977Y004365D01*
X002977Y004483D02*
X000520Y004483D01*
X000520Y004365D02*
X000901Y004365D01*
X000665Y004246D02*
X000520Y004246D01*
X000520Y004128D02*
X000546Y004128D01*
X000520Y004602D02*
X002977Y004602D01*
X002977Y004720D02*
X000520Y004720D01*
X000520Y004839D02*
X002977Y004839D01*
X002977Y004957D02*
X000520Y004957D01*
X000520Y005076D02*
X003017Y005076D01*
X003101Y005194D02*
X000520Y005194D01*
X003693Y005194D02*
X004101Y005194D01*
X004017Y005076D02*
X003777Y005076D01*
X003817Y004957D02*
X003977Y004957D01*
X003977Y004839D02*
X003817Y004839D01*
X003817Y004720D02*
X003977Y004720D01*
X003977Y004602D02*
X003817Y004602D01*
X003817Y004483D02*
X003977Y004483D01*
X003977Y004365D02*
X003817Y004365D01*
X003817Y004246D02*
X003977Y004246D01*
X004012Y004128D02*
X003782Y004128D01*
X003704Y004009D02*
X004090Y004009D01*
X004278Y003891D02*
X003516Y003891D01*
X011354Y008038D02*
X016964Y008038D01*
X016953Y008157D02*
X011366Y008157D01*
X011366Y008275D02*
X016953Y008275D01*
X016953Y008394D02*
X011366Y008394D01*
X011440Y008512D02*
X016953Y008512D01*
X016961Y008631D02*
X011559Y008631D01*
X011010Y008336D02*
X013958Y011284D01*
X018820Y011284D01*
X019800Y012264D01*
X019800Y013523D01*
X019790Y013533D01*
X020009Y013489D02*
X021323Y013489D01*
X021323Y013371D02*
X020009Y013371D01*
X019980Y013252D02*
X021360Y013252D01*
X021245Y013134D02*
X019980Y013134D01*
X019980Y013015D02*
X021126Y013015D01*
X021008Y012897D02*
X019980Y012897D01*
X019980Y012778D02*
X020889Y012778D01*
X020771Y012660D02*
X019980Y012660D01*
X019980Y012541D02*
X020652Y012541D01*
X020534Y012423D02*
X019980Y012423D01*
X019980Y012304D02*
X020415Y012304D01*
X020297Y012186D02*
X019976Y012186D01*
X019858Y012067D02*
X020178Y012067D01*
X020060Y011949D02*
X019739Y011949D01*
X019621Y011830D02*
X019941Y011830D01*
X019823Y011712D02*
X019502Y011712D01*
X019384Y011593D02*
X019704Y011593D01*
X019586Y011475D02*
X019265Y011475D01*
X019147Y011356D02*
X019467Y011356D01*
X019349Y011238D02*
X019028Y011238D01*
X018910Y011119D02*
X019230Y011119D01*
X019112Y011001D02*
X013929Y011001D01*
X013810Y010882D02*
X018993Y010882D01*
X018875Y010764D02*
X013692Y010764D01*
X013185Y011238D02*
X008593Y011238D01*
X008712Y011356D02*
X013303Y011356D01*
X013422Y011475D02*
X008830Y011475D01*
X008475Y011119D02*
X013066Y011119D01*
X012948Y011001D02*
X008356Y011001D01*
X008238Y010882D02*
X012829Y010882D01*
X012711Y010764D02*
X008119Y010764D01*
X006727Y011712D02*
X000520Y011712D01*
X000520Y011830D02*
X006846Y011830D01*
X006964Y011949D02*
X005624Y011949D01*
X005696Y012067D02*
X007083Y012067D01*
X007201Y012186D02*
X005776Y012186D01*
X005895Y012304D02*
X007320Y012304D01*
X007438Y012423D02*
X006013Y012423D01*
X006132Y012541D02*
X007557Y012541D01*
X006120Y012784D02*
X009720Y012784D01*
X010500Y013564D01*
X010500Y015604D01*
X011400Y016504D01*
X011400Y018244D01*
X011491Y018466D02*
X012329Y018466D01*
X012203Y018348D02*
X011617Y018348D01*
X011640Y018229D02*
X012165Y018229D01*
X012046Y018111D02*
X011604Y018111D01*
X011580Y017992D02*
X011928Y017992D01*
X011809Y017874D02*
X011580Y017874D01*
X011580Y017755D02*
X011691Y017755D01*
X011220Y017755D02*
X000520Y017755D01*
X000520Y017637D02*
X011220Y017637D01*
X011220Y017518D02*
X000520Y017518D01*
X000520Y017400D02*
X011220Y017400D01*
X011220Y017281D02*
X000520Y017281D01*
X000520Y017163D02*
X011220Y017163D01*
X011220Y017044D02*
X000520Y017044D01*
X000520Y016926D02*
X011220Y016926D01*
X011220Y016807D02*
X000520Y016807D01*
X000520Y016689D02*
X011220Y016689D01*
X011211Y016570D02*
X000520Y016570D01*
X000520Y016452D02*
X011093Y016452D01*
X010974Y016333D02*
X000520Y016333D01*
X000520Y016215D02*
X010856Y016215D01*
X010737Y016096D02*
X000520Y016096D01*
X000520Y015978D02*
X010619Y015978D01*
X010500Y015859D02*
X000520Y015859D01*
X000520Y015741D02*
X010382Y015741D01*
X010320Y015622D02*
X009216Y015622D01*
X009242Y015611D02*
X009079Y015679D01*
X008901Y015679D01*
X008738Y015611D01*
X008613Y015486D01*
X008545Y015323D01*
X008545Y015145D01*
X008613Y014982D01*
X008738Y014857D01*
X008901Y014789D01*
X009079Y014789D01*
X009242Y014857D01*
X009367Y014982D01*
X009435Y015145D01*
X009435Y015323D01*
X009367Y015486D01*
X009242Y015611D01*
X009350Y015504D02*
X010320Y015504D01*
X010320Y015385D02*
X009409Y015385D01*
X009435Y015267D02*
X010320Y015267D01*
X010320Y015148D02*
X009435Y015148D01*
X009387Y015030D02*
X010320Y015030D01*
X010320Y014911D02*
X009296Y014911D01*
X009087Y014793D02*
X010320Y014793D01*
X010320Y014674D02*
X000520Y014674D01*
X000520Y014556D02*
X010320Y014556D01*
X010320Y014437D02*
X000520Y014437D01*
X000520Y014319D02*
X010320Y014319D01*
X010320Y014200D02*
X000520Y014200D01*
X000520Y014082D02*
X010320Y014082D01*
X010320Y013963D02*
X000520Y013963D01*
X000520Y013845D02*
X010320Y013845D01*
X010320Y013726D02*
X000520Y013726D01*
X000520Y013608D02*
X010289Y013608D01*
X010170Y013489D02*
X000520Y013489D01*
X000520Y013371D02*
X010052Y013371D01*
X009933Y013252D02*
X000520Y013252D01*
X000520Y013134D02*
X009815Y013134D01*
X009696Y013015D02*
X000520Y013015D01*
X000520Y012897D02*
X005978Y012897D01*
X005859Y012778D02*
X000520Y012778D01*
X000520Y012660D02*
X005741Y012660D01*
X005622Y012541D02*
X000520Y012541D01*
X000520Y012423D02*
X005504Y012423D01*
X005301Y012304D02*
X000520Y012304D01*
X000520Y012186D02*
X005226Y012186D01*
X005224Y012067D02*
X000520Y012067D01*
X000520Y011949D02*
X005296Y011949D01*
X005460Y012124D02*
X006120Y012784D01*
X006609Y011593D02*
X000520Y011593D01*
X000520Y011475D02*
X006490Y011475D01*
X006372Y011356D02*
X000520Y011356D01*
X000520Y011238D02*
X006253Y011238D01*
X006135Y011119D02*
X000520Y011119D01*
X000520Y011001D02*
X006016Y011001D01*
X005799Y010882D02*
X000520Y010882D01*
X000520Y010764D02*
X005713Y010764D01*
X005700Y010645D02*
X005406Y010645D01*
X005460Y010527D02*
X005758Y010527D01*
X004803Y010645D02*
X000520Y010645D01*
X000520Y010527D02*
X004748Y010527D01*
X004748Y010408D02*
X000520Y010408D01*
X000520Y010290D02*
X004748Y010290D01*
X004748Y010171D02*
X000520Y010171D01*
X000520Y010053D02*
X004748Y010053D01*
X012110Y014082D02*
X015943Y014082D01*
X015855Y014200D02*
X012110Y014200D01*
X012110Y014319D02*
X015840Y014319D01*
X015894Y014437D02*
X012110Y014437D01*
X012110Y014556D02*
X016090Y014556D01*
X016090Y014674D02*
X012110Y014674D01*
X012110Y014793D02*
X016090Y014793D01*
X016090Y014911D02*
X012110Y014911D01*
X012110Y015030D02*
X016090Y015030D01*
X016090Y015148D02*
X012110Y015148D01*
X012110Y015267D02*
X016090Y015267D01*
X016090Y015385D02*
X012110Y015385D01*
X012110Y015504D02*
X016090Y015504D01*
X016090Y015622D02*
X012110Y015622D01*
X012110Y015741D02*
X016090Y015741D01*
X016090Y015859D02*
X015975Y015859D01*
X015830Y016194D02*
X015610Y016194D01*
X015550Y016254D01*
X014869Y016254D01*
X014836Y016287D01*
X014748Y016324D01*
X014652Y016324D01*
X014564Y016287D01*
X014497Y016220D01*
X014460Y016132D01*
X014494Y016215D02*
X013631Y016215D01*
X013560Y016144D02*
X013930Y016514D01*
X015361Y016514D01*
X015397Y016428D01*
X015464Y016361D01*
X015552Y016324D01*
X015648Y016324D01*
X015736Y016361D01*
X015803Y016428D01*
X015840Y016516D01*
X015840Y016564D01*
X015850Y016574D01*
X015850Y016214D01*
X015830Y016194D01*
X015850Y016215D02*
X015590Y016215D01*
X015530Y016333D02*
X013749Y016333D01*
X013868Y016452D02*
X015387Y016452D01*
X015670Y016333D02*
X015850Y016333D01*
X015850Y016452D02*
X015813Y016452D01*
X015846Y016570D02*
X015850Y016570D01*
X015361Y016926D02*
X012110Y016926D01*
X012110Y017044D02*
X015370Y017044D01*
X015370Y017163D02*
X012110Y017163D01*
X012117Y017281D02*
X015370Y017281D01*
X015370Y017400D02*
X012236Y017400D01*
X012354Y017518D02*
X015370Y017518D01*
X013743Y016807D02*
X012110Y016807D01*
X012110Y016689D02*
X013624Y016689D01*
X013506Y016570D02*
X012110Y016570D01*
X012110Y016452D02*
X013387Y016452D01*
X013170Y016333D02*
X012110Y016333D01*
X012110Y016215D02*
X013089Y016215D01*
X013080Y016096D02*
X013117Y016008D01*
X013493Y015978D02*
X014484Y015978D01*
X014616Y015859D02*
X012110Y015859D01*
X013560Y016096D02*
X013560Y016144D01*
X014784Y015859D02*
X015465Y015859D01*
X019960Y015859D02*
X020290Y015859D01*
X020290Y015741D02*
X019960Y015741D01*
X019960Y015622D02*
X020290Y015622D01*
X020320Y015504D02*
X019960Y015504D01*
X019960Y015385D02*
X020439Y015385D01*
X020557Y015267D02*
X019960Y015267D01*
X019960Y015148D02*
X020676Y015148D01*
X020794Y015030D02*
X019960Y015030D01*
X019960Y014911D02*
X020913Y014911D01*
X021031Y014793D02*
X019960Y014793D01*
X019960Y014674D02*
X021150Y014674D01*
X021268Y014556D02*
X019960Y014556D01*
X019961Y014437D02*
X021370Y014437D01*
X021323Y014319D02*
X020009Y014319D01*
X020009Y014200D02*
X021323Y014200D01*
X021323Y014082D02*
X020009Y014082D01*
X020009Y013963D02*
X021323Y013963D01*
X021323Y013726D02*
X020009Y013726D01*
X020009Y013608D02*
X021323Y013608D01*
X022171Y013533D02*
X022171Y011523D01*
X022470Y011224D01*
X024150Y011224D01*
X024780Y011524D02*
X022710Y011524D01*
X022486Y011748D01*
X022486Y013533D01*
X021991Y012897D02*
X021967Y012897D01*
X021991Y012778D02*
X021849Y012778D01*
X021730Y012660D02*
X021991Y012660D01*
X021991Y012541D02*
X021612Y012541D01*
X021493Y012423D02*
X021991Y012423D01*
X021991Y012304D02*
X021375Y012304D01*
X021256Y012186D02*
X021991Y012186D01*
X021991Y012067D02*
X021138Y012067D01*
X021019Y011949D02*
X021991Y011949D01*
X021991Y011830D02*
X020901Y011830D01*
X020782Y011712D02*
X021991Y011712D01*
X021991Y011593D02*
X020664Y011593D01*
X020545Y011475D02*
X021991Y011475D01*
X022083Y011356D02*
X020427Y011356D01*
X020308Y011238D02*
X022202Y011238D01*
X022320Y011119D02*
X020190Y011119D01*
X018756Y010645D02*
X017610Y010645D01*
X017665Y010527D02*
X018638Y010527D01*
X017665Y008275D02*
X024039Y008275D01*
X024039Y008157D02*
X017665Y008157D01*
X017653Y008038D02*
X024051Y008038D01*
X026720Y007564D02*
X020320Y007564D01*
X022718Y005194D02*
X023126Y005194D01*
X023042Y005076D02*
X022802Y005076D01*
X022842Y004957D02*
X023002Y004957D01*
X023002Y004839D02*
X022842Y004839D01*
X022842Y004720D02*
X023002Y004720D01*
X023002Y004602D02*
X022842Y004602D01*
X022842Y004483D02*
X023002Y004483D01*
X023002Y004365D02*
X022842Y004365D01*
X022842Y004246D02*
X023002Y004246D01*
X023037Y004128D02*
X022807Y004128D01*
X022729Y004009D02*
X023115Y004009D01*
X023303Y003891D02*
X022541Y003891D01*
X023541Y003891D02*
X024303Y003891D01*
X024115Y004009D02*
X023729Y004009D01*
X023807Y004128D02*
X024037Y004128D01*
X024002Y004246D02*
X023842Y004246D01*
X023842Y004365D02*
X024002Y004365D01*
X024002Y004483D02*
X023842Y004483D01*
X023842Y004602D02*
X024002Y004602D01*
X024002Y004720D02*
X023842Y004720D01*
X023842Y004839D02*
X024002Y004839D01*
X024002Y004957D02*
X023842Y004957D01*
X023802Y005076D02*
X024042Y005076D01*
X024126Y005194D02*
X023718Y005194D01*
X024718Y005194D02*
X028486Y005194D01*
X028401Y005076D02*
X024802Y005076D01*
X024842Y004957D02*
X028361Y004957D01*
X028361Y004839D02*
X024842Y004839D01*
X024842Y004720D02*
X028361Y004720D01*
X028361Y004602D02*
X024842Y004602D01*
X024842Y004483D02*
X028361Y004483D01*
X028361Y004365D02*
X024842Y004365D01*
X024842Y004246D02*
X028361Y004246D01*
X028396Y004128D02*
X024807Y004128D01*
X024729Y004009D02*
X028474Y004009D01*
X028662Y003891D02*
X024541Y003891D01*
X028901Y003891D02*
X029662Y003891D01*
X029474Y004009D02*
X029089Y004009D01*
X029166Y004128D02*
X029396Y004128D01*
X029361Y004246D02*
X029201Y004246D01*
X029201Y004365D02*
X029361Y004365D01*
X029361Y004483D02*
X029201Y004483D01*
X029201Y004602D02*
X029361Y004602D01*
X029361Y004720D02*
X029201Y004720D01*
X029201Y004839D02*
X029361Y004839D01*
X029361Y004957D02*
X029201Y004957D01*
X029161Y005076D02*
X029401Y005076D01*
X029486Y005194D02*
X029077Y005194D01*
X030077Y005194D02*
X030486Y005194D01*
X030401Y005076D02*
X030161Y005076D01*
X030201Y004957D02*
X030361Y004957D01*
X030361Y004839D02*
X030201Y004839D01*
X030201Y004720D02*
X030361Y004720D01*
X030361Y004602D02*
X030201Y004602D01*
X030201Y004483D02*
X030361Y004483D01*
X030361Y004365D02*
X030201Y004365D01*
X030201Y004246D02*
X030361Y004246D01*
X030396Y004128D02*
X030166Y004128D01*
X030089Y004009D02*
X030474Y004009D01*
X030662Y003891D02*
X029901Y003891D01*
X030901Y003891D02*
X034174Y003891D01*
X033986Y004009D02*
X031089Y004009D01*
X031166Y004128D02*
X033908Y004128D01*
X033873Y004246D02*
X031201Y004246D01*
X031201Y004365D02*
X033873Y004365D01*
X033873Y004483D02*
X031201Y004483D01*
X031201Y004602D02*
X033873Y004602D01*
X033873Y004720D02*
X031201Y004720D01*
X031201Y004839D02*
X033873Y004839D01*
X033873Y004957D02*
X031201Y004957D01*
X031161Y005076D02*
X033913Y005076D01*
X033997Y005194D02*
X031077Y005194D01*
X034412Y003891D02*
X035174Y003891D01*
X034986Y004009D02*
X034600Y004009D01*
X034678Y004128D02*
X034908Y004128D01*
X034873Y004246D02*
X034713Y004246D01*
X034713Y004365D02*
X034873Y004365D01*
X034873Y004483D02*
X034713Y004483D01*
X034713Y004602D02*
X034873Y004602D01*
X034873Y004720D02*
X034713Y004720D01*
X034713Y004839D02*
X034873Y004839D01*
X034873Y004957D02*
X034713Y004957D01*
X034673Y005076D02*
X034913Y005076D01*
X034997Y005194D02*
X034589Y005194D01*
X035589Y005194D02*
X035997Y005194D01*
X035913Y005076D02*
X035673Y005076D01*
X035713Y004957D02*
X035873Y004957D01*
X035873Y004839D02*
X035713Y004839D01*
X035713Y004720D02*
X035873Y004720D01*
X035873Y004602D02*
X035713Y004602D01*
X035713Y004483D02*
X035873Y004483D01*
X035873Y004365D02*
X035713Y004365D01*
X035713Y004246D02*
X035873Y004246D01*
X035908Y004128D02*
X035678Y004128D01*
X035600Y004009D02*
X035986Y004009D01*
X036174Y003891D02*
X035412Y003891D01*
X032960Y007564D02*
X026920Y007564D01*
X024990Y010053D02*
X024752Y010053D01*
X024752Y010171D02*
X024990Y010171D01*
X026350Y012684D02*
X037000Y012684D01*
X031277Y014793D02*
X031136Y014793D01*
X030424Y014793D02*
X028993Y014793D01*
X029035Y014911D02*
X030424Y014911D01*
X030424Y015030D02*
X029035Y015030D01*
X029035Y015148D02*
X030424Y015148D01*
X030424Y015267D02*
X029035Y015267D01*
X029035Y015385D02*
X030452Y015385D01*
X031108Y015385D02*
X031265Y015385D01*
X031314Y015504D02*
X028977Y015504D01*
X029035Y015622D02*
X029104Y015622D01*
X029816Y015622D02*
X031265Y015622D01*
X031265Y015741D02*
X029816Y015741D01*
X029816Y015859D02*
X031265Y015859D01*
X031265Y015978D02*
X029816Y015978D01*
X029816Y016096D02*
X031265Y016096D01*
X031316Y016215D02*
X029785Y016215D01*
X029135Y016215D02*
X029014Y016215D01*
X027540Y015184D02*
X027420Y015304D01*
X027540Y015184D02*
X028576Y015184D01*
X028620Y015140D01*
X028205Y014911D02*
X026400Y014911D01*
X026382Y014793D02*
X028247Y014793D01*
X027440Y015030D02*
X026354Y015030D01*
X022246Y015030D02*
X022115Y015030D01*
X021856Y014163D02*
X021900Y014119D01*
X020290Y015978D02*
X019960Y015978D01*
X019960Y016096D02*
X020290Y016096D01*
X020290Y016215D02*
X019960Y016215D01*
X019960Y016333D02*
X020290Y016333D01*
X020290Y016452D02*
X019960Y016452D01*
X020046Y016570D02*
X020290Y016570D01*
X020248Y016689D02*
X020165Y016689D01*
X014688Y020125D02*
X014621Y020125D01*
X014740Y020244D02*
X014767Y020244D01*
X015582Y021429D02*
X001881Y021429D01*
X001930Y021547D02*
X015490Y021547D01*
X015490Y021666D02*
X001937Y021666D01*
X001937Y021784D02*
X015490Y021784D01*
X015490Y021903D02*
X001927Y021903D01*
X001878Y022021D02*
X015584Y022021D01*
X010365Y021310D02*
X009772Y021310D01*
X009846Y021279D02*
X009666Y021354D01*
X009471Y021354D01*
X009291Y021279D01*
X009153Y021142D01*
X009079Y020961D01*
X009079Y020767D01*
X009153Y020586D01*
X009291Y020449D01*
X009471Y020374D01*
X009666Y020374D01*
X009846Y020449D01*
X009984Y020586D01*
X010059Y020767D01*
X010059Y020961D01*
X009984Y021142D01*
X009846Y021279D01*
X009934Y021192D02*
X010203Y021192D01*
X010125Y021073D02*
X010013Y021073D01*
X010059Y020955D02*
X010079Y020955D01*
X010079Y020836D02*
X010059Y020836D01*
X010039Y020718D02*
X010099Y020718D01*
X010148Y020599D02*
X009990Y020599D01*
X009878Y020481D02*
X010259Y020481D01*
X009259Y020481D02*
X008878Y020481D01*
X008846Y020449D02*
X008984Y020586D01*
X009059Y020767D01*
X009059Y020961D01*
X008984Y021142D01*
X008846Y021279D01*
X008666Y021354D01*
X008471Y021354D01*
X008291Y021279D01*
X008153Y021142D01*
X008079Y020961D01*
X008079Y020767D01*
X008153Y020586D01*
X008291Y020449D01*
X008471Y020374D01*
X008666Y020374D01*
X008846Y020449D01*
X008990Y020599D02*
X009148Y020599D01*
X009099Y020718D02*
X009039Y020718D01*
X009059Y020836D02*
X009079Y020836D01*
X009079Y020955D02*
X009059Y020955D01*
X009013Y021073D02*
X009125Y021073D01*
X009203Y021192D02*
X008934Y021192D01*
X008772Y021310D02*
X009365Y021310D01*
X008365Y021310D02*
X007772Y021310D01*
X007846Y021279D02*
X007666Y021354D01*
X007471Y021354D01*
X007291Y021279D01*
X007153Y021142D01*
X007079Y020961D01*
X007079Y020767D01*
X007153Y020586D01*
X007291Y020449D01*
X007471Y020374D01*
X007666Y020374D01*
X007846Y020449D01*
X007984Y020586D01*
X008059Y020767D01*
X008059Y020961D01*
X007984Y021142D01*
X007846Y021279D01*
X007934Y021192D02*
X008203Y021192D01*
X008125Y021073D02*
X008013Y021073D01*
X008059Y020955D02*
X008079Y020955D01*
X008079Y020836D02*
X008059Y020836D01*
X008039Y020718D02*
X008099Y020718D01*
X008148Y020599D02*
X007990Y020599D01*
X007878Y020481D02*
X008259Y020481D01*
X007259Y020481D02*
X006878Y020481D01*
X006846Y020449D02*
X006984Y020586D01*
X007059Y020767D01*
X007059Y020961D01*
X006984Y021142D01*
X006846Y021279D01*
X006666Y021354D01*
X006471Y021354D01*
X006291Y021279D01*
X006153Y021142D01*
X006079Y020961D01*
X006079Y020767D01*
X006153Y020586D01*
X006291Y020449D01*
X006471Y020374D01*
X006666Y020374D01*
X006846Y020449D01*
X006990Y020599D02*
X007148Y020599D01*
X007099Y020718D02*
X007039Y020718D01*
X007059Y020836D02*
X007079Y020836D01*
X007079Y020955D02*
X007059Y020955D01*
X007013Y021073D02*
X007125Y021073D01*
X007203Y021192D02*
X006934Y021192D01*
X006772Y021310D02*
X007365Y021310D01*
X006365Y021310D02*
X001832Y021310D01*
X001734Y021192D02*
X006203Y021192D01*
X006125Y021073D02*
X001616Y021073D01*
X001360Y020955D02*
X006079Y020955D01*
X006079Y020836D02*
X000520Y020836D01*
X000520Y020718D02*
X006099Y020718D01*
X006148Y020599D02*
X000520Y020599D01*
X000520Y020481D02*
X006259Y020481D01*
X000935Y020955D02*
X000520Y020955D01*
X000520Y021073D02*
X000679Y021073D01*
X000560Y021192D02*
X000520Y021192D01*
X000520Y018466D02*
X011309Y018466D01*
X011183Y018348D02*
X000520Y018348D01*
X000520Y018229D02*
X011160Y018229D01*
X011196Y018111D02*
X000520Y018111D01*
X000520Y017992D02*
X011220Y017992D01*
X011220Y017874D02*
X000520Y017874D01*
X000520Y015622D02*
X006764Y015622D01*
X006738Y015611D02*
X006613Y015486D01*
X006545Y015323D01*
X006545Y015145D01*
X006613Y014982D01*
X006738Y014857D01*
X006901Y014789D01*
X007079Y014789D01*
X007242Y014857D01*
X007367Y014982D01*
X007435Y015145D01*
X007435Y015323D01*
X007367Y015486D01*
X007242Y015611D01*
X007079Y015679D01*
X006901Y015679D01*
X006738Y015611D01*
X006630Y015504D02*
X000520Y015504D01*
X000520Y015385D02*
X006571Y015385D01*
X006545Y015267D02*
X000520Y015267D01*
X000520Y015148D02*
X006545Y015148D01*
X006593Y015030D02*
X000520Y015030D01*
X000520Y014911D02*
X006684Y014911D01*
X006893Y014793D02*
X000520Y014793D01*
X007087Y014793D02*
X008893Y014793D01*
X008684Y014911D02*
X007296Y014911D01*
X007387Y015030D02*
X008593Y015030D01*
X008545Y015148D02*
X007435Y015148D01*
X007435Y015267D02*
X008545Y015267D01*
X008571Y015385D02*
X007409Y015385D01*
X007350Y015504D02*
X008630Y015504D01*
X008764Y015622D02*
X007216Y015622D01*
X012511Y018466D02*
X012749Y018466D01*
X031680Y016504D02*
X031680Y015858D01*
X035271Y017044D02*
X038115Y017044D01*
X037916Y017163D02*
X035470Y017163D01*
X035588Y017281D02*
X037797Y017281D01*
X037746Y017400D02*
X035639Y017400D01*
X035688Y017518D02*
X037697Y017518D01*
X037695Y017637D02*
X035691Y017637D01*
X035691Y017755D02*
X037695Y017755D01*
X037695Y017874D02*
X035691Y017874D01*
X035691Y017992D02*
X037695Y017992D01*
X037695Y018111D02*
X035691Y018111D01*
X035691Y018229D02*
X037695Y018229D01*
X037695Y018348D02*
X035691Y018348D01*
X035691Y018466D02*
X037695Y018466D01*
X037695Y018585D02*
X035691Y018585D01*
X035691Y018703D02*
X037695Y018703D01*
X037695Y018822D02*
X035691Y018822D01*
X035652Y018940D02*
X037734Y018940D01*
X037783Y019059D02*
X035603Y019059D01*
X035500Y019177D02*
X037886Y019177D01*
X038042Y019296D02*
X035343Y019296D01*
X038772Y020955D02*
X039570Y020955D01*
X039570Y021073D02*
X038890Y021073D01*
X038994Y021192D02*
X039570Y021192D01*
X039570Y021310D02*
X039043Y021310D01*
X039092Y021429D02*
X039570Y021429D01*
X039570Y021547D02*
X039097Y021547D01*
X039097Y021666D02*
X039570Y021666D01*
X039570Y021784D02*
X039078Y021784D01*
X039029Y021903D02*
X039570Y021903D01*
X039570Y022021D02*
X038977Y022021D01*
X038858Y022140D02*
X039568Y022140D01*
X039518Y022258D02*
X038696Y022258D01*
D20*
X036780Y021544D03*
X037140Y020944D03*
X036360Y020944D03*
X036000Y021544D03*
X035580Y020944D03*
X035220Y021544D03*
X035940Y020344D03*
X036720Y020344D03*
X037500Y020344D03*
X031680Y016504D03*
X031560Y014164D03*
X031560Y013564D03*
X031080Y010864D03*
X030660Y010864D03*
X030240Y010864D03*
X029820Y010864D03*
X032460Y009304D03*
X031980Y008824D03*
X032640Y008644D03*
X035640Y010924D03*
X036060Y010924D03*
X036480Y010924D03*
X036900Y010924D03*
X037620Y008944D03*
X037620Y008404D03*
X026640Y008584D03*
X025980Y008764D03*
X026460Y009244D03*
X024120Y010804D03*
X023760Y010804D03*
X023340Y010804D03*
X022980Y010804D03*
X025680Y011284D03*
X024660Y014104D03*
X026160Y014884D03*
X025440Y015544D03*
X025020Y016264D03*
X024720Y016564D03*
X022860Y017524D03*
X022560Y017764D03*
X020700Y018004D03*
X020520Y018424D03*
X020520Y018904D03*
X020700Y019504D03*
X021060Y019504D03*
X023040Y020164D03*
X022620Y020884D03*
X023460Y020884D03*
X021780Y020884D03*
X018960Y020044D03*
X018300Y020404D03*
X017580Y020404D03*
X017220Y021004D03*
X017940Y021004D03*
X018660Y021004D03*
X017340Y019384D03*
X017340Y018724D03*
X018120Y017824D03*
X018480Y017284D03*
X018840Y017644D03*
X018960Y018664D03*
X017460Y017524D03*
X017340Y016924D03*
X016980Y016864D03*
X015600Y016564D03*
X014700Y016084D03*
X013320Y016144D03*
X016080Y014284D03*
X017100Y014644D03*
X017340Y014344D03*
X017640Y014104D03*
X017400Y013084D03*
X018120Y013084D03*
X018480Y012964D03*
X017880Y010804D03*
X017460Y010804D03*
X017040Y010804D03*
X016620Y010804D03*
X019560Y009244D03*
X019080Y008764D03*
X019740Y008584D03*
X013260Y008644D03*
X012600Y008824D03*
X013080Y009304D03*
X010920Y010744D03*
X010560Y010744D03*
X010200Y010744D03*
X009840Y010744D03*
X007140Y009184D03*
X006660Y008704D03*
X007320Y008524D03*
X005940Y010684D03*
X005400Y010804D03*
X004980Y010804D03*
X004560Y010804D03*
X004140Y010804D03*
X005460Y012124D03*
X004980Y013084D03*
X005940Y013144D03*
X003120Y013144D03*
X002040Y013144D03*
X002160Y013924D03*
X001740Y014704D03*
X002880Y015964D03*
X002880Y016624D03*
X002160Y017224D03*
X002160Y018064D03*
X002880Y018544D03*
X002880Y019264D03*
X004560Y017344D03*
X005160Y016984D03*
X004560Y016624D03*
X011400Y018244D03*
X012420Y018244D03*
X012840Y018244D03*
X020460Y016804D03*
X020820Y016504D03*
X021180Y015964D03*
X022440Y014884D03*
X020700Y017464D03*
X027420Y020824D03*
X027720Y022084D03*
X028500Y022084D03*
X029280Y022084D03*
X030060Y022084D03*
X011820Y012664D03*
D21*
X011940Y012784D01*
X011940Y017344D01*
X012840Y018244D01*
X012420Y018244D02*
X011640Y017464D01*
X011640Y016324D01*
X010800Y015484D01*
X010800Y013384D01*
X009960Y012544D01*
X007800Y012544D01*
X005940Y010684D01*
X013320Y016144D02*
X013860Y016684D01*
X015360Y016684D01*
X015540Y016864D01*
X015540Y018304D01*
X014400Y019444D01*
X014400Y020144D01*
X014980Y020724D01*
X015480Y020224D02*
X015480Y019384D01*
X016020Y018844D01*
X016020Y016144D01*
X015900Y016024D01*
X015540Y016024D01*
X015480Y016084D01*
X014700Y016084D01*
X015600Y016564D02*
X015780Y016744D01*
X015780Y018724D01*
X014980Y019524D01*
X014980Y019724D01*
X015480Y020224D02*
X015980Y020724D01*
X015980Y019724D02*
X016260Y019444D01*
X016260Y014464D01*
X016080Y014284D01*
X017100Y014644D02*
X017100Y016744D01*
X016980Y016864D01*
X017340Y016924D02*
X017340Y014344D01*
X017640Y014104D02*
X017640Y017344D01*
X017460Y017524D01*
X017940Y017704D02*
X018120Y017824D01*
X017940Y017704D02*
X017940Y013624D01*
X017400Y013084D01*
X018120Y013084D02*
X018180Y013144D01*
X018180Y017404D01*
X018960Y018184D01*
X018960Y018664D01*
X018960Y020044D01*
X020520Y018904D02*
X018845Y017229D01*
X018845Y014163D01*
X019160Y014163D02*
X019160Y017064D01*
X020520Y018424D01*
X020700Y018004D02*
X019475Y016779D01*
X019475Y014163D01*
X019790Y014163D02*
X019790Y016554D01*
X020700Y017464D01*
X020460Y016804D02*
X020460Y015604D01*
X021541Y014523D01*
X021541Y014163D01*
X021840Y014179D02*
X021856Y014163D01*
X021840Y014179D02*
X021840Y014704D01*
X020820Y015724D01*
X020820Y016504D01*
X021180Y015964D02*
X021180Y015724D01*
X022171Y014733D01*
X022171Y014163D01*
X022486Y014163D02*
X022486Y014838D01*
X022440Y014884D01*
X024720Y014651D02*
X025208Y014163D01*
X025500Y014186D02*
X025523Y014163D01*
X025500Y014186D02*
X025500Y014524D01*
X025020Y015004D01*
X025020Y016264D01*
X024720Y016564D02*
X024720Y014651D01*
X024660Y014104D02*
X024660Y012304D01*
X025680Y011284D01*
X025838Y014163D02*
X025800Y014201D01*
X025800Y014704D01*
X025440Y015064D01*
X025440Y015544D01*
X026160Y014884D02*
X026160Y014170D01*
X026153Y014163D01*
X031560Y014164D02*
X031560Y013564D01*
X018480Y012964D02*
X018480Y017284D01*
X013320Y016204D02*
X013320Y016144D01*
D22*
X020100Y019624D03*
X019680Y020824D03*
X037620Y007564D03*
X033060Y007324D03*
X026820Y007324D03*
X020220Y007324D03*
X013440Y007324D03*
X007380Y007264D03*
X000780Y007264D03*
D23*
X007380Y007264D01*
X007440Y007324D01*
X013440Y007324D01*
X020220Y007324D01*
X026820Y007324D01*
X033060Y007324D01*
X033300Y007564D01*
X037620Y007564D01*
X022500Y014177D02*
X022486Y014163D01*
X022440Y014209D01*
X020100Y019624D02*
X019680Y020044D01*
X019680Y020824D01*
D24*
X013860Y011644D02*
X012551Y010335D01*
X011040Y010335D01*
D25*
X028620Y015888D02*
X029451Y015888D01*
X029460Y015897D01*
X030780Y015071D02*
X031641Y015071D01*
X031680Y015110D01*
M02*
