G75*
%MOIN*%
%OFA0B0*%
%FSLAX24Y24*%
%IPPOS*%
%LPD*%
%AMOC8*
5,1,8,0,0,1.08239X$1,22.5*
%
%ADD10C,0.0000*%
%ADD11C,0.1300*%
%ADD12R,0.0276X0.0906*%
%ADD13R,0.0540X0.0619*%
%ADD14R,0.0512X0.0512*%
%ADD15R,0.0631X0.0552*%
%ADD16C,0.0640*%
%ADD17R,0.0552X0.0631*%
%ADD18R,0.0552X0.0670*%
%ADD19R,0.0540X0.0260*%
%ADD20R,0.0260X0.0540*%
%ADD21C,0.0690*%
%ADD22OC8,0.0780*%
%ADD23R,0.0512X0.1300*%
%ADD24C,0.0780*%
%ADD25R,0.0670X0.0552*%
%ADD26R,0.0434X0.0670*%
%ADD27R,0.2166X0.2481*%
%ADD28C,0.1221*%
%ADD29C,0.1103*%
%ADD30R,0.0619X0.0540*%
%ADD31R,0.0512X0.0276*%
%ADD32R,0.0749X0.0434*%
D10*
X000754Y002824D02*
X039336Y002824D01*
X039375Y002826D01*
X039413Y002832D01*
X039450Y002841D01*
X039487Y002854D01*
X039522Y002871D01*
X039555Y002890D01*
X039586Y002913D01*
X039615Y002939D01*
X039641Y002968D01*
X039664Y002999D01*
X039683Y003032D01*
X039700Y003067D01*
X039713Y003104D01*
X039722Y003141D01*
X039728Y003179D01*
X039730Y003218D01*
X039730Y022115D01*
X039728Y022154D01*
X039722Y022192D01*
X039713Y022229D01*
X039700Y022266D01*
X039683Y022301D01*
X039664Y022334D01*
X039641Y022365D01*
X039615Y022394D01*
X039586Y022420D01*
X039555Y022443D01*
X039522Y022462D01*
X039487Y022479D01*
X039450Y022492D01*
X039413Y022501D01*
X039375Y022507D01*
X039336Y022509D01*
X000754Y022509D01*
X000715Y022507D01*
X000677Y022501D01*
X000640Y022492D01*
X000603Y022479D01*
X000568Y022462D01*
X000535Y022443D01*
X000504Y022420D01*
X000475Y022394D01*
X000449Y022365D01*
X000426Y022334D01*
X000407Y022301D01*
X000390Y022266D01*
X000377Y022229D01*
X000368Y022192D01*
X000362Y022154D01*
X000360Y022115D01*
X000360Y003218D01*
X000362Y003179D01*
X000368Y003141D01*
X000377Y003104D01*
X000390Y003067D01*
X000407Y003032D01*
X000426Y002999D01*
X000449Y002968D01*
X000475Y002939D01*
X000504Y002913D01*
X000535Y002890D01*
X000568Y002871D01*
X000603Y002854D01*
X000640Y002841D01*
X000677Y002832D01*
X000715Y002826D01*
X000754Y002824D01*
X000517Y003611D02*
X000519Y003661D01*
X000525Y003711D01*
X000535Y003760D01*
X000549Y003808D01*
X000566Y003855D01*
X000587Y003900D01*
X000612Y003944D01*
X000640Y003985D01*
X000672Y004024D01*
X000706Y004061D01*
X000743Y004095D01*
X000783Y004125D01*
X000825Y004152D01*
X000869Y004176D01*
X000915Y004197D01*
X000962Y004213D01*
X001010Y004226D01*
X001060Y004235D01*
X001109Y004240D01*
X001160Y004241D01*
X001210Y004238D01*
X001259Y004231D01*
X001308Y004220D01*
X001356Y004205D01*
X001402Y004187D01*
X001447Y004165D01*
X001490Y004139D01*
X001531Y004110D01*
X001570Y004078D01*
X001606Y004043D01*
X001638Y004005D01*
X001668Y003965D01*
X001695Y003922D01*
X001718Y003878D01*
X001737Y003832D01*
X001753Y003784D01*
X001765Y003735D01*
X001773Y003686D01*
X001777Y003636D01*
X001777Y003586D01*
X001773Y003536D01*
X001765Y003487D01*
X001753Y003438D01*
X001737Y003390D01*
X001718Y003344D01*
X001695Y003300D01*
X001668Y003257D01*
X001638Y003217D01*
X001606Y003179D01*
X001570Y003144D01*
X001531Y003112D01*
X001490Y003083D01*
X001447Y003057D01*
X001402Y003035D01*
X001356Y003017D01*
X001308Y003002D01*
X001259Y002991D01*
X001210Y002984D01*
X001160Y002981D01*
X001109Y002982D01*
X001060Y002987D01*
X001010Y002996D01*
X000962Y003009D01*
X000915Y003025D01*
X000869Y003046D01*
X000825Y003070D01*
X000783Y003097D01*
X000743Y003127D01*
X000706Y003161D01*
X000672Y003198D01*
X000640Y003237D01*
X000612Y003278D01*
X000587Y003322D01*
X000566Y003367D01*
X000549Y003414D01*
X000535Y003462D01*
X000525Y003511D01*
X000519Y003561D01*
X000517Y003611D01*
X000517Y021722D02*
X000519Y021772D01*
X000525Y021822D01*
X000535Y021871D01*
X000549Y021919D01*
X000566Y021966D01*
X000587Y022011D01*
X000612Y022055D01*
X000640Y022096D01*
X000672Y022135D01*
X000706Y022172D01*
X000743Y022206D01*
X000783Y022236D01*
X000825Y022263D01*
X000869Y022287D01*
X000915Y022308D01*
X000962Y022324D01*
X001010Y022337D01*
X001060Y022346D01*
X001109Y022351D01*
X001160Y022352D01*
X001210Y022349D01*
X001259Y022342D01*
X001308Y022331D01*
X001356Y022316D01*
X001402Y022298D01*
X001447Y022276D01*
X001490Y022250D01*
X001531Y022221D01*
X001570Y022189D01*
X001606Y022154D01*
X001638Y022116D01*
X001668Y022076D01*
X001695Y022033D01*
X001718Y021989D01*
X001737Y021943D01*
X001753Y021895D01*
X001765Y021846D01*
X001773Y021797D01*
X001777Y021747D01*
X001777Y021697D01*
X001773Y021647D01*
X001765Y021598D01*
X001753Y021549D01*
X001737Y021501D01*
X001718Y021455D01*
X001695Y021411D01*
X001668Y021368D01*
X001638Y021328D01*
X001606Y021290D01*
X001570Y021255D01*
X001531Y021223D01*
X001490Y021194D01*
X001447Y021168D01*
X001402Y021146D01*
X001356Y021128D01*
X001308Y021113D01*
X001259Y021102D01*
X001210Y021095D01*
X001160Y021092D01*
X001109Y021093D01*
X001060Y021098D01*
X001010Y021107D01*
X000962Y021120D01*
X000915Y021136D01*
X000869Y021157D01*
X000825Y021181D01*
X000783Y021208D01*
X000743Y021238D01*
X000706Y021272D01*
X000672Y021309D01*
X000640Y021348D01*
X000612Y021389D01*
X000587Y021433D01*
X000566Y021478D01*
X000549Y021525D01*
X000535Y021573D01*
X000525Y021622D01*
X000519Y021672D01*
X000517Y021722D01*
X032795Y021590D02*
X032797Y021638D01*
X032803Y021686D01*
X032813Y021733D01*
X032826Y021779D01*
X032844Y021824D01*
X032864Y021868D01*
X032889Y021910D01*
X032917Y021949D01*
X032947Y021986D01*
X032981Y022020D01*
X033018Y022052D01*
X033056Y022081D01*
X033097Y022106D01*
X033140Y022128D01*
X033185Y022146D01*
X033231Y022160D01*
X033278Y022171D01*
X033326Y022178D01*
X033374Y022181D01*
X033422Y022180D01*
X033470Y022175D01*
X033518Y022166D01*
X033564Y022154D01*
X033609Y022137D01*
X033653Y022117D01*
X033695Y022094D01*
X033735Y022067D01*
X033773Y022037D01*
X033808Y022004D01*
X033840Y021968D01*
X033870Y021930D01*
X033896Y021889D01*
X033918Y021846D01*
X033938Y021802D01*
X033953Y021757D01*
X033965Y021710D01*
X033973Y021662D01*
X033977Y021614D01*
X033977Y021566D01*
X033973Y021518D01*
X033965Y021470D01*
X033953Y021423D01*
X033938Y021378D01*
X033918Y021334D01*
X033896Y021291D01*
X033870Y021250D01*
X033840Y021212D01*
X033808Y021176D01*
X033773Y021143D01*
X033735Y021113D01*
X033695Y021086D01*
X033653Y021063D01*
X033609Y021043D01*
X033564Y021026D01*
X033518Y021014D01*
X033470Y021005D01*
X033422Y021000D01*
X033374Y020999D01*
X033326Y021002D01*
X033278Y021009D01*
X033231Y021020D01*
X033185Y021034D01*
X033140Y021052D01*
X033097Y021074D01*
X033056Y021099D01*
X033018Y021128D01*
X032981Y021160D01*
X032947Y021194D01*
X032917Y021231D01*
X032889Y021270D01*
X032864Y021312D01*
X032844Y021356D01*
X032826Y021401D01*
X032813Y021447D01*
X032803Y021494D01*
X032797Y021542D01*
X032795Y021590D01*
X037755Y021590D02*
X037757Y021638D01*
X037763Y021686D01*
X037773Y021733D01*
X037786Y021779D01*
X037804Y021824D01*
X037824Y021868D01*
X037849Y021910D01*
X037877Y021949D01*
X037907Y021986D01*
X037941Y022020D01*
X037978Y022052D01*
X038016Y022081D01*
X038057Y022106D01*
X038100Y022128D01*
X038145Y022146D01*
X038191Y022160D01*
X038238Y022171D01*
X038286Y022178D01*
X038334Y022181D01*
X038382Y022180D01*
X038430Y022175D01*
X038478Y022166D01*
X038524Y022154D01*
X038569Y022137D01*
X038613Y022117D01*
X038655Y022094D01*
X038695Y022067D01*
X038733Y022037D01*
X038768Y022004D01*
X038800Y021968D01*
X038830Y021930D01*
X038856Y021889D01*
X038878Y021846D01*
X038898Y021802D01*
X038913Y021757D01*
X038925Y021710D01*
X038933Y021662D01*
X038937Y021614D01*
X038937Y021566D01*
X038933Y021518D01*
X038925Y021470D01*
X038913Y021423D01*
X038898Y021378D01*
X038878Y021334D01*
X038856Y021291D01*
X038830Y021250D01*
X038800Y021212D01*
X038768Y021176D01*
X038733Y021143D01*
X038695Y021113D01*
X038655Y021086D01*
X038613Y021063D01*
X038569Y021043D01*
X038524Y021026D01*
X038478Y021014D01*
X038430Y021005D01*
X038382Y021000D01*
X038334Y020999D01*
X038286Y021002D01*
X038238Y021009D01*
X038191Y021020D01*
X038145Y021034D01*
X038100Y021052D01*
X038057Y021074D01*
X038016Y021099D01*
X037978Y021128D01*
X037941Y021160D01*
X037907Y021194D01*
X037877Y021231D01*
X037849Y021270D01*
X037824Y021312D01*
X037804Y021356D01*
X037786Y021401D01*
X037773Y021447D01*
X037763Y021494D01*
X037757Y021542D01*
X037755Y021590D01*
D11*
X001147Y021722D03*
X001147Y003611D03*
D12*
X003573Y008054D03*
X004073Y008054D03*
X004573Y008054D03*
X005073Y008054D03*
X005073Y010101D03*
X004573Y010101D03*
X004073Y010101D03*
X003573Y010101D03*
X009450Y010101D03*
X009950Y010101D03*
X010450Y010101D03*
X010950Y010101D03*
X010950Y008054D03*
X010450Y008054D03*
X009950Y008054D03*
X009450Y008054D03*
X016140Y008054D03*
X016640Y008054D03*
X017140Y008054D03*
X017640Y008054D03*
X017640Y010101D03*
X017140Y010101D03*
X016640Y010101D03*
X016140Y010101D03*
X022650Y010101D03*
X023150Y010101D03*
X023650Y010101D03*
X024150Y010101D03*
X024150Y008054D03*
X023650Y008054D03*
X023150Y008054D03*
X022650Y008054D03*
X029430Y008174D03*
X029930Y008174D03*
X030430Y008174D03*
X030930Y008174D03*
X030930Y010221D03*
X030430Y010221D03*
X029930Y010221D03*
X029430Y010221D03*
X035250Y010221D03*
X035750Y010221D03*
X036250Y010221D03*
X036750Y010221D03*
X036750Y008174D03*
X036250Y008174D03*
X035750Y008174D03*
X035250Y008174D03*
D13*
X035399Y006248D03*
X033706Y006248D03*
X029879Y006248D03*
X028186Y006248D03*
X023459Y006248D03*
X021766Y006248D03*
X016899Y006248D03*
X015206Y006248D03*
X010306Y006248D03*
X008614Y006248D03*
X004412Y006248D03*
X002719Y006248D03*
D14*
X002450Y009114D03*
X002450Y009941D03*
X008240Y009901D03*
X008240Y009074D03*
X014740Y009294D03*
X014740Y010121D03*
X021440Y010054D03*
X021440Y009227D03*
X028270Y009314D03*
X028270Y010141D03*
X034060Y010174D03*
X034060Y009347D03*
D15*
X034060Y008532D03*
X034060Y007784D03*
X028280Y007724D03*
X028280Y008472D03*
X023850Y011394D03*
X022890Y011404D03*
X022890Y012152D03*
X023850Y012142D03*
X029660Y012264D03*
X030680Y012262D03*
X030680Y011514D03*
X029660Y011516D03*
X035410Y011524D03*
X035410Y012272D03*
X036550Y012262D03*
X036550Y011514D03*
X021450Y008352D03*
X021450Y007604D03*
X017440Y011444D03*
X016330Y011464D03*
X017440Y012192D03*
X016330Y012212D03*
X010760Y012092D03*
X010760Y011344D03*
X009680Y011334D03*
X009680Y012082D03*
X004850Y012132D03*
X004850Y011384D03*
X003820Y011384D03*
X003820Y012132D03*
X008240Y008232D03*
X008240Y007484D03*
X002430Y007444D03*
X002430Y008192D03*
X014730Y008412D03*
X014730Y007664D03*
X004660Y018680D03*
X004660Y019428D03*
D16*
X004397Y004896D02*
X004397Y004296D01*
X005397Y004296D02*
X005397Y004896D01*
X006397Y004896D02*
X006397Y004296D01*
X009243Y004296D02*
X009243Y004896D01*
X010243Y004896D02*
X010243Y004296D01*
X011243Y004296D02*
X011243Y004896D01*
X012243Y004896D02*
X012243Y004296D01*
X015695Y004296D02*
X015695Y004896D01*
X016695Y004896D02*
X016695Y004296D01*
X017695Y004296D02*
X017695Y004896D01*
X018695Y004896D02*
X018695Y004296D01*
X022422Y004296D02*
X022422Y004896D01*
X023422Y004896D02*
X023422Y004296D01*
X024422Y004296D02*
X024422Y004896D01*
X025422Y004896D02*
X025422Y004296D01*
X028781Y004296D02*
X028781Y004896D01*
X029781Y004896D02*
X029781Y004296D01*
X030781Y004296D02*
X030781Y004896D01*
X031781Y004896D02*
X031781Y004296D01*
X034293Y004296D02*
X034293Y004896D01*
X035293Y004896D02*
X035293Y004296D01*
X036293Y004296D02*
X036293Y004896D01*
X037293Y004896D02*
X037293Y004296D01*
X003397Y004296D02*
X003397Y004896D01*
D17*
X005906Y007318D03*
X006654Y007318D03*
X011906Y007338D03*
X012654Y007338D03*
X018736Y007338D03*
X019484Y007338D03*
X025266Y007338D03*
X026014Y007338D03*
X031706Y007328D03*
X032454Y007328D03*
X036866Y006994D03*
X037614Y006994D03*
D18*
X037644Y006084D03*
X036856Y006084D03*
X032514Y006318D03*
X031726Y006318D03*
X026024Y006338D03*
X025236Y006338D03*
X019504Y006388D03*
X018716Y006388D03*
X012664Y006378D03*
X011876Y006378D03*
X006654Y006318D03*
X005866Y006318D03*
X006686Y013764D03*
X007474Y013764D03*
X008336Y013774D03*
X009124Y013774D03*
X009036Y017054D03*
X009824Y017054D03*
X009824Y017834D03*
X009036Y017834D03*
X015266Y017044D03*
X016054Y017044D03*
X016044Y016084D03*
X015256Y016084D03*
X020196Y020854D03*
X020984Y020854D03*
X024046Y020234D03*
X024834Y020234D03*
D19*
X014230Y018306D03*
X014230Y017991D03*
X014230Y017676D03*
X014230Y017361D03*
X014230Y017047D03*
X014230Y016732D03*
X014230Y016417D03*
X014230Y016102D03*
X010850Y016102D03*
X010850Y016417D03*
X010850Y016732D03*
X010850Y017047D03*
X010850Y017361D03*
X010850Y017676D03*
X010850Y017991D03*
X010850Y018306D03*
D20*
X011438Y018894D03*
X011753Y018894D03*
X012068Y018894D03*
X012383Y018894D03*
X012697Y018894D03*
X013012Y018894D03*
X013327Y018894D03*
X013642Y018894D03*
X013642Y015514D03*
X013327Y015514D03*
X013012Y015514D03*
X012697Y015514D03*
X012383Y015514D03*
X012068Y015514D03*
X011753Y015514D03*
X011438Y015514D03*
D21*
X008990Y015234D03*
X006990Y015234D03*
D22*
X014980Y019724D03*
X015980Y019724D03*
X015980Y020724D03*
X014980Y020724D03*
X014980Y021724D03*
X015980Y021724D03*
D23*
X003707Y018943D03*
X002133Y018943D03*
X002133Y016265D03*
X003707Y016265D03*
D24*
X006569Y020864D03*
X007569Y020864D03*
X008569Y020864D03*
X009569Y020864D03*
X010569Y020864D03*
X011569Y020864D03*
D25*
X006560Y019418D03*
X006560Y018630D03*
X005640Y018638D03*
X005640Y017850D03*
X018170Y018320D03*
X018170Y019108D03*
X026790Y021170D03*
X026790Y021958D03*
X030990Y021968D03*
X030990Y021180D03*
D26*
X029798Y021174D03*
X028002Y021174D03*
D27*
X028900Y018300D03*
D28*
X033386Y021590D03*
X038346Y021590D03*
D29*
X038346Y018716D02*
X038346Y017653D01*
X036693Y017653D02*
X036693Y018716D01*
X035039Y018716D02*
X035039Y017653D01*
X033386Y017653D02*
X033386Y018716D01*
D30*
X031030Y019480D03*
X031030Y017788D03*
D31*
X025633Y017996D03*
X025633Y017496D03*
X025633Y016996D03*
X025633Y016496D03*
X025633Y015996D03*
X023428Y015996D03*
X023428Y016496D03*
X023428Y016996D03*
X023428Y017496D03*
X023428Y017996D03*
X023428Y018496D03*
X023428Y018996D03*
X023428Y019496D03*
X021716Y019529D03*
X021716Y019029D03*
X021716Y018529D03*
X021716Y018029D03*
X021716Y017529D03*
X021716Y017029D03*
X021716Y016529D03*
X021716Y016029D03*
X019511Y016029D03*
X019511Y016529D03*
X019511Y017029D03*
X019511Y017529D03*
X019511Y018029D03*
X019511Y018529D03*
X019511Y019029D03*
X019511Y019529D03*
X025633Y019496D03*
X025633Y018996D03*
X025633Y018496D03*
D32*
X038760Y016075D03*
X038760Y014773D03*
M02*
